/* XPM */
static char *bx2[] = {
/* width height num_colors chars_per_pixel */
"    48    48      253            2",
/* colors */
".. c #040d27",
".# c #1c868c",
".a c #8cb4e8",
".b c #0b4c61",
".c c #4bc8c6",
".d c #5489a4",
".e c #345e74",
".f c #042b2e",
".g c #56a6c4",
".h c #1c6b86",
".i c #062d6c",
".j c #8edcf4",
".k c #74a6b4",
".l c #224c91",
".m c #347498",
".n c #62e6d8",
".o c #c4e0fc",
".p c #4ca7bc",
".q c #71c7e3",
".r c #5488df",
".s c #041252",
".t c #418d99",
".u c #135c75",
".v c #093d4b",
".w c #94f0e4",
".x c #0a3b6c",
".y c #4c72ac",
".z c #78b8cc",
".A c #58b8c8",
".B c #4298b9",
".C c #051c2f",
".D c #4475c0",
".E c #5b99d8",
".F c #1d3d69",
".G c #1e4a6b",
".H c #127b87",
".I c #3561a9",
".J c #142c48",
".K c #2a5c90",
".L c #6ed8df",
".M c #388098",
".N c #7ab8f2",
".O c #58d7d2",
".P c #acdcfc",
".Q c #4c8ac9",
".R c #90cafc",
".S c #afeffc",
".T c #082c53",
".U c #69a8e0",
".V c #5898b4",
".W c #1f4b78",
".X c #052331",
".Y c #296c92",
".Z c #78c0ef",
".0 c #74a9e5",
".1 c #4288b5",
".2 c #8ffdea",
".3 c #61a0d8",
".4 c #94e6dc",
".5 c #7fc8ea",
".6 c #183b5c",
".7 c #104384",
".8 c #64b8da",
".9 c #1c4181",
"#. c #386ca7",
"## c #2c5ca6",
"#a c #a4c9f4",
"#b c #22537f",
"#c c #040e3a",
"#d c #06214f",
"#e c #245b83",
"#f c #5fc7d1",
"#g c #376799",
"#h c #205390",
"#i c #74ead4",
"#j c #0b4468",
"#k c #408fb4",
"#l c #3874aa",
"#m c #c7f4fc",
"#n c #47a0b0",
"#o c #7cd6d4",
"#p c #093353",
"#q c #25758a",
"#r c #76b0e8",
"#s c #277d96",
"#t c #62b0de",
"#u c #144d64",
"#v c #9fdcf9",
"#w c #084444",
"#x c #3780aa",
"#y c #41b9bf",
"#z c #1e446e",
"#A c #296494",
"#B c #8ed3e6",
"#C c #7af8e4",
"#D c #84b1e1",
"#E c #466eb0",
"#F c #4478b2",
"#G c #3093a8",
"#H c #153666",
"#I c #1b6481",
"#J c #73a2cc",
"#K c #14263c",
"#L c #65bfd9",
"#M c #e8fefc",
"#N c #5789c7",
"#O c #6fa0f5",
"#P c #84b8f1",
"#Q c #59e0d2",
"#R c #07243f",
"#S c #51d1cc",
"#T c #063344",
"#U c #4d81bb",
"#V c #061c3d",
"#W c #6498d4",
"#X c #84c0f8",
"#Y c #4c89b4",
"#Z c #9ffbf9",
"#0 c #81d1ef",
"#1 c #77aff8",
"#2 c #4482b1",
"#3 c #041528",
"#4 c #68a8cc",
"#5 c #0a3568",
"#6 c #90e2f8",
"#7 c #a1f4fc",
"#8 c #4481c3",
"#9 c #153558",
"a. c #3389a6",
"a# c #8ec0f7",
"aa c #d9fdfc",
"ab c #b1e8fb",
"ac c #5790d9",
"ad c #04216f",
"ae c #a6d5fa",
"af c #76c0e3",
"ag c #4e80d4",
"ah c #0c767c",
"ai c #74b2d4",
"aj c #58a0c0",
"ak c #c9edfc",
"al c #355c8f",
"am c #83d8f4",
"an c #45c0c3",
"ao c #041853",
"ap c #4c8fc5",
"aq c #aef8fc",
"ar c #a4e6fc",
"as c #6492dc",
"at c #9cc6f0",
"au c #84eedc",
"av c #54b1c1",
"aw c #6fd0e0",
"ax c #59c0ca",
"ay c #61d2d2",
"az c #396cc2",
"aA c #5490b0",
"aB c #14264c",
"aC c #446c9c",
"aD c #84fde7",
"aE c #6ea1dd",
"aF c #2863a7",
"aG c #64b2cc",
"aH c #1c5c7e",
"aI c #2c5596",
"aJ c #9cd3f9",
"aK c #6ceedc",
"aL c #1c7d8c",
"aM c #48b1c0",
"aN c #266383",
"aO c #5691ca",
"aP c #bce2fc",
"aQ c #144f75",
"aR c #14435c",
"aS c #04133c",
"aT c #cbfefc",
"aU c #54c9ce",
"aV c #77a8d2",
"aW c #143c69",
"aX c #4c97bd",
"aY c #5c96ef",
"aZ c #44829c",
"a0 c #64d9dc",
"a1 c #5698cb",
"a2 c #2c4e79",
"a3 c #9ae7fb",
"a4 c #81c7f9",
"a5 c #2c5281",
"a6 c #14436a",
"a7 c #4c90b8",
"a8 c #4aa1c1",
"a9 c #6cb1e5",
"b. c #094357",
"b# c #2c466c",
"ba c #6cc0e6",
"bb c #64e1d7",
"bc c #0c3684",
"bd c #5c92f4",
"be c #5c82cc",
"bf c #1c758c",
"bg c #91f6fc",
"bh c #427ac4",
"bi c #3866ab",
"bj c #6fdee4",
"bk c #74f2dc",
"bl c #29829a",
"bm c #4cbac4",
"bn c #9cc2f4",
"bo c #bceafc",
"bp c #4c76cc",
"bq c #bcf2fc",
"br c #84b2f7",
"bs c #6497ed",
"bt c #447edc",
"bu c #041868",
"bv c #4c8fe1",
"bw c #bcf7fc",
"bx c #a4cefc",
"by c #9ccefc",
"bz c #248e9c",
"bA c #0a5269",
"bB c #3c92a0",
"bC c #1c526c",
"bD c #1e467e",
"bE c #072651",
"bF c #366e9c",
"bG c #397aaa",
"bH c #a2e2f6",
"bI c #7afee3",
"bJ c #7ca2c4",
"bK c #348ea9",
"bL c #386292",
"bM c #84def4",
"bN c #f4fefc",
"bO c #072c40",
"bP c #204d9e",
"bQ c #0a3c59",
"bR c #93f0f5",
"bS c #74b8e0",
"bT c #5cbadc",
"bU c #3c72d4",
"bV c #6ca8f0",
"bW c #90fdf7",
"bX c #60a1ea",
"bY c #6ab9e6",
"bZ c #287598",
"b0 c #91d3f9",
"b1 c #5cb1d4",
"b2 c #5cc2d8",
"b3 c #64d1de",
"b4 c #84dedc",
"b5 c #347a9c",
"b6 c #b1e2fc",
/* pixels */
"by#X.3#8#l#.#..K#b.W#z#z#p.6#9#z.6.F.F#9#z#5.6.F.F#z#9#9#9#9#9#9#9.6#9#9.T#zaW.W#b#b.W###e.K.Y#A",
"by.0aO#U.ybF#gal#b#z.F#p.6.F#9.6.6.T#p.F#p#z#zaW#9#p#9.T.T.T.T.F.T#9#9aW#9#5#z#z.W#b.K#b#h.KbL.Y",
".yaI#z.F.F#H.6#zbD.WaW.i.T#z.C#V#9aWaW#paW.F#5.F.x.xaW#9#p#5.T#5#5.F.T#p#5a6aQa6.x.T#j.KaF.KaHbF",
"#5aSaS#caS#c#caS#H.Fa2a5a5.GaSaSa2bL#hala2.T#Ral.y#gbL.K.KalalalalbLbLbLbF#.#l#U#5.TaWa1aEaH#.bF",
".TaoaW#5#H.TaS.....T.F#5#zal#9.Fa5#baIbi.F#c#ca2bL#E#l#g#AbFbi#.#gaCbL.y#FbF#l#UaW.T#h.UaE.KaF#g",
".FbEbibia5al#9....#V.FaW.7.FaS#c.9.laFalao#c#c.s.ibh.D.D#l#E.IbDbE#caS#pbF#8bh#U.x.T#h#.#j.Ta6#e",
".F.T#.a2.lb#aB....#VbE#HaW.F#cao.7##bi.I.s.s#cao.7bh.rbh#8az#5.sbuao.s.x.D#8#8.Q#h.i#haF#j#d#d#z",
".lbcal.iaS#c......#d.FaW.9bD#c.saI.Iazag.I.s.sbe#O#1#1#1#1.DadbubDaz#Wac.E.Qbvbv#h#5aFa9a9.K.T#T",
"##.K#E.s#c......#c#9.9#HbPbP.sao##azbUbtazbuad.rbdbd#O#ObsbPbu.7#O#ObV.NbVbX.EaEaF#haF.N.NaFaQ.i",
"#.az#NaW#H#d#c..#c#d.9.lbP##aobu.Ibtbpbs#ObUbp#O#Obsbdbd.radadbP.rbvbXbVa9.RaeaJ.E#l.Q.Ra4#l#b.x",
"bd#8as.W.F#H#9#c..#c.9bP##bi.s.saz.rbdbnak.o#a#abrbsaYbsbsbubcaI.rbvbva9aeaa#M#MakataJbq.S#2aN.x",
".E.raE.l.F.F#9aSaS#cbD##agbpaoaoagbdbrae#M.obn#aa##ObVbV#ObPad.7acaYbX.Zb6aa#M#M#Maa#Maaaa.d#AbQ",
"bX#O.N.9#9#9#K..#c#daIbh.EbeaSao#U#ObrbxaP.abn#a#P.Ra##1bVbUadad#haO#r.Zb6aT#MbN#MbN#M#MaaaAaN#j",
".EaEaE#d#c..aS..#c.FbL.E#1acaS#c#Na##1aeae.aa#aE.lby#X.N#P.UbF.i.T.i#p.m#X#m#MbNbNbNbN#Maa.db.bQ",
".U#O#W#c#c#c#caS#zaI.KaEbV#WbE#cac.NbrbyakakaabnbJb6.R.N.N#X.NaO.Y.x.T.M#B#m#MbNbNbNbN#MaaaZ#j.u",
".R.Ra#.W#z.F#H.WbD#ebi.E.U.UaE#D.N#1.Nbrae#M#M#M#MaPaJ.R#X#r.ZbS.Z.Z.5b0#vab#M#M#MbN#Maaab#Y.M.1",
".R.R.R#b#z.F#z#za5#h.K.3.Ea1#W.U.0#r.U#ra#b6aa#makbob6.PaJ#Xa9bS.ZbSa4.qb0.Saa#M#Maaakakaba7.1#x",
".Ra#a##b.W#z.F#z#z#b.KaO#W.Q.E.3.EbX.3.0#r#P.Pb6b6.Paeae.R.Ra9a9bY.8ba.5#0bHaq#m#m.ob6.PaJ#x.1#x",
".Ra#a##za6#5#p.6aW.W#b#N.Q#2.Q.QaOa1aO#W.UaE.N#PaJaJby.R.R.R.N.U.8#t.8ba.q#0.j#vaJaJ#vbyb0bG#x#x",
".Ra##PaW#z#9#9#p#zaW#b#2#UbGbhbG#N.Q#NaO.E.3.3.U.R.R.Ra##P.R.Z.N#t.8.8#L#Lba.5.5.R.R.Rb0b0.m#x.M",
"#X#X#Pa6.6#p#9bO.6#z#z#.#F#.#l#F#l#FbG#2aOaOaX.3.3.Na4#P#1.Z.R.ZbYbY#Lba#L.qba.Z.R.Za##Xa4bZ#x#s",
"a##X#P.x#9#9.JbO#9#p.W.KbFbi#A#.#g#lbF#l#8ap.Qapa1.U.N#1.U#1.N.NbYbababa.q.q.Z.Z.Z.N.N.Z#0#s#xbl",
".Z#P#P.x.T#R#R.J.J#9.F.W#g#b.K.K#A#g#lbF#l#x#Y#8.1aX.U.U.U.UbV#ra9bYbaba.qbabYa9a9bVbYafam#s#sbl",
"#X.N#D#z.T.J#K#R#KbE#9#zal#h#b.K#A.K.Y#A#l#lbG.1#k#8ap.E.E.E.E.3bXa9bY.ZbYbY.3.E.U.3b1.qam#s#s#s",
"#P.N#D.T#R#R#V#R.JbO#9#9#z.W.W#b#h#e.K.Y.Y.YbG#x.1.1.1.1apapa1aca1a1#t.Z.UaXa1apa1a8#Law.LaLaL#s",
".N.N#D.T#V#K#K.C#V.C.T#9#b#b.W.W#b#b#e.K.Y.Y#lbZ#x#x#x#kap#Y.Qapa1apbv.E.B.Q.1ap#k#tb3awaw.Hblbf",
".N#raV.T#R.C#V#K.C#V.J#R.Wa2.G.W#b#b#eaN#AbFbZbG#x#xa..1#kap#x#8#2.1#8#2#8#x#8.1a8bTbjb3b3.Hblbf",
"#r#raVbE#R#3#R#3#V.X#RbO.G.Wa6.GbC.W#b#e#A.YbZb5#xa.a.a.a.aX.1bG#l#FbG#F#x#lbG#xbTb3a0ay.L.HblaL",
"#r.0#D#V#V.C.C#3.C#K.C#R#z#b#z.G.W.u#eaHaN.YbZb5bl#xa.a.#k.BaX#l.Y#l#g#.#A.YbG.B.qaUaU.O.L.HaLbf",
"bV#raV#d.C#3.C.C#3#3#KbO#zaR.GaQbCaH#baN#I.Yb5bf#xbKa.bK.1aXap.Y.Y#g.K#..K##.Ya1awb3b3a0.L.#aL#s",
"#r.0aV#R.C#3aS#3.C#VbO.J.6#u#g#AaQ#e.u.Y#IbZbZ#xa..B.B#G#kbl#l#b.K#b#A.K#b#b#b.Ya8b2bb.O.Lah#saL",
"#r.0.0#V#V#3#3#3#3.X.CbO#p#z.1#YaH#IaHaH.h.Ybla.#G.Ba8.B#k.YaQ.W#baQ#h#b#h#eaQaH.ua8awb3a0.#aLaL",
".U.UaV#V#3.C..#3#3#3.C#9#T#uaJajaN.u#I.Y.hbZbla..g#tbTaXaQbC.GaW.GaQaH#AaQaQa6aQ#bbAbm.L.Laha..#",
"a9.0#J#VaS#3#3#3#R.X.X.T#T.mbHajaHaH#I#I#Ibla.a8ba#0aj.Yb.bQ.6aR#jaN.g.g.ub.a6aWbQ.u.ubabjbz.Ha.",
".UaE#J#V#3#3#3#3.C.X#RbObQaAar.1aNaH.h.Y#s#sbK#tbM.j#xbQ.T#p.6bO.b.paxb3a8bAbQ#T.F.6#T#q#0bl.##s",
".UaE#J#V#3#3#3.C.C#RbObO#j.V.5b5#I.u#I.h#sa.a8am#7#4#u#TbO.v#T#Ta.aMbmaMax#n#TbO#9.T#T#T.Bbl#sbz",
".3.U#J#V.C#3#3.C#3.XbO#T#j#x.V.Y.h#I.hbfblbKbTbRbHaN#T#RbO#R#TaH.A#y#y.canax.M#T#RbObObO#w#s#GbK",
".U.U#JaS#3.C.C.CbObObObQ#u.Y#s.h#I.h#s#sa.av.jaq.V#TaS#R#R.C#T#nbm#y#y.c.caUaxb..f.J.CbO.X#u#n#G",
".3#4aV#V.C.C#3.X.XbO#T.v.b#I.hb5bfbZbfa.a8amaqaraR.C.C.C.CbO#q.p#y#yanan.c#S#fbB.X.C.C.C.X.fbBaM",
".UaEaE.C.C.C.C.XbO#T.v#w.bbC.h.hbZbla..p.qaq#7.V.C.C#3#3.C#T.paM#yan.c#S.c#Sayay.v.X.C.C...X.u.A",
".U.UaV#V.C.X.f#T#T.v.v#u#u.u.h#qbl#naG#BbwaTbH#T#3..#3.C#3.taM#y#y#y.c#S#S#S.Oay#n.X..#3.C#3.Xai",
".Uaj#J#RbO.fbO#T#Tb.#wb.bA.u.h#s#n.qabaTaTaT.k.C.C....#3#T#nan#y.c.c.O#S#Q#S#Qay#o#w#3.....C.C.d",
".U.3aV#RbO#pbO#T.vaR.b#u.u.u#sbl#L.SaaaaaTab.e#3......#3.hbm#y.c.c#S#Q#Q.O#Q.n#Q.LbB#3#3.......G",
".Uai.3.T#R#TaRb.b.#ubA.u.u.h#s.B#BaTaa#M.S.z.X#3.......X#naxan.c.c#S#S#Q#Q#Q.n.nbkay.f#3#3#3#3#3",
".U.Ua1#j.TbQb.bQb..bbA.u.ubf#saj.jaTaabw#B.t#R#3.C#3.C.vavaxbm#S.c#S.O#Q#Q.naK.naKau#w.f.f.C.f.f",
"a9#r.Z.3#4aibSbYbSafafaf.5.qam.j#7aq.S.S.j.j#BbH#BbHbHb4#ZbgbRbgbWbW.2bWaD#C#C#C#CaDau.w.4.4b4#o",
"a9.UbYa9a9bSa9bSaibabYaf.q.5am.j.jbH#6.j#0#6.j#va3ara3a3.wbRbgbR#7#7#Z#ZbW.2bW.2bIaDaDaDaDaDbk#i",
"a9a9#t.NbYbYbYba.Z.Zafbaa4#0#0#0bM#0.jambM#6bMa3.4a3a3#7bR#7bR#7#7#7#7#Z#Z#ZbW.2aDaDbIbI#CbIbI#C"
};
SIMPLE  =                    T                                                  BITPIX  =                    8                                                  NAXIS   =                    2                                                  NAXIS1  =                   48                                                  NAXIS2  =                   48                                                  HISTORY Written by XV 3.10a                                                     END                                                                                                                                                                                                                                                                                                                                                                                                                                                                                                                                                                                                                                                                                                                                                                                                                                                                                                                                                                                                                                                                                                                                                                                                                                                                                                                                                                                                                                                                                                                                                                                                                                                                                                                                                                                                                                                                                                                                                                                                                                                                                                                                                                                                                                                                                                                                                                                                                                                                                             °°°™†¶ß´≠Æ≠≠≥∫∏π≈ª¡ø»«»Œ«“Õ⁄—÷—◊ŸŸŸ€⁄‘÷’–œŒÕ … «£ö£††¶†¶†¨•´≠≤¿√ƒ À¿º««Àœ–œ—œ’’—”Ÿ‹ŸŸ◊◊‘ÕÕ–œÃ—¬Ω†¢≠ìú†•§•´´©∞Øª»÷‰‡Ÿƒ∆Ω ¬œœ¬⁄“Œ‘÷’’÷œ « Ã–∆–Õ…ø∂ñõç4#04/48<GJZeä≈Ï‰∫w*ìõö£†®©∞±µΩºæ√,ù¢î!$6/3<;HFQa~∫ÏÛÛ·•á°ïùú££±≠∞≥∂¡≤òîô")$$-59<GH\m§›ÒÚÌ“R	Xëìóõ¶´Æ´±∂¥µq?öìò !$+116<GVeÇØ◊ÌÓÎñ%Ñòïúù®•´°∞¨≤0

wôõù '",/8>DQ]hÉôæ‚ÎŒ#téèèñöß¶£´¨Ç†òóó &007DPW\fqã≤ﬁ‹É$åçèíõ¢ú§¨¨(Fûñóù"$/9LXdX\WpÜæﬁ—7\éåìòîù£°sxçôöó!!0;\aWPW_dlî√·â& $Çîñêúó††0%';Étñôô)4páZQQR]fu†’ŒP'$%Kñçëùùùf$'$ 1dtpùóó #0Ç≥cRGQQboÖª‹ìA$$-,#níîå†Ä&$)'$%Éf_qõôò!/Ç—wQISXdctôƒ√n,&,."7äù´ä>,)45$_¥dc_††ó'&a“äNLSRRepà¶∂êX2,654TéåH1772IA¶πk^lúöú,$@«äQGQUX\iréôûÄAD?6?>SSC?:=I;ì∂¥Vkd•††!->vyMKMKWYdpvÇàÄw]>?J?HIJNFJFÜ±´±b_[§úú"$1>^XCNJUQ\diq}ÄvulbKQHWPIKCYà¢∑´±Se`ü•†$ ?6?ACKHQQ]f`jrrrtÄÄ]\[TcSS`áÆÆ´∞±_Yd£†•?F<?DDNNQWddhkomwÇÑd`e_aY[jÖ¨§§¨µY`Y™¢† %>B7@D@KMT]^dmqqrrÅwhklnmnehoûÆ±´≤Zc_™•¢$& @I>?EHNTX^cgjmss||ttsxvstttoä¢∫≠¨Xd[©©¶&!$.HK@EIJLR[]fekmpx~}{Åà~àâÇz|{ñ≠±≤YcZ∞Æ®# %%.4??HIJMS\[[hmtxxyÉ~àÜâéñÆöÑàÜáâ£±∂\bb∞Æ©9$&! $%.8SKHUUQ\Xegjt|rÄéãéèêí†§´¶¢îåôíú≠¡`b`ØÆ≠0%" '&.5I\KURY\ecfo{wwÖñõõöû•†¶™´≠©£¢ûû¢©¿fah∂≤¨4.0&#,*BRe[Yb]gdew}}Çâú™•ü§¨¨¶™¶´¨¨≠ØØ´™Øºdig¥≥≠;2,-&39?gledklporÉÜÖèñ´∂Æ•Ø∑Ø¶££§•≠™ØºÆ∂¥≥akiº∏Ø7;,/-:8Jtvlpo~}~Ñéêñõ∑¡ΩµØ∫¥¶°ûü†¶©≥µº∫¿¬√fngΩµµ?:-,24@Ju~}ÇãÖêôñ™∞≈«ƒ¬Ωº¨ö†ô£ß≠∏≈Ã…∆À≈¡hln¡¥∂J><8;>JQÖé}çíçóëü¢Ø–—◊œ  ƒ∫§õ•°¨¥πŒ·ÁÂ›◊—Àosm¬ººJB6;>KHUèéàéú†¶ùß∑÷ÚÈ‚‹÷œ ±†™≠¶≥≤¡‹ıˆÏ‚ﬁ÷|yq¡ºπD>:4D@S\êôûò™®¶Ø´ÃÙˆıÛ‹«∫∑°≠®±Øµ¿ Ÿˆ¯˘˘¯ÛŸxlvöõêBNQò°ää≠≠√‚‰Ï¿òÿø™Æ¥™ÜZ/ k¡Âˆ˙˚˚˙˜Ôr4@éöò7^ç§ã¥§»œ¨∏óD¬∂¨≤ùc#$)(d≥‚˜˙˚˚˚˜Ò|7.óõ¨?/0!!QoåÅzù´«ÿ∞∑∆≠¡¥£ün"#KÇ£≠”Í˜¯˘˜˘ˆ~S7éÑõC78/@Zyy~é©ŒÓ⁄æ«∏õ††üF =Öéï±”Û¯¯˜ÚıÛÓ|U-âvãE:01<I[aiëæÊŸ∆ƒÆêêëë2QáÑÜ†ÃÒıı‰∫«„⁄qR4ecÉ61" <GJV_xyìõmrõúëéèÉ#"LÖÖî††¿À éj~ºΩjH0XQh0<1LITiozg !ÇèêùõïL=õúü™†èçôWKTØ©UH$C3X+
77>AS_a~^Äõ™¶ßßo Fhçâè~ÇÑH0V•ûQ!%:%cIDA%&16:=TcY<tÉsxh,8jx~~J&H[:;6!`^PU/54:8<IYW*rnlhl\C!*evpw3$Fc6#8P%:/2)'71>S59MIQ_;I\kg]Yc]d`c^glcfv6 GûïQZ[+09HLJAF^LUK'Vhd[TRVSXTY\Zcdiv,!6ãñP^blPA3</4>BE5%':-15+57/73130'.)/.7()-8>?0&7P[QNb¬•Övmd^SK?8.07,18#)8-;>31,0&&$)6#..30,;?@JTHJTXZ√¥ëulaaSGD9;-6-?388/9/586:,/..-/05./%;7@HJCSPSZY                                                                                                                                                                                                                                                                                                                                                                                                                                                                                                                                                                                                