/* XPM */
static char * DivisionBell_xpm[] = {
"48 48 65 1",
" 	c None",
".	c #28A249249658",
"X	c #28A251449E79",
"o	c #492459659658",
"O	c #38E36185A699",
"+	c #28A238E371C6",
"@	c #4924451471C6",
"#	c #6185596569A6",
"$	c #49245D759E79",
"%	c #492451448E38",
"&	c #618559658E38",
"*	c #492469A6A699",
"=	c #30C271C6BEFB",
"-	c #18611C7138E3",
";	c #38E32CB238E3",
":	c #20816185B6DA",
">	c #618569A6A699",
",	c #6185451438E3",
"<	c #71C659655965",
"1	c #514441035144",
"2	c #28A210400820",
"3	c #082008201861",
"4	c #082000000000",
"5	c #30C22CB24924",
"6	c #186114511861",
"7	c #08200C302081",
"8	c #965875D671C6",
"9	c #965871C669A6",
"0	c #20811C7128A2",
"q	c #10401C714924",
"w	c #618579E7B6DA",
"e	c #71C655555144",
"r	c #492438E338E3",
"t	c #38E328A228A2",
"y	c #20812CB25965",
"u	c #B6DA92488617",
"i	c #C71BA6999E79",
"p	c #AEBA96589E79",
"a	c #492479E7C71B",
"s	c #9E7961854103",
"d	c #0820104030C2",
"f	c #28A230C25144",
"g	c #30C234D36185",
"h	c #E79DC71BC71B",
"j	c #104004100000",
"k	c #08200C301040",
"l	c #DF7DBAEAAEBA",
"z	c #F7DEDB6CDF7D",
"x	c #28A228A25965",
"c	c #FFFFEFBEEFBE",
"v	c #49242CB21861",
"b	c #18610C300820",
"n	c #30C21C711040",
"m	c #000000000000",
"M	c #208108200000",
"N	c #49248617CF3C",
"B	c #38E314510000",
"V	c #618534D31040",
"C	c #61859248CF3C",
"Z	c #79E78207AEBA",
"A	c #71C69248CF3C",
"S	c #79E78E38C71B",
"D	c #28A210400000",
"F	c #861741031040",
"G	c #49241C710820",
"                                                ",
" ...XoOX.++++@@#@##o$OOOOOO.XX%$###&$*OooooooOX ",
" %%%oo.Xo%++++@@@@ooo**OO=oOOXoo%#&$$$ooo$*ooo* ",
" .%o%+.XO#@#-;@@+@+%XO$::O*OOXO*o$>>#$$OXOX**$$ ",
" #@@##&#%,<;1-234@+@oO>>::$*$$O5;5;67..XXXX..XX ",
" @#@@@@@8891@550q77XX*$=w*===e<er;;t77yoOXO:XXX ",
" @@11@@uip81r5t00674.*:O:a:O8s8er15-d73q$$oOOXX ",
" fgggg1hh881t0dd673jk.OO:=:p88<e,#r---7jo$o$$$* ",
" fffggehlip8e;-000777+X$w:iipu<9##;-d-d7d*O:::: ",
" ffffghzhppee1r;533377@$=wliip<<<,t-6-q77:::::: ",
" yyxygcciu8<<,ttdj33k3+@$plhipp#1;t--55d7::==:: ",
" yyyxyczi9us1evt3b37k7.O$lhhlip#1t-5g5xq7y=:::= ",
" ++++gczu9s88e1r63k7k3+O*zzlipp<,;;5ffxqdq:==== ",
" ++++5czi98s8e85667j44+@#zzhiii9r;5ff5y-qq===== ",
" yyyxrczi88<<1810d7jk4++occhippertt;-fqddq===== ",
" gyyy;chun22e,1,;b443bg.=czh,jr2444m46qqqq:=a*w ",
" xfyy5chpM64bmmmmmmmmj+*auhMmmmmmms<1rxddy*>*a: ",
" xxyy5chl22b2mk2,Mg5bbNw>pc3k4ssjm<#9,5d7:==aaa ",
" xyyyyhhlv3b64g2B2gv77>>>zc4aBVsaO8ppr-7k*aNaaa ",
" yygg+,cis0t0df-j5r1d7wNNccB2Cn6=<>880q64N=aNaN ",
" yyg+grzlurtdt0dt@16-6yaNccl1<tvp89>95-3kaNaaaN ",
" fg@1g1zhp96nt;e5rb-d66>Cczhl81r9>##1q6m>>>*>>a ",
" 1g1g1@ehu9r,nd2tj---6k>Zzzlzctr@#1d--3kNNNNNCN ",
" f;fgfgrhlus99,t06qqq62#>zlhzzi,v,gtt6k7NNCNNNN ",
" f5xfff1uiiuu8erdq-qq72A>hllzzi,1@g;--4NNNNCCNN ",
" gyffgggnhiu99et00bd7-2>szhlezuer1t5-7kNCCNCN** ",
" gygggggguuu8svtd0pq6-nA9zhcpl91tr0--kCCCCNNCC* ",
" +@%%%%%%;hi8s10dd#-d6nA9zccpru9rr0t-bCACCCNNCN ",
" ****>wwwwpl88sddr16d62Aehczu2u9vt;-kCAAACACCCC ",
" wCCCSSZSZZu9uet2mmmmmkS7jj4knusr;06dAZSAAAAAAS ",
" CSASSSAASp98u<d4363bwAASSiczus91t54wCZACSASSSC ",
" ASSASZSSZpusu,0m;-2rwwwSwpczp,8,tkjqAAwZCAASwA ",
" ZZZZZZZZZ8lsVr2k;27rZwwwZizpu8i,b76dAZ>ZSwwwAS ",
" wZZZZZZZZeh9,24b2m-wwMwZwZ4jt,lb;;63ZZwZZ>#ZZw ",
" >>wZZZ>&Zci98tbd@wZw8b#2e>>>4h,#1-3k+>>w>0f*ww ",
" b15tbD42zcu89;tb6Mvb,2nDMM2B#6191tkk3MtnBD4VDv ",
" b2D222B8cz99s,25d233BD2220h,pp19@04k3kbMDBnDBv ",
" FVVFFVGczzu99rt5;-64FVVFF8hiuuee5bj777FFFsFFFF ",
" GFVVVVuczluse,,1r07MVFsssihl9ser2mjd3djFsssssF ",
" VVV,FVczhupu,vr,rddvFFssFllu9vvtkmm3777FFFFVVs ",
" n2BGGDczli98sVtntdbvvVvvBii9svnbmmjjd67DDvnMGG ",
" GjBnntzhliusevnnMbbnMjBMniusVt2mm4j476jm444b2D ",
" 2GDnMpzhup9,,vnM4Mj44m4vmiuseMmmjkm6b6jm4m4mmm ",
" bbjb2GvVvFG2tBMBjtmmmmmmjuF,Mmn442k3Mbmmmmmmm4 ",
" 42GBB2vBMG22mnvvMVvMBjjvBBGvMGb2BnnGMMnDMvDnDM ",
" v2BGBBn4MGn2BeDVn42nnv2VGVBVGvvvVBGDBDnMVnMFVG ",
" 4DjG4vDBB4j2MvFnVFFB4BVVGVVDVBG4DvGBVBMMGMvB,D ",
"                                                "};
