/* XPM */
static char * Gear_xpm[] = {
"48 48 57 1",
" 	c None",
".	c #8E388A288E38",
"X	c #596559655965",
"o	c #208120812081",
"O	c #A699A289A699",
"+	c #618561856185",
"@	c #38E338E338E3",
"#	c #38E330C238E3",
"$	c #514451445144",
"%	c #861782078617",
"&	c #71C671C671C6",
"*	c #492449244924",
"=	c #104010401040",
"-	c #71C669A671C6",
";	c #186118611861",
":	c #965892489658",
">	c #186110401040",
",	c #BEFBBAEABEFB",
"<	c #CF3CCB2BCF3C",
"1	c #F7DEF3CEF7DE",
"2	c #FFFFFBEEFFFF",
"3	c #D75CD34CD75C",
"4	c #69A669A669A6",
"5	c #EFBEEBADEFBE",
"6	c #F7DEFBEEFFFF",
"7	c #30C230C230C2",
"8	c #E79DE38DE79D",
"9	c #9E799A699E79",
"0	c #514449244924",
"q	c #DF7DDB6CDF7D",
"w	c #410341034103",
"e	c #D75CD34CCF3C",
"r	c #BEFBBAEAC71B",
"t	c #8E3882078617",
"y	c #79E779E779E7",
"u	c #CF3CC30BC71B",
"i	c #C71BC30BC71B",
"p	c #BEFBC30BC71B",
"a	c #C71BBAEABEFB",
"s	c #28A228A228A2",
"d	c #28A230C230C2",
"f	c #AEBAAAAAAEBA",
"g	c #B6DAB2CAB6DA",
"h	c #AEBAB2CAB6DA",
"j	c #618559655965",
"k	c #96589A699E79",
"l	c #AEBAAAAAA699",
"z	c #9E79A289A699",
"x	c #8E388A289658",
"c	c #8E388A288617",
"v	c #38E3410338E3",
"b	c #082008200820",
"n	c #861779E779E7",
"m	c #410338E34103",
"M	c #69A661856185",
"N	c #410341034924",
"B	c #596551445965",
"                                                ",
"                  .Xo. O+@@##$%                 ",
"                &*===#-o=======;*:              ",
"               o====;;=========>;X              ",
"           ,%o====o$;=========;;=X              ",
"         <12%=====.234======;;===-              ",
"       ,5265<7====8552190=;;=====%              ",
"      q225588&===w28e<q52-;======;&             ",
"      3r5888qt===y23<<ui<+========;& &7o9       ",
"      OX88qqqq%%tp8<uiiia7=========sw;==w9      ",
"       d.qqqq33e<<<uiii,f;========;;====;-      ",
"    .7==O8q333<<<uiii,,,9;======;;=======o9     ",
"  gr%7=41q33e<<<uiia,,,gg%o==oy$;=========@     ",
"  526842q3e<<<uiii,,,,gghf:w7i2:;==========4    ",
"  2qq1283e<<<iii,,,,gghfffOOh2h9w=========;j    ",
" ,23q38e<<<uiip,,,gggffffOOO999k.s=======oX     ",
" <5333<<<<iii,,,,gghffflOOz999:::y;====;s%      ",
" 583e<<<iiia,,,gghffflOOO999::::..$;==;;=       ",
" ,O<<<uiip,,,ggghfffOOO9999::xx..c%*;;===v      ",
"  =Xgiiip,,,gghf94$$%O999k::xx..t%%X;====;9     ",
"   7=ir,,,gggff:@7so7$:9::xx..c%%47=======&     ",
"    w,,,,gghfff*7;===74::x..c%%%y7=========b=   ",
"    w,,gghhffl:7o=====&9...c%%nyys===========X  ",
"    :<gghfffOO%7;=====wg.c%%%yyyyw===========X  ",
"  g81ihffflOOO&7;=,9===9g%%%yyy&&$=========;sX  ",
" g15,hfflOOO99%7;0.s;b=w1%yyy&&&-4========o7*X  ",
" ,2hfffOOOz999:@m=h7sb==2.yy&&&-44Xso;==>o@*$X  ",
" g2,flOOO999k::$$=+O;b==ig&&&-444+++XXsosw0$*X  ",
"  1<lOO9999:::xyX7=sbb==.O&-444M+++XXX7#*$**o.  ",
"  qqOO999:::x..c9y======,f-44M+++XXX$$7w$*No&   ",
"  ,1O99k:::x..t%:37====$1%44+++jXXB$$$7**wo&    ",
"   299:::x..ct%%nO8X==Xqq4M+++XXX$$$$*s*mo.     ",
"   g7===*..c%%%yyyg6222,&+++XXXB$$$***s#=m      ",
"   O%%% oy%%%yyyy&&-::y+++jXXB$$$0N@m@o===*     ",
"        M*%nyyy&&&-444+++XXXB$$$0*@7oo;===b     ",
"         w&yy&&&-444+++XXXB$$$0**w7;======&     ",
"        iq&y&&--44M+++XXX$$$$***w7;======&      ",
"        5,&&&-444+++XXXB$$$0**wwws;=====&       ",
"        1&&-444M++jXXB$$$0***www@7o;===&        ",
"        ,wX44M+++XXXB$$$0**wwwm@@#7o>=&         ",
"         %sv++X@$XX$$$0**Nwwwm@@#77s;:          ",
"          .*o0oow;v$$***wwv7s@@77dso.           ",
"           O&s;  :@w**Nww7;;=;@7do;.            ",
"                  j@Nwwwmm====>sswO             ",
"                  jswwm@@m=====o%               ",
"                  4o@@@@@m;;=w%                 ",
"                   w###s;sM                     ",
"                                                "};
