/* XPM */
static char * appinspect_xpm[] = {
"48 48 117 2",
/* "  	c #0000FFFFFFFF",*/
"       c None",
". 	c #686868686868",
"X 	c #383834343838",
"o 	c #000000000000",
"O 	c #90909C9CA0A0",
"+ 	c #787868689090",
"@ 	c #181824242828",
"# 	c #383834344848",
"$ 	c #585858585858",
"% 	c #383848484848",
"& 	c #383824243838",
"* 	c #181824241818",
"= 	c #A0A09C9CA0A0",
"- 	c #A0A08C8CA0A0",
"; 	c #90909C9C9090",
": 	c #90908C8C9090",
"> 	c #78788C8C7878",
", 	c #787878789090",
"< 	c #787878787878",
"1 	c #686878786868",
"2 	c #686868687878",
"3 	c #585868685858",
"4 	c #585858586868",
"5 	c #484858585858",
"6 	c #FFFFF0F0FFFF",
"7 	c #686868685858",
"8 	c #282814142828",
"9 	c #282824241818",
"0 	c #282824242828",
"q 	c #181800001818",
"w 	c #484834344848",
"e 	c #383834342828",
"r 	c #383824242828",
"t 	c #181814141818",
"y 	c #585868686868",
"u 	c #181814142828",
"i 	c #000024241818",
"p 	c #686878787878",
"a 	c #282834343838",
"s 	c #282834342828",
"d 	c #282824243838",
"f 	c #383848483838",
"g 	c #484848483838",
"h 	c #909078787878",
"j 	c #282814141818",
"k 	c #B0B09C9CC0C0",
"l 	c #A0A0ACACB0B0",
"z 	c #A0A09C9CB0B0",
"x 	c #90907878A0A0",
"c 	c #78788C8C9090",
"v 	c #909078789090",
"b 	c #484858584848",
"n 	c #90908C8CA0A0",
"m 	c #90909C9CB0B0",
"M 	c #A0A09C9CC0C0",
"N 	c #A0A0ACACC0C0",
"B 	c #78787878A0A0",
"V 	c #787858586868",
"C 	c #787858587878",
"Z 	c #FFFFFFFFFFFF",
"A 	c #686858586868",
"S 	c #686858585858",
"D 	c #181800000000",
"F 	c #90908C8CB0B0",
"G 	c #A0A08C8CB0B0",
"H 	c #A0A08C8CC0C0",
"J 	c #585868687878",
"K 	c #686858589090",
"L 	c #585858587878",
"P 	c #686858587878",
"I 	c #383814143838",
"U 	c #282814143838",
"Y 	c #484834343838",
"T 	c #484848484848",
"R 	c #C0C0D0D0E0E0",
"E 	c #D0D0D0D0E0E0",
"W 	c #B0B0ACACB0B0",
"Q 	c #585868689090",
"! 	c #000014140000",
"~ 	c #585848485858",
"^ 	c #686868689090",
"/ 	c #000000001818",
"( 	c #000014141818",
") 	c #585848486868",
"_ 	c #C0C0BCBCD0D0",
"` 	c #D0D0E0E0E0E0",
"' 	c #F0F0F0F0FFFF",
"] 	c #E0E0E0E0E0E0",
"[ 	c #B0B09C9CB0B0",
"{ 	c #484848485858",
"} 	c #68685858A0A0",
"| 	c #484824245858",
" .	c #181824243838",
"..	c #D0D0D0D0D0D0",
"X.	c #C0C0D0D0C0C0",
"o.	c #68686868A0A0",
"O.	c #D0D0D0D0C0C0",
"+.	c #D0D0BCBCD0D0",
"@.	c #787858589090",
"#.	c #C0C0D0D0D0D0",
"$.	c #484848487878",
"%.	c #78785858A0A0",
"&.	c #383834345858",
"*.	c #B0B09C9CD0D0",
"=.	c #A0A0ACACD0D0",
"-.	c #585848487878",
";.	c #B0B0ACACC0C0",
":.	c #585848484848",
">.	c #B0B08C8CB0B0",
",.	c #686848487878",
"<.	c #484834346868",
"1.	c #383848485858",
"2.	c #484848486868",
"3.	c #686878789090",
"4.	c #585834344848",
"5.	c #585858584848",
"6.	c #383848482828",
"                                                                                                ",
"                                                                                                ",
"                          . X o o o o o o X .                                                   ",
"        O             + o o @ # $ $ $ $ % & * o o = O - ; : > , > < 1 2 . . 3 4 5 $ <           ",
"      O 6 7 8 9 0 * q o w $ $ $ $ $ $ $ $ $ $ $ w 9 q X & e & e & 0 r 0 0 9 8 * 8 t t t         ",
"        y u * 0 i o o $ $ $ $ . 1 < > : > < p 2 3 $ o o a X a X s d s 0 @ 0 @ 8 * u t t f       ",
"        8 9 0 * o g $ $ h : < < h < h > h > h > h < j o o X X e & e & s r 0 0 9 8 * j t o       ",
"        0 0 * o % $ $ k l z O x c : c v c : c v c : c v o o b 4 y 2 p n m M N B n 0 * u o       ",
"        0 s o g $ $ V 7 C Z Z Z Z Z A 3 A $ S $ S 3 A 7 A o D t t t 8 * 8 9 8 0 0 9 8 t o       ",
"        s 0 o $ $ F m G Z Z Z Z Z H m H m H z M m H z H O H o d J K L P L L L L @ d 0 0 o       ",
"        & o X $ $ n G Z Z Z Z Z G n P 0 I 0 U 9 Y T $ $ $ $ o o o o K L P o q 4 8 0 0 9 o       ",
"        0 o T $ O H m Z R E W d d d d d d d d o o o f , W $ $ o f o Q K J o ! L @ & 0 0 o       ",
"        8 o $ $ H O Z W W W W o o o o o o o o o o o o o o e ~ o o o K P K L P L 8 s & 0 o       ",
"        o X $ $ O H R W W W W o o # f w f # o o o # o w f # f w t $ ^ ^ J / ( K * X a & o       ",
"        o T $ 1 G = W W W W W o o o o o o o o o o o o f Y X w f q $ ) ^ K o q L j X X s o       ",
"        o $ $ A z d W W W W W v l _ ` ' Z Z Z Z ] [ o # f w f # o & { } ^ K Q K t X a & o       ",
"        o $ $ 7 U 0 W W W W W Z Z Z Z Z Z Z Z Z Z Z $ W v f Y X o s | ^ K o q P q X & e o       ",
"        o $ $ q  .d W W W Z Z Z Z Z Z Z Z Z Z Z Z Z $ ..X...f w o & d o.^ o ! K ! # X X o       ",
"        o T $ ! U 0 W W Z Z Z Z Z Z Z Z Z Z Z Z Z Z $ O.+.O.w f o e & 4 @.^ K 2 q X X e o       ",
"        o w $ o d d W W Z Z Z Z Z Z Z Z Z Z Z Z Z Z $ +.#...#.# o & d $.^ ^ ^ K ! w X X o       ",
"        8 o $ o U 0 W Z Z Z Z Z Z Z Z Z Z Z Z Z Z Z $ O.+.X.+.o 0 s & { %.^ K P q f Y X o       ",
"        f o T q d d z Z Z Z Z Z Z Z Z Z Z Z Z Z Z Z $ ..X...1 o s $ d &.^ K ^ K ( w f X o       ",
"        $ o w $ U z G Z Z Z Z Z Z Z Z Z Z Z Z Z Z Z $ $ $ $ o o Y $ & 0 @.^ K 2 t f Y e o       ",
"        $ w o $ d M z $ Z Z Z Z Z Z Z Z Z Z Z Z Z Z $ *.=.-.o d % & d d ^ K Q K * w X X o       ",
"        $ 3 8 o H z G $ Z Z Z Z Z Z Z Z Z Z Z Z Z Z $ ;.-.o & X ~ z I 0 K 2 K P 8 X X e o       ",
"        b 4 % o @ H m $ Z Z Z Z Z Z Z Z Z Z Z Z Z Z $ ) a o f T $ M d d Q K J K * # X X o       ",
"        ~ $ A ! o 0 G $ Z Z Z Z Z Z Z Z Z Z Z Z Z Z o o o o :.b >.0 U T K P K L 8 X X s o       ",
"        b $ 3 8 @ o @ o $ $ $ $ $ $ $ $ $ $ $ $ $ o o o W $ o H z d  .-.J K L L @ X a & o       ",
"        T b S 9 | $ o o U # G - H = G z H z G { U o o o $ W $ o H 0 U 4 K L ,.L 0 e & 0 o       ",
"        % { 5 0 L d $ o o o @ <.1.<.{ 2.{ d o o o o $ o o $ W $ o d @ P L L L L @ X s 0 o       ",
"        Y g :.9 8 t q g & t o o o o o o o o j s w $ $ $ o o $ W $ o 8 * 8 0 0 9 8 s r 9 o       ",
"        X w % B 3.G a d s $ $ T % T % T % T $ $ $ w % T % o o $ Z W $ n m M N B n d @ 8 o       ",
"        & e Y g T b ~ 9 8 9 w T $ $ $ $ $ b 4.5.A 3 A $ w 9 o $ W Z W $ w X & s 0 9 8 t o       ",
"        @ d a X f T b ~ * 0 @ 0 3 4 3 A 3 4 3 $ 3 4 f 0 * 8 * o $ W Z W $ X s 0 0 0 * t o       ",
"        8 s & X Y g T b ~ 9 8 9 8 6.~ 3 S $ S $ Y 9 8 9 8 * 8 * o $ W Z W $ & 0 0 9 8 t o       ",
"        o o o o o o o o o o o o o o o o o o o o o o o o o o o o o o $ W Z W $ o o o o o o       ",
"                              o o o o o o o o o o o o o o o o o o 9 o $ W Z W $                 ",
"                                o o o o o o o o o o o o o o o o @     o $ W Z W $               ",
"                                  o o o o o o o o o o o o o o           o $ W Z W $             ",
"                                  0 @ 0 0 0 @ 0 0 0 @ 0 0 0 @             o $ W Z W $           ",
"                                  X X X X X X X X X X X X X X               o $ W Z W $         ",
"                                X # f X X # f X X # f X X # f X               o $ W W Z Z       ",
"                              X Y X X X Y X X X Y X X X Y X X X Y               o $ Z $ o       ",
"            $ $ $ $ $ o $ $ $ $ $ $ $ $ $ $ $ $ $ $ $ $ $ $ $ $ $ $ $ $ o $ $ $ $ o o o o       ",
"            o o o o o o $ 9 8 0 0 9 8 0 0 9 8 0 0 9 8 0 0 9 8 0 0 9 8 $ o o o o o o o $         ",
"            $ $ $ $ $ o $ o o o o o o o o o o o o o o o o o o o o o o $ o $ $ $ $ $             ",
"            o o o o o o $ X X X Y X X X Y X X X Y X X X Y X X X Y X X $ o o o o o o             ",
"                                                                                                "};
