/* XPM */
static char *magick[] = {
/* columns rows colors chars-per-pixel */
"48 48 18 1",
"   c black",
".  c #301010",
"X  c #502010",
"o  c #704010",
"O  c #505050",
"+  c #705050",
"@  c #708080",
"#  c #a06020",
"$  c #b07020",
"%  c #c07020",
"&  c #a08070",
"*  c #d08040",
"=  c #f09040",
"-  c #a0a0a0",
";  c #d0a090",
":  c #f0c0a0",
">  c gray94",
",  c None",
/* pixels */
",,,,,,,,,,,,,,,,,,,,,,,,,,,,,,,,,,,,,,,,,,,,,,,,",
",,,,,,,,,,,,,,,,,,,,,-..O..-,,,,,,,,,,,,,,,,,,,,",
",,,,,,,,,,,,,,,,,,,-XX##o#=..-,,,,,,,,,,,,,,,,,,",
",,,,,,,,,,,,,,,,,,,X####====#.,,,,,,,,,,,,,,,,,,",
",,,,,,,,,,,,,,,,,,X#XXX#=#...#.,,,,,,,,,,,,,,,,,",
",,,,,,,,,,,,,-XXXXX===oXo.o##=.....-,,,,,,,,,,,,",
",,,,,,,,,,,,XX###X=====o.o##==#.###..,,,,,,,,,,,",
",,,,,,,,,-XXO####X======#####=#.#$##o..-,,,,,,,,",
",,,,,,,,-X##=#=#Xo=====%##$#==#oX$#==##.-,,,,,,,",
",,,,,,,-Xo====## #=====%##%====# ==#$#$o.-,,,,,,",
",,,,,,,Oo====#=  #======###===##  ===$##o.-,,,,,",
",,,,,,-X#=====#    =====%##==#    #=#$#$#.-,,,,,",
",,,,,,-X#===##         O%O         #=#=##.-,,,,,",
",,,,,,-X=====#                     ##==#$.-,,,,,",
",,,,,,-X====#=#o                 o##==###.-,,,,,",
",,,,,,-X#====#=#=o             o##====#=#.-,,,,,",
",,,,,,,oo=======#=#=##oo oo####$$===#==$oo-,,,,,",
",,,,,,,oo#=========#=#=#=#=#$#$$= o===#$o$,,,- ,",
",,,,,,,,Xo#===============#=#=#=    o##oX,,,O O-",
",,,,,,,,,Xo##==================OO O     O,-O O-,",
",,,,,,,,,OXXXXo##=============    O O O   O O--O",
",,,,,,O...+ ++XXXo####=====##  >>-      OO  O-O ",
",,,,,XX##.+ &   ...XXXXXXXX#  >>>>>>>>-   OO  >O",
",,,,XX##*.+             +   O >>>>  >>>>-   OO -",
",,,OX##*..+               -   > >>> > >>>--   O-",
",,,X##*#.=++             -:  > >> >>> >> >>--  -",
",,XX#*#.#=+&            +::O >>>  >   >> >>>>O -",
",,X#*#.#==++&          + :-O->> >>>>   >>>> >- -",
",OX#=.##==.+++&      +&& :- >>> > >>>>>> >>>>>O-",
",X#=o..#===.+  &++++&;;: - >> >>> >>>>>  > >> --",
"*X##=ooX#==.+& &&&&&&   - O>> >>>   >>>>>> >>>>>",
"*#=...oo.#==.&&;:;&   && O-@  @ @@@ > >> >   >>>",
"*=*oo*o..o..o...&&  &;;  O--@@ @   >>>   >> > >>",
"=*#o.#**..##..ooX  &::;O OOO-@@- O  >>   >> >> >",
"==##oooXo##..o#o &::::::O         - @>>>> >>> >,",
"==###.oo###..## &;:::&;::::::::::;  @ >>> >> >>,",
"=#=##.o#**#.oX &;::::;&::+::;&&&&&   >>   > >>>,",
"=#*#oo#***=..&&&:::::::::+        @@>>> >> >>> ,",
",==#Xo**#=*#.&&&;::&&:: :::;;&&&&  >>>> >> >> ,,",
",==#X**====#.&&&;:::;::+            > >>> >>> ,,",
",=##X*===#=*.+&&&;;::: :::;&&&& O   > >> >> >>,,",
",#=#Xo======#.+&&&&  ::         @@>   >> >> >>,,",
",,#=oX=#==#=*.+++& ++ :::;&&&& O@ > >>> >>  >,,,",
",,=##X=#=#*#=..++  O-OO      OO   , >> >> >>,,,,",
",,#=#Xo==#=#=#.+ OOO--OO@@@@@O> >  >> >>> >,,,,,",
",,,#=oX##O ##*.  OO--> > >@@> > > >>> >   ,,,,,,",
",,,,##X## #=o#..O---> ,,,  > >> > >> >> >,,,,,,,",
",,,,,,##*#**##.O--,,,,,,,  >>  ,>>>>,,>,,,,,,,,,"
};
