/* XPM */
static char *magick[] = {
/* columns rows colors chars-per-pixel */
"48 48 127 2",
"   c black",
".  c #001000",
"X  c #100000",
"o  c #100010",
"O  c #101000",
"+  c #101010",
"@  c #101020",
"#  c #102020",
"$  c #201000",
"%  c #201010",
"&  c #301010",
"*  c #201020",
"=  c #301020",
"-  c #202010",
";  c #302010",
":  c #202020",
">  c #202030",
",  c #203030",
"<  c #302020",
"1  c #302030",
"2  c #303020",
"3  c gray19",
"4  c #303040",
"5  c #304040",
"6  c #401010",
"7  c #500010",
"8  c #501000",
"9  c #501010",
"0  c #401020",
"q  c #501020",
"w  c #403010",
"e  c #502010",
"r  c #402020",
"t  c #402030",
"y  c #403020",
"u  c #502020",
"i  c #503020",
"p  c #503030",
"a  c #701000",
"s  c #701010",
"d  c #701020",
"f  c #602020",
"g  c #603020",
"h  c #603030",
"j  c #703030",
"k  c #403040",
"l  c #503040",
"z  c #603040",
"x  c #504030",
"c  c #604020",
"v  c #604030",
"b  c gray25",
"n  c #404050",
"m  c #504050",
"M  c #505040",
"N  c #505050",
"B  c #504060",
"V  c #604040",
"C  c #705040",
"Z  c #705050",
"A  c #605070",
"S  c #606070",
"D  c #707060",
"F  c #606080",
"G  c #607080",
"H  c #706090",
"J  c #708080",
"K  c SlateGray",
"L  c #7080a0",
"P  c #800010",
"I  c #903020",
"U  c #903030",
"Y  c #903040",
"T  c #804030",
"R  c #805020",
"E  c #805030",
"W  c #905020",
"Q  c #905030",
"!  c #806030",
"~  c #906020",
"^  c #906030",
"/  c #804050",
"(  c #805040",
")  c #805050",
"_  c #905050",
"`  c #906060",
"'  c #a05040",
"]  c #a05050",
"[  c #b05050",
"{  c #a06060",
"}  c #a07060",
"|  c #b06060",
" . c #b06070",
".. c #c05060",
"X. c #d05060",
"o. c #d06050",
"O. c #e05060",
"+. c #807090",
"@. c #d07080",
"#. c #c08070",
"$. c #d08060",
"%. c #f08040",
"&. c #f08050",
"*. c #f09040",
"=. c #e08070",
"-. c #808090",
";. c #809090",
":. c #8080a0",
">. c #90a0b0",
",. c #a0a0a0",
"<. c #9090c0",
"1. c #d09080",
"2. c #d09090",
"3. c #d0b080",
"4. c #e08080",
"5. c #e08090",
"6. c #e09080",
"7. c #e09090",
"8. c #e0b090",
"9. c #f0b090",
"0. c #f0a0a0",
"q. c #f0b0a0",
"w. c #c0b0c0",
"e. c #e0c080",
"r. c #f0c090",
"t. c gray94",
"y. c None",
/* pixels */
"y.y.y.y.y.y.y.y.y.y.y.y.y.y.y.y.y.y.y.y.Q *.&.*.Q W Q ~ Q W r ; r y.y.y.y.y.y.y.y.y.y.y.y.y.y.y.",
"y.y.y.y.y.y.y.y.y.y.y.y.y.y.y.y.y.y.y.Q %.%.%.Q W Q W Q W 6 ; r ; y.y.y.y.y.y.y.y.y.y.y.y.y.y.y.",
"y.y.y.y.y.y.y.y.y.y.y.y.y.y.y.y.y.y.Q %.&.*.Q W Q Q Q W r ; r ; r y.y.y.y.y.y.y.y.h j y.y.y.y.y.",
"y.y.y.y.y.y.y.y.y.y.y.y.y.y.y.y.y.Q %.%.%.Q W Q W Q W 0 ; r ; 0 % y.y.y.y.y.y.y.f [ =.Y y.y.y.y.",
"y.y.y.y.y.y.y.y.y.y.y.y.y.y.y.y.Q *.&.*.Q W Q ~ Q W r ; r ; r - T y.y.y.y.y.y.g ] 4...I 9 y.y.y.",
"y.y.y.y.y.y.y.y.y.y.y.y.y.y.y.Q %.%.%.Q W Q W Q W 6 ; r ; 6 % T y.y.y.y.y.+.3 [ =.X.I s 8 j y.y.",
"y.y.y.y.y.y.y.y.y.y.y.y.y.y.Q %.&.*.Q W Q Q Q W r ; r ; r - T y.y.y.y.y.n 5 t.-...U d 6 9 y.y.y.",
"y.y.y.y.y.y.y.y.y.y.y.y.y.Q %.%.%.Q W Q W Q W 0 ; r ; 0 % T y.y.y.y.y.+.4 n -.w.J d 6 7 y.y.y.y.",
"y.y.y.y.y.y.y.y.y.y.y.y.Q *.&.*.Q W Q ~ Q W r ; r ; r - T y.y.y.y.y.n 5 t.K F K :.5 9 y.y.y.y.y.",
"y.y.y.y.y.y.y.y.y.y.y.Q %.%.%.Q W Q W Q W 6 ; r ; 6 % T y.y.y.y.y.+.3 A -.w.-.n b m b y.y.y.y.y.",
"y.y.y.y.y.y.y.y.y.y.Q %.&.*.Q W Q Q Q W r ; r ; r - T y.y.y.y.y.y., t.-.S ;.:.5 > 5 y.y.y.y.y.y.",
"y.y.y.y.y.y.y.y.y.| 9.0.%.Q W Q W Q W 0 ; r ; 0 % T y.y.y.y.y.y.Q Q -.w.-.k b k b y.y.v =...q y.",
"y.y.y.y.y.y.y.y. .q.q.q.Q W Q ~ Q W r ; r ; r - T y.y.y.y.y.y.Q &.&.n ;.:.5 > 5 y.y.y.f =.U 6 y.",
"y.y.y.y.y.y.y.y.{ 0.q.q.6.4.4.Q W 6 ; r ; 6 % T y.y.y.y.y.y.Q &.&.Q Q k b : b y.y.y.@ 3 -.d 7 y.",
"y.y.y.y.y.y.y.} q.q.q.2.5.4. .` r ; r ; r - T y.y.y.y.y.y.Q &.&.Q Q Q r r 5 y.y.y.y.4 y.-.b > y.",
"y.y.y.y.y.y.y.| q.0.6.7.4.| v h ; r ; 0 % T y.y.y.y.y.y.Q &.&.Q Q Q r r E y.y.y.y.y.4 -.b > @ y.",
"y.y.y.y.y.y. .q.q.2.4.1. .V t 2 r y r - T y.y.y.y.y.y.Q &.&.Q Q Q r r ! y.y.y.y.y.* t.-.b > y.y.",
"y.y.y.y.y.y.| q.6.4.4.| v r < r y h % T y.y.y.y.y.y.Q &.&.Q Q Q r r Q y.y.y.y.y.y.4 n k b : y.y.",
"y.y.y.y.y.} q.q.5.4. .x t 2 t p l Z { y.y.y.y.y.y.Q &.&.Q Q Q r r ^ y.y.y.y.y.y.& Q &.Q : + y.y.",
"y.y.y.y.y.| 9.@.4.| x r < z p / ( @.y.y.y.y.y.y.Q &.&.Q Q Q r r E y.y.y.y.y.y.y.c &.&.Q r y.y.y.",
"y.y.y.y. .2.@.} ) x 1 2 h Z ) #.y.y.y.y.y.y.y.Q &.&.Q Q Q r r E y.y.y.y.y.y.y.y.Q &.Q Q & y.y.y.",
"y.y.y.,.{ @.| ) p r p / C @.y.y.y.y.y.y.y.y.Q &.&.Q Q Q r r Q y.y.y.y.y.y.y.y.& Q &.Q r + y.y.y.",
"y.y.y.   .Z h < t x ) #.y.y.y.y.y.y.y.y.y.Q &.&.Q Q Q r r E y.y.y.y.y.y.y.y.y.g &.&.Q r y.y.y.y.",
"y.y.N     r < h ( @.y.y.y.y.y.y.y.y.y.y.Q &.&.Q Q Q r r E y.y.y.y.y.y.y.y.y.y.Q &.Q Q = y.y.y.y.",
"y.y.    %   l ` y.y.y.y.y.y.y.y.y.y.y.Q &.&.Q Q Q r r ^ y.y.y.y.y.y.y.y.y.y.& Q &.Q r O y.y.y.y.",
"y.N       N ,.y.y.y.y.y.y.y.y.y.y.y.Q &.&.Q Q Q r r Q y.y.y.y.y.y.y.y.y.y.y.c &.&.Q r y.y.y.y.y.",
"y.    N y.y.y.y.y.y.y.y.y.y.y.y.y.Q &.&.Q Q Q r r E y.y.y.y.y.y.y.y.y.y.y.y.Q &.Q Q & y.y.y.y.y.",
"N   N y.y.y.y.y.y.y.y.y.y.y.y.y.Q &.&.Q Q Q r r Q y.y.y.y.y.y.y.y.y.y.y.y.; Q &.Q r + y.y.y.y.y.",
"y.y.y.y.y.y.y.y.y.y.y.y.y.y.y.Q &.&.Q Q Q r r E y.y.y.y.y.y.y.y.y.y.y.y.y.g &.&.Q r y.y.y.y.y.y.",
"y.y.y.y.y.y.y.y.y.y.y.y.y.y.Q &.&.Q Q Q r r E y.y.y.y.y.y.y.y.y.y.y.y.y.y.Q &.Q Q = y.y.y.y.y.y.",
"y.y.y.y.y.y.y.y.y.y.y.y.y.Q &.&.Q Q Q r r ! y.y.y.y.y.y.y.y.y.y.y.y.y.y.& Q &.Q r O y.y.y.y.y.y.",
"y.y.y.y.y.y.y.y.y.y.y.y.Q &.&.Q Q Q r r Q y.y.y.y.y.y.y.y.y.y.y.y.y.y.y.c &.&.Q r y.y.y.y.y.y.y.",
"y.y.y.y.y.y.y.y.y.y.y.Q &.&.Q Q Q r r E y.y.y.y.y.y.y.y.y.y.y.y.y.y.y.y.Q &.Q Q & y.y.y.y.y.y.y.",
"y.y.y.y.y.y.y.y.y.y.Q &.&.Q Q Q r r Q y.y.y.y.y.y.y.y.y.y.y.y.y.y.y.y.& Q &.Q r + y.y.y.y.y.y.y.",
"y.y.y.y.y.y.y.y.y.Q &.&.Q Q Q r r ^ y.y.y.y.y.y.y.y.y.y.y.y.y.y.y.y.y.g &.&.Q r y.y.y.y.y.y.y.y.",
"y.y.y.y.y.y.y.y.Q &.&.Q Q Q r r E y.y.y.y.y.y.y.y.y.y.y.y.y.y.y.y.y.y.Q &.Q Q = y.y.y.y.y.y.y.y.",
"y.y.y.y.y.y.y.Q &.&.Q Q Q r r E y.y.y.y.y.y.y.y.y.y.y.y.y.y.y.y.y.y.y. .q. .r O y.y.y.y.y.y.y.y.",
"y.y.y.y.y.y.Q &.&.Q Q Q r r E y.y.y.y.y.y.y.y.y.y.y.y.y.y.y.y.y.y.y.y.q.4.t l y.y.y.y.y.y.y.y.y.",
"y.y.y.y.y. .q.&.Q Q Q r r E y.y.y.y.y.y.y.y.y.y.y.y.y.y.y.y.y.y.y.y.y.q.) t y.y.y.y.y.y.y.y.y.y.",
"y.y.y.y.y.q.q.5. .Q r r E y.y.y.y.y.y.y.y.y.y.y.y.y.y.y.y.y.y.y.y.y.y.  t y.y.y.y.y.y.y.y.y.y.y.",
"y.y.y.y. .q.4. .t r r ^ y.y.y.y.y.y.y.y.y.y.y.y.y.y.y.y.y.y.y.y.y.y.y.  y.y.y.y.y.y.y.y.y.y.y.y.",
"y.y.y.y.q.5. .t t l R y.y.y.y.y.y.y.y.y.y.y.y.y.y.y.y.y.y.y.y.y.y.y.y.y.y.y.y.y.y.y.y.y.y.y.y.y.",
"y.y.y. .@.) 1 h ) y.y.y.y.y.y.y.y.y.y.y.y.y.y.y.y.y.y.y.y.y.y.y.y.y.y.y.y.y.y.y.y.y.y.y.y.y.y.y.",
"y.y.y. .h t ) y.y.y.y.y.y.y.y.y.y.y.y.y.y.y.y.y.y.y.y.y.y.y.y.y.y.y.y.y.y.y.y.y.y.y.y.y.y.y.y.y.",
"y.y.  % l y.y.y.y.y.< M D #.8.q.3.$.e.r.e.r.e.r.e.r.e.r.e.r.e.r.e.r.e.r.e.r.G <.L F >.O.o.O._ y.",
"y.      y.y.y.y.S 5 < $ & ; e i T ' Q E Q E Q E Q E Q E Q E Q E Q E Q E Q E B G A n H a P s f y.",
"y.  y.y.y.y.y.y.y.y.% y V V i u w % - o . o . o . o - % - % . o . o . o . o # 4 .   , o O X ; y.",
"y.y.y.y.y.y.y.y.y.y.y.y.y.y.y.y.y.y.y.y.y.y.y.y.y.y.y.y.y.y.y.y.y.y.y.y.y.y.y.y.y.y.y.y.y.y.y.y."
};
