/* XPM */
static char * Radio_xpm[] = {
"48 48 64 1",
" 	c None",
".	c #DF7D92489658",
"X	c #EFBE8A288E38",
"o	c #DF7D7DF779E7",
"O	c #F7DE9A699E79",
"+	c #F7DE92489658",
"@	c #EFBE82078617",
"#	c #F7DE8A288E38",
"$	c #E79D82078617",
"%	c #DF7D71C671C6",
"&	c #D75C69A669A6",
"*	c #C71B61856185",
"=	c #CF3C61856185",
"-	c #C71B59655965",
";	c #A69938E338E3",
":	c #A69945144103",
">	c #B6DA51445144",
",	c #BEFB51445144",
"<	c #C71B71C671C6",
"1	c #D75C79E779E7",
"2	c #CF3C69A669A6",
"3	c #B6DA49244924",
"4	c #F7DEA289A699",
"5	c #9E7930C230C2",
"6	c #D75C71C671C6",
"7	c #A69941034103",
"8	c #EFBEB6DA8617",
"9	c #F7DEB6DAB6DA",
"0	c #F7DEAAAAAEBA",
"q	c #082004100000",
"w	c #28A210400000",
"e	c #38E328A20000",
"r	c #492430C20000",
"t	c #514434D30000",
"y	c #596538E30000",
"u	c #618541030000",
"i	c #69A649240000",
"p	c #69A641030000",
"a	c #71C64D340000",
"s	c #9E7938E338E3",
"d	c #8E3828A228A2",
"f	c #965830C230C2",
"g	c #E79D8A288E38",
"h	c #79E728A228A2",
"j	c #79E751440000",
"k	c #861751440000",
"l	c #59653CF30000",
"z	c #8617492428A2",
"x	c #79E718611861",
"c	c #30C21C711040",
"v	c #9E7965950000",
"b	c #79E710401040",
"n	c #71C608200820",
"m	c #51440C300820",
"M	c #8E3859650000",
"N	c #69A600000000",
"B	c #514400000000",
"V	c #104010401040",
"C	c #410330C230C2",
"Z	c #BEFB61856185",
"A	c #E79DA289A699",
"S	c #9E7959655965",
"D	c #EFBEAAAAAEBA",
"F	c #492400000000",
"                                                ",
"                                                ",
"                                                ",
"                                                ",
"     .XoO++O@##@@@$%o%%&&&&&&&*====-;:>,<1      ",
"   OX@###+#o@X@@X$oo%1%22==*---*=-:;:3----,*-=  ",
" .X#+#X%o&--#O+++###XX@@@$oo1%&=>:;:>---,--,,>- ",
".###4+#o-:5;-=---*-**==2&6@@X#X,:7>,,,---->3755,",
"#899904X,757:qweerrtytuipa:,,6@o&=--,--,->:sdfds",
"g80990O@,75:7qquruietueturrure=#$1&*-*->:;fddhhh",
"$800004X,:f:;qwpjaiiajpikllzat-#@%%&*-,7fdhhhxxx",
"$80000O#,;5:;qqcitryeciuruaupv&Xo%&2*-33fbxxbbbn",
"$84009Oo,75:sqwipyupuyautjjtyj&Xo62=--:7;xbnnbbb",
"$840044o,75:5qclepucyleyayyjjz&@1&&=-,3;7xmnnnbn",
"$840004o,7535qcuuuuyiitpjylkur&X%&2==,>;;xmnmbbb",
"$.0009Oo-753dqqepeetecuyepaaaM%@%&2=*-3;;xNnbnbn",
"$80000+@-;s3fqtiuluplyjuejurtj%@%2==-,3s;xNnnbbm",
"$80000+@-7;3dqtycipeplruiuizkM1@%&22--:5sxNmnnbn",
"$.0094OX-7;3dwazzziiMitajtyjyt1@6&2=-,355xNnnbbn",
"$80900O#*:;3dwrivytkutzjtjvkjv@@6&==-,:55xNmnmbn",
"$80090O#=:73hwvkMzjMalMjtkaeiv@@%&2=->35sxmNnbnn",
"$80900O+=:::drvjpMitziraaazkjv@@6&2=-,:55xBnnnbm",
"$8090OO+2:::%X@%66=-*,zvvupjyjX@6&2=-,:5sxmNmbnn",
"$804VV$+=3::oO###@#X@@@$@o$o%1#@&&==->35sxmNnnnn",
"$8OCVVzO&:::6@$$@#X@X@@@@@@@###$6&&=-,35sxBBmnnm",
"$84VVVcX&7;5Vruuijv:3>--Z*&1@##@=***-,35sxBmNmnn",
"$.4VVqc$%:sfVjvjputrrcccrtuij2#$-::>->35sxBmNNnN",
"g89ghcmX%75dVukzzMMzjjjaipuyt,#ozcCs:,3s;xBBmNNm",
"g.04O..$$:sdVwwwceceertlijaja2+&cVVcf,>;sxBBmmNn",
"$890O.g$@:fdVvkjauyrewwwcwwew-+%cVVch:,;;hBBBmNN",
"$800A..g$3fhVvMvvMvMzMjjjapye-+6SCcmx;>;;hBBBmmm",
"o89Dcc<o@3fdwvMvMMzMzMMzMzMzj%#%*:ddd3,7;xBBBBBm",
"$89CqqC$$>s7rvvvvvMMMMzzkkjjao#11%%6=->7;hBFFBBm",
"o89CVVc*@&-OO#@o%=,vvkjkzzkkzo+%&=-&*-,::hFFBBBB",
"o80$hcc2$OO4444444O4O#$%6&2=*##1=S:h7--:7hBFFFBB",
"&#@@o--&oO+44OO4044+O44O4440OOX@&VVch7,::hFFFFFB",
">7:;-222$@@#+####@+OO+++4444OX@@3VVcCf-3:dFFBFFF",
"87dfdh5;,-&2&2%%1@@@@@@@@o$@o1&%2CcVCf-3:hFFFwFF",
"   88g*,77sfsfss:,=2=&22=&*=&&2&&ZCCh:-3:hFFBFB=",
"         881=,7sshdd5ss:3,,3>-*==2-,,-,::hFFFB* ",
"               881*>s;s5ffdfdd;;s;sssssddbwFB=  ",
"                      88g6=,7sdhhdddddhfdnBw*   ",
"                             884$=7fddmBBmB=    ",
"                                                ",
"                                                ",
"                                                ",
"                                                ",
"                                                "};
