/* XPM */
static char *magick[] = {
/* columns rows colors chars-per-pixel */
"48 48 24 1",
"   c black",
".  c #101010",
"X  c #102010",
"o  c #203020",
"O  c #302030",
"+  c #603040",
"@  c #703040",
"#  c #505050",
"$  c #708070",
"%  c #905050",
"&  c #a04060",
"*  c #807080",
"=  c #a0a0a0",
"-  c #90b0c0",
";  c #90c0b0",
":  c #80c0c0",
">  c #90c0c0",
",  c #b0c0c0",
"<  c #c0b0c0",
"1  c #c0c0b0",
"2  c #c0c0c0",
"3  c #f0e0f0",
"4  c gray94",
"5  c None",
/* pixels */
"555555555555555555555555555555555555555555555555",
"555555OoOoOoO55555555555555555555555555555555555",
"55555O222<222Oo555555555555555555555555555555555",
"5555o22,222,222555555555555555555555555555555555",
"5555OOoO>-;->21o55555555555555555555555555555555",
"555555O Oo-:>:2Oo5555555555555555555555555555555",
"55555555o >-:->o 5555555555555555555555555555555",
"555555555#O:-:>- 5555555555555555555555555555555",
"555555555#o=>-%>- 555555555555555555555555555555",
"555555555#O:>=&>: 555555555555555555555555555555",
"555555555Oo-= 4:- 555555555555555555555555555555",
"555555555o>:=  3: 555555555555555555555555555555",
"55O O555oO;= 44>- 555555555555555555555555555555",
"55o22 O5O:-=  4>:O 55555555555555555555555555555",
"55Oo2<2# -= 34 :-= 55555555555555555555555555555",
"555 ,22#-:=  4>-:>o 5555555555555555555555555555",
"5555 2122=o43 ;>-2-o5555555555555555555555555555",
"55555 2:>:-:>:->:22Oo555555555555555555555555555",
"555555o     ==>22=<2Oo55555555555555555555555555",
"555555555555   -, =2:Oo5555555555555555555555555",
"55555555555555  -2#=22Oo555555555555555555555555",
"555555555555555O -2 =2=Oo55555555555555555555555",
"5555555555555555O <2#2<:Oo5555555555555555555555",
"55555555555555555O 2, :2;Oo555555555555555555555",
"555555555555555555O -;#12:Oo55555555555555555555",
"5555555555555555555O 4: 2-:Oo5555555555555555555",
"55555555555555555555O 4222-:Oo555555555555555555",
"555555555555555555555O 4,22-;+o55555555555555555",
"5555555555555555555555O -:21-:@o5555555555555555",
"55555555555555555555555O -:-222+o555555555555555",
"555555555555555555555555O 4:22<:@o55555555555555",
"5555555555555555555555555O 4=222;+o5555555555555",
"55555555555555555555555555O 42212:@o555555555555",
"555555555555555555555555555O 4=222:+o55555555555",
"5555555555555555555555555555O 422:<2@o5555555555",
"55555555555555555555555555555O 4,2:2:=o555555555",
"555555555555555555555555555555O 422>2:=o55555555",
"5555555555555555555555555555555O 4=2:2:=o5555555",
"55555555555555555555555555555555O 4=22<;-o555555",
"555555555555555555555555555555555O 4:22-22o55555",
"5555555555555555555555555555555555O 4=2oOo*o5555",
"55555555555555555555555555555555555O 4=O552o5555",
"555555555555555555555555555555555555O 2o552O5555",
"5555555555555555555555555555555555555O.*55$o5555",
"55555555555555555555555555555555555555O.*$&O5555",
"555555555555555555555555555555555555555O..X55555",
"555555555555555555555555555555555555555555555555",
"555555555555555555555555555555555555555555555555"
};
