/* XPM */
static char * XEphem_xpm[] = {
"48 48 938 2",
"  	c None",
". 	c #000000",
"+ 	c #050606",
"@ 	c #1C232A",
"# 	c #1F2F40",
"$ 	c #273440",
"% 	c #2F363A",
"& 	c #252728",
"* 	c #060606",
"= 	c #07080A",
"- 	c #1F3651",
"; 	c #4D7196",
"> 	c #6A8A94",
", 	c #819B84",
"' 	c #889B7B",
") 	c #829674",
"! 	c #7A8B64",
"~ 	c #5F6E53",
"{ 	c #353A31",
"] 	c #090909",
"^ 	c #10161C",
"/ 	c #2F547C",
"( 	c #7095B4",
"_ 	c #CDCFB9",
": 	c #A8B7B1",
"< 	c #7E97A5",
"[ 	c #929A95",
"} 	c #A6A48A",
"| 	c #8A907E",
"1 	c #9E9B77",
"2 	c #9B9869",
"3 	c #666443",
"4 	c #1A1A18",
"5 	c #0B0F12",
"6 	c #396188",
"7 	c #A5BBBF",
"8 	c #E9EBCD",
"9 	c #FBFBE4",
"0 	c #FAFADD",
"a 	c #C8D2BE",
"b 	c #9BB1B5",
"c 	c #8F9E9E",
"d 	c #B4AC94",
"e 	c #D7C796",
"f 	c #B6B38E",
"g 	c #BCB479",
"h 	c #80754C",
"i 	c #121211",
"j 	c #010202",
"k 	c #254561",
"l 	c #8EAEC5",
"m 	c #F6F7E5",
"n 	c #FAFAE5",
"o 	c #FCFBDB",
"p 	c #FBFBD9",
"q 	c #FBFACE",
"r 	c #FBFBDB",
"s 	c #EBEED2",
"t 	c #D1D0A4",
"u 	c #F7F2AE",
"v 	c #D7CE9A",
"w 	c #BAB07D",
"x 	c #A39762",
"y 	c #595544",
"z 	c #010101",
"A 	c #101820",
"B 	c #4276A8",
"C 	c #C3CAB9",
"D 	c #F5F4CC",
"E 	c #FAFAD9",
"F 	c #FCFBD9",
"G 	c #FBFBE9",
"H 	c #FBFAD5",
"I 	c #FCFCDC",
"J 	c #FCFCDE",
"K 	c #BCC0A0",
"L 	c #DED9A0",
"M 	c #DAD59C",
"N 	c #A6A17C",
"O 	c #9B9364",
"P 	c #7C795B",
"Q 	c #222220",
"R 	c #2D2118",
"S 	c #795E42",
"T 	c #AD885C",
"U 	c #C89D69",
"V 	c #CF9A6A",
"W 	c #C28B54",
"X 	c #9A7348",
"Y 	c #63472F",
"Z 	c #17120D",
"` 	c #203D59",
" .	c #4A80B8",
"..	c #95AEA8",
"+.	c #C1C89C",
"@.	c #D7DCAD",
"#.	c #EAEDC2",
"$.	c #F8F7CC",
"%.	c #F9F6C8",
"&.	c #FCFBCE",
"*.	c #FCF9C4",
"=.	c #CAC8A0",
"-.	c #BFBC96",
";.	c #F7EFA4",
">.	c #C0B784",
",.	c #5A6056",
"'.	c #767252",
").	c #494941",
"!.	c #030303",
"~.	c #020202",
"{.	c #3F3224",
"].	c #B49773",
"^.	c #E9C699",
"/.	c #ECCB9C",
"(.	c #E9CEA2",
"_.	c #E7C298",
":.	c #E0BC90",
"<.	c #DEB680",
"[.	c #DAAC80",
"}.	c #CDA072",
"|.	c #C49A6C",
"1.	c #866C4F",
"2.	c #221912",
"3.	c #315981",
"4.	c #4B81B7",
"5.	c #588BBA",
"6.	c #6893B6",
"7.	c #769AAA",
"8.	c #9BB897",
"9.	c #99BB90",
"0.	c #A8BB91",
"a.	c #CFC794",
"b.	c #E0CB97",
"c.	c #CDBA8C",
"d.	c #AAA78A",
"e.	c #A1A389",
"f.	c #59686B",
"g.	c #283E51",
"h.	c #4A5248",
"i.	c #4F5243",
"j.	c #050505",
"k.	c #7F684D",
"l.	c #DEC09A",
"m.	c #E7CCA5",
"n.	c #ECCFA8",
"o.	c #EDC69C",
"p.	c #ECC496",
"q.	c #EBC69F",
"r.	c #EAC092",
"s.	c #E3C08B",
"t.	c #E1BD8B",
"u.	c #DCB18B",
"v.	c #D5B18B",
"w.	c #CDA271",
"x.	c #B99065",
"y.	c #543F2B",
"z.	c #3A6693",
"A.	c #497FB4",
"B.	c #5085B9",
"C.	c #5387B7",
"D.	c #6089AB",
"E.	c #A1B195",
"F.	c #9CB48B",
"G.	c #A0B189",
"H.	c #B6B688",
"I.	c #C9BA8C",
"J.	c #D0BC88",
"K.	c #D7C189",
"L.	c #848D7D",
"M.	c #234460",
"N.	c #233D52",
"O.	c #3C494B",
"P.	c #3F4C4B",
"Q.	c #080808",
"R.	c #7A6048",
"S.	c #C29F78",
"T.	c #D1AB7D",
"U.	c #DEBF97",
"V.	c #E5BC88",
"W.	c #EBBB92",
"X.	c #EBBF8F",
"Y.	c #ECC095",
"Z.	c #ECC192",
"`.	c #E2BC87",
" +	c #DFB184",
".+	c #DAAB79",
"++	c #D3A371",
"@+	c #C99868",
"#+	c #C49360",
"$+	c #A98056",
"%+	c #664932",
"&+	c #366391",
"*+	c #457AAF",
"=+	c #4C7FB3",
"-+	c #4E80AF",
";+	c #5580A7",
">+	c #ACB2A2",
",+	c #CCC093",
"'+	c #D0BC8D",
")+	c #BEB184",
"!+	c #B1A782",
"~+	c #B4A77C",
"{+	c #818375",
"]+	c #34536A",
"^+	c #203F5C",
"/+	c #223C51",
"(+	c #2A404E",
"_+	c #31434C",
":+	c #4C3D2C",
"<+	c #947254",
"[+	c #AE895A",
"}+	c #C09E6C",
"|+	c #D8B57F",
"1+	c #E5C086",
"2+	c #ECC58F",
"3+	c #EFC88D",
"4+	c #F2CFA3",
"5+	c #F1CC97",
"6+	c #EFCC97",
"7+	c #EBCA97",
"8+	c #E4BC87",
"9+	c #DCB184",
"0+	c #D7A679",
"a+	c #CB9A65",
"b+	c #B98E64",
"c+	c #A87B51",
"d+	c #4B3829",
"e+	c #2B557E",
"f+	c #4071A5",
"g+	c #4677A8",
"h+	c #4978A3",
"i+	c #507B9E",
"j+	c #B6BAAD",
"k+	c #E0CE9E",
"l+	c #D1BE8A",
"m+	c #B8AD80",
"n+	c #B3A477",
"o+	c #5D6B71",
"p+	c #2B4E6C",
"q+	c #214461",
"r+	c #213D53",
"s+	c #233C4E",
"t+	c #213C4F",
"u+	c #283D4B",
"v+	c #67503A",
"w+	c #796045",
"x+	c #937654",
"y+	c #B08D60",
"z+	c #C8A572",
"A+	c #D9B57F",
"B+	c #ECCA8F",
"C+	c #F5D394",
"D+	c #F4D297",
"E+	c #F3D29F",
"F+	c #F0D2A2",
"G+	c #EFCC9B",
"H+	c #EAC48D",
"I+	c #E0C090",
"J+	c #DBB584",
"K+	c #D29D6C",
"L+	c #C49562",
"M+	c #B28659",
"N+	c #A27954",
"O+	c #1D3C5A",
"P+	c #386799",
"Q+	c #3F6EA0",
"R+	c #416F99",
"S+	c #5C7C96",
"T+	c #D2CBA3",
"U+	c #DFD49F",
"V+	c #C5BA87",
"W+	c #A2A57B",
"X+	c #9F9870",
"Y+	c #3B576A",
"Z+	c #274763",
"`+	c #213D57",
" @	c #213C4E",
".@	c #233C4F",
"+@	c #203C50",
"@@	c #364149",
"#@	c #544636",
"$@	c #60513F",
"%@	c #786047",
"&@	c #9C7F5D",
"*@	c #BB976C",
"=@	c #D9BC8F",
"-@	c #EED3A4",
";@	c #F5DCAD",
">@	c #F6DDA9",
",@	c #F5D9A5",
"'@	c #F6DAA5",
")@	c #F0D5AB",
"!@	c #E7C795",
"~@	c #E9C998",
"{@	c #E2C090",
"]@	c #D7B280",
"^@	c #CFA26F",
"/@	c #B99265",
"(@	c #AF8459",
"_@	c #76583E",
":@	c #111D2C",
"<@	c #2F5A8A",
"[@	c #376293",
"}@	c #3A658E",
"|@	c #466A8B",
"1@	c #C0BD9E",
"2@	c #E3D39A",
"3@	c #BFB885",
"4@	c #939772",
"5@	c #64726E",
"6@	c #455863",
"7@	c #46525B",
"8@	c #203B4E",
"9@	c #203B4D",
"0@	c #525251",
"a@	c #49423A",
"b@	c #564D43",
"c@	c #6D6253",
"d@	c #92836D",
"e@	c #BCAA8F",
"f@	c #DBC8AD",
"g@	c #EFE0C5",
"h@	c #F9E9CF",
"i@	c #FBEED3",
"j@	c #F8EDD0",
"k@	c #F8EACF",
"l@	c #F5E4C7",
"m@	c #EFE0C1",
"n@	c #EBDDBC",
"o@	c #E4D5B1",
"p@	c #E0C9A3",
"q@	c #D4BD95",
"r@	c #C8B081",
"s@	c #B99D79",
"t@	c #A28767",
"u@	c #211C19",
"v@	c #050607",
"w@	c #1E3F63",
"x@	c #2B5886",
"y@	c #305B84",
"z@	c #335C81",
"A@	c #A0AC9F",
"B@	c #E7D399",
"C@	c #BBB07F",
"D@	c #6E7469",
"E@	c #284660",
"F@	c #5B5F56",
"G@	c #2E4457",
"H@	c #213C52",
"I@	c #293C49",
"J@	c #423C36",
"K@	c #413B35",
"L@	c #4C463D",
"M@	c #675C50",
"N@	c #8D7D6A",
"O@	c #B9A48C",
"P@	c #D8C3A8",
"Q@	c #EFDBBB",
"R@	c #F9E9CB",
"S@	c #FAEBCC",
"T@	c #FBEAC7",
"U@	c #F7E6C9",
"V@	c #F0E2C6",
"W@	c #EEDFC0",
"X@	c #EBD9B6",
"Y@	c #E2CDA9",
"Z@	c #DDC5A0",
"`@	c #D4BC9B",
" #	c #C5AA85",
".#	c #B19774",
"+#	c #9F8060",
"@#	c #473F33",
"##	c #10161E",
"$#	c #234369",
"%#	c #274C74",
"&#	c #284E73",
"*#	c #49657E",
"=#	c #989580",
"-#	c #75716E",
";#	c #294564",
">#	c #1F4063",
",#	c #284256",
"'#	c #203D56",
")#	c #203D55",
"!#	c #1F3848",
"~#	c #3F3E3C",
"{#	c #39332B",
"]#	c #3D3530",
"^#	c #4C4239",
"/#	c #645445",
"(#	c #887156",
"_#	c #B19671",
":#	c #D1B488",
"<#	c #E9CC9C",
"[#	c #F0D5AA",
"}#	c #F3DBB6",
"|#	c #F4DAB6",
"1#	c #F2D7B1",
"2#	c #EDD5B2",
"3#	c #E7CBA3",
"4#	c #E1C197",
"5#	c #DCBC90",
"6#	c #D3AE82",
"7#	c #C4A079",
"8#	c #B88F64",
"9#	c #A37D5A",
"0#	c #906D50",
"a#	c #594939",
"b#	c #151E2A",
"c#	c #203A58",
"d#	c #23426A",
"e#	c #1E4476",
"f#	c #204472",
"g#	c #1F4069",
"h#	c #1F3F63",
"i#	c #203F5A",
"j#	c #203F57",
"k#	c #203E57",
"l#	c #1F3E57",
"m#	c #1D3A4F",
"n#	c #2A3339",
"o#	c #332920",
"p#	c #32261F",
"q#	c #362C22",
"r#	c #453528",
"s#	c #5A432F",
"t#	c #795639",
"u#	c #9F7246",
"v#	c #C48F53",
"w#	c #D9A25D",
"x#	c #E2A257",
"y#	c #E7AC64",
"z#	c #E7B56C",
"A#	c #E2B26A",
"B#	c #DA9B59",
"C#	c #D28B4D",
"D#	c #CB8449",
"E#	c #CA864C",
"F#	c #B97B4C",
"G#	c #AC6F43",
"H#	c #A27146",
"I#	c #8E5C3F",
"J#	c #795336",
"K#	c #583A2A",
"L#	c #111720",
"M#	c #1B324F",
"N#	c #1D3C61",
"O#	c #1E3D63",
"P#	c #1E3D60",
"Q#	c #1F3D58",
"R#	c #203E56",
"S#	c #1E3E5C",
"T#	c #1E3E58",
"U#	c #1E374A",
"V#	c #252B2F",
"W#	c #131313",
"X#	c #3A3028",
"Y#	c #382F26",
"Z#	c #41362B",
"`#	c #514334",
" $	c #6D573F",
".$	c #916F4C",
"+$	c #B58D5C",
"@$	c #D6AB6C",
"#$	c #EBC686",
"$$	c #F0C985",
"%$	c #EEC782",
"&$	c #E9C590",
"*$	c #EABD82",
"=$	c #E2B680",
"-$	c #E0B886",
";$	c #DAB689",
">$	c #CFA979",
",$	c #BA8654",
"'$	c #B38457",
")$	c #AE835C",
"!$	c #977251",
"~$	c #79654A",
"{$	c #5D4C39",
"]$	c #0A0B0C",
"^$	c #1D252D",
"/$	c #1F3045",
"($	c #213955",
"_$	c #213B59",
":$	c #1C354C",
"<$	c #1B2E3D",
"[$	c #1C252E",
"}$	c #171819",
"|$	c #101010",
"1$	c #111111",
"2$	c #392B21",
"3$	c #3F3024",
"4$	c #493528",
"5$	c #573E2C",
"6$	c #714C34",
"7$	c #92603D",
"8$	c #B77947",
"9$	c #D19651",
"0$	c #E0A459",
"a$	c #E1A459",
"b$	c #DF9D57",
"c$	c #DA9753",
"d$	c #D08E51",
"e$	c #D19357",
"f$	c #D09559",
"g$	c #C58B51",
"h$	c #AF7247",
"i$	c #AC7143",
"j$	c #9B6D49",
"k$	c #8F6443",
"l$	c #795436",
"m$	c #674C35",
"n$	c #534232",
"o$	c #040404",
"p$	c #070707",
"q$	c #0A0A0A",
"r$	c #0C0C0C",
"s$	c #0E0E0E",
"t$	c #30231C",
"u$	c #412D21",
"v$	c #4C3022",
"w$	c #5C3525",
"x$	c #723E29",
"y$	c #965630",
"z$	c #B56538",
"A$	c #BC723D",
"B$	c #C6793E",
"C$	c #C0713D",
"D$	c #B66A3A",
"E$	c #B56435",
"F$	c #AC683B",
"G$	c #C69057",
"H$	c #BC8B5C",
"I$	c #B88454",
"J$	c #AC744D",
"K$	c #97623F",
"L$	c #805335",
"M$	c #6C422B",
"N$	c #65422C",
"O$	c #573F2F",
"P$	c #422F23",
"Q$	c #141414",
"R$	c #121212",
"S$	c #0D0D0D",
"T$	c #0B0B0B",
"U$	c #0F0F0F",
"V$	c #34241C",
"W$	c #573826",
"X$	c #5A3A26",
"Y$	c #74462D",
"Z$	c #8E5635",
"`$	c #AB683B",
" %	c #BF7843",
".%	c #C68047",
"+%	c #CC864C",
"@%	c #C4763D",
"#%	c #B9713D",
"$%	c #B56A3A",
"%%	c #AF673A",
"&%	c #A25734",
"*%	c #9D5A38",
"=%	c #864D33",
"-%	c #78452A",
";%	c #6C3E26",
">%	c #623B26",
",%	c #593626",
"'%	c #533526",
")%	c #4A3429",
"!%	c #2C1E19",
"~%	c #151515",
"{%	c #271E17",
"]%	c #673F29",
"^%	c #72472E",
"/%	c #874E30",
"(%	c #9D5F3D",
"_%	c #B27446",
":%	c #C38751",
"<%	c #C99056",
"[%	c #C48A56",
"}%	c #C8854E",
"|%	c #C17D49",
"1%	c #B16D42",
"2%	c #AB6A3F",
"3%	c #975A3A",
"4%	c #955A3A",
"5%	c #8E5F3D",
"6%	c #825D3F",
"7%	c #724D38",
"8%	c #765136",
"9%	c #654630",
"0%	c #544635",
"a%	c #544132",
"b%	c #191410",
"c%	c #171717",
"d%	c #191919",
"e%	c #1F1F1F",
"f%	c #252525",
"g%	c #292929",
"h%	c #282828",
"i%	c #161616",
"j%	c #7A5A3F",
"k%	c #9F7F5A",
"l%	c #AE9067",
"m%	c #C1A379",
"n%	c #D3B186",
"o%	c #D6B88B",
"p%	c #D4B589",
"q%	c #CCB07F",
"r%	c #CAAA7B",
"s%	c #C19565",
"t%	c #A97F57",
"u%	c #AB7D56",
"v%	c #A2744E",
"w%	c #906A4C",
"x%	c #806246",
"y%	c #7F5C3F",
"z%	c #6D543F",
"A%	c #5F4C3A",
"B%	c #544738",
"C%	c #514636",
"D%	c #44392E",
"E%	c #212121",
"F%	c #2C2C2C",
"G%	c #303030",
"H%	c #363636",
"I%	c #2D2D2D",
"J%	c #2E2E2E",
"K%	c #343434",
"L%	c #232323",
"M%	c #1E1E1E",
"N%	c #3A2F26",
"O%	c #A6805C",
"P%	c #B19068",
"Q%	c #BE9D71",
"R%	c #C39D72",
"S%	c #C39F72",
"T%	c #C39C6D",
"U%	c #C09C6F",
"V%	c #B58F6C",
"W%	c #B18964",
"X%	c #A3805F",
"Y%	c #906847",
"Z%	c #795A3F",
"`%	c #6C513B",
" &	c #644935",
".&	c #594230",
"+&	c #503D2D",
"@&	c #4D3A2C",
"#&	c #4A3A30",
"$&	c #1C1610",
"%&	c #3C3C3C",
"&&	c #2A2A2A",
"*&	c #393939",
"=&	c #484848",
"-&	c #383838",
";&	c #5B4431",
">&	c #A3724C",
",&	c #B1895D",
"'&	c #AB7F53",
")&	c #AA744A",
"!&	c #A4764C",
"~&	c #946A47",
"{&	c #8F6849",
"]&	c #896041",
"^&	c #79593F",
"/&	c #6D4E38",
"(&	c #5C4532",
"_&	c #534A41",
":&	c #635C56",
"<&	c #6C6763",
"[&	c #615C58",
"}&	c #443F3A",
"|&	c #41372D",
"1&	c #2E2219",
"2&	c #181818",
"3&	c #1C1C1C",
"4&	c #2F2F2F",
"5&	c #323232",
"6&	c #3A3A3A",
"7&	c #414141",
"8&	c #5B5B5B",
"9&	c #6B6B6B",
"0&	c #5C5C5C",
"a&	c #4F4F4F",
"b&	c #434343",
"c&	c #1B1B1B",
"d&	c #674D3A",
"e&	c #9D6C49",
"f&	c #8D684A",
"g&	c #8B6546",
"h&	c #865D3F",
"i&	c #76563D",
"j&	c #6F513A",
"k&	c #5A473A",
"l&	c #4A4036",
"m&	c #8F8C8D",
"n&	c #ACABAB",
"o&	c #B0B0AC",
"p&	c #BABBB8",
"q&	c #A9AAAB",
"r&	c #9DA0A0",
"s&	c #737372",
"t&	c #0D0E0E",
"u&	c #1A1A1A",
"v&	c #313131",
"w&	c #4E4E4E",
"x&	c #686868",
"y&	c #909090",
"z&	c #707070",
"A&	c #797979",
"B&	c #838383",
"C&	c #565656",
"D&	c #444444",
"E&	c #534739",
"F&	c #87674C",
"G&	c #86654A",
"H&	c #7F5D45",
"I&	c #715741",
"J&	c #65503F",
"K&	c #5D4938",
"L&	c #473E35",
"M&	c #959595",
"N&	c #B1B1AF",
"O&	c #B8B8B3",
"P&	c #B4B3B0",
"Q&	c #A3A4A3",
"R&	c #8C8C8C",
"S&	c #777777",
"T&	c #676767",
"U&	c #595855",
"V&	c #070807",
"W&	c #404040",
"X&	c #333333",
"Y&	c #3B3B3B",
"Z&	c #555555",
"`&	c #5A5A5A",
" *	c #4D4D4D",
".*	c #6A6A6A",
"+*	c #737373",
"@*	c #6F6F6F",
"#*	c #717171",
"$*	c #515151",
"%*	c #525252",
"&*	c #28241E",
"**	c #453F37",
"=*	c #54473A",
"-*	c #504232",
";*	c #47392D",
">*	c #3E3128",
",*	c #8B8B89",
"'*	c #AFB1AF",
")*	c #A7A7A6",
"!*	c #929292",
"~*	c #939392",
"{*	c #9E9C9C",
"]*	c #878787",
"^*	c #7B7B7B",
"/*	c #6E6D6E",
"(*	c #6B6B6A",
"_*	c #3E413D",
":*	c #474747",
"<*	c #353535",
"[*	c #3F3F3F",
"}*	c #6D6D6D",
"|*	c #505050",
"1*	c #535353",
"2*	c #646464",
"3*	c #373737",
"4*	c #1F1B1A",
"5*	c #281F1B",
"6*	c #312925",
"7*	c #403B38",
"8*	c #A2A1A2",
"9*	c #ABAAA9",
"0*	c #8D8F8D",
"a*	c #818281",
"b*	c #7F7F7F",
"c*	c #7E7D7E",
"d*	c #757475",
"e*	c #5E5F5E",
"f*	c #4C514E",
"g*	c #050605",
"h*	c #202020",
"i*	c #606060",
"j*	c #5D5D5D",
"k*	c #626262",
"l*	c #616161",
"m*	c #3D3D3D",
"n*	c #454545",
"o*	c #4C4D4C",
"p*	c #9F9D9D",
"q*	c #A3A1A2",
"r*	c #93928F",
"s*	c #838481",
"t*	c #858785",
"u*	c #7D7E7D",
"v*	c #5F605F",
"w*	c #515452",
"x*	c #4A4B48",
"y*	c #0F1112",
"z*	c #424242",
"A*	c #747474",
"B*	c #636363",
"C*	c #575757",
"D*	c #272727",
"E*	c #717371",
"F*	c #9B9B99",
"G*	c #A3A3A3",
"H*	c #A6A6A5",
"I*	c #878785",
"J*	c #7F807F",
"K*	c #7C7A78",
"L*	c #767576",
"M*	c #6D6C6D",
"N*	c #656665",
"O*	c #5A5B5A",
"P*	c #4A4B4A",
"Q*	c #2E3538",
"R*	c #242424",
"S*	c #9C9C9C",
"T*	c #D2D2D2",
"U*	c #ACACAC",
"V*	c #696969",
"W*	c #545454",
"X*	c #5C5D5E",
"Y*	c #878786",
"Z*	c #8F8F8D",
"`*	c #9C9B9A",
" =	c #595B59",
".=	c #555756",
"+=	c #575857",
"@=	c #555755",
"#=	c #444846",
"$=	c #292E2D",
"%=	c #656565",
"&=	c #858585",
"*=	c #E1E1E1",
"==	c #F7F7F7",
"-=	c #EDEDED",
";=	c #B0B0B0",
">=	c #5F5F5F",
",=	c #666666",
"'=	c #4A4A4A",
")=	c #3A393A",
"!=	c #6A6B6A",
"~=	c #838282",
"{=	c #929391",
"]=	c #979796",
"^=	c #858685",
"/=	c #757575",
"(=	c #5B5D5A",
"_=	c #525552",
":=	c #4A4D4D",
"<=	c #484B49",
"[=	c #3F3D3B",
"}=	c #1E2223",
"|=	c #727272",
"1=	c #8F8F8F",
"2=	c #DDDDDD",
"3=	c #F6F6F6",
"4=	c #BDBDBD",
"5=	c #4B4B4B",
"6=	c #464646",
"7=	c #151514",
"8=	c #787778",
"9=	c #7B7C7B",
"0=	c #818181",
"a=	c #777577",
"b=	c #4F5350",
"c=	c #4A4C4C",
"d=	c #434242",
"e=	c #3C3C3D",
"f=	c #CCCCCC",
"g=	c #D1D1D1",
"h=	c #A2A2A2",
"i=	c #888888",
"j=	c #767676",
"k=	c #222222",
"l=	c #434543",
"m=	c #5F615F",
"n=	c #676867",
"o=	c #706F70",
"p=	c #646564",
"q=	c #5B5C5B",
"r=	c #595A59",
"s=	c #4E514D",
"t=	c #434345",
"u=	c #3F3E40",
"v=	c #313233",
"w=	c #050504",
"x=	c #494949",
"y=	c #BCBCBC",
"z=	c #6C6C6C",
"A=	c #1D1D1D",
"B=	c #0A0A09",
"C=	c #484A48",
"D=	c #4E514F",
"E=	c #4F5252",
"F=	c #525453",
"G=	c #484A4B",
"H=	c #434549",
"I=	c #3E3F40",
"J=	c #3D3E3C",
"K=	c #3A3A3B",
"L=	c #020302",
"M=	c #7A7A7A",
"N=	c #848484",
"O=	c #090808",
"P=	c #363531",
"Q=	c #3D3C3B",
"R=	c #3B3B3C",
"S=	c #3C3D3E",
"T=	c #3C3A38",
"U=	c #333334",
"V=	c #2C2B2C",
"W=	c #020303",
"X=	c #4C4C4C",
"Y=	c #585858",
"Z=	c #979797",
"`=	c #AAAAAA",
" -	c #2B2B2B",
".-	c #3E3E3E",
"+-	c #060607",
"@-	c #242425",
"#-	c #1E2021",
"$-	c #939393",
"%-	c #8A8A8A",
"&-	c #595959",
"*-	c #969696",
"=-	c #A1A1A1",
"--	c #989898",
";-	c #B3B3B3",
">-	c #808080",
",-	c #262626",
"'-	c #8E8E8E",
")-	c #5E5E5E",
"!-	c #7E7E7E",
"~-	c #8D8D8D",
". . . . . . . . . . . . . . . . . . . . . . . . . . . . . . . . . . . . . . . . . . . . . . . . ",
". . . . . . . . . . . . . . . . . . . . . . . . . . . . . . . . . . . . . . . . . . . . . . . . ",
". . . . . . . . . + @ # $ % & * . . . . . . . . . . . . . . . . . . . . . . . . . . . . . . . . ",
". . . . . . . = - ; > , ' ) ! ~ { ] . . . . . . . . . . . . . . . . . . . . . . . . . . . . . . ",
". . . . . . ^ / ( _ : < [ } | 1 2 3 4 . . . . . . . . . . . . . . . . . . . . . . . . . . . . . ",
". . . . . 5 6 7 8 9 0 a b c d e f g h i . . . . . . . . . . . . . . . . . . . . . . . . . . . . ",
". . . . j k l m n o p q r s t u v w x y z . . . . . . . . . . . . . . . . . . . . . . . . . . . ",
". . . . A B C D E F G H I J K L M N O P Q z z . . . R S T U V W X Y Z . . . . . . . . . . . . . ",
". . . . `  ...+.@.#.$.%.&.*.=.-.;.>.,.'.).!.!.~.{.].^./.(._.:.<.[.}.|.1.2.. . . . . . . . . . . ",
". . . . 3.4.5.6.7.8.9.0.a.b.c.d.e.f.g.h.i.j.j.k.l.m.n.o.p.q.r.s.t.u.v.w.x.y.. . . . . . . . . . ",
". . . . z.A.B.C.D.E.F.G.H.I.J.K.L.M.N.O.P.Q.R.S.T.U.V.W.X.Y.Z.`. +.+++@+#+$+%+. . . . . . . . . ",
". . . . &+*+=+-+;+>+,+'+)+!+~+{+]+^+/+(+_+:+<+[+}+|+1+2+3+4+5+6+7+8+9+0+a+b+c+d+. . . . . . . . ",
". . . . e+f+g+h+i+j+k+l+m+n+o+p+q+r+s+t+u+v+w+x+y+z+A+B+C+D+E+F+G+H+I+J+K+L+M+N+R . . . . . . . ",
". . . . O+P+Q+R+S+T+U+V+W+X+Y+Z+`+ @.@+@@@#@$@%@&@*@=@-@;@>@,@'@)@!@~@{@]@^@/@(@_@. . . . . . . ",
". . . . :@<@[@}@|@1@2@3@4@5@6@7@8@9@8@8@0@a@b@c@d@e@f@g@h@i@j@k@l@m@n@o@p@q@r@s@t@u@. . . . . . ",
". . . . v@w@x@y@z@A@B@C@D@E@F@G@H@9@9@I@J@K@L@M@N@O@P@Q@R@S@T@U@V@W@X@Y@Z@`@ #.#+#@#. . . . . . ",
". . . . . ##$#%#&#*#=#-#;#>#,#'#)#+@!#~#{#]#^#/#(#_#:#<#[#}#|#1#2#3#4#5#6#7#8#9#0#a#. . . . . . ",
". . . . . ~.b#c#d#e#f#g#h#i#j#k#l#m#n#o#p#q#r#s#t#u#v#w#x#y#z#A#B#C#D#E#F#G#H#I#J#K#. . . . . . ",
". . . . . . ~.L#M#N#O#P#Q#R#S#T#U#V#W#X#Y#Z#`# $.$+$@$#$$$%$&$*$=$-$;$>$,$'$)$!$~${$. . . . . . ",
". . . . . . . . ]$^$/$($_$:$<$[$}$|$1$2$3$4$5$6$7$8$9$0$a$b$c$d$e$f$g$h$i$j$k$l$m$n$. . . . . . ",
". . . . . . . . . . . z ~.o$p$q$r$s$|$t$u$v$w$x$y$z$A$B$C$D$E$F$G$H$I$J$K$L$M$N$O$P$. . . . . . ",
"Q$Q$W#R$W#R$R$|$s$s$S$T$T$T$r$S$U$|$1$V$W$X$Y$Z$`$ %.%+%@%#%$%%%&%*%=%-%;%>%,%'%)%!%. . . . . . ",
"~%Q$Q$W#W#1$W#W#R$R$1$|$1$U$|$|$1$R$1${%]%^%/%(%_%:%<%[%}%|%1%2%3%4%5%6%7%8%9%0%a%b%. . . . . . ",
"~%Q$R$W#W#Q$c%d%d%e%f%g%h%c%Q$i%R$1$1$1$j%k%l%m%n%o%p%q%r%s%t%u%v%w%x%y%z%A%B%C%D%. . . . . . . ",
"i%W#R$Q$d%i%d%E%F%G%H%I%J%K%L%M%~%i%W#R$N%O%P%Q%R%S%T%U%V%W%X%Y%Z%`% &.&+&@&@&#&$&. . . . . . . ",
"i%Q$Q$~%c%d%g%%&K%I%&&J%*&=&-&E%L%d%R$1$1$;&>&,&'&)&!&~&{&]&^&/&(&_&:&<&[&}&|&1&~.z . . . . . . ",
"Q$i%~%2&3&4&*&5&g%J%6&7&8&9&0&a&b&L%c&c%~%c%d&w%e&f&g&h&i&j&k&l&m&n&o&p&q&r&s&t&~.z . . . . . . ",
"Q$i%i%u&g%*&v&5&5&6&*&w&x&y&z&A&B&C&D&g%J%L%L%E&F&G&H&I&J&K&L&M&N&O&P&Q&R&S&T&U&V&z . . . . . . ",
"Q$~%c%e%W&X&G%Y&H%=&Z&`& *x&.*+*T&@*#*$*%*X&e%~%&***=*-*;*>*,*'*)*!*~*{*]*^*/*(*_*z . . . . . . ",
"Q$~%u&I%.*:*<**&[*}*Z&w&|*1*8&w&x&2*$*D&3*:*J%d%Q$R$4*5*6*7*8*9*0*a*b*c*}*d*.*e*f*g*. . . . . . ",
"~%2&h*H%b*w&*&%&i*j*k*l*|*a&w&7&m*a&`&8&m*n*5&L%c&2&W#~.!.o*p*q*r*s*t*u*z&9&v*w*x*y*. . . . . . ",
"c%c&L%W&S&n*W&z*Z&8&@*9&S&A*B*C*a&n*b&8&`&G%Y&J%D*L%2&~.!.E*F*G*H*I*J*K*L*M*N*O*P*Q*. . . . . . ",
"u&L%R*D&%*w&:*W&C&+*+*S*T*U*B&j*b*2*w&V*W*=&m*n*g%M%2&~.~.X*Y*Z*`*!*L*T& =.=+=@=#=$=. . . . . . ",
"e%&&X&|*%&Z&D&C&%=.*&=*===-=;=>=Z&,=a&C*$*b&-&'=m*h*u&z ~.)=!=~={=]=^=/=(=_=:=<=[=}=. . . . . . ",
"E%g%6&i**&Z&[*n*|=%=1=2===3=4=>=j*G*A*5=1*6&-&6=W&J%u&z z 7=9&8=9=0=a=e*@=b=c=d=e=W#. . . . . . ",
"e%g%Y&B*b&n*m*[*.*,=!*f=2=g=h=2*Z&i=j=7&z*%&X&6=Y&k=c&. z z l=m=n=o=p=q=r=s=t=u=v=w=. . . . . . ",
"M%f%x=>=5=1*%&7&8&S&l*B&y=4=A&z=,=!*`&[*Y&-&D*H%[*f%A=. . . B=C=D=E=F=G=H=I=J=K=Q.L=. . . . . . ",
"h*h%1*z&C&1*6=m*W&D&j*|=M=.*B*2*M&N=m*G%K%3*&&<*D&&&A=. . . . O=P=Q=R=S=T=U=V=B=. W=. . . . . . ",
"E%f%>=R&j=i*1*5=:*=&X=Y=i*i*}*Z=`=0&H%F% -3* -C*.-f%u&. . . . . z +-@-K%#-U$z . . !.. . . . . . ",
"3&k=<*S&$-%-#*%=j*1*W*l*8&M=`=y&&-m*&&F%F%H%v&*&J%A=d%. . . . . . . . . . . . . . . . . . . . . ",
"e%k=&&x=*-=---;-T&B*A&9&]*G*>-Z&v& -f%f%v&-&*&I%,-d%u&. . . . . . . . . . . . . . . . . . . . . ",
"e%L%-&3*x=>=>='-^*1*j*b*B*Z&D&G%&&D*F%X&l*C*J%R*d%Q$Q$. . . . . . . . . . . . . . . . . . . . . ",
"E%E%k=I%5&%&)-!-w&V*}*%*-&%&5&5&F%J%[*w&6=K%M%u&~%W#W#. . . . . . . . . . . . . . . . . . . . . ",
"e%f%,-&&J%*& *x&z=~-0&7&K%[*%&-&<*m*6=:*G%h*2&~%W#R$W#. . . . . . . . . . . . . . . . . . . . . ",
",-%&F%f%E%f%5&'=C*a&-&6&D&C&x=H%K%4& -f%c&2&Q$W#R$1$W#. . . . . . . . . . . . . . . . . . . . . ",
"D* -I%v&X&<*7&7&=&6&H%<*J%g%h%L%f%R*k=d%~%~%Q$W#R$R$W#. . . . . . . . . . . . . . . . . . . . . ",
"e%k=R*&&K%3*<*5&J%I%g%,-k=A=h*M%A=A=2&Q$Q$Q$Q$R$R$W#W#. . . . . . . . . . . . . . . . . . . . . ",
". . . . . . . . . . . . . . . . . . . . . . . . . . . . . . . . . . . . . . . . . . . . . . . . "};
