/* XPM */
static char * 1_xpm[] = {
"114 26 158 2",
"  	c None",
". 	c #B0C3D6",
"+ 	c #718BA5",
"@ 	c #3D454D",
"# 	c #7991AA",
"$ 	c #C1CDD8",
"% 	c #E6EBEF",
"& 	c #F9FAFB",
"* 	c #C2CDD8",
"= 	c #7D95AD",
"- 	c #EEF1F4",
"; 	c #EAEDF1",
"> 	c #ACB4BB",
", 	c #9EA2A5",
"' 	c #B2B2B3",
") 	c #ECEDED",
"! 	c #F0F1F2",
"~ 	c #7F95AC",
"{ 	c #CAD4DD",
"] 	c #FBFCFC",
"^ 	c #919496",
"/ 	c #898C90",
"( 	c #848C93",
"_ 	c #888C8F",
": 	c #919293",
"< 	c #FBFBFB",
"[ 	c #D5D5D6",
"} 	c #758BA2",
"| 	c #DAE1E7",
"1 	c #BFCBD6",
"2 	c #C0CBD7",
"3 	c #E1E7EC",
"4 	c #A5B6C6",
"5 	c #AAB9C9",
"6 	c #E5EAEF",
"7 	c #F6F7F9",
"8 	c #CBD4DE",
"9 	c #95A8BC",
"0 	c #738CA6",
"a 	c #FCFCFD",
"b 	c #DBDEE1",
"c 	c #8B8C8D",
"d 	c #898C8F",
"e 	c #DCDCDC",
"f 	c #FDFDFD",
"g 	c #8E8E8F",
"h 	c #FBFBFC",
"i 	c #BCC3C8",
"j 	c #89949F",
"k 	c #AAACAE",
"l 	c #FCFCFC",
"m 	c #93A1AE",
"n 	c #B2C0CE",
"o 	c #EFF2F5",
"p 	c #B1BAC3",
"q 	c #9CA0A4",
"r 	c #BDBDBE",
"s 	c #FAFAFA",
"t 	c #8F9FB0",
"u 	c #859BB2",
"v 	c #FFFFFF",
"w 	c #BABABB",
"x 	c #888C90",
"y 	c #7A8B9C",
"z 	c #AAB7C4",
"A 	c #9E9E9E",
"B 	c #ECEDEE",
"C 	c #8C8C8C",
"D 	c #858C92",
"E 	c #808B96",
"F 	c #E3E3E4",
"G 	c #C2C2C2",
"H 	c #7F8C9A",
"I 	c #738DA6",
"J 	c #F8F9FA",
"K 	c #AFB8C0",
"L 	c #828C95",
"M 	c #D1D1D1",
"N 	c #C9CACA",
"O 	c #7B8B9C",
"P 	c #BABABA",
"Q 	c #8C8C8D",
"R 	c #728BA3",
"S 	c #A6B7C7",
"T 	c #DEE1E3",
"U 	c #CACDD0",
"V 	c #CACFD3",
"W 	c #DADADA",
"X 	c #929DA9",
"Y 	c #EDEDED",
"Z 	c #8B8C8C",
"` 	c #DEDEDE",
" .	c #D4DCE3",
"..	c #FCFDFD",
"+.	c #8E8E8E",
"@.	c #E1E1E1",
"#.	c #C6C9CC",
"$.	c #C8CED4",
"%.	c #D8DBDE",
"&.	c #AAAAAA",
"*.	c #768BA1",
"=.	c #CCD5DE",
"-.	c #939393",
";.	c #7C8C9B",
">.	c #FAFBFC",
",.	c #D2D5D8",
"'.	c #C7C9CC",
").	c #C3CED9",
"!.	c #8C8E90",
"~.	c #FAFAFB",
"{.	c #D3D3D3",
"].	c #8A8C8E",
"^.	c #7F8B97",
"/.	c #7E95AD",
"(.	c #F1F2F3",
"_.	c #B3B3B3",
":.	c #95A2AE",
"<.	c #A0B2C3",
"[.	c #E8ECF1",
"}.	c #EFF1F4",
"|.	c #959697",
"1.	c #808C97",
"2.	c #BBBFC4",
"3.	c #D0D0D0",
"4.	c #A5A5A5",
"5.	c #A1A1A1",
"6.	c #BBBBBB",
"7.	c #BEBEBE",
"8.	c #7C92A8",
"9.	c #CDCDCE",
"0.	c #EBEBEB",
"a.	c #E8EBEF",
"b.	c #C6CED5",
"c.	c #8E9196",
"d.	c #808C98",
"e.	c #848C94",
"f.	c #ADB5BE",
"g.	c #E8E8E8",
"h.	c #F5F6F7",
"i.	c #DBE1E6",
"j.	c #A0ACB7",
"k.	c #7C8B9A",
"l.	c #758BA1",
"m.	c #888B8F",
"n.	c #878B8F",
"o.	c #838C95",
"p.	c #8B8C8E",
"q.	c #868C91",
"r.	c #818C97",
"s.	c #738BA3",
"t.	c #878C90",
"u.	c #878B90",
"v.	c #808B97",
"w.	c #738BA4",
"x.	c #7B8C9C",
"y.	c #878C91",
"z.	c #8A8C8D",
"A.	c #798B9E",
". . . . . . . . . . . . . . . . . . . . . . . . . . . . . . . . . . . . . . . . . . . . . . . . . . . . . . . . . . . . . . . . . . . . . . . . . . . . . . . . . . . . . . . . . . . . . . . . . . . . . . . . . . . . . . . . . . ",
". + + + + + + + + + + + + + + + + + + + + + + + + + + + + + + + + + + + + + + + + + + + + + + + + + + + + + + + + + + + + + + + + + + + + + + + + + + + + + + + + + + + + + + + + + + + + + + + + + + + + + + + + + + + + + + + + @ ",
". + + + + + + + + + + + + + + + + + + + + + + + + + + + + + + + + + + + + + + + + + + + + + + + + + + + + + + + + + + + + + + + + + + + + + + + + + + + + + + + + + + + + + + + + + + + + + + + + + + + + + + + + + + + + + + + + @ ",
". + + + + + + + + + + + + + + + + + + + + + + + + + + + + + + + + + + + + + + + + + + + + + + + + + + + + + + + + + + + + + + + + + + + + + + + + + + + + + + + + + + + + + + + + + + + + + + + + + + + + + + + + + + + + + + + + @ ",
". + + + + + + + + + + + + + + + + + + + + + + + + + + + + + + + + + + + + + + + + + + + + + + + + + + + + + + + + + + + + + + + + + + + + + + + + + + + + + + + + + + + + + + + + + + + + + + + + + + + + + + + + + + + + + + + + @ ",
". + + + + + + + + + + + + + + + + + + + + + + + + + + + + + + + + + + + + + + + + + + + + + + + + + + + + + + + + + + + + + + + + + + + + + + + + + + + + + + + + + + + + + + + + + + + + + + + + + + + + + + + + + + + + + + + + @ ",
". + + + + + + + + + + + + + + + + + + + + + + + + + + + + + + + + + + + + + + + + + + + + + + + + + + + + + + + + + + + + + + + + + + + + + + + + + + + + + + + + + + + + + + + + + + + + + + + + + + + + + + + + + + + + + + + + @ ",
". + + + + + + # $ % & % * # + + + + + + + + + + + + + + + + + + + + + + + + + + + + + + + + + + + + + + + + + + + + + + + + + + + + + + + + + + + + + + + + + + + + + + + + + + + + + + + + + + + + + + + + + + + + + + + + + + + @ ",
". + + + + + = - ; > , ' ) ! ~ + + + + + + + + + + + + + + + + + + + + + + + + + + + + + + + + + + + + + + + + + + + + + + + + + + + + + + + + + + + + + + + + + + + + + + + + + + + + + + + + + + + + + + + + + + + + + + + + + + @ ",
". + + + + + { ] ^ / ( _ : < [ } + | 1 2 - 3 4 + + + + 5 6 7 8 9 + + + + + + + + + + + + + + + + + + + + + + + + + + + + + + + + + + + + + + + + + + + + + + + + + + + + + + + + + + + + + + + + + + + + + + + + + + + + + + + + + @ ",
". + + + + 0 a b c d / ( _ e f g } | h i j k l m + + n o p q r s t + + + + + + + + + + + + + + + + + + + + + + + + + + + + + + + + + + + + + + + + + + + + + + + + + + + + + + + + + + + + + + + + + + + + + + + + + + + + + + + + @ ",
". + + + + u v w d c d x y z v A c | B C D E F G H I J K d L x M N O + + + + + + + + + + + + + + + + + + + + + + + + + + + + + + + + + + + + + + + + + + + + + + + + + + + + + + + + + + + + + + + + + + + + + + + + + + + + + + + @ ",
". + + + + u v P Q d c R + S v A C T U c C D V W C X v v v v v v Y Z O + + + + + + + + + + + + + + + + + + + + + + + + + + + + + + + + + + + + + + + + + + + + + + + + + + + + + + + + + + + + + + + + + + + + + + + + + + + + + + @ ",
". + + + + 0 a ` C Q ( + +  ...+.C @.#.d c Q $.%.c A v &.C C C C C c c *.+ + + + + + + + + + + + + + + + + + + + + + + + + + + + + + + + + + + + + + + + + + + + + + + + + + + + + + + + + + + + + + + + + + + + + + + + + + + + + @ ",
". + + + + + =.l -.C ;.+ # >.,.C C @.'.d d x ).%./ !.~.{.C C C C C C ].^.+ + + + + + + + + + + + + + + + + + + + + + + + + + + + + + + + + + + + + + + + + + + + + + + + + + + + + + + + + + + + + + + + + + + + + + + + + + + + + @ ",
". + + + + + /.(.Y _.:.<.[.}.|.d C @.'.d d 1.).%._ / 2.< 3.4.5.6.7.C C x + + + + + + + + + + + + + + + + + + + + + + + + + + + + + + + + + + + + + + + + + + + + + + + + + + + + + + + + + + + + + + + + + + + + + + + + + + + + + @ ",
". + + + + + + 8.9.0.~.a.b.c.d c d @.#.d d d.).%._ _ e.f.g.s h.i.j.k.+ + + + + + + + + + + + + + + + + + + + + + + + + + + + + + + + + + + + + + + + + + + + + + + + + + + + + + + + + + + + + + + + + + + + + + + + + + + + + + + @ ",
". + + + + + + + l.Q C Q m.e.n.d c L D d d d.+ E _ _ e.+ o.C C p.q.r.k.+ + + + + + + + + + + + + + + + + + + + + + + + + + + + + + + + + + + + + + + + + + + + + + + + + + + + + + + + + + + + + + + + + + + + + + + + + + + + + + @ ",
". + + + + + + + + l.p.Q Q m.e.n.d s.+ D d d.+ + E _ e.+ + o.Q Z p.q.r.k.+ + + + + + + + + + + + + + + + + + + + + + + + + + + + + + + + + + + + + + + + + + + + + + + + + + + + + + + + + + + + + + + + + + + + + + + + + + + + + @ ",
". + + + + + + + + + R r.t.c u.v.w.+ + + D d.+ + + E e.+ + + x.y.z.].D A.+ + + + + + + + + + + + + + + + + + + + + + + + + + + + + + + + + + + + + + + + + + + + + + + + + + + + + + + + + + + + + + + + + + + + + + + + + + + + + @ ",
". + + + + + + + + + + + + + + + + + + + + + + + + + + + + + + + + + + + + + + + + + + + + + + + + + + + + + + + + + + + + + + + + + + + + + + + + + + + + + + + + + + + + + + + + + + + + + + + + + + + + + + + + + + + + + + + + @ ",
". + + + + + + + + + + + + + + + + + + + + + + + + + + + + + + + + + + + + + + + + + + + + + + + + + + + + + + + + + + + + + + + + + + + + + + + + + + + + + + + + + + + + + + + + + + + + + + + + + + + + + + + + + + + + + + + + @ ",
". + + + + + + + + + + + + + + + + + + + + + + + + + + + + + + + + + + + + + + + + + + + + + + + + + + + + + + + + + + + + + + + + + + + + + + + + + + + + + + + + + + + + + + + + + + + + + + + + + + + + + + + + + + + + + + + + @ ",
". + + + + + + + + + + + + + + + + + + + + + + + + + + + + + + + + + + + + + + + + + + + + + + + + + + + + + + + + + + + + + + + + + + + + + + + + + + + + + + + + + + + + + + + + + + + + + + + + + + + + + + + + + + + + + + + + @ ",
". + + + + + + + + + + + + + + + + + + + + + + + + + + + + + + + + + + + + + + + + + + + + + + + + + + + + + + + + + + + + + + + + + + + + + + + + + + + + + + + + + + + + + + + + + + + + + + + + + + + + + + + + + + + + + + + + @ ",
". @ @ @ @ @ @ @ @ @ @ @ @ @ @ @ @ @ @ @ @ @ @ @ @ @ @ @ @ @ @ @ @ @ @ @ @ @ @ @ @ @ @ @ @ @ @ @ @ @ @ @ @ @ @ @ @ @ @ @ @ @ @ @ @ @ @ @ @ @ @ @ @ @ @ @ @ @ @ @ @ @ @ @ @ @ @ @ @ @ @ @ @ @ @ @ @ @ @ @ @ @ @ @ @ @ @ @ @ @ @ @ @ @ "};
