/* XPM */
static char * cde_2_xpm[] = {
"114 26 127 2",
"  	c None",
". 	c #E6CCBA",
"+ 	c #E9A069",
"@ 	c #754E31",
"# 	c #FFFFFF",
"$ 	c #F6D8C3",
"% 	c #EDB184",
"& 	c #F0AF7A",
"* 	c #F6D0B2",
"= 	c #FEFCFB",
"- 	c #EFA86D",
"; 	c #EB9D60",
"> 	c #E99F65",
", 	c #ED9C5B",
"' 	c #F4C6A1",
") 	c #F2B889",
"! 	c #FEFAF7",
"~ 	c #E8A16A",
"{ 	c #EBAD7E",
"] 	c #F4D1B7",
"^ 	c #F9E6D7",
"/ 	c #F4CFB4",
"( 	c #FBF1E9",
"_ 	c #FCFAF7",
": 	c #F9E8DA",
"< 	c #EDB488",
"[ 	c #EDA162",
"} 	c #FEFDFB",
"| 	c #F0B27E",
"1 	c #E89F68",
"2 	c #F1C4A4",
"3 	c #FDF7F3",
"4 	c #FCEFE5",
"5 	c #F9E9DC",
"6 	c #F4CCAD",
"7 	c #EC9E5E",
"8 	c #F2C8A9",
"9 	c #FDF9F5",
"0 	c #F4CDAD",
"a 	c #F0B583",
"b 	c #F9E2CD",
"c 	c #FEFAF8",
"d 	c #EAA36B",
"e 	c #F2C7A6",
"f 	c #FEFCF9",
"g 	c #ED9D5A",
"h 	c #ED9C5C",
"i 	c #E99F66",
"j 	c #FAEADE",
"k 	c #F5CBA9",
"l 	c #ED9D5B",
"m 	c #F6DDCA",
"n 	c #F4CEB1",
"o 	c #FEFBF8",
"p 	c #EEA66B",
"q 	c #ECA166",
"r 	c #FEFCFC",
"s 	c #F0B484",
"t 	c #EC9D5E",
"u 	c #FAE7D8",
"v 	c #F5D0B3",
"w 	c #EC9D5B",
"x 	c #EC9E5F",
"y 	c #ED9F5E",
"z 	c #FDF9F4",
"A 	c #F2BC90",
"B 	c #EA9F65",
"C 	c #F2C8A8",
"D 	c #F4D2B9",
"E 	c #F9E3D3",
"F 	c #FDF3EC",
"G 	c #EFB281",
"H 	c #F3BF94",
"I 	c #F1B787",
"J 	c #ED9F60",
"K 	c #EEA66C",
"L 	c #FEFEFD",
"M 	c #F1B480",
"N 	c #F9DFC9",
"O 	c #F8DBC4",
"P 	c #EFBB93",
"Q 	c #EFAC76",
"R 	c #FEF9F6",
"S 	c #ED9E5E",
"T 	c #F5CEAE",
"U 	c #F7D7BE",
"V 	c #F6D0B0",
"W 	c #FAE5D4",
"X 	c #EEA56A",
"Y 	c #F1B380",
"Z 	c #F8DFCC",
"` 	c #F8DBC5",
" .	c #E99F68",
"..	c #EAA470",
"+.	c #F8DAC1",
"@.	c #F9E2CF",
"#.	c #F1B685",
"$.	c #FCF1E7",
"%.	c #FAE8D9",
"&.	c #F5CCAB",
"*.	c #EC9D5D",
"=.	c #FAE7D7",
"-.	c #F6CEAE",
";.	c #EB9F63",
">.	c #F1BC91",
",.	c #EC9C5B",
"'.	c #EA9E64",
").	c #F5C9A5",
"!.	c #ED9D5C",
"~.	c #EDA061",
"{.	c #F1B481",
"].	c #EC9C5D",
"^.	c #F4C7A3",
"/.	c #FDF7F4",
"(.	c #F5CAA8",
"_.	c #F1B483",
":.	c #F8E2D0",
"<.	c #F0B07C",
"[.	c #FAE7D6",
"}.	c #ED9F5F",
"|.	c #EC9F61",
"1.	c #EA9E62",
"2.	c #EB9E62",
"3.	c #EB9D5F",
"4.	c #EA9F63",
"5.	c #E9A066",
"6.	c #EA9E61",
". . . . . . . . . . . . . . . . . . . . . . . . . . . . . . . . . . . . . . . . . . . . . . . . . . . . . . . . . . . . . . . . . . . . . . . . . . . . . . . . . . . . . . . . . . . . . . . . . . . . . . . . . . . . . . . . . . ",
". + + + + + + + + + + + + + + + + + + + + + + + + + + + + + + + + + + + + + + + + + + + + + + + + + + + + + + + + + + + + + + + + + + + + + + + + + + + + + + + + + + + + + + + + + + + + + + + + + + + + + + + + + + + + + + + + @ ",
". + + + + + + + + + + + + + + + + + + + + + + + + + + + + + + + + + + + + + + + + + + + + + + + + + + + + + + + + + + + + + + + + + + + + + + + + + + + + + + + + + + + + + + + + + + + + + + + + + + + + + + + + + + + + + + + + @ ",
". + + + + + + + + + + + + + + + + + + + + + + + + + + + + + + + + + + + + + + + + + + + + + + + + + + + + + + + + + + + + + + + + + + + + + + + + + + + + + + + + + + + + + + + + + + + + + + + + + + + + + + + + + + + + + + + + @ ",
". + + + + + + + + + + + + + + + + + + + + + + + + + + + + + + + + + + + + + + + + + + + + + + + + + + + + + + + + + + + + + + + + + + + + + + + + + + + + + + + + + + + + + + + + + + + + + + + + + + + + + + + + + + + + + + + + @ ",
". + + + + + + + + + + + + + + + + + + + + + + + + + + + + + + + + + + + + + + + + + + + + + + + + + + + + + + + + + + + + + + + + + + + + + + + + + + + + + + + + + + + + + + + + + + + + + + + + + + + + + + + + + + + + + + + + @ ",
". + + + + + + + + + + + + + + + + + + + + + + + + + + + + + + + + + + + + + + + + + + + + + + + + + + + + + + + + + + + + + + + + + + + + + + + + + + + + + + + + + + + + + + + + + + + + + + + + + + + + + + + + + + + + + + + + @ ",
". + + + + # # # # # # # # $ + + + + + + + + + + + + + + + + + + + + + + + + + + + + + + + + + + + + + + + + + + + + + + + + + + + + + + + + + + + + + + + + + + + + + + + + + + + + + + + + + + + + + + + + + + + + + + + + + + + @ ",
". + + + + % & & * = & & & - ; + + + + + + + + + + + + + + + + + + + + + + + + + + + + + + + + + + + + + + + + + + + + + + + + + + + + + + + + + + + + + + + + + + + + + + + + + + + + + + + + + + + + + + + + + + + + + + + + + + @ ",
". + + + + + > , ' = , , , , ) ! ~ + { # $ + + ] ^ + ~ / ( _ : < + + + + + + + + + + + + + + + + + + + + + + + + + + + + + + + + + + + + + + + + + + + + + + + + + + + + + + + + + + + + + + + + + + + + + + + + + + + + + + + + + @ ",
". + + + + + + > ' = , , , , [ } | 1 2 3 4 ; + 5 6 7 8 9 0 a b c d + + + + + + + + + + + + + + + + + + + + + + + + + + + + + + + + + + + + + + + + + + + + + + + + + + + + + + + + + + + + + + + + + + + + + + + + + + + + + + + + @ ",
". + + + + + + + e f g g h i i j k l m n o p q r s t u v w x y z A B + + + + + + + + + + + + + + + + + + + + + + + + + + + + + + + + + + + + + + + + + + + + + + + + + + + + + + + + + + + + + + + + + + + + + + + + + + + + + + + @ ",
". + + + + + + + C f g g l + + D E , F G u H I c J K L M x w x N O h B + + + + + + + + + + + + + + + + + + + + + + + + + + + + + + + + + + + + + + + + + + + + + + + + + + + + + + + + + + + + + + + + + + + + + + + + + + + + + + @ ",
". + + + + + + + C f g g l + + P c Q R S T U V W g X L Y t x w Z ` , h  .+ + + + + + + + + + + + + + + + + + + + + + + + + + + + + + + + + + + + + + + + + + + + + + + + + + + + + + + + + + + + + + + + + + + + + + + + + + + + + @ ",
". + + + + + + + C f g g l + + ..} +.@.g #.$.%.&.*.g =.-., t ;.9 >.,.h '.+ + + + + + + + + + + + + + + + + + + + + + + + + + + + + + + + + + + + + + + + + + + + + + + + + + + + + + + + + + + + + + + + + + + + + + + + + + + + + @ ",
". + + + + + + + C f g g l + + + j } ).!.~.o L {.].*.^./.(._.:.c ~.*.,.; + + + + + + + + + + + + + + + + + + + + + + + + + + + + + + + + + + + + + + + + + + + + + + + + + + + + + + + + + + + + + + + + + + + + + + + + + + + + + @ ",
". + + + + + + + C f g g l + + + D # <., t [.c }.!.t |.n $.R %.G l w *.; + + + + + + + + + + + + + + + + + + + + + + + + + + + + + + + + + + + + + + + + + + + + + + + + + + + + + + + + + + + + + + + + + + + + + + + + + + + + + @ ",
". + + + + + + + + 1.g g l + + + + 2., , *.3.*., , t 1.1 3.h , *.7 l w '.+ + + + + + + + + + + + + + + + + + + + + + + + + + + + + + + + + + + + + + + + + + + + + + + + + + + + + + + + + + + + + + + + + + + + + + + + + + + + + @ ",
". + + + + + + + + + 1.g l + + + + + 2., h 4.+ *., g > + 1 3.h h *.7 l  .+ + + + + + + + + + + + + + + + + + + + + + + + + + + + + + + + + + + + + + + + + + + + + + + + + + + + + + + + + + + + + + + + + + + + + + + + + + + + + @ ",
". + + + + + + + + + + 1.l + + + + + + 2., 5.+ + t l 1 + + 1 6.t l t 5.+ + + + + + + + + + + + + + + + + + + + + + + + + + + + + + + + + + + + + + + + + + + + + + + + + + + + + + + + + + + + + + + + + + + + + + + + + + + + + + @ ",
". + + + + + + + + + + + + + + + + + + + + + + + + + + + + + + + + + + + + + + + + + + + + + + + + + + + + + + + + + + + + + + + + + + + + + + + + + + + + + + + + + + + + + + + + + + + + + + + + + + + + + + + + + + + + + + + + @ ",
". + + + + + + + + + + + + + + + + + + + + + + + + + + + + + + + + + + + + + + + + + + + + + + + + + + + + + + + + + + + + + + + + + + + + + + + + + + + + + + + + + + + + + + + + + + + + + + + + + + + + + + + + + + + + + + + + @ ",
". + + + + + + + + + + + + + + + + + + + + + + + + + + + + + + + + + + + + + + + + + + + + + + + + + + + + + + + + + + + + + + + + + + + + + + + + + + + + + + + + + + + + + + + + + + + + + + + + + + + + + + + + + + + + + + + + @ ",
". + + + + + + + + + + + + + + + + + + + + + + + + + + + + + + + + + + + + + + + + + + + + + + + + + + + + + + + + + + + + + + + + + + + + + + + + + + + + + + + + + + + + + + + + + + + + + + + + + + + + + + + + + + + + + + + + @ ",
". + + + + + + + + + + + + + + + + + + + + + + + + + + + + + + + + + + + + + + + + + + + + + + + + + + + + + + + + + + + + + + + + + + + + + + + + + + + + + + + + + + + + + + + + + + + + + + + + + + + + + + + + + + + + + + + + @ ",
". @ @ @ @ @ @ @ @ @ @ @ @ @ @ @ @ @ @ @ @ @ @ @ @ @ @ @ @ @ @ @ @ @ @ @ @ @ @ @ @ @ @ @ @ @ @ @ @ @ @ @ @ @ @ @ @ @ @ @ @ @ @ @ @ @ @ @ @ @ @ @ @ @ @ @ @ @ @ @ @ @ @ @ @ @ @ @ @ @ @ @ @ @ @ @ @ @ @ @ @ @ @ @ @ @ @ @ @ @ @ @ @ @ "};
