/* XPM */
static char *app_link[] = {
/* columns rows colors chars-per-pixel */
"16 16 29 1 ",
"  c black",
". c #2AAB2AAB2AAB",
"X c #3AEB3AEB3AEB",
"o c #4D3518610000",
"O c #77DF430C2AAB",
"+ c #410441044104",
"@ c #75D675D675D6",
"# c #9A6930C20000",
"$ c #800032CB1861",
"% c #8820534C3AEB",
"& c #CD344B2C1861",
"* c #CD34659632CB",
"= c #FFFF659530C2",
"- c #9E7969A6534D",
"; c #80008000679E",
": c #FFFF9A696595",
"> c #FFFFB4D37FFF",
", c #800080008000",
"< c #FFFFCF3C9A69",
"1 c #C103C103A8A2",
"2 c #EFBED75DBCF3",
"3 c #FFFFE79EB4D3",
"4 c #C103C103C103",
"5 c #C30BC30BC30B",
"6 c #E185E185C924",
"7 c #FFFFE79ECD34",
"8 c #FFFFFFFFCF3C",
"9 c white",
"0 c None",
/* pixels */
"0000000 00000000",
"000000  @0000000",
"00000  @88000000",
"0000  @888800000",
"000  @8888880000",
"00  @88888888000",
"0  @888888888800",
"  @888888:::8880",
"0X888888:o=<<88 ",
"009888;3oo $<<20",
"00+1188#=*>>>>7X",
"49,,9;86##&&&&-.",
"49  9;8855%o00O ",
"4, 99 9885 00000",
"499990098 000000",
"+,,,,000 0000000"
};
