/* XPM */
static char *atari_16x16[] = {
/* columns rows colors chars-per-pixel */
"16 16 9 1 ",
"  c None",
". c black",
"X c #040404",
"o c #C52828",
"O c #CB2C2A",
"+ c #E94336",
"@ c #F44335",
"# c #5E7A86",
"$ c #607D8B",
/* pixels */
"      ...X      ",
"      @@Xo      ",
"     .@+@..     ",
"     .+@@o.     ",
"      .@O.      ",
"       ..       ",
"       .X       ",
"       X.       ",
"       ..       ",
"      ....      ",
" ... ....X. ..X ",
" ..X....X....X. ",
".$#$$$$#$$$$#$$.",
".X....X....X....",
"X....X....X....X",
"....X....X....X."
};
