/* XPM */
static char *blender[] = {
/* columns rows colors chars-per-pixel */
"16 16 79 1 ",
"  c #02111E",
". c #2A1606",
"X c #2A1806",
"o c #2A1A06",
"O c #2C1807",
"+ c #2F1A08",
"@ c #301C08",
"# c #362008",
"$ c #3A220A",
"% c #45260B",
"& c #40280C",
"* c #44280C",
"= c #482A0C",
"- c #4A2D0E",
"; c #4C2C0C",
": c #4F2C0D",
"> c #4F2E0D",
", c #51330F",
"< c #543410",
"1 c #5E3A12",
"2 c #603812",
"3 c #663812",
"4 c #714114",
"5 c #704214",
"6 c #022842",
"7 c #022E4C",
"8 c #023253",
"9 c #023A61",
"0 c #024068",
"q c #905E1D",
"w c #9B581E",
"e c #9C591C",
"r c #9C5E1E",
"t c #96681F",
"y c #90721F",
"u c #A26020",
"i c #AA6E23",
"p c #B66823",
"a c #B86C22",
"s c #B96C24",
"d c #C17126",
"f c #C07226",
"g c #C37326",
"h c #C57225",
"j c #C77527",
"k c #D57E29",
"l c #AA8025",
"z c #AA8225",
"x c #AC8025",
"c c #D2822A",
"v c #D8812A",
"b c #DE862C",
"n c #DE922E",
"m c #E5862E",
"M c #E2882D",
"N c #E4882D",
"B c #E98A2E",
"V c #ED8E2E",
"C c #EA922E",
"Z c #EC942E",
"A c #F09430",
"S c #F19E31",
"D c #D1A02E",
"F c #E0A030",
"G c #F0AA33",
"H c #F2AC33",
"J c #F5AD34",
"K c #F4B035",
"L c #F6BC36",
"P c #F4BE37",
"I c #FAC039",
"U c #F6CA38",
"Y c #025F9E",
"T c #0261A2",
"R c #0264A5",
"E c #0269AC",
"W c #0278C4",
"Q c #0288D8",
"! c None",
/* pixels */
"!!!!!!!!!!!!!!!!",
"!!!!!!!qF.!!!!!!",
"!!!!!!!oJj.!!!!!",
"!!!!!!!!XKjX!!!!",
"!!izzllxxIKjX!!!",
"!!HSSSJZkfcCjO!!",
"!!!!2JVe+!!,Gh@!",
"!!!1JVw!!!!!&np!",
"!!1KmM#!YQE7!DA5",
"!<Jmdb!!TWR8!yS>",
"-Jm$uN*!609 !DS=",
"rmX!-Bs!!!!!-Uv*",
"!!!!!gVs:!!tUV%!",
"!!!!!;gVPLLLv%!!",
"!!!!!!!3aaa4.!!!",
"!!!!!!!!!!!!!!!!"
};
