/* XPM */
static char *bookshelf[] = {
/* columns rows colors chars-per-pixel */
"16 16 94 2 ",
"   c #082008200820",
".  c #082018610820",
"X  c #000000001861",
"o  c #082008201861",
"O  c #104110411041",
"+  c #28A200000000",
"@  c #30C230C20000",
"#  c #208120812081",
"$  c #20813AEB3AEB",
"%  c #4B2C30C21861",
"&  c #659630C21861",
"*  c #430B32CB32CB",
"=  c #4B2C30C230C2",
"-  c #4B2C30C232CB",
";  c #430B430B28A2",
":  c #5D75430C2AAB",
">  c #4D35430B32CB",
",  c #7FFF4B2C32CB",
"<  c #7FFF659632CB",
"1  c #18611861430B",
"2  c #28A228A2430B",
"3  c #32CB32CB430B",
"4  c #32CB30C24B2C",
"5  c #7FFF30C24B2C",
"6  c #18614B2C4B2C",
"7  c #28A2430B430B",
"8  c #30C24B2C4B2C",
"9  c #30C265954B2C",
"0  c #555555555555",
"q  c #65954B2C4D35",
"w  c #7FFF4B2C4B2C",
"e  c #7FFF4B2C4D35",
"r  c #659565954B2C",
"t  c #4B2C65956595",
"y  c #4B2C7FFF7FFF",
"u  c #659565966596",
"i  c #65967FFF6595",
"p  c #65957FFF7FFF",
"a  c #7BEF7BEF7DF7",
"s  c #B4D37FFF30C2",
"d  c #9A694B2C4B2C",
"f  c #B4D34B2C4B2C",
"g  c #88206FBE5555",
"h  c #9A694B2C6596",
"j  c #88206FBE6FBE",
"k  c #9A6965966596",
"l  c #9861679E7FFF",
"z  c #904077DF77DF",
"x  c #B4D365956595",
"c  c #CF3C65957FFF",
"v  c #CF3C7FFF7FFF",
"b  c #E79E7FFF7FFF",
"n  c #65959A696595",
"m  c #9A699A694B2C",
"M  c #659565968000",
"N  c #7FFF7FFFB2CA",
"B  c #7FFF7FFFCD34",
"V  c #9A6965968000",
"C  c #98617FFF8000",
"Z  c #8000679E9040",
"A  c #80007DF79248",
"S  c #98617DF79248",
"D  c #9A697FFF9861",
"F  c #9A697FFFB2CA",
"G  c #9A697FFFB4D3",
"H  c #CF3C65959A69",
"J  c #9A696595CF3C",
"K  c #9A697FFFE79E",
"L  c #69A6840F8617",
"P  c #6DB688208820",
"I  c #6595B4D3B4D3",
"U  c #840F840F8617",
"Y  c #882088208820",
"T  c #90408E388A28",
"R  c #986180009861",
"E  c #88208820BAEB",
"W  c #9A69B4D3B2CA",
"Q  c #9A69B4D3B4D3",
"!  c #BAEBA289A289",
"~  c #CD34B4D39A69",
"^  c #CF3CB4D39A69",
"/  c #D1449E79A081",
"(  c #9A69CF3CB4D3",
")  c #CD34CF3C9A69",
"_  c #FFFFCF3C9A69",
"`  c #FFFFCF3CB4D3",
"'  c #B8E3B8E3D34C",
"]  c #9A699A69E79E",
"[  c #CF3CB4D3E79E",
"{  c #B8E3D144D34C",
"}  c #D144D144D34C",
"|  c #FFFFE79ECD34",
" . c white",
".. c None",
/* pixels */
"................................",
"................................",
"..............|  ...............",
"............../ ^ X  . .........",
"........{  .! f & O } } ........",
"........i B g x w 4 t 9 ........",
"........M V Z h w 7 P Y ........",
"........r q T c k 2 y 0 ........",
"........n ] l v e * u U ........",
"........W J A c d 8 ( a   ......",
"........] K z d , $ I p . ......",
"........' [ S H w 6 G p o ......",
"....` C E N j b < 7 > 3   @ ....",
".._ ~ D : - R w 5 6 Q L O # = ..",
") m w C p F z s % 1 0 0   + = ; ",
"................................"
};
