/* XPM */
static char *calc_16x16[] = {
/* columns rows colors chars-per-pixel */
"13 16 24 1 ",
"  c #2C3D4F",
". c #2D4053",
"X c #33485D",
"o c #E74B3C",
"O c #EB4939",
"+ c #EB4A39",
"@ c #7D8B8C",
"# c #7E8C8D",
"$ c #93A3A3",
"% c #95A3A3",
"& c #94A4A3",
"* c #91A2A4",
"= c #91A2A5",
"- c #92A2A4",
"; c #92A2A5",
": c #92A4A4",
"> c #94A4A4",
", c #EDEDED",
"< c #EBEFF0",
"1 c #EDEEF0",
"2 c #F1F1F1",
"3 c #F6F6F6",
"4 c #FCFCFC",
"5 c #FEFEFE",
/* pixels */
"5,,5,53,5,55,",
"2>>>>>>>>>>>4",
",>&       &>5",
"5>%XXXXXXX%>,",
",>>==*---;>>5",
",>>>>>>>>>>>5",
"5>$<.<><<<$>,",
",>:  <><  :>5",
",>><<<><<<>>5",
"5>>@@#>#@@>>,",
",>><<1><<<>>5",
",>:  <><+O:>5",
"5>:  <><oo:>,",
",>>@@@>@@@>>5",
",@>>>>>>>>>@5",
"5,,5,53,5,55,"
};
