/* XPM */
static char *camera[] = {
/* columns rows colors chars-per-pixel */
"16 16 13 1 ",
"  c black",
". c #410400000000",
"X c #410441044104",
"o c #51455145534D",
"O c #618661866186",
"+ c #820700000000",
"@ c #A28961866186",
"# c #E185E1856186",
"$ c #820782078207",
"% c #924892489450",
"& c #A289A289A289",
"* c #C30BC30BC30B",
"= c None",
/* pixels */
"================",
"================",
"================",
"=  =========XX==",
"=  ======== X  =",
"o% %$$$$$$$XXX$=",
" oo%$$XX$$$O#& =",
"X$$$$XXX $X    =",
"X$$$X @. $X XX =",
"X$$XX+*  .XX$$X=",
"X$$XX.   .XX$$ =",
"X$$$    +.  $$ =",
"X$$$$$.. $$$$$ =",
"X$$$XXXX $XXX  =",
" ooooo%%%XXXX  =",
"================"
};
