/* XPM */
static char *cdrom[] = {
/* columns rows colors chars-per-pixel */
"16 16 42 1 ",
"  c black",
". c #222222",
"X c #444444",
"o c #4D4D4D",
"O c #505052",
"+ c #555555",
"@ c #606060",
"# c gray40",
"$ c #6F6F6F",
"% c #727274",
"& c #777777",
"* c #7B7B7D",
"= c #555588",
"- c #5E5E91",
"; c #6F6FA2",
": c #7777AA",
"> c #6666CC",
", c gray51",
"< c #888888",
"1 c #8B8B8B",
"2 c #919191",
"3 c gray60",
"4 c #8888A2",
"5 c #A2A2A2",
"6 c #A0A0A4",
"7 c #AAAAAA",
"8 c #B0B0B2",
"9 c #9999CC",
"0 c #8080E6",
"q c #9999FF",
"w c #B3B3FF",
"e c #C0C0C0",
"r c gray80",
"t c #CFCFCF",
"y c #D5D5D5",
"u c #DDDDDD",
"i c #C6C6E0",
"p c #CCCCFF",
"a c #E6E6E6",
"s c #EEEEEE",
"d c white",
"f c None",
/* pixels */
"ff@@@@@@@@@@@@ f",
"f@uuuyX;4$<uuusf",
"f@uuX0>qpe6ouusf",
"f@uX>>>0p866+usf",
"f@y:q>-=;*633Xsf",
"f@Xwqq+a7do666af",
"f@4ii,aetu568e2f",
"f@,86%7tu158ei2f",
"f@$66&du1rowpp2f",
"f@<333o55o=qqouf",
"f@uo336iq>>>0<sf",
"f@uu+36iw>0-Xusf",
"f@uuuX3pw9=<uusf",
"f@uuuuy<<<yuuusf",
"f ############@f",
"f @@@@.....@@@Of"
};
