/* XPM */
static char *cervisia[] = {
/* columns rows colors chars-per-pixel */
"16 16 214 2 ",
"   c #040101",
".  c #0B0302",
"X  c #0E0303",
"o  c #140504",
"O  c #160505",
"+  c #170606",
"@  c #160706",
"#  c #1E1515",
"$  c #240E0D",
"%  c #2B0E0A",
"&  c #360F0A",
"*  c #360F0D",
"=  c #251211",
"-  c #2E1615",
";  c #311B1A",
":  c #312C2B",
">  c #3F3736",
",  c #46120B",
"<  c #41100D",
"1  c #44140E",
"2  c #441413",
"3  c #4E1613",
"4  c #451913",
"5  c #4E1C17",
"6  c #501812",
"7  c #581815",
"8  c #511C19",
"9  c #6D231E",
"0  c #71221E",
"q  c #402221",
"w  c #522F2C",
"e  c #5F2F2B",
"r  c #413635",
"t  c #4D3B3B",
"y  c #692722",
"u  c #6A2924",
"i  c #6D2A26",
"p  c #4F4443",
"a  c #4B4A4A",
"s  c #5B5655",
"d  c #5E5C5C",
"f  c #5F5D5C",
"g  c #7C4B4B",
"h  c #7C4F49",
"j  c #7D504D",
"k  c #635756",
"l  c #645D5C",
"z  c gray39",
"x  c #666564",
"c  c #676767",
"v  c #6A6262",
"b  c #6A6564",
"n  c #6E6464",
"m  c #696969",
"M  c #6D6D6D",
"N  c #6F6D6C",
"B  c #776361",
"V  c #736D6C",
"C  c #747474",
"Z  c #7A7373",
"A  c gray47",
"S  c gray48",
"D  c #7C7C7C",
"F  c #7D7D7D",
"G  c #7F7F7F",
"H  c #8E2B23",
"J  c #8D2B27",
"K  c #8A2F2B",
"L  c #952621",
"P  c #972D26",
"I  c #962D2D",
"U  c #95332D",
"Y  c #9C352A",
"T  c #843A38",
"R  c #A62F22",
"E  c #AA2E24",
"W  c #AB2F24",
"Q  c #A63122",
"!  c #A63224",
"~  c #A53227",
"^  c #A73229",
"/  c #A2342A",
"(  c #AB3228",
")  c #A9322A",
"_  c #AB342A",
"`  c #AC3528",
"'  c #AB332C",
"]  c #AB332D",
"[  c #A9372D",
"{  c #A9372F",
"}  c #AD372E",
"|  c #A73B2E",
" . c #A73D2E",
".. c #AB3731",
"X. c #AB3831",
"o. c #AB3931",
"O. c #AC3931",
"+. c #AB3B36",
"@. c #AF3A36",
"#. c #A83D37",
"$. c #AD3C35",
"%. c #AD3D35",
"&. c #AE3F35",
"*. c #AE3F37",
"=. c #A43F39",
"-. c #99443C",
";. c #A44035",
":. c #AB4037",
">. c #AC4137",
",. c #AA423B",
"<. c #AC4039",
"1. c #AD403B",
"2. c #B64537",
"3. c #B54639",
"4. c #B6473D",
"5. c #BA4338",
"6. c #B5493F",
"7. c #954241",
"8. c #974746",
"9. c #81544E",
"0. c #815A55",
"q. c #855856",
"w. c #AE4A43",
"e. c #B84741",
"r. c #BB524C",
"t. c #BF524C",
"y. c #AB5D58",
"u. c #BC5750",
"i. c #BD5D5B",
"p. c #856768",
"a. c #966C6C",
"s. c #8A7271",
"d. c #807B7A",
"f. c #B16664",
"g. c #BE7D7A",
"h. c #C06664",
"j. c #CF756C",
"k. c #D6736A",
"l. c #CA7B74",
"z. c #D37472",
"x. c #D87771",
"c. c #DA7E7A",
"v. c #CA807C",
"b. c #CA817C",
"n. c #CA817E",
"m. c #CD827F",
"M. c #818181",
"N. c #828282",
"B. c #848484",
"V. c #868484",
"C. c #868686",
"Z. c gray55",
"A. c #8E8E8E",
"S. c #A18785",
"D. c #AD9492",
"F. c #B39997",
"G. c #B6ACAA",
"H. c #B5B5B5",
"J. c #DC8981",
"K. c #CD928B",
"L. c #C49B9B",
"P. c #CCA5A1",
"I. c #DBABA9",
"U. c #CAB7B3",
"Y. c #CEB8B6",
"T. c #D3B4B0",
"R. c #DDB6B6",
"E. c #D6BAB8",
"W. c #D4BFBF",
"Q. c #DABCBA",
"!. c #DABEBC",
"~. c #E3A6A1",
"^. c #E8A5A1",
"/. c #EBA4A1",
"(. c #E6A8A2",
"). c #E7ACA8",
"_. c #E7B6B1",
"`. c #D4C1C0",
"'. c #D1C4C3",
"]. c #D2C4C2",
"[. c #D3C4C2",
"{. c #D3C5C3",
"}. c #D1C4C4",
"|. c #D2C6C5",
" X c #D5C4C4",
".X c #DAC7C6",
"XX c #D4C9C7",
"oX c #D7CAC9",
"OX c #D9CBCB",
"+X c #E4C5C2",
"@X c #E0C8C5",
"#X c #E5C9CA",
"$X c #E5CCCA",
"%X c #E9CBC9",
"&X c #E9CBCB",
"*X c #E8CFCD",
"=X c #E3D7D7",
"-X c #EAD5D4",
";X c #EED7D6",
":X c #EAD8D5",
">X c #EFD8D6",
",X c #EED7D8",
"<X c #EADCDC",
"1X c #E8DEDE",
"2X c #F0DEDC",
"3X c #F1DEDC",
"4X c #F8E1DF",
"5X c #E1E0E0",
"6X c #F4E5E5",
"7X c #F2E8E9",
"8X c #F6EBEB",
"9X c #FBEFEE",
"0X c #F3F3F3",
"qX c #FEFEFE",
/* pixels */
"X X o o o @ O @ + . # + = v S S ",
"> & < 4 3 5 , 2 8 % D.7 e XXM S ",
"S N.W.-X=X0X7X<X1X<X,X:X;X8XD C ",
"S A.S.1.w.$XJ.2.4.u.6.e.t.5.Y.z ",
"M.  - K 8. Xk.O.>.=.| { [ @.+Xl ",
"f * y I H ].n.W ( ( ] :.i.3Xp.c ",
"F p w g h qXh.j 9.0.q.a.U.H.m S ",
"S G V P.~.(./.^.(.g.qX_.R.9Xd.S ",
"S B.N $ / ' *.E ..i 4Xr.`  .2Xn ",
"F a ; u Y ) ! +.$.u 6X3.} K.qXk ",
"G : 1 0 J -.L U P 6 6XX.>X}.x S ",
"F Z.r G.oXoX[.{..X'.qX&XqXd S S ",
"S V.t y.f.#X).l.b.m.z.j.c.`.M S ",
"S S b 9 7.|.x.<.&.;.#.X.%.I.s.A ",
"S S C.q T ].v.~ R ^ o._ Q ,.L.Z ",
"S S S s B 5XOXT.E.Q.!.@X%X*XF.S "
};
