/* XPM */
static char *clip_file[] = {
/* columns rows colors chars-per-pixel */
"16 16 21 1 ",
"  c black",
". c #0B0B0B",
"X c #101010",
"o c #1B1B1B",
"O c gray25",
"+ c #4F4F4F",
"@ c #6B6B6B",
"# c #737373",
"$ c #808080",
"% c #A0A0A0",
"& c #A7A7A7",
"* c #ABABAB",
"= c #B2B2B2",
"- c #B6B6B6",
"; c #C0C0C0",
": c #CBCBCB",
"> c #CECECE",
", c #DDDDDD",
"< c gray88",
"1 c white",
"2 c None",
/* pixels */
"2222222222222222",
"222 OO2222222222",
"22 $2 $222222222",
"22$22$ $o$222222",
"22$2$ 1 $%222222",
"22 $$ %1 $X22222",
"222 $1 %1 $22222",
"2222 $1 -1 $2222",
"2222: $1 ;1  222",
"2222<< $1 >1 222",
"2222*<< $O<,1 22",
"2222#<<< $&+ ;22",
"22222<<<= $  O22",
"22222$@. 2 ;$;22",
"22           222",
"2222222222222222"
};
