/* XPM */
static char *clip_folder[] = {
/* columns rows colors chars-per-pixel */
"16 16 22 1 ",
"  c black",
". c #202020",
"X c gray25",
"o c #737380",
"O c #808080",
"+ c #9090A0",
"@ c #9292A0",
"# c #C0C0C0",
"$ c #CECEFF",
"% c #DADAFF",
"& c #DDDDFF",
"* c #E0E0FF",
"= c #E1E1FF",
"- c #E3E3FF",
"; c #E4E4FF",
": c #E5E5FF",
"> c #E6E6FF",
", c #E7E7FF",
"< c #EAEAFF",
"1 c #EDEDFF",
"2 c white",
"3 c None",
/* pixels */
"3333333333333333",
"333XX 3333333333",
"332 32 333333333",
"33O3 X2 33333333",
"33O32 O2 3333333",
"332 #$ O2 333333",
"33.2 O; O2 ;&333",
"33@*2 O< O2 :333",
"33+--2 O> OX%333",
"33@->-2 O< O=333",
"33@1--*2  - O333",
"33+;>,;-2 >, X33",
"33@->,->-2 ,oX33",
"33333333332O# 33",
"33           333",
"3333333333333333"
};
