/* XPM */
static char *Daemon[] = {
/* columns rows colors chars-per-pixel */
"16 16 81 1 ",
"  c #186114511040",
". c #379E1DD71F3C",
"X c #3BB01A331C05",
"o c #3E791FBE1F7D",
"O c #3D7522492DB6",
"+ c #3914249230C2",
"@ c #39E7249230C2",
"# c #3BAE249230C2",
"$ c #3BC1249230C2",
"% c #4924186128A2",
"& c #569A1F9E29E7",
"* c #56DB1CF32D34",
"= c #62EB1CD328A2",
"- c #42CA21E72EFB",
"; c #430C238E2EBA",
": c #45131FDF2DB6",
"> c #41E723AE2EFB",
", c #496522EB2D75",
"< c #4E7922692C71",
"1 c #4F7D228A2CB2",
"2 c #4F3C22CB2EFB",
"3 c #47DB23B72F0C",
"4 c #504022AA2CF3",
"5 c #5858216C2A78",
"6 c #5A6921652A69",
"7 c #408123CF3081",
"8 c #408123CF30C2",
"9 c #4103249230C2",
"0 c #4C64229E30C2",
"q c #4F3C22CB30C2",
"w c #5B2C212430C2",
"e c #66382492271C",
"r c #6AAA238D2596",
"t c #69A626792554",
"y c #6E7924D32450",
"u c #6F3C2514240F",
"i c #6E792659271B",
"p c #638D24922A70",
"a c #72482207228A",
"s c #77BE24F3238D",
"d c #750727022221",
"f c #78E3238E2040",
"g c #79E728A22081",
"h c #70A121652D34",
"j c #6185208130C2",
"k c #5040428A4C30",
"l c #5C394FAE59BF",
"z c #5E7951A65C30",
"x c #6FFF5144538D",
"c c #755558816555",
"v c #7D346D557595",
"b c #79E769A679E7",
"n c #8E581D141A69",
"m c #94711C9216DA",
"M c #9BEF1B6D13CE",
"N c #9F9D1B8E16DA",
"B c #A5D614D31081",
"V c #A53314F410C2",
"C c #A6991A691658",
"Z c #816524B21D34",
"A c #822826FC1D34",
"S c #847123AE1BEF",
"D c #85F726391BAE",
"F c #892425961A69",
"G c #8CF324D318E3",
"H c #8D9024B418A4",
"J c #8E3824921861",
"K c #92CA218616DB",
"L c #92072208171C",
"P c #984024B31C30",
"I c #9CB224921D34",
"U c #973C25F82081",
"Y c #977D23AE238D",
"T c #9FBE24922185",
"R c #AFFF4F3C4CD2",
"E c #A63861655C30",
"W c #97FF6492630B",
"Q c #B6DAB2CAB6DA",
"! c #B617B32CB9A5",
"~ c #DF7DE79DEFBE",
"^ c None",
/* pixels */
"^^^^^^^^^^^^^^^^",
"^^^^^^1^^^^g^^^^",
"^^^^^PyA+4^s^^^^",
"^^^^^ER~GgU&^^^^",
"^^^^^7Y~Jt%w^^^^",
"^^^^VB>~I6+^^^^^",
"^^epaFSCZ25^^^^^",
"^^3#N^r,+h^^^^^^",
"^^^^fqKDm0^^^^^^",
"^^^^d>Mn8=^^^^^^",
"^^^^^H;:9j^^^^^^",
"^^^^^^Lu*-^^^^^^",
"^^^^^ W.i@#^^^^^",
"^c~!~vxo<+^^$T^^",
"^^^^Qbkzbl^^^^^O",
"^^^^^^^^^^^^^X  "
};
