/* XPM */
static char *date[] = {
/* columns rows colors chars-per-pixel */
"16 16 71 1 ",
"  c black",
". c #050101",
"X c #3C0008",
"o c #2D2D2D",
"O c #3E3E3E",
"+ c #450F07",
"@ c #4F1D05",
"# c #512006",
"$ c #572A04",
"% c #592D04",
"& c #623A03",
"* c #633D03",
"= c #653F03",
"- c #525011",
"; c #6E4D02",
": c #705002",
"> c #6F5618",
", c gray25",
"< c gray50",
"1 c #91270C",
"2 c #932A0D",
"3 c #98320C",
"4 c #9F3D0B",
"5 c red",
"6 c #FF1414",
"7 c #FF2E2E",
"8 c #A7490A",
"9 c #BD6B06",
"0 c #BD6A07",
"q c #BF6E06",
"w c #B3651E",
"e c #B5671E",
"r c #9F4222",
"t c #C77805",
"y c #C67806",
"u c #834D45",
"i c #FF7F7F",
"p c #959133",
"a c #AF903F",
"s c #B8B327",
"d c #D89303",
"f c #DB9803",
"g c #DC9903",
"h c #D7961A",
"j c #EDB200",
"k c #EDB300",
"l c #E4A918",
"z c #C7C22B",
"x c #F3EC36",
"c c #F5EF37",
"v c #FCF538",
"b c #CF9147",
"n c #CF986B",
"m c #DEC95A",
"M c #808080",
"N c #979797",
"B c gray66",
"V c #AEAEAE",
"C c #FF8D8D",
"Z c #D5ADA4",
"A c #EDE181",
"S c #F6F39A",
"D c #FDFA9B",
"F c gray81",
"G c #FFC1C1",
"H c #FFD2D2",
"J c #FFD6D6",
"K c #FFDEDE",
"L c #E1E1E1",
"P c #FEFEFE",
"I c None",
/* pixels */
"IIIIIIIII:=%#+ I",
"IIIIIIIIk1380yqX",
"IIIIIIII.wrnbhdI",
"IIIIIIIII>PPP<*I",
"IIIII , I>PPP<*I",
"II,MMMMM >PPP<*I",
"IIMVLPPFo>pxs *I",
"IIPPiKPFO>ID I*I",
"I P7C5PFO>IP I*I",
"I<PP56PFO><SP *I",
"I<PJH5PFO>Pcz<*I",
"IPP55GPFO>vcz-*I",
"IPPPPPPFO>vcz-*I",
"IPPPPPPFueZAmlfI",
"IBBBBBBNa249gjtX",
"IIIIIIIII;&$@+ I"
};
