/* XPM */
static char *dev_cdrom[] = {
/* columns rows colors chars-per-pixel */
"16 16 9 1 ",
"  c black",
". c #008000",
"X c green",
"o c yellow",
"O c cyan",
"+ c #808080",
"@ c #C0C0C0",
"# c white",
"$ c None",
/* pixels */
"$$$$$$$$$$$$$$$$",
"$$$$$$$$$+++$$$$",
"$$$$$$$++oo@++$$",
"$$$$$$+OOoo@@@ $",
"$$$$$+XXOoo@@#@ ",
"$$$$$+@XX+ +#@@ ",
"$$$$$+@@X # @@@ ",
"$$$$$+@@@+ +O@@ ",
"$+++++@@@#@@oOO ",
"+#####+@#@@@Xo $",
"+#@@@@@++@@@   $",
"+#X.        @+ $",
"+#@@#####@@@@+ $",
"++++++++++++++ $",
"$             $$",
"$$$$$$$$$$$$$$$$"
};
