/* XPM */
static char *dia_16x16[] = {
/* columns rows colors chars-per-pixel */
"16 16 92 1 ",
"  c None",
". c #202426",
"X c #212527",
"o c #222628",
"O c #222729",
"+ c #232729",
"@ c #24282A",
"# c #24292B",
"$ c #25292B",
"% c #252A2C",
"& c #272C2E",
"* c #282D2F",
"= c #292E30",
"- c #292F31",
"; c #303638",
": c #313739",
"> c #343C3E",
", c #353C3E",
"< c #363D3F",
"1 c #2E5B03",
"2 c #305F03",
"3 c #316103",
"4 c #397004",
"5 c #3A7204",
"6 c #363E40",
"7 c #3A4244",
"8 c #696B66",
"9 c #696C68",
"0 c #6A6C68",
"q c #CE5C00",
"w c #CF5C00",
"e c #D15D00",
"r c #D35E00",
"t c #D55F00",
"y c #DA6100",
"u c #DB6200",
"i c #DD6300",
"p c #E46600",
"a c #428204",
"s c #428404",
"d c #4B9505",
"f c #7CD724",
"g c #82DA2C",
"h c #8CDF3B",
"j c #F8A95B",
"k c #FAB877",
"l c #92E244",
"z c #878985",
"x c #898B86",
"c c #8C8E8B",
"v c #8E908D",
"b c #8F918E",
"n c #90918E",
"m c #929390",
"M c #939491",
"N c #959693",
"B c #959794",
"V c #969794",
"C c #989995",
"Z c #989997",
"A c #999A96",
"S c #9A9C98",
"D c #9B9C99",
"F c #9C9E9B",
"G c #9E9F9D",
"H c #9FA09D",
"J c #A1A29F",
"K c #A1A3A0",
"L c #A3A4A1",
"P c #A4A5A2",
"I c #A5A6A3",
"U c #A6A7A4",
"Y c #A6A8A5",
"T c #AAABA7",
"R c #ABADA9",
"E c #ABADAA",
"W c #AEAFAC",
"Q c #AFB1AD",
"! c #AFB1AE",
"~ c #B1B2AF",
"^ c #B2B3B0",
"/ c #B4B6B2",
"( c #B6B8B4",
") c #BABBB8",
"_ c #BBBCB9",
"` c #FBC085",
"' c #FBC48D",
"] c #FCCB9B",
"[ c #FDCD9E",
"{ c #C2F095",
"} c #FED4AC",
"| c #CCF3A4",
/* pixels */
"                ",
"  d|{a          ",
" 7slh46<,>      ",
" _5gf2^!WExz:   ",
"  3111     ;LK  ",
"   _)   }    CF ",
"   (/  p[     S-",
"   ~Q  ]i`    =V",
"   RT uy kt   &M",
"   UP 'trej   m$",
"   JHrewqqqq 9n ",
"   DA      #mb  ",
" YINMGFSZB08o   ",
" *&vc%#@+O      ",
"   X.           ",
"                "
};
