/* XPM */
static char *draw[] = {
/* columns rows colors chars-per-pixel */
"16 16 31 1 ",
"  c black",
". c #1659269A269A",
"X c #3EFC3EFC3EFC",
"o c #514528A21659",
"O c #679E4F3C3CF3",
"+ c #2CB24D344D34",
"@ c #5F7E5F7E5F7E",
"# c #69A65B6D471C",
"$ c #7DF77DF77DF7",
"% c #BEFB3EFC3EFC",
"& c red",
"* c #D14428A21659",
"= c #A28951442CB2",
"- c #9040679E5555",
"; c #80007DF7679E",
": c #7FFF82076DB6",
"> c #D144A6997DF7",
", c #800080008000",
"< c #9659A4918E38",
"1 c #9659A69AA69A",
"2 c #BEFBBCF3A69A",
"3 c #BEFBBEFBBEFB",
"4 c #D34CB6DA8E38",
"5 c #FFFFD34C8000",
"6 c #E9A6D964AEBA",
"7 c #DF7DDF7DDF7D",
"8 c #E9A6DB6DC71C",
"9 c #FFFFFBEECF3C",
"0 c #FFFFFDF7E79E",
"q c white",
"w c None",
/* pixels */
"ww$3333333$wwwww",
"ww-9999<o92$wwww",
"ww%*999<#623$www",
"ww%&699++62,@ ww",
"ww%  9<64#4333ww",
"ww%  49+.>6997ww",
"ww2;.q0++69997ww",
"ww299O o::9997ww",
"ww2999= 6+6997ww",
"ww-99>+=  4997ww",
"ww299<::= #997ww",
"ww29<+:+.= o97ww",
"ww296+4666= 97ww",
"ww-9<+4996<= 7ww",
"ww201880000157ww",
"wwX@@@@@@@@@@@ww"
};
