/* XPM */
static char *Edit[] = {
/* columns rows colors chars-per-pixel */
"16 16 86 1 ",
"  c black",
". c #080C08",
"X c #100400",
"o c #181410",
"O c #200C00",
"+ c #281000",
"@ c #281C08",
"# c #301000",
"$ c #301400",
"% c #301408",
"& c #202020",
"* c #202430",
"= c #282830",
"- c #282C30",
"; c #482008",
": c #582408",
"> c #582C10",
", c #602C10",
"< c #603010",
"1 c #603818",
"2 c #703818",
"3 c #403420",
"4 c #784018",
"5 c #684C30",
"6 c #404448",
"7 c #484850",
"8 c #504C50",
"9 c #606468",
"0 c #686868",
"q c #787470",
"w c gray47",
"e c #905C38",
"r c #906438",
"t c #887048",
"y c #B09050",
"u c #C89060",
"i c #E0D468",
"p c #F0E460",
"a c #808480",
"s c #808888",
"d c #888888",
"f c #909490",
"g c #989490",
"h c #909498",
"j c #909898",
"k c #A09C98",
"l c #B8A490",
"z c #989CA0",
"x c #98A0A0",
"c c #A0A0A0",
"v c #A0A4A0",
"b c gray66",
"n c #A8ACB0",
"m c #B0B4B0",
"M c #B0B4B8",
"N c #B0B8B8",
"B c gray72",
"V c #B8BCB8",
"C c #E0B088",
"Z c #C0BCB0",
"A c #F0E4B8",
"S c #B8BCC0",
"D c #B8C0C0",
"F c #C0C4C0",
"G c #C0C4C8",
"H c #C8C8C8",
"J c #C8CCC8",
"K c #D0C8C0",
"L c #C8CCD0",
"P c #D0D0D0",
"I c #D0D4D8",
"U c #D8D8D8",
"Y c #D8DCD8",
"T c #F8E8D8",
"R c #D8DCE0",
"E c #D8E0E0",
"W c gray88",
"Q c #E0E4E8",
"! c #E0E8E8",
"~ c #E8ECE8",
"^ c #F0F0E8",
"/ c #E8F0F0",
"( c #F0F4F8",
") c #F8F8F8",
"_ c #F8FCF8",
"` c None",
/* pixels */
"```````l0```ek``",
"```xaw$tgd``9```",
"```K7**PI5``@```",
"`Z2*=f!EUL;ik```",
"T4_7(/!MULSy````",
"`rYsHWVEnLHo#```",
"`L4)jvnGfdpNb+``",
"``^,(dUdIDrBnh@`",
"```u6/RMHJ7BMz38",
"```m<WcFxpGGb&.`",
"````~>!QI%Df .``",
"`````C$Eq6BX.```",
"``````10ILO.````",
"``````U:R%.`````",
"```````A;.``````",
"````````-```````"
};
