/* XPM */
static char *ee[] = {
/* columns rows colors chars-per-pixel */
"16 16 134 2 ",
"   c #100F0C",
".  c #131412",
"X  c #131513",
"o  c #171713",
"O  c #1C1513",
"+  c #151A17",
"@  c #191D18",
"#  c #2C1A10",
"$  c #20221C",
"%  c #21221D",
"&  c #38291E",
"*  c #222C2C",
"=  c #322C26",
"-  c #323A3A",
";  c #58240B",
":  c #582E17",
">  c #5B331C",
",  c #612F13",
"<  c #433329",
"1  c #7F2E20",
"2  c #603924",
"3  c #7A3E20",
"4  c #783A36",
"5  c #514039",
"6  c #6A412F",
"7  c #3F5055",
"8  c #4C585E",
"9  c #515A5B",
"0  c #715644",
"q  c #70554B",
"w  c #5A6A74",
"e  c #5B6E77",
"r  c #5F6E74",
"t  c #843114",
"y  c #8F3914",
"u  c #8F3916",
"i  c #833219",
"p  c #953F16",
"a  c #964218",
"s  c #96441F",
"d  c #914524",
"f  c #9C4920",
"g  c #9D4B23",
"h  c #994D2E",
"j  c #814D33",
"k  c #8A4F37",
"l  c #8D4B3E",
"z  c #974B3B",
"x  c #9C5330",
"c  c #A5542B",
"v  c #A05537",
"b  c #AB5934",
"n  c #A35D3F",
"m  c #AC5F39",
"M  c #B1643C",
"N  c #BB683A",
"B  c #C96437",
"V  c #835441",
"C  c #94534C",
"Z  c #A55A52",
"A  c #866453",
"S  c #996552",
"D  c #AB6646",
"F  c #A1604E",
"G  c #AF6E4F",
"H  c #B36846",
"J  c #BB6449",
"K  c #B16C48",
"L  c #B46F49",
"P  c #B66E49",
"I  c #A16656",
"U  c #A9755F",
"Y  c #BA7756",
"T  c #BD7955",
"R  c #B07159",
"E  c #B7795F",
"W  c #967262",
"Q  c #917264",
"!  c #B27D61",
"~  c #B07F67",
"^  c #C37F66",
"/  c #B78166",
"(  c #BD8063",
")  c #BF8563",
"_  c #BA816D",
"`  c #BE866F",
"'  c #A88374",
"]  c #CB8B61",
"[  c #C6846E",
"{  c #C68F6C",
"}  c #CF9962",
"|  c #C68971",
" . c #C68C75",
".. c #CD9171",
"X. c #C3937C",
"o. c #CE9C7A",
"O. c #D1997D",
"+. c #D3A173",
"@. c #D6A075",
"#. c #D6B077",
"$. c #8F989F",
"%. c #9A989C",
"&. c #AA8E83",
"*. c #CF9B83",
"=. c #CF9D82",
"-. c #D39982",
";. c #D49B81",
":. c #D59C85",
">. c #D79F85",
",. c #DC9885",
"<. c #DF9C85",
"1. c #DAA385",
"2. c #D1A18D",
"3. c #D8A188",
"4. c #DBA58A",
"5. c #D9A78B",
"6. c #DCA68A",
"7. c #DDA78C",
"8. c #DEA98E",
"9. c #DAB884",
"0. c #D4A497",
"q. c #DDAA90",
"w. c #DCAA91",
"e. c #E1AC8C",
"r. c #E1AC91",
"t. c #E7C4BA",
"y. c #D9D6D8",
"u. c #ECCCC5",
"i. c #F0CEC8",
"p. c #E8D1CA",
"a. c #EDDBD9",
"s. c #F3E2CC",
"d. c #F6ECEB",
"f. c None",
/* pixels */
"f.f.f.f.f.f.f.f.f.f.f.f.f.f.f.f.",
"f.f.f.f.f.f.f.f.f.o.z p a P f.f.",
"f.f.f.f.f.f.f.f.L 1 y u b >.8.f.",
"f.f.f.f.f.f.} h i t H -.;.1.r.f.",
"f.f.f.f.f.@.g y f ..6.T c M +.f.",
"f.f.f.f.9.n s K 4.{ 3 2 : , x f.",
"f.f.f.#.G m ..8.! > % O # ; d  .",
"f.f.f.) Y >.8.( 5 o X k N B ] E ",
"f.f.0.[ 3.8.=.0 $ @ %.p.u.<.J D ",
"f.t.^ :.8.8.' < . - y.d.i.,.4 f.",
"f.2.*.e.8.7.q   * 8 e a.s.C S f.",
"f.| 8.8.8./ & + 9 w $.&.Z F f.f.",
"f.O.8.8.5.V $ % 7 r Q l R f.f.f.",
"f.f.w.e.8.A = j W ~ I ` f.f.f.f.",
"f.f.f.8.q.X.6 v U _ f.f.f.f.f.f.",
"f.f.f.f.f.f.f.f.f.f.f.f.f.f.f.f."
};
