/* XPM */
static char *empty[] = {
/* columns rows colors chars-per-pixel */
"16 16 11 1 ",
"  c black",
". c #3EFC3EFC3EFC",
"X c #5F7E5F7E5F7E",
"o c #7DF77DF77DF7",
"O c #679E679E8000",
"+ c #800080008000",
"@ c #BEFBBEFBBEFB",
"# c #DF7DDF7DDF7D",
"$ c #CF3CCF3CFFFF",
"% c white",
"& c None",
/* pixels */
"&&o@@@@@@@o&&&&&",
"&&@%%%%%%%@o&&&&",
"&&@%%%%%%%@@o&&&",
"&&@%%%%%%%@+X &&",
"&&@%+      @@@&&",
"&&@%   +++ +%#&&",
"&&@% OOOOO +%#&&",
"&&@%O$$$$$$+%#&&",
"&&@%O$$$$$$+%#&&",
"&&@%O$$$$$$+%#&&",
"&&@%O$$$$$$+%#&&",
"&&@%O OOOO$+%#&&",
"&&@% O$$$$O%%#&&",
"&&@%%%+++%%%%#&&",
"&&@%%%%%%%%%%#&&",
"&&.XXXXXXXXXXX&&"
};
