/* XPM */
static char *fig[] = {
/* columns rows colors chars-per-pixel */
"16 16 22 1 ",
"  c black",
". c #3EFC3EFC3EFC",
"X c #514528A21659",
"o c #1861679E1861",
"O c #165945142AAB",
"+ c #679E430C1E7A",
"@ c #5F7E5F7E5F7E",
"# c #7DF77DF77DF7",
"$ c #B8E36BAE34D3",
"% c #80007DF7679E",
"& c #000080000000",
"* c green",
"= c #30C2CF3C30C2",
"- c #679EC30B1E7A",
"; c #2CB28A285555",
": c #2EBAACB2430C",
"> c #800080008000",
", c #BEFBBCF3A69A",
"< c #BEFBBEFBBEFB",
"1 c #DF7DDF7DDF7D",
"2 c #FFFFFBEECF3C",
"3 c None",
/* pixels */
"33#<<<<<<<#33333",
"33, 2 2 22,#3333",
"33, 2%2% 2,<#333",
"33,22%2222,>@ 33",
"33,22222222<<<33",
"33,+ 22222 **133",
"33,X$$%+XX-*&133",
"33,22 XX &* *133",
"33,22%=%*&***133",
"33,22 o%*%&&*133",
"33,2 :o2%%***133",
"33, ;==%2**%&133",
"33,;O== %*&2*133",
"33.;:==o%&2%*133",
"33.;O===222%*133",
"33.@@@@@@@@@@@33"
};
