/* XPM */
static char *file_bad[] = {
/* columns rows colors chars-per-pixel */
"16 16 10 1 ",
"  c #404040",
". c #5F5F5F",
"X c gray50",
"o c #808080",
"O c #9F9F9F",
"+ c gray",
"@ c gray75",
"# c #DFDFDF",
"$ c white",
"% c None",
/* pixels */
"%%$$$$$$$$X%%%%%",
"%%$$$$$$$$@X%%%%",
"%%$$$$$$$$@+X%%%",
"%%$$$$$$$$@o. %%",
"%%$$$$$$$$$+++%%",
"%%$$$$$$$$$$$#%%",
"%%$$$$$$$$$$$#%%",
"%%$$$$$$$$$$$#%%",
"%%$$$$$$$$$$$#%%",
"%%$$$$$$$$$$$#%%",
"%%$$$$$$$$$$$#%%",
"%%$$$$$$$$$$$#%%",
"%%$$$$$$$$$$$#%%",
"%%$$$$$$$$$$$#%%",
"%%$$$$$$$$$$$#%%",
"%%XOOOOOOOOOOO%%"
};
