/* XPM */
static char *file_link[] = {
/* columns rows colors chars-per-pixel */
"16 16 11 1 ",
"  c black",
". c #410441044104",
"X c #5F7E5F7E5F7E",
"o c #7DF77DF77DF7",
"O c #7FFF7FFF7FFF",
"+ c #800080008000",
"@ c #BEFBBEFBBEFB",
"# c #C103C103C103",
"$ c #DF7DDF7DDF7D",
"% c white",
"& c None",
/* pixels */
"&&o@@@@@@@o&&&&&",
"&&@%%%%%%%@o&&&&",
"&&@%%%%%%%@@o&&&",
"&&@%%%%%%%@+X &&",
"&&@%%%%%%%%@@@&&",
"&&@%%%%%%%%%%$&&",
"&&@%%%%%%%%%%$&&",
"&&@%%%%%%%%%%$&&",
"&&@%%%%%%%%%%$&&",
"&&@%%%%%%%%%%$&&",
"&&O##%%%%%%%%$&&",
"#%++%+%%%%%%%$&&",
"#%  %+%%%%%%%$&&",
"#+ %%+%%%%%%%$&&",
"#%%%%+%%%%%%%$&&",
".++++ XXXXXXXX&&"
};
