/* XPM */
static char *folder_up[] = {
/* columns rows colors chars-per-pixel */
"16 16 8 1 ",
"  c black",
". c #4E4E80",
"X c #676780",
"o c #B5B5FF",
"O c #CECEFF",
"+ c #E7E7FF",
"@ c white",
"# c None",
/* pixels */
"################",
"################",
"################",
"################",
"##OOOO #########",
"#OOOOOO ########",
"X++++++++++++++#",
"X@@@@@@@@@@@@@o#",
"X@@@@@@O@@@@@@o#",
"X@@@@@  O@@@@@o#",
"X@@@@ @O O@@@@o#",
"X@@@@@  O@@@@@o#",
"X@@@@ @@ O@@@@o#",
"X@@@@@@@@@@@@@o#",
"X@@@@@@@@@@@@@o#",
" XXXXXXXXXXXXX.#"
};
