/* XPM */
static char *folder_link[] = {
/* columns rows colors chars-per-pixel */
"16 16 12 1 ",
"  c black",
". c #410441044104",
"X c #4F3D4F3D8000",
"o c #679E679E8000",
"O c #800080008000",
"+ c #A8A2A8A2C103",
"@ c #B6DBB6DBFFFF",
"# c #C103C103C103",
"$ c #CF3CCF3CFFFF",
"% c #E79EE79EFFFF",
"& c white",
"* c None",
/* pixels */
"****************",
"****************",
"****************",
"****************",
"**$$$$ *********",
"*$$$$$$ ********",
"o%%%%%%%%%%%%%%*",
"o&&&&&&&&&&&&&@*",
"o&&&&&&&&&&&&&@*",
"o&&&&&&&&&&&&&@*",
"#++++$&&&&&&&&@*",
"#&OO&o&&&&&&&&@*",
"#&  &o&&&&&&&&@*",
"#O &&o&&&&&&&&@*",
"#&&&&o&&&&&&&&@*",
".OOOO ooooooooX*"
};
