/* XPM */
static char *games_card[] = {
/* columns rows colors chars-per-pixel */
"16 16 114 2 ",
"   c #201D1B",
".  c #392B1D",
"X  c #242323",
"o  c #292623",
"O  c #2C2C2C",
"+  c #34302C",
"@  c #5B5147",
"#  c #5F564D",
"$  c #6D655D",
"%  c #787777",
"&  c #961716",
"*  c #FF0100",
"=  c #FF1406",
"-  c #FF1B0C",
";  c #FB2525",
":  c #FC3636",
">  c #8A7866",
",  c #86786B",
"<  c #877B6F",
"1  c #8C7C6B",
"2  c #8F7F6F",
"3  c #FE7366",
"4  c #FD7A79",
"5  c #97816A",
"6  c #91806F",
"7  c #95826F",
"8  c #86817A",
"9  c #938170",
"0  c #9A8470",
"q  c #9B8671",
"w  c #9B8774",
"e  c #95887C",
"r  c #94897F",
"t  c #AB937A",
"y  c #F29778",
"u  c #838383",
"i  c #968483",
"p  c #928980",
"a  c #958B80",
"s  c #978C80",
"d  c #958F87",
"f  c #9F9080",
"g  c #95908C",
"h  c #98948E",
"j  c #9C948C",
"k  c #959490",
"l  c #959595",
"z  c #999998",
"x  c #A6998A",
"c  c #A49A94",
"v  c #C6B4A2",
"b  c #C2B6A5",
"n  c #CEBCAB",
"m  c #EFA7A7",
"M  c #F2A9A8",
"N  c #DCCBBB",
"B  c #F7CCA7",
"V  c #F0CCA8",
"C  c #F3CCA8",
"Z  c #F4CFAE",
"A  c #F1D0AF",
"S  c #F4D1AD",
"D  c #F9D1AC",
"F  c #F9D2AF",
"G  c #E2C9B3",
"H  c #F6C4B8",
"J  c #EED1B3",
"K  c #EFD7BD",
"L  c #F9D3B0",
"P  c #F9D5B3",
"I  c #FAD7B5",
"U  c #FAD8B6",
"Y  c #F6D7B8",
"T  c #F3D8BC",
"R  c #FADAB9",
"E  c #FBD9BA",
"W  c #FADBBB",
"Q  c #CACAC9",
"!  c #DBDAD6",
"~  c gray85",
"^  c #E0D2C0",
"/  c #F8DDD1",
"(  c #FFDCDA",
")  c #FCE0C3",
"_  c #F2E0CC",
"`  c #FDE3C8",
"'  c #FDE4CB",
"]  c #F9E3CF",
"[  c #FDE7D0",
"{  c #FDE8D3",
"}  c #FDEAD4",
"|  c #FEEBD4",
" . c #FFE0DE",
".. c #FAEAD8",
"X. c #FEE9D8",
"o. c #FDEBD8",
"O. c #FEEED9",
"+. c #FEF1E2",
"@. c #FEF6E2",
"#. c #FEF5E4",
"$. c #FEF9E6",
"%. c #FDF4EB",
"&. c #FEF7EC",
"*. c #FEF9EA",
"=. c #FEF9ED",
"-. c #FEFAED",
";. c #FEF8EF",
":. c #FEFAF0",
">. c #FEFBF3",
",. c #FEFCF6",
"<. c #FDFBF9",
"1. c #FEFDF9",
"2. c #FEFEFE",
"3. c None",
/* pixels */
"3.3.3.3.3.3.3.3.3.3.3.3.3.3.3.3.",
"3.3.3.3.3.3.i l z h 8 3.3.3.3.3.",
"3.3.3.3.3.3.( 2.1.$.b 3.3.3.3.3.",
"3.3.3.3.3.O 2.2.#.O.} 3.3.3.3.3.",
"3.3.3.% Q k 2.:.= / c O 3.3.3.3.",
"3.3.3.l %.j O.- * &  .2.1.@.x 3.",
"3.u l g +.o } ..3 e 2.2.>.*._ 3.",
"3.~ <.d . X ..] W w ;.1.=.-.[ 3.",
"3.2.,.s N % n J P q %.; 4 : ` 3.",
"3.&.! f { r , 6 0 O X.m ; M E 3.",
"3.^   a K W Y A 1 3.o.} H E Z 3.",
"3.o.| p G Y S t # 3.' ` R L V 3.",
"3.' ) < 2 7 + 3.3.3.U I D B y 3.",
"3.v T F C 5 3.3.3.3.3.3.3.3.3.3.",
"3.$ 9 1 > @ 3.3.3.3.3.3.3.3.3.3.",
"3.3.3.3.3.3.3.3.3.3.3.3.3.3.3.3."
};
