/* XPM */
static char *games[] = {
/* columns rows colors chars-per-pixel */
"16 16 26 1 ",
"  c black",
". c #3C3C3C",
"X c #660000",
"o c #770000",
"O c #505052",
"+ c #606060",
"@ c #6F6F6F",
"# c #CC0000",
"$ c #E60000",
"% c red",
"& c #8C5052",
"* c #9C6060",
"= c #4D4D80",
"- c #666680",
"; c #808080",
": c #B0B0B2",
"> c #E68080",
", c #FF8080",
"< c #C0C0C0",
"1 c #CFCFCF",
"2 c #CCCCFF",
"3 c #E0E0E0",
"4 c #EEEEEE",
"5 c #E6E6FF",
"6 c white",
"7 c None",
/* pixels */
"7777777777777777",
"7777777777777777",
"7777777777777777",
"7777777777777777",
"77 2222777777777",
"7 22222277777777",
"755555555555555-",
"722222-------62=",
"722 + 444444466=",
"72-:&;%,666664-=",
"72-:o;%,666664==",
"72 :*;16666664==",
"7-.*o;%6%$%364==",
"7-.:<;46%%%>64==",
"7-.:<;46<%#664==",
"7  O+ @;;X+;;@  "
};
