/* XPM */
static char *gnorpm[] = {
/* columns rows colors chars-per-pixel */
"16 16 55 1 ",
"  c black",
". c #050505",
"X c #0E0E0E",
"o c #121212",
"O c #151515",
"+ c #1A1A1A",
"@ c gray12",
"# c #262626",
"$ c #272727",
"% c #2A2A2A",
"& c #2E2E2E",
"* c #352E2E",
"= c #313131",
"- c #323232",
"; c #3B3131",
": c #393939",
"> c #3A3A3A",
", c #3E3E3E",
"< c #7C2220",
"1 c gray26",
"2 c #454545",
"3 c #464646",
"4 c gray29",
"5 c #515151",
"6 c #555555",
"7 c gray37",
"8 c #676767",
"9 c #6A6A6A",
"0 c gray43",
"q c #737373",
"w c #7F7F7F",
"e c #B21C18",
"r c #B4211D",
"t c #863F3D",
"y c #973633",
"u c #B82B27",
"i c #A43F3C",
"p c #D27976",
"a c #818181",
"s c #868686",
"d c #878787",
"f c #958484",
"g c #949494",
"h c #A0A0A0",
"j c #A4A4A4",
"k c #ABABAB",
"l c #ADADAD",
"z c #BFBFBF",
"x c #C1C1C1",
"c c #D5D5D5",
"v c #D7D7D7",
"b c #EAEAEA",
"n c #ECECEC",
"m c #FEFEFE",
"M c None",
/* pixels */
"MMMMMMMMMMMMMMMM",
"MMMMMMMMMMMMMMMM",
"MMMMMMMMMMMMMMMM",
"MMMMMMMMMMMMMMMM",
"MMM>dgbmmnhitMMM",
"M$X4mmmmmmmmprMM",
"M..mmmmcvmmmmue*",
"# 1mmmmmxkjzlye<",
"@o7s66sMM96686;f",
" +>M.-=&MO$M w21",
" ,MM.:@ MO%M M51",
"o0MM.@%MM3&M&Maq",
"MMMM.%MMMMMMMMMM",
"MMMMMMMMMMMMMMMM",
"MMMMMMMMMMMMMMMM",
"MMMMMMMMMMMMMMMM"
};
