/* XPM */
static char *gnu[] = {
/* columns rows colors chars-per-pixel */
"16 16 101 2 ",
"   c #08080B",
".  c #0D0D0A",
"X  c #0E0E0D",
"o  c #0C0C0F",
"O  c #0F0F0F",
"+  c #10100B",
"@  c #161613",
"#  c #171717",
"$  c #1A1A18",
"%  c #1B1B1C",
"&  c #222220",
"*  c #202023",
"=  c #242421",
"-  c #252525",
";  c #2A2928",
":  c #2B2B2B",
">  c #2F2E2F",
",  c #2F2F2F",
"<  c #303032",
"1  c #343434",
"2  c #363635",
"3  c #383835",
"4  c #3F3F3F",
"5  c #424240",
"6  c #414142",
"7  c #404043",
"8  c #494845",
"9  c #4C4C4F",
"0  c #51514D",
"q  c #4F4F50",
"w  c #545453",
"e  c #5B5B5B",
"r  c #626262",
"t  c #656461",
"y  c #666665",
"u  c #69696B",
"i  c #6C6C6E",
"p  c #6F6F6F",
"a  c gray46",
"s  c #797975",
"d  c #7A797A",
"f  c #7B7B7B",
"g  c #7B7A7C",
"h  c #466183",
"j  c #486485",
"k  c #808082",
"l  c #838383",
"z  c #868585",
"x  c #848486",
"c  c #868686",
"v  c gray53",
"b  c #8C8B8C",
"n  c gray55",
"m  c #929190",
"M  c #929291",
"N  c #969693",
"B  c #949497",
"V  c #969597",
"C  c #97989A",
"Z  c #9B9B9B",
"A  c #9C9C9F",
"S  c #8895A4",
"D  c #A0A0A3",
"F  c #A2A2A2",
"G  c gray64",
"H  c #A7A7A4",
"J  c #A5A5AA",
"K  c #ABABAA",
"L  c #ACACAE",
"P  c #AFB0AF",
"I  c #A0A6B0",
"U  c #B1B1B3",
"Y  c #B3B3B2",
"T  c #B7B7B5",
"R  c #BFBFC3",
"E  c #C1C0C3",
"W  c #C3C2C3",
"Q  c #C3C3C4",
"!  c #C7C7C7",
"~  c #C8C8C7",
"^  c #CACAC8",
"/  c #CFCFCE",
"(  c #D3D3D3",
")  c #D6D6D1",
"_  c #D4D4D3",
"`  c #D5D5D6",
"'  c #D8D8D8",
"]  c #D8D8DA",
"[  c #DDDCD9",
"{  c #DEDEDC",
"}  c #DCDCDE",
"|  c #E0E0E3",
" . c #E3E3E2",
".. c #E5E5E3",
"X. c #E2E2E6",
"o. c #E4E4E4",
"O. c #E7E7E6",
"+. c #EBEBED",
"@. c #EEEEF0",
"#. c gray99",
"$. c None",
/* pixels */
"$.$.$.$.$.$.$.$.$.$.$.$.$.$.$.$.",
"$.Y & $ $.$.$.$.$.$.$.$.$.- o $.",
"$.% $.$.$.$.~ $.$.$.$.$.$.$.1 $.",
"m   $.$.$.e . X 9 2 ; U $.$.f = ",
"i O $.$.r < 9 8 p u 4 0 V $.w $.",
"c + * s o.) , K A / n F 6 > # $.",
"$.3 @ Z +.x l h I { j S ^ : $.$.",
"$.$.$.@._ N D ] ` X.[ q d z $.$.",
"$.$.$._ v 5 Q #.} K G D $.$.$.$.",
"$.$.J $.$.! E O.) M ^  .$.$.$.$.",
"$.$.$.$.$.B ..| T ( L 6 $.$.$.$.",
"$.$.$.$.$.$.R ' P L b t $.$.$.$.",
"$.$.$.$.$.$.y W K C k $.$.$.$.$.",
"$.$.$.$.$.$.$.a H e $.$.$.$.$.$.",
"$.$.$.$.$.$.$.$.g 7 $.$.$.$.$.$.",
"$.$.$.$.$.$.$.$.$.$.$.$.$.$.$.$."
};
