/* XPM */
static char *gvim[] = {
/* columns rows colors chars-per-pixel */
"16 16 14 1 ",
"  c black",
". c #004000",
"X c #000040",
"o c gray25",
"O c #626262",
"+ c #008000",
"@ c #00C000",
"# c #808080",
"$ c #A2A2A2",
"% c #C0C0C0",
"& c #C3C3C3",
"* c #E1E1E1",
"= c white",
"- c None",
/* pixels */
"-------  -------",
"- #####@+ #### -",
"- &&&&&o++*&&&&-",
"--o&&&#+++ &&&#-",
"--#&&&o++ =&&#--",
"--#&&&o+ =&&# --",
"- #&&&o =&&#++ -",
" +#&&&%=&&#++++ ",
" +#&&&$&&#+++++ ",
"- #&&&&&O.++++ -",
"--#&&&&oO+.+. --",
"--#&&&# & &&&&&-",
"--#&&# OO &X& O-",
"--#&# +& & & & -",
"---o --O O-O-O -",
"-------  -------"
};
