/* XPM */
static char *harddrive[] = {
/* columns rows colors chars-per-pixel */
"16 16 27 1 ",
"  c black",
". c #111111",
"X c #222222",
"o c #2B2B2B",
"O c #777777",
"+ c #8C8C8E",
"@ c #9C9C9C",
"# c #A2A2A2",
"$ c #A0A0A4",
"% c #AAAAAA",
"& c #B0B0B2",
"* c #BBB9B4",
"= c #B6B6B8",
"- c #BFBFC1",
"; c #C0C0C0",
": c #C6C6C6",
"> c gray80",
", c #CFCFCF",
"< c #D0CECA",
"1 c #DDDDDD",
"2 c #E6E4DE",
"3 c #EEECE7",
"4 c #EEEEEE",
"5 c #FFFBF0",
"6 c #FFFDF8",
"7 c white",
"8 c None",
/* pixels */
"8888888888888888",
"8888888888888888",
"8888888888888888",
"8888888888888888",
"8888888888888888",
"888 4111111 8888",
"88 711111111 888",
"8 71111111111 88",
"86532;,:=&===$88",
"85<1>@;;$+o o$88",
"85-1>@;;$+---$.X",
"8*%%#O@++O++++.X",
"8 XXXXXXXXXXX 88",
"8888888888888888",
"8888888888888888",
"8888888888888888"
};
