/* XPM */
static char *helpme[] = {
/* columns rows colors chars-per-pixel */
"16 16 19 1 ",
"  c black",
". c #222222",
"X c #3C3C3C",
"o c #4D4D4D",
"O c #4D4D66",
"+ c #6F6F6F",
"@ c #CC4D4D",
"# c #99991A",
"$ c #888888",
"% c gray60",
"& c #AAAAAA",
"* c #BBBBBB",
"= c #9999CC",
"- c #9999FF",
"; c #BBBBEE",
": c #DDDDDD",
"> c #CCCCE6",
", c white",
"< c None",
/* pixels */
"<<<<<<<<<<<<<<<<",
"<<<<<<<<:OOOO<<<",
"<<<<<<<:=,  ,=<<",
"<< ++++ >,, ,>+<",
"<<+%+++.>,,,,>+<",
"<<++---- >>>> <<",
"<<++----- O +<<<",
"<<++----   .<<<<",
"<<++------*.<<<<",
"<<++;;;;;;*.<<<<",
"<<+++++++++.<<<<",
"<< ++++++++:<<<<",
"<<+#%%%%%%@.<<<<",
"< ooooooooo+ <<<",
"+&&$$$$$$$$$X+<<",
":++++++++++++:<<"
};
