/* XPM */
static char *hex[] = {
/* columns rows colors chars-per-pixel */
"16 16 16 1 ",
"  c black",
". c #3EFC3EFC3EFC",
"X c #3EFC7FFF7FFF",
"o c #5F7E5F7E5F7E",
"O c #7DF77DF77DF7",
"+ c #BEFBBEFB3EFC",
"@ c yellow",
"# c #8000C1034104",
"$ c #DF7DDF7D5F7E",
"% c #000082078207",
"& c #5F7EA081A081",
"* c #800080008000",
"= c #BEFBBEFBBEFB",
"- c #DF7DDF7DDF7D",
"; c white",
": c None",
/* pixels */
"::OXX+X+XXO:::::",
"::X##@%@%#XO::::",
"::X##@%@%#X=O:::",
"::X#@;#@;#+*o ::",
"::X%@%%;@%@===::",
"::+%@%##@%@%#&::",
"::+%@%##@%@%#&::",
"::+%@%##@%@%#&::",
"::X#@;#@;#@;#$::",
"::+#@@#@@#@@#$::",
"::X%@%##;%@;%$::",
"::+%@%##@%@@%$::",
"::+%@%##@%@@%$::",
"::X%;%%@@%;@%-::",
"::+@@@@@@@@@@$::",
"::.ooooooooooo::"
};
