/* XPM */
static char *hypervisor_16x16[] = {
/* columns rows colors chars-per-pixel */
"14 16 85 1 ",
"  c black",
". c #39383B",
"X c #4A4A55",
"o c #56555C",
"O c #676767",
"+ c #707070",
"@ c #727272",
"# c #777777",
"$ c #EC4D39",
"% c #EC4E3A",
"& c #EC5137",
"* c #ED5A31",
"= c #ED5932",
"- c #EC5D36",
"; c #ED6434",
": c #EE663A",
"> c #ED6A3D",
", c #D96949",
"< c #DC6D48",
"1 c #DC694E",
"2 c #DC6A4E",
"3 c #DC6D4C",
"4 c #DE744C",
"5 c #DC6651",
"6 c #DC6950",
"7 c #D67D57",
"8 c #DC7853",
"9 c #E07349",
"0 c #E27B52",
"q c #F18054",
"w c #E68F6D",
"e c #508DB5",
"r c #5794BC",
"t c #5891B8",
"y c #5992B9",
"u c #6B96B2",
"i c #6D97B5",
"p c #6F9AB7",
"a c #709CBA",
"s c #719EBC",
"d c #729FBD",
"f c #379AC8",
"g c #5C9AC3",
"h c #5D9BC3",
"j c #609DC5",
"k c #4BA9D3",
"l c #5CB1D6",
"z c #74A1C0",
"x c #76A4C3",
"c c #77AACB",
"v c #7EB1CE",
"b c #63B3D6",
"n c #9D9D9F",
"m c #B3978F",
"M c #A6A8AB",
"N c #A7A9AC",
"B c #ABABAF",
"V c #E8A081",
"C c #F0C8B5",
"Z c #F4C8B4",
"A c #84AEC8",
"S c #86B0CB",
"D c #84B2CF",
"F c #88B3CD",
"G c #89B3CE",
"H c #8AB5CF",
"J c #8DB6CE",
"K c #90B4CB",
"L c #91B1CD",
"P c #9AB5C9",
"I c #84B7D1",
"U c #85B7D1",
"Y c #83B8D2",
"T c #9DBFD9",
"R c #B2C2CF",
"E c #BCD8EB",
"W c #CACBCE",
"Q c #CDCFD0",
"! c #C9D3DB",
"~ c #E7E8E9",
"^ c #EAEBED",
"/ c #F1F6FA",
"( c #F4F8FB",
") c white",
"_ c None",
/* pixels */
"______________",
"____;*&$______",
"_____q0-&%____",
"_=&$L)eV3:&___",
"_;=72!Yg9<3&;_",
"_T9831mJrBZ9e_",
"EYtK9>,65jgeYf",
"kk(vhw9C4lI)ff",
"kFSSbhDyelpiuf",
".~H/SAUcPappaX",
"O@^GSSAzdsa)XX",
"ONNOWSSxzRXXXX",
"_ NONOQxoXXXX_",
"___ONM#XXXX___",
"_____+#XXn____",
"_______X______"
};
