/* XPM */
static char *info[] = {
/* columns rows colors chars-per-pixel */
"16 16 11 1 ",
"  c black",
". c #3EFC3EFC3EFC",
"X c #5F7E5F7E5F7E",
"o c #7DF77DF77DF7",
"O c blue",
"+ c #800080008000",
"@ c #BEFBBEFBBEFB",
"# c #80008000FFFF",
"$ c #DF7DDF7DDF7D",
"% c white",
"& c None",
/* pixels */
"&&o@@@@@@@o&&&&&",
"&&@%%%%%%%@o&&&&",
"&&@%%%%%%%@@o&&&",
"&&@%%%%%%%@+X &&",
"&&@%%%OOOO%@@@&&",
"&&@%%OO%%OO%%$&&",
"&&@%OOO%%OOO%$&&",
"&&@#OOO##OOO#$&&",
"&&@#OOO%%OOO#$&&",
"&&@#OOO%%OOO#$&&",
"&&@%OOO%%OOO%$&&",
"&&@%%OOOOOO%%$&&",
"&&@%%%OOOO%%%$&&",
"&&@%%%%%%%%%%$&&",
"&&@%%%%%%%%%%$&&",
"&&.XXXXXXXXXXX&&"
};
