/* XPM */
static char *inspect[] = {
/* columns rows colors chars-per-pixel */
"16 16 50 1 ",
"  c black",
". c #000014140000",
"X c #000000001818",
"o c #181800001818",
"O c #181814141818",
"+ c #181824241818",
"@ c #282824241818",
"# c #181814142828",
"$ c #282814142828",
"% c #282814143838",
"& c #282824242828",
"* c #383824242828",
"= c #383834342828",
"- c #282824243838",
"; c #383824243838",
": c #282834343838",
"> c #383834343838",
", c #484834343838",
"< c #383848483838",
"1 c #383834344848",
"2 c #484834344848",
"3 c #484824245858",
"4 c #383848484848",
"5 c #484848484848",
"6 c #484858584848",
"7 c #585858585858",
"8 c #686858585858",
"9 c #585868685858",
"0 c #686868685858",
"q c #585858586868",
"w c #585858587878",
"e c #686878787878",
"r c #686858589090",
"t c #686868689090",
"y c #78787878A0A0",
"u c #909078789090",
"i c #78788C8C9090",
"p c #90908C8C9090",
"a c #90908C8CA0A0",
"s c #90909C9CB0B0",
"d c #A0A08C8CB0B0",
"f c #A0A09C9CB0B0",
"g c #B0B0ACACB0B0",
"h c #A0A08C8CC0C0",
"j c #A0A09C9CC0C0",
"k c #C0C0D0D0D0D0",
"l c #C0C0D0D0E0E0",
"z c #FFFFF0F0FFFF",
"x c white",
"c c None",
/* pixels */
"cccccccccccccccc",
"cz@o7777@;=*@$Oc",
"c& 7fiuip qeja#c",
"c;7dxd&%57 r $@c",
"c 7lg 2 1<2tX+;c",
"c 0ggxxxxu>3 o=c",
"c  gxxxxxk1-t.>c",
"c77dxxxxx7 ;tO=c",
"c6 sxxxxx:5-r+>c",
"c5@ 1hfd 7 %w&&c",
"c>y:74572477ja$c",
"c$>5@$98@$+g7&Oc",
"ccccc      cg7cc",
"cccccc>>>>cccg7c",
"cc777777777777 c",
"cc  >,>>>,>>  cc"
};
