/* XPM */
static char *kalarm[] = {
/* columns rows colors chars-per-pixel */
"16 16 92 1 ",
"  c black",
". c #4A3618",
"X c #4D3719",
"o c #4F391A",
"O c #523B1B",
"+ c #533C1C",
"@ c #543D1C",
"# c #563E1C",
"$ c #664A21",
"% c #6A4D23",
"& c #6D4F24",
"* c #725325",
"= c #765627",
"- c #525252",
"; c #6E6E6E",
": c #727272",
"> c #815C28",
", c #8E652D",
"< c #91682F",
"1 c #946B30",
"2 c #976D31",
"3 c #996E32",
"4 c #9B7033",
"5 c #9D7133",
"6 c #A87937",
"7 c #AC7C38",
"8 c #B07F3A",
"9 c #B6843C",
"0 c #B9863C",
"q c #BD893E",
"w c #C08B3F",
"e c #9E8258",
"r c #BC8B43",
"t c #AC8C5F",
"y c #AE9066",
"u c #BC9C6E",
"i c #B8A07E",
"p c #C38E40",
"a c #C59247",
"s c #D09744",
"d c #D89D47",
"f c #DA9E48",
"g c #E0A349",
"h c #E3A54A",
"j c #E7A84C",
"k c #ECAC4D",
"l c #E3A750",
"z c #D4B07A",
"x c #DFB578",
"c c #AE9F8A",
"v c #A0A0A0",
"b c #A8A8A8",
"n c #ACACAC",
"m c #B2ABA2",
"M c #B2ACA3",
"N c #BBB4AB",
"B c #B0B0B0",
"V c #B6B6B6",
"C c #B7B7B7",
"Z c #B9B9B9",
"A c #BBBBBB",
"S c #BCBCBC",
"D c gray75",
"F c #CBB99F",
"G c #E0BA82",
"H c #D0BEA3",
"J c #C6BEB3",
"K c #DEC095",
"L c #EFC280",
"P c #F0DABB",
"I c #C3C3C3",
"U c gray78",
"Y c #CBCBCB",
"T c #D1D0CF",
"R c #DDD5C8",
"E c #D2D2D1",
"W c LightGray",
"Q c #D7D7D7",
"! c gray86",
"~ c #DFDFDF",
"^ c #EBE2D5",
"/ c #F4EADB",
"( c #F3E9DC",
") c gray89",
"_ c #E7E7E7",
"` c gray92",
"' c #EEEEED",
"] c #EFEFEF",
"[ c #F1F0EF",
"{ c #F2F1F1",
"} c #F3F2F2",
"| c None",
/* pixels */
"|| $@||||||** ||",
"| f0,||||||hfp |",
" gq,|=kkjj*|973 ",
" q, kL(}'^xd <> ",
"|| k/}]`S))Rs ||",
"||jP{[`_:)!!Hw||",
"| l''`)~;!QWTr |",
"|&G`)))!;WWTYu#|",
"|%KI)!!D-EYUbi+|",
"|$z!!QWBCYUIIyO|",
"| aQEWnYYIIDA5 |",
"||rFEYYIIDZZc3||",
"|| 8JUIvAAVm2 ||",
"||| 6tNZVMe1 |||",
"|||4Xo4211.X3|||",
"|| X |||||| X ||"
};
