/* XPM */
static char *karm[] = {
/* columns rows colors chars-per-pixel */
"16 16 85 1 ",
"  c #010102",
". c #030803",
"X c #040A03",
"o c #040E03",
"O c #0C0D0D",
"+ c #0D0D0D",
"@ c #021403",
"# c #182E17",
"$ c #30302F",
"% c #3A3B3A",
"& c #3B3B3A",
"* c #403F3F",
"= c #164A0B",
"- c #184E0B",
"; c #1C520B",
": c #18500F",
"> c #184813",
", c #1E5017",
"< c #1F5217",
"1 c #1E5C17",
"2 c #225817",
"3 c #225A17",
"4 c #245C1B",
"5 c #265E1B",
"6 c #226017",
"7 c #24631B",
"8 c #26601D",
"9 c #28621F",
"0 c #367E28",
"q c #465A44",
"w c #4E5053",
"e c #5E5E5C",
"r c #615C5F",
"t c #686054",
"y c #666668",
"u c #747070",
"i c #747476",
"p c #7F7F7F",
"a c #C00000",
"s c #A34847",
"d c #867E78",
"f c #5A8C58",
"g c #808181",
"h c #808284",
"j c #888987",
"k c #858689",
"l c #8C8D8B",
"z c #889E88",
"x c #9AA89C",
"c c #9CAC9C",
"v c #A0A1A1",
"b c #A5A1A2",
"n c #BEBDBC",
"m c #BDBDBE",
"M c #BFBFBF",
"N c #DA8586",
"B c #DD8585",
"V c #C0C0C0",
"C c #CCC8C4",
"Z c #CACBCB",
"A c #C5D3D7",
"S c #D4D4D3",
"D c #DDDBDE",
"F c #DADCDC",
"G c #DFDFDE",
"H c #E6E2DC",
"J c #D7DEE0",
"K c #C9E5EE",
"L c #DEF0F6",
"P c #FEECEC",
"I c #ECECFB",
"U c #EDFBFF",
"Y c #F0F0F0",
"T c #F4F4F4",
"R c #FEF8F7",
"E c #F6F6FA",
"W c #F1F1FC",
"Q c #F4F8F9",
"! c #F0FBFF",
"~ c #F3FBFE",
"^ c #FEFCF8",
"/ c #FCFAFC",
"( c #F8FCFD",
") c #FDFDFC",
"_ c None",
/* pixels */
" 76611>#>:--===_",
"7)))))QZ)))))^0@",
"9)P)))Ej/))))Px@",
"9)R))FtCdF)))Rc@",
"8)SSS))h))SSSSc@",
"5)W))))l))np))c@",
"4)/)))^ mH w G  ",
"3)SSS)Ha ivvp&n ",
"2)I)))) pG)SGVe ",
"2)W)))GuG))MB~b+",
"<)SSS)pv())s~~A*",
"<)W)))*vS(~NUUA*",
",)T))FrgD~~UUUV$",
",)))))Y%VL~!UKg ",
";fzzzzqyebAJVk o",
"_X.....  O**$ X "
};
