/* XPM */
static char *kcontrol[] = {
/* columns rows colors chars-per-pixel */
"16 16 139 2 ",
"   c #010102",
".  c #030305",
"X  c #040405",
"o  c #0E0703",
"O  c #070708",
"+  c #110902",
"@  c #110F0D",
"#  c #011102",
"$  c #071F09",
"%  c #191902",
"&  c #17120F",
"*  c #111112",
"=  c #161614",
"-  c #191918",
";  c #022A03",
":  c #013D03",
">  c #143303",
",  c #153505",
"<  c #183708",
"1  c #1E3219",
"2  c #2D2D0B",
"3  c #303002",
"4  c #012123",
"5  c #013133",
"6  c #01393B",
"7  c #222223",
"8  c #2B2B2A",
"9  c #2A2A2B",
"0  c #2C292D",
"q  c #2A3E25",
"w  c #303026",
"e  c #015003",
"r  c #225A04",
"t  c #305020",
"y  c #345424",
"u  c #3D503F",
"i  c #707015",
"p  c #707016",
"a  c #405F32",
"s  c #015557",
"d  c #01706F",
"f  c #4B474B",
"g  c #585857",
"h  c #5A5A5A",
"j  c #5A5A5B",
"k  c #5D5D5F",
"l  c #5E5E5F",
"z  c #60605F",
"x  c #5F5F61",
"c  c #55706F",
"v  c #616162",
"b  c #686669",
"n  c #6F786D",
"m  c #707071",
"M  c #717172",
"N  c #767674",
"B  c #787876",
"V  c #787877",
"C  c #797977",
"Z  c #7E7E7D",
"A  c #C25E2F",
"S  c #2A840C",
"D  c #2D8112",
"F  c #2E8B14",
"G  c #2F841B",
"H  c #318F14",
"J  c #308618",
"K  c #378F1E",
"L  c #329316",
"P  c #33941C",
"I  c #3A9621",
"U  c #3E9C24",
"Y  c #3AA424",
"T  c #598B23",
"R  c #43A72B",
"E  c #47AE33",
"W  c #45AB34",
"Q  c #46AD36",
"!  c #44B534",
"~  c #49B338",
"^  c #4BB53A",
"/  c #59B93F",
"(  c #75AD36",
")  c #6BB033",
"_  c #6DB533",
"`  c #79B63E",
"'  c #49895A",
"]  c #768F4A",
"[  c #5EB240",
"{  c #64B147",
"}  c #67B547",
"|  c #6EB64C",
" . c #6ABA4D",
".. c #6DBF52",
"X. c #59C647",
"o. c #62DA4C",
"O. c #6DC052",
"+. c #6FC452",
"@. c #66DA53",
"#. c #86B544",
"$. c #86AD53",
"%. c #96B965",
"&. c #9CBB69",
"*. c #98BB71",
"=. c #A6B37A",
"-. c #96C86D",
";. c #9CC074",
":. c #AFC176",
">. c #ADCB7C",
",. c #B4C179",
"<. c #AFD07F",
"1. c #7F7F80",
"2. c #818182",
"3. c #838388",
"4. c #88888A",
"5. c #8E8E8C",
"6. c #8F8F8F",
"7. c #92928D",
"8. c #919191",
"9. c #98989A",
"0. c #9F9F9C",
"q. c #9F9F9E",
"w. c #95A791",
"e. c #97AB94",
"r. c #A4A4A3",
"t. c #A7A7A7",
"y. c #A8A8A8",
"u. c #AAAAAB",
"i. c #ADADA8",
"p. c #ABABAC",
"a. c #ACACAC",
"s. c #AEAEAE",
"d. c #B4B4B1",
"f. c #B3B3B4",
"g. c #B8B8B8",
"h. c #C1D78D",
"j. c #D2D2D1",
"k. c #FEFEFC",
"l. c None",
/* pixels */
"O o.o.@.@.o.X.r k.k.k.k.k.k.l.l.",
"i #.A +.O...-.y 4.2.3.1.Z f.N l.",
"i ` / ! M q  .> 4 #     * a.N l.",
"i _ ^ ~ - 1  .< 6 ; % o * p.N l.",
"p ) Q W E T | > s : 2 + * u.N l.",
"i ( e.= R Y { , 5 $     * r.N l.",
"7 ;.} [ R $.,.> d e 3 & * 0.N l.",
"6.*.<.h.U ' %.>     .   * q.N l.",
"6.*.&.:.I L H > c u w @ * 9.N l.",
"6.*.w.0 K b F >       X * 7.N l.",
"8.*.P =.>.] S a g.d.s.i.y.5.N l.",
"v G D J J J S t C C V B n B N l.",
"l.l.l.l.l.8 f t.j.m l.l.l.l.l.l.",
"l.l.  9 x x x h l x x l.l.l.l.l.",
"l.l.g j j z j k j j j j l.l.l.l.",
"l.l.                    l.l.l.l."
};
