/* XPM */
static char *kfm[] = {
/* columns rows colors chars-per-pixel */
"16 16 58 1 ",
"  c black",
". c #151515",
"X c #282828",
"o c #2A2A2A",
"O c #2D2D2D",
"+ c #3E3E3E",
"@ c #7D2D2D",
"# c #1B5E1B",
"$ c #606000",
"% c #424242",
"& c #464646",
"* c #4A4A4A",
"= c #4E4E4E",
"- c #525252",
"; c #565656",
": c #5A5A5A",
"> c gray36",
", c gray39",
"< c gray44",
"1 c #737373",
"2 c #747474",
"3 c #787878",
"4 c #7B7B7B",
"5 c #7C7C7C",
"6 c #7F7F7F",
"7 c #A10B07",
"8 c #E00000",
"9 c #F90000",
"0 c #AC8660",
"q c #AC9A7F",
"w c #E08060",
"e c #808080",
"r c #838383",
"t c #878787",
"y c gray54",
"u c #8B8B8B",
"i c #8C8C8C",
"p c #8F8F8F",
"a c #939393",
"s c #979797",
"d c #9B9B9B",
"f c #9F9F9F",
"g c gray64",
"h c #A7A7A7",
"j c gray67",
"k c #AFAFAF",
"l c gray70",
"z c gray73",
"x c #B4FEB4",
"c c #DFD893",
"v c #C3C3C3",
"b c gray78",
"n c #CBCBCB",
"m c gray81",
"M c LightGray",
"N c #D6D6D6",
"B c #D8D8D8",
"V c None",
/* pixels */
" ;;-=*&%% VVVVVV",
";jjhdaut63> VVVV",
"-jhhBssssaa@x#VV",
"-gggM%o.$wc987 V",
"=fddM%X.$Oqqqq0 ",
"=dddn1pl$ONmvzj-",
"*aaanaO u1mbaaj-",
"*aapvsMbarap:;- ",
"&uuuvsnf5jgrVVVV",
"%utrz:pyrr6rVVVV",
"%rrrzyyttirjVVVV",
"+664zsMbzkh6VVVV",
"+444lsndejg6VVVV",
" 222k,pyr666VVVV",
"VV <jjjjgggdVVVV",
"VVVVV       VVVV"
};
