/* XPM */
static char *kfract[] = {
/* columns rows colors chars-per-pixel */
"16 16 66 1 ",
"  c black",
". c #010106",
"X c #18181F",
"o c #05042B",
"O c #1D1D33",
"+ c #2B2B44",
"@ c #3E3E4C",
"# c #2A2A58",
"$ c #000061",
"% c #03037A",
"& c #1D1D76",
"* c #353561",
"= c #03039D",
"- c #0202A8",
"; c #0202AA",
": c #0202AD",
"> c #0303B7",
", c #5B5BA7",
"< c #5555BA",
"1 c #5050BF",
"2 c #6161A8",
"3 c #0404C3",
"4 c #0808C3",
"5 c #0909C3",
"6 c #0C0CC3",
"7 c #1414C6",
"8 c #3535CB",
"9 c #4E4ED6",
"0 c #4343D8",
"q c #5757D5",
"w c #5959D8",
"e c #6A6AC2",
"r c #6060CD",
"t c #6060CF",
"y c #7272C2",
"u c #6060D7",
"i c #6060D8",
"p c #6262D8",
"a c #6464D9",
"s c #6464DA",
"d c #6868DA",
"f c #6969DA",
"g c #6969DB",
"h c #6B6BDB",
"j c #6D6DDC",
"k c #6F6FDC",
"l c #7D7DDF",
"z c #7979E0",
"x c #7D7DE0",
"c c #7E7EE1",
"v c #7979E4",
"b c #8C8CD4",
"n c #8282E2",
"m c #8484E2",
"M c #8C8CE4",
"N c #9191E3",
"B c #9494E6",
"V c #9696E6",
"C c #9898E6",
"Z c #9B9BE7",
"A c #9494EA",
"S c #A0A0E9",
"D c #A8A8EC",
"F c #AEAEEF",
"G c #C1C1F3",
"H c None",
/* pixels */
"HHHHHHHHHHHHHHHH",
"HHHHHHHHHHH HHHH",
"HHHHHHHHHH F HHH",
"HHHHHHHHHHHvHHHH",
"HHHHHHHH 2FSDe H",
"HHHHHHHHGCkquMyH",
"HHHH@XH*AzdaBZN ",
"HHH+mi#cslVhja&H",
"HHOrwptb43fng8oH",
"HHHH1<H,639753> ",
"HHHHHHH 033333; ",
"HHHHHHHH$:336- H",
"HHHHHHHHH .=   H",
"HHHHHHHHHHHxHHHH",
"HHHHHHHHHHH%HHHH",
"HHHHHHHHHHHHHHHH"
};
