/* XPM */
static char *khexedit[] = {
/* columns rows colors chars-per-pixel */
"16 16 52 1 ",
"  c black",
". c #2A1202",
"X c #4A2913",
"o c #4B321D",
"O c #6A2E04",
"+ c #606000",
"@ c #7A4730",
"# c #7C5838",
"$ c gray25",
"% c #45455E",
"& c #575757",
"* c #585858",
"= c #605A48",
"- c #606060",
"; c #6C6C6C",
": c #8A3C03",
"> c #8A3D06",
", c #D36910",
"< c #EB7103",
"1 c #F67C02",
"2 c #F97C03",
"3 c #FA7F03",
"4 c #FB7F03",
"5 c #D97B36",
"6 c #9B7F72",
"7 c #808060",
"8 c #C78565",
"9 c #606080",
"0 c #808080",
"q c #979797",
"w c #8C8CAC",
"e c #9898AE",
"r c #ACACAC",
"t c gray68",
"y c #B7B7B7",
"u c #C69787",
"i c #E9B89D",
"p c #FDD29C",
"a c #FEDEAC",
"s c #B2B2C8",
"d c #C1ADC4",
"f c #C0C0C0",
"g c #C2C2C1",
"h c gray84",
"j c #C5C5E1",
"k c #E0E0E0",
"l c #E1E1E1",
"z c #EBEBEA",
"x c #E0E0FF",
"c c gray94",
"v c white",
"b c None",
/* pixels */
"bbbbb  bbbbbbbbb",
"bbbb 9 9 bbbbbbb",
" 777%xxx%+77 bbb",
"7vvvv-&&gvvv&bbb",
"7vvvv vvvvvv- #b",
"7vxxw0vxxxxvoa,X",
"7vv v fvvvvOa2>b",
"7vw0zy 0 xOa4:bb",
"7vv*0hr;qOa3:bbb",
"7vxx*0 xOa1:.bbb",
"7vvvv;qOp<:t$bbb",
"7vxxxxdi5:el&bbb",
"7vvvvvu8@tlv-bbb",
"7vxxxx=6sjxv-bbb",
"7vvvvvkcvvvv-bbb",
" --&-&&----- bbb"
};
