/* XPM */
static char *kjots[] = {
/* columns rows colors chars-per-pixel */
"16 16 60 1 ",
"  c black",
". c #4C4C4A",
"X c #585858",
"o c #6F6F6E",
"O c #727272",
"+ c #747473",
"@ c #767676",
"# c #7A7A7A",
"$ c #7C7C7B",
"% c #7C7C7C",
"& c #7E7E7E",
"* c #80807F",
"= c #808080",
"- c #838383",
"; c #888887",
": c #8A8A89",
"> c #8E8E8E",
", c #8F8F8F",
"< c #90908F",
"1 c #969696",
"2 c #979796",
"3 c #9B9B9A",
"4 c #9D9D9C",
"5 c #A0A09E",
"6 c #A1A1A0",
"7 c #A2A2A2",
"8 c #A4A4A4",
"9 c #A6A6A5",
"0 c #A6A6A6",
"q c #AAAAAA",
"w c #B4B4B3",
"e c #B6B6B6",
"r c #B8B8B8",
"t c #BABABA",
"y c #BCBCBC",
"u c #C4C4C3",
"i c #C6C6C6",
"p c #C8C8C8",
"a c #CACACA",
"s c #CECECE",
"d c gray82",
"f c #DEDEDC",
"g c #DFDFDF",
"h c #E2E2E1",
"j c #E4E4E3",
"k c #E5E5E4",
"l c #E8E8E6",
"z c #EAEAE9",
"x c #ECECEB",
"c c #EDEDEC",
"v c #EEEEED",
"b c #F0F0EF",
"n c #F2F2F1",
"m c #F3F3F3",
"M c #F6F6F5",
"N c gray97",
"B c #F8F8F7",
"V c #FAFAF9",
"C c #FBFBFB",
"Z c None",
/* pixels */
"ZZ &&-;,136.XZZZ",
"ZZ&CCCCCCCC6CXZZ",
"ZZ&CqcqCg<NC=.ZZ",
"ZZ&CsCsCsNs0m4ZZ",
"ZZ&Cs9VNyaNNb2ZZ",
"ZZ&Cqba0mmbtm<ZZ",
"ZZ&CmmMmmnvxb:ZZ",
"ZZ%Mat7b8pbix*ZZ",
"ZZ#B0N0xrxxxx$ZZ",
"ZZ#m0b7bk>uzl+ZZ",
"ZZ#maexeixd5l+ZZ",
"ZZ#m0v7x7c7jjOZZ",
"ZZ#m7ni7lOwhjOZZ",
"ZZ@mvvxlljjffoZZ",
"ZZ#mxxxlljjffoZZ",
"ZZ @@@+++Oooo ZZ"
};
