/* XPM */
static char *kjumpingcube[] = {
/* columns rows colors chars-per-pixel */
"16 16 16 1 ",
"  c black",
". c gray19",
"X c #400000",
"o c #600000",
"O c #000040",
"+ c #000060",
"@ c #800000",
"# c #A00000",
"$ c #C00000",
"% c #E00000",
"& c red",
"* c #000080",
"= c #0000A0",
"- c #0000C0",
"; c #0000E0",
": c None",
/* pixels */
"::::::::::::::::",
": *** @@@@ @@@ :",
":* --O@o$#@$$$X.",
":*---O%oo#@$ $X.",
":*-- O%$oX@$$$X.",
": OOO XXXX XXX .",
":**;;O&%%$**;;O.",
":*+--O%$$#*++-O.",
":*--+O%$$#*-++O.",
":*==OO$##@*==OO.",
": @@@ **** *** .",
":@$$$X*+-=*---O.",
":@$ $X;++=*- -O.",
":@$$$X;-+O*---O.",
": XXX OOOO OOO .",
"::.............."
};
