/* XPM */
static char *klines[] = {
/* columns rows colors chars-per-pixel */
"16 16 62 1 ",
"  c #100F05",
". c #3F5303",
"X c #3C5711",
"o c #006D00",
"O c #007100",
"+ c #0C7600",
"@ c #007F00",
"# c #27690D",
"$ c #3D6D00",
"% c #3A6013",
"& c #264326",
"* c #5D5508",
"= c #4D6900",
"- c #427100",
"; c #69631D",
": c #845D05",
"> c #927200",
", c #84731A",
"< c #008600",
"1 c #059000",
"2 c #009500",
"3 c #009900",
"4 c #009B00",
"5 c #08A703",
"6 c #00A800",
"7 c #00AA00",
"8 c #00AD00",
"9 c #00B100",
"0 c #00B600",
"q c #00BF00",
"w c #1ABC1A",
"e c #24A824",
"r c #00C000",
"t c #00C200",
"y c #00C300",
"u c #00C400",
"i c #00C500",
"p c #00CA00",
"a c #00CF00",
"s c #00D200",
"d c #00E700",
"f c #00EB00",
"g c #00F300",
"h c #00F800",
"j c #00FB00",
"k c #1AFC09",
"l c #11FA11",
"z c #1DF31D",
"x c #45C20E",
"c c #50FC50",
"v c #A39A00",
"b c #9BB916",
"n c #B6AD18",
"m c #DD9400",
"M c #EE9F00",
"N c #D0B61F",
"B c #FCB50D",
"V c #FCC21A",
"C c #F6CA26",
"Z c #ACAC4E",
"A c #FCEC44",
"S c None",
/* pixels */
"SSSSSSSSSSSSSSSS",
"SZSSSSSSSSSSSSSS",
"S.SSSSSSSSSSSSSS",
"SCASSSSSSSSSSSSS",
"mSBbqSSScw&ejjSS",
"SSV <xSSgs34hjjS",
"SSSS;nNkO4gfj9jS",
"SSSSSS6u@jjjj96j",
"SSSSSSjjfjjjjj2a",
"SSSSSSidjjjjjp6j",
"SSSSSSS,X5hry41S",
"SSSSSSS%:*>=8vMS",
"SSSSSSSSS#-$o+SS",
"SSSSSSSSS0SStSSS",
"SSSSSSzj79SS96jl",
"SSSSSSSSSSSSSSSS"
};
