/* XPM */
static char *klipper[] = {
/* columns rows colors chars-per-pixel */
"16 16 122 2 ",
"   c black",
".  c #0B0702",
"X  c #0F0A03",
"o  c #110B03",
"O  c #130C03",
"+  c #211506",
"@  c #251805",
"#  c #3D1B03",
"$  c #3A260E",
"%  c gray19",
"&  c #45290E",
"*  c #4A300F",
"=  c #4E310D",
"-  c #4C310F",
";  c #51320E",
":  c #50350F",
">  c #52350F",
",  c #54370F",
"<  c #55390F",
"1  c #4B3010",
"2  c #4C3311",
"3  c #5F3C12",
"4  c #793504",
"5  c #7F3804",
"6  c #7D360C",
"7  c #7D4E17",
"8  c #765531",
"9  c #765D37",
"0  c #775B3A",
"q  c gray25",
"w  c #5A5A59",
"e  c #78675B",
"r  c #606060",
"t  c #6E6E6E",
"y  c #707070",
"u  c #78787A",
"i  c #7C7C7B",
"p  c #7A7A7C",
"a  c #924824",
"s  c #855D2E",
"d  c #8D6529",
"f  c #8B6732",
"g  c #936731",
"h  c #946B30",
"j  c #936F37",
"k  c #9F6B3B",
"l  c #9F753D",
"z  c #AC792D",
"x  c #AB7E35",
"c  c #DE6B03",
"v  c #E67304",
"b  c #EA7604",
"n  c #EE7904",
"m  c #D47B39",
"M  c #8C6E44",
"N  c #957342",
"B  c #907247",
"V  c #9A7545",
"C  c #96774C",
"Z  c #9C7D4F",
"A  c #826F5A",
"S  c #8B7354",
"D  c #947953",
"F  c #90785A",
"G  c #937B5F",
"H  c #A07C4E",
"J  c #977F61",
"K  c #CC7B4B",
"L  c #AF8853",
"P  c #AD8B5A",
"I  c #AF895D",
"U  c #978064",
"Y  c #8C867C",
"T  c #8E877C",
"R  c #8F887E",
"E  c #A98B62",
"W  c #A78A68",
"Q  c #B69565",
"!  c #B59668",
"~  c #AC8271",
"^  c #A59276",
"/  c #E89C5B",
"(  c #FEA654",
")  c #C58870",
"_  c #8F8981",
"`  c #8E8982",
"'  c #918B80",
"]  c #938C80",
"[  c #909092",
"{  c #979796",
"}  c #9A9A9C",
"|  c #9B9B9C",
" . c #A79885",
".. c #AC9C87",
"X. c #B0A087",
"o. c #A0A0A3",
"O. c #A7A7A6",
"+. c #B2B2B2",
"@. c #B2B2B3",
"#. c #B4B4B5",
"$. c #B7B7B7",
"%. c #B7B7B8",
"&. c #B9B9B9",
"*. c #BCBCBC",
"=. c #BFBFBE",
"-. c #D2A48C",
";. c #DFB29E",
":. c #F7D7A7",
">. c #FDD6B1",
",. c #C0C0C0",
"<. c #D5D5D6",
"1. c #D8D8D7",
"2. c gray86",
"3. c #DBDBDD",
"4. c gray93",
"5. c gray94",
"6. c #F3F3F3",
"7. c #F6F6F5",
"8. c #F8F8F6",
"9. c #FBFBF9",
"0. c #FDFDFB",
"q. c None",
/* pixels */
"q.q.q.q.q.r t y t q q.q.q.q.q.q.",
"q.q.3 U G 2.,.,.@.[ 0 8 $ q.q.q.",
"q.q.W = = o 2.o.o.O * - 7 q.q.q.",
"q.q.E ' 0.0.0.i 0.0.0...s q.q.( ",
"q.q.I ' 0.0.*.=.5.*.0.X.g q.( :.",
"q.q.P ] 0.*.1.9.=.0.0. .k ( :.v ",
"q.q.L ] 0.*.5.*.0.+.9.-.( :.n 4 ",
"q.q.H ' 0.0.0.0.0.8.7.( :.b 5   ",
"q.q.C _ *.{ p $.8.7./ :.c 4     ",
"q.q.V ` *.% w 8.6.~ >.m 5       ",
"q.q.M _ &.% u 6.5.;.) a # .     ",
"q.q.l R $.O.w #.| K 6 & 9 X   q.",
"q.q.x Y 6.6.4.4.  e } A Z O q.q.",
"q.q.z T 5.4.4.4.3.%.<.^ Q q.q.q.",
"q.q.h d f j N B D S F J ! q.q.q.",
"q.q.@ < , < > : ; , 1 2 + q.q.q."
};
