/* XPM */
static char *kljettool[] = {
/* columns rows colors chars-per-pixel */
"16 16 25 1 ",
"  c black",
". c #2C2C2C",
"X c #2C6C6C",
"o c gray25",
"O c #505052",
"+ c #585858",
"@ c #606060",
"# c #008000",
"$ c #00C000",
"% c #60E060",
"& c #00A0A0",
"* c #40A0A0",
"= c #00C0C0",
"- c #808080",
"; c gray55",
": c #909092",
"> c #A0A0A0",
", c #A0A0A4",
"< c #B0B0B2",
"1 c #80C080",
"2 c #80FF80",
"3 c #C0C0C0",
"4 c #E0E0E0",
"5 c white",
"6 c None",
/* pixels */
"666666666 666666",
"66666666645@6666",
"66666666 5555@66",
"66666666455515@6",
"66666   52#$5566",
"666 <<oo>5555@O6",
"6 <<<%<<oo>55O66",
"@4<<%%%;<<ooo  6",
"@344<;X&X;<-@3-o",
" <3344>*=*;3---o",
"6  <3344>3----- ",
"6o,: <334----  6",
"66 :,: <3-- ++.6",
"6666 :,:  +++ 66",
"666666 :,++ 6666",
"66666666  666666"
};
