/* XPM */
static char *kmid[] = {
/* columns rows colors chars-per-pixel */
"16 16 63 1 ",
"  c black",
". c #002020",
"X c gray17",
"o c #2D2D2D",
"O c gray19",
"+ c #323232",
"@ c #3A3A3A",
"# c #004040",
"$ c #074141",
"% c #097979",
"& c #397273",
"* c #434343",
"= c gray29",
"- c #4E4E4E",
"; c #525252",
": c #565656",
"> c gray37",
", c gray38",
"< c gray39",
"1 c #666666",
"2 c #676767",
"3 c #6A6A6A",
"4 c gray42",
"5 c #6F6F6F",
"6 c gray45",
"7 c gray47",
"8 c gray49",
"9 c #800000",
"0 c #008000",
"q c #189594",
"w c #119B9B",
"e c #40B6B7",
"r c #08C2C2",
"t c #2BCCCE",
"y c #2ECECF",
"u c #50D9DB",
"i c #54DADC",
"p c #79E6E9",
"a c gray58",
"s c #989898",
"d c #9B9B9B",
"f c #9D9D9D",
"g c #9F9F9F",
"h c #A0A0A0",
"j c gray64",
"k c #A4A4A4",
"l c #AAAAAA",
"z c gray67",
"x c #AEAEAE",
"c c #B0B0B0",
"v c #B4B4B4",
"b c #B9B9B9",
"n c #BCBCBC",
"m c #80E8EC",
"M c gray76",
"N c #C8C8C8",
"B c #CBCBCB",
"V c gray81",
"C c LightGray",
"Z c #E1E1E1",
"A c gray90",
"S c #E9E9E9",
"D c None",
/* pixels */
"DDDDDDDD:DDDDDDD",
"DDDDDD:xzj;DDDDD",
"DDDD1ccxzjjd-DDD",
"DDD33Vbzjjddda=D",
"DDD19 3Bvjgdsaa+",
"DDD, 0 1VNlds84+",
"DDD *M ,A1Vk862o",
"DDD33S*n,ZZz85<X",
"DDD1  3S*n>f74O ",
"DDD, 0 1CS*3O24+",
"DDDD,M 1cvCg764o",
"DD& DD>Mzcck74<X",
" mpiy DD>Mzh54oD",
" qeutr.DDD,f@DDD",
"DD$%w#.DDDDDDDDD",
"DDDD.DDDDDDDDDDD"
};
