/* XPM */
static char *knotes[] = {
/* columns rows colors chars-per-pixel */
"16 16 90 1 ",
"  c black",
". c #050506",
"X c #121214",
"o c #1F1F1E",
"O c #312F0E",
"+ c #333104",
"@ c #262620",
"# c #252526",
"$ c #29292A",
"% c #3A3A3C",
"& c #595502",
"* c #4F4D12",
"= c #4B491E",
"- c #6E690C",
"; c #726E12",
": c #696726",
"> c #6D6B22",
", c #6B692A",
"< c #6E6B2A",
"1 c #4A4A49",
"2 c #767675",
"3 c #CE1611",
"4 c #847D10",
"5 c #D8422C",
"6 c #DA5233",
"7 c #E25234",
"8 c #E0543C",
"9 c #E46440",
"0 c #E47240",
"q c #8C8719",
"w c #B2AA04",
"e c #AEA51C",
"r c #989323",
"t c #B7AF2D",
"y c #BBB320",
"u c #A9A133",
"i c #B8B23C",
"p c #C6BE24",
"a c #CCC438",
"s c #D4CC30",
"d c #D0C83E",
"f c #D6D23C",
"g c #908E5F",
"h c #9C9A68",
"j c #E88A5D",
"k c #C3BC40",
"l c #F4AC60",
"z c #F0B279",
"x c #C9C153",
"c c #D6CE55",
"v c #D6D058",
"b c #DAD461",
"n c #DCD46C",
"m c #D1CD78",
"M c #EEE663",
"N c #ECE96D",
"B c #EAE474",
"V c #F4F17A",
"C c #FAF67E",
"Z c #9A9A9C",
"A c #B4B4B4",
"S c #C2BF90",
"D c #EED490",
"F c #FAEE87",
"G c #F6EE8C",
"H c #FEF185",
"J c #FCF985",
"K c #FDFC85",
"L c #FDF58A",
"P c #FCEA90",
"I c #FEFB90",
"U c #FEFA9A",
"Y c #E0DEAA",
"T c #FCDCA5",
"R c #E8E4A0",
"E c #FAE3A4",
"W c #F2ECA0",
"Q c #FEFAA6",
"! c #FEF3AC",
"~ c #FEFBAD",
"^ c #FCEFB7",
"/ c #FAF8B1",
"( c #FBF4BA",
") c #FDF7BC",
"_ c LightGray",
"` c #FEFBC4",
"' c #FCFBD3",
"] c #EEEEEC",
"[ c #FEFEEF",
"{ c None",
/* pixels */
"{{{{{{{{{{{{{{{_",
"{{{{{{{{{{{{{{_]",
"{{{{{{{{{{{{{_]A",
"{{{{{{{{{{{{_]A ",
"{{{{{{{{{{{o]A {",
"{{{{{{{{{{12# {{",
"{{{{{{{,b$ZX {{{",
"{{{{{:JHU%@hO{{{",
"{{{<KK5Pg.YSS[G{",
"{>Kl063jzT)`'x.{",
"=BKIF98DE^(mepf*",
"&wwNQ~7!/nysdiq+",
"{ wwwRWcaMLkr4 {",
"{{{ wwwVCvu; {{{",
"{{{{{ wwt- {{{{{",
"{{{{{{{. {{{{{{{"
};
