/* XPM */
static char *kpaint[] = {
/* columns rows colors chars-per-pixel */
"16 16 136 2 ",
"   c black",
".  c #1C1C1C",
"X  c #14152B",
"o  c #1B1C2B",
"O  c #183129",
"+  c #2F322A",
"@  c #3B392C",
"#  c #343436",
"$  c #3D3A37",
"%  c #571F19",
"&  c #1A7C11",
"*  c #384328",
"=  c #4C433E",
"-  c #1F544D",
";  c #367B5A",
":  c #34517C",
">  c #464340",
",  c #474441",
"<  c #474748",
"1  c #766D45",
"2  c #7B6F52",
"3  c #4B516E",
"4  c #5B5F63",
"5  c #625A6D",
"6  c #467B67",
"7  c #5A637C",
"8  c #4F7C72",
"9  c #67686C",
"0  c #6F6F71",
"q  c #606179",
"w  c #726F70",
"e  c #6C7A7B",
"r  c #7E7D7B",
"t  c #BF241E",
"y  c #AF153C",
"u  c #E0130A",
"i  c #FD1718",
"p  c #F1230D",
"a  c #BB4D29",
"s  c #B77034",
"d  c #D5611F",
"f  c #B04042",
"g  c #EC4244",
"h  c #C77F5D",
"j  c #FB7273",
"k  c #4CA653",
"l  c #4CBB58",
"z  c #6EB36B",
"x  c #7FC47B",
"c  c #BD9556",
"v  c #B79C54",
"b  c #83827F",
"n  c #948973",
"m  c #80A470",
"M  c #D98E65",
"N  c #D9BF65",
"B  c #EEC448",
"V  c #F2C551",
"C  c #F6C65E",
"Z  c #F7C958",
"A  c #EFC464",
"S  c #EDC964",
"D  c #EEC76C",
"F  c #EDCC78",
"G  c #FDF161",
"H  c #1617BC",
"J  c #5A6881",
"K  c #7D7F8B",
"L  c #099193",
"P  c #3FA9AF",
"I  c #7CB0AB",
"U  c #68C99F",
"Y  c #878182",
"T  c #848586",
"R  c #8A8A8B",
"E  c #8E8B8F",
"W  c #90908F",
"Q  c #82979A",
"!  c #969692",
"~  c #969795",
"^  c #979796",
"/  c #979895",
"(  c #949498",
")  c #9B9999",
"_  c #9A989B",
"`  c #AC8385",
"'  c #9190BD",
"]  c #98A3A9",
"[  c #A2A1A0",
"{  c #A5A3A0",
"}  c #A8A8A5",
"|  c #B6B6B4",
" . c #B8B8B6",
".. c #BBB9B7",
"X. c #F78D8E",
"o. c #DDA184",
"O. c #C0B3B4",
"+. c #F8A7AD",
"@. c #FCB1B5",
"#. c #F8BAB6",
"$. c #9ACD97",
"%. c #B4E1BF",
"&. c #F8EF91",
"*. c #E6C0B8",
"=. c #FEF5B7",
"-. c #A9A9EC",
";. c #C1B2EC",
":. c #9CC0C5",
">. c #A6D8D8",
",. c #9DEBC6",
"<. c #8FE5E3",
"1. c #C5C2C0",
"2. c #D2D0CF",
"3. c #D3D4D6",
"4. c #DBDBDE",
"5. c #D4D5E9",
"6. c #D8D7F4",
"7. c #C7E2E1",
"8. c #E2E6EE",
"9. c #E1EDEE",
"0. c #E8E9EA",
"q. c #E3E2F4",
"w. c #EDEFF6",
"e. c #E8E8FA",
"r. c #E9E9FA",
"t. c #EEEDF8",
"y. c #EFF0F6",
"u. c #F0F4F6",
"i. c #F7F7F6",
"p. c #F5F3FA",
"a. c #F8F8F8",
"s. c #F8F8F9",
"d. c #F9F9F9",
"f. c #FAFAF9",
"g. c #FCFCFB",
"h. c None",
/* pixels */
"h.h.h.h.h.h.h.h.h.h.  h.h.h.  h.",
"h.h.h.h.h.h.h.h.  W ! h.h.` t   ",
"h.h.h.h.h.h.  ) i.g.g.< f g % h.",
"h.h.h.h.  { y.d.g.g.g., Y w h.h.",
"h.h.  ] q.j +.#.=.G 2 5.  h.h.h.",
"  R t.r.X.@.i u &.1 N > T h.h.h.",
"h.K e.9.m p y ;.5 D + 2.f.  h.h.",
"h.  8.z %.& - 7 S X ' g.g.~ h.h.",
"h.h._ s.k U 8 V o H -.g.s.6.. h.",
"h.h.  w.u.e B O | *.M ,.l >.3   ",
"h.h.h.} r C O L 7.c d x ; :.:   ",
"h.h.h.$ F @ I <.0.s a $.6 P q   ",
"h.h.  A * ..g.g.0.b h 4.Q J 4   ",
"h.  Z     p.g.a. .n o.3.1.[ 0   ",
"  v   h.h./ ^   h.# E O.( 9 =   ",
"h.  h.h.h.h.h.h.h.            h."
};
