/* XPM */
static char *kpat[] = {
/* columns rows colors chars-per-pixel */
"16 16 8 1 ",
"  c black",
". c #606060",
"X c #000080",
"o c blue",
"O c #808080",
"+ c #E0E0E0",
"@ c white",
"# c None",
/* pixels */
" OOO##OOO # OOO#",
"O@@@ #@@@O#O@@@ ",
"O@@@ #@@@O#O@@@ ",
"O@@@ #@@@O#O@@@ ",
"O@@@ #@@@O#O@@@ ",
" ... ##   # ... ",
"O@@@ ######O@@@ ",
" OOO #oooX# OOO ",
".+++ #oooX#O@@@ ",
"O@@@ #oooX#O@@@ ",
" ... #oooX##    ",
"O@@@ #XXX ######",
" OOO ###########",
".+++ ###########",
"O@@@ ###########",
"#    ###########"
};
