/* XPM */
static char *kpoker[] = {
/* columns rows colors chars-per-pixel */
"16 16 123 2 ",
"   c black",
".  c #0F0D0C",
"X  c #0D0E0E",
"o  c #0F1110",
"O  c #131110",
"+  c #1A1614",
"@  c #171718",
"#  c #1A1A1B",
"$  c #1A1B1C",
"%  c #2E3014",
"&  c gray14",
"*  c #282526",
"=  c #272728",
"-  c #363026",
";  c #222730",
":  c #2F333D",
">  c #313130",
",  c #4F3316",
"<  c #513D1E",
"1  c #5F552E",
"2  c #4D4835",
"3  c #495036",
"4  c #635132",
"5  c #646B3B",
"6  c #564E46",
"7  c #555340",
"8  c #565554",
"9  c #545757",
"0  c #5A5A5B",
"q  c #726848",
"w  c #756D4A",
"e  c #7F714A",
"r  c #7F754C",
"t  c #7B7350",
"y  c #605F61",
"u  c #63676E",
"i  c #6A6A6A",
"p  c #C23E2C",
"a  c #8A5030",
"s  c #827C24",
"d  c #8C6238",
"f  c #788064",
"g  c #768E70",
"h  c #76A074",
"j  c #96983C",
"k  c #B4883C",
"l  c #808E48",
"z  c #968250",
"x  c #BE8A50",
"c  c #D09D5F",
"v  c #C88278",
"b  c #DBAB6B",
"n  c #E6A478",
"m  c #F7CB7C",
"M  c #7A7684",
"N  c #5E66A8",
"B  c #926E84",
"V  c #80769C",
"C  c #C4688C",
"Z  c #7C8280",
"A  c #7E84A4",
"S  c #838185",
"D  c #BC9E84",
"F  c #A89A90",
"G  c #B29494",
"H  c #84A08C",
"J  c #9DA1A0",
"K  c #9DADAC",
"L  c #D6B4B0",
"P  c #ECB2B0",
"I  c #E6C088",
"U  c #F8CE88",
"Y  c #FCD284",
"T  c #F4D28A",
"R  c #FEDA8C",
"E  c #F6D490",
"W  c #FEDE90",
"Q  c #FEE093",
"!  c #FEE294",
"~  c #FEE696",
"^  c #FEE49F",
"/  c #FCF79C",
"(  c #DECBAC",
")  c #FED4B0",
"_  c #FEE9A4",
"`  c #FCE8A8",
"'  c #FEEBA8",
"]  c #FEECA8",
"[  c #FEEAAC",
"{  c #FEF4A7",
"}  c #FEF7A6",
"|  c #FEF0AA",
" . c #C4B4C0",
".. c #BDC7CC",
"X. c #C0C0C1",
"o. c #C4C4C5",
"O. c #C6CAC6",
"+. c #C8C7C9",
"@. c #CAC8C8",
"#. c #CCCBCC",
"$. c #D6D6C4",
"%. c #D0D0D1",
"&. c #D3D7D4",
"*. c #D5D7D8",
"=. c #DBD9D8",
"-. c #DDDCDC",
";. c #F4C6C4",
":. c #DAE3E8",
">. c #E1E0E0",
",. c #E1E1E0",
"<. c #E5E4E4",
"1. c #E8E5E4",
"2. c #E9E8E8",
"3. c #ECEAE8",
"4. c #EAECEC",
"5. c #EDEDEC",
"6. c gray94",
"7. c #F5F4F3",
"8. c #FCFAF0",
"9. c #FAF9F8",
"0. c #F8FEFC",
"q. c #FEFEFC",
"w. c None",
/* pixels */
"w.w.w.w.w.w.w.w.w.w.w.w.w.w.w.w.",
"w.w.w.w.w.w.    w.w.w.  e w.w.w.",
"w.w.w.w.w.        w.} Y W _   w.",
"w.w.w.w.w.o & # = 7 ] Q R ^ < w.",
"w.r ! ~   X ; $ . 2 { [ E x , w.",
"w W Q W ` o > + . * / ) n k w.w.",
"w ' Q Q T - > O @ J G  .P   w.w.",
"t | U b c 6 8 O.q.Z K p M 0.  w.",
"1 | m I ( q.$.D d h H S : 5 9.  ",
"w.4 z 8.4.f A 3 B % a j g v 9.u ",
"w.w.w.*.q.N q F V s l >.5.7.7.i ",
"w.w.w.%.=.q.9 C @.6.,.-.<.o.+.  ",
"w.w.w.w.%.&.L ;.3.:.2.X.0   w.w.",
"w.w.w.w.w.#.1...o.y   w.w.w.w.w.",
"w.w.w.w.w.w.0   w.w.w.w.w.w.w.w.",
"w.w.w.w.w.w.w.w.w.w.w.w.w.w.w.w."
};
