/* XPM */
static char *kpresenter[] = {
/* columns rows colors chars-per-pixel */
"16 16 113 2 ",
"   c black",
".  c #002102",
"X  c #002D15",
"o  c #003F14",
"O  c #252501",
"+  c #242404",
"@  c #002A2A",
"#  c #002D2D",
"$  c #003636",
"%  c #007015",
"&  c #00433D",
"*  c #007C24",
"=  c #6D6D00",
"-  c #515133",
";  c #480948",
":  c #481148",
">  c #500150",
",  c #5E285E",
"<  c #004D4D",
"1  c #005050",
"2  c #005252",
"3  c #005B5B",
"4  c #1F5555",
"5  c #006A45",
"6  c #00745E",
"7  c #006666",
"8  c #006A6A",
"9  c #006F6F",
"0  c #166D6D",
"q  c #007676",
"w  c #007777",
"e  c #007F7F",
"r  c #505050",
"t  c #7A7A5D",
"y  c #734F73",
"u  c #667A7A",
"i  c #657D7D",
"p  c gray50",
"a  c #800000",
"s  c #802D15",
"d  c red",
"f  c #805429",
"g  c #804D4D",
"h  c #816262",
"j  c #009B07",
"k  c #00921B",
"l  c #00AF1B",
"z  c #00B211",
"x  c #00B113",
"c  c #00B216",
"v  c #00BF1A",
"b  c #009421",
"n  c #408712",
"m  c #409E14",
"M  c #5AC33A",
"N  c #40C779",
"B  c #FF8000",
"V  c #80E506",
"C  c #80F500",
"Z  c #80E617",
"A  c #C0E80B",
"S  c #C0F107",
"D  c #C0F509",
"F  c yellow",
"G  c #80F248",
"H  c #80CC66",
"J  c #C4C478",
"K  c #FFFF7F",
"L  c blue",
"P  c #008787",
"I  c #008B8B",
"U  c #008F8F",
"Y  c #009693",
"T  c #009797",
"R  c #009A9A",
"E  c #009B9B",
"W  c #009F9F",
"Q  c #00A7A7",
"!  c #00ABAB",
"~  c #01B3B3",
"^  c #25B2B2",
"/  c #63B3B3",
"(  c #20D8B1",
")  c #00CECD",
"_  c #0ACCCC",
"`  c #16C3C3",
"'  c #16CBCB",
"]  c #00C2DB",
"[  c #00D3D3",
"{  c #01D7D7",
"}  c #01DBDB",
"|  c #00C6E0",
" . c #00EAEA",
".. c #05F0F0",
"X. c #00F7F7",
"o. c #13F1F1",
"O. c #3CE4E4",
"+. c #79DCDC",
"@. c #7FCCE5",
"#. c #44E2E2",
"$. c #5DE5E5",
"%. c #57F8F8",
"&. c #E6E680",
"*. c #F0F093",
"=. c #F3F393",
"-. c #D7D7A3",
";. c #E480E4",
":. c #97F3F3",
">. c #AFF5F5",
",. c #F6F6C9",
"<. c #E4FCFC",
"1. c #FEFEFE",
"2. c None",
/* pixels */
"2.2.2.2.2.2.2.2.2.2.2.2.2.2.2.2.",
"2.2.2.2.2.y ;.  2.2.2.2.2.2.2.2.",
"2.2.2.2.  , > ;   2.2.4 2.2.2.2.",
"2.2.2.,.=.=.*.t u a ` W # -.+ 2.",
"2.2.2.&.= i >.#._ h ~ Q 8 J + p ",
"2.2.  <.%... .{ ) F d ! I - + : ",
"2.p :.o.X.| ( f d 1.F s g # O 2.",
"2.  O. .] K * Z   d l 5 R 7   2.",
"2.2.$.} @.H x 1.  B M k Y w   2.",
"2.2.0 [ G j L   v D b V 6 I @ 2.",
"2.2.  ' N L   % C m c S X P 3 2.",
"2.2.2.+.L   n z A o   & I q 1 2.",
"2.2.2.L   H .   2 E U 9 #     2.",
"2.2.1.  ^ < W T e $   2.2.2.2.2.",
"2.r   2./ w #   2.2.2.2.2.2.2.2.",
"2.  2.2.2.2.2.2.2.2.2.2.2.2.2.2."
};
