/* XPM */
static char *kruler[] = {
/* columns rows colors chars-per-pixel */
"16 16 60 1 ",
"  c #54450A",
". c #624F00",
"X c #675715",
"o c #806A09",
"O c #806A0E",
"+ c #806C16",
"@ c #806C1A",
"# c #846F1E",
"$ c #806E22",
"% c #806F2A",
"& c #847021",
"* c #807132",
"= c #80723B",
"- c #807341",
"; c #807448",
": c #AA8C0E",
"> c #AA8D13",
", c #AA8E1B",
"< c #AA8F1F",
"1 c #AA9024",
"2 c #AA922F",
"3 c #B39B39",
"4 c #B39B3A",
"5 c #B39C3C",
"6 c #BDA338",
"7 c #E2B806",
"8 c #C6AA39",
"9 c #FFD314",
"0 c #FFD417",
"q c #FFD520",
"w c #FFD625",
"e c #FFD72B",
"r c #FFD830",
"t c #FFD939",
"y c #FFDA3C",
"u c #AA9540",
"i c #AA9543",
"p c #AA9646",
"a c #AA9649",
"s c #B19C4E",
"d c #BDA442",
"f c #D0B64F",
"g c #D9BE51",
"h c #FFDC47",
"j c #E3C85B",
"k c #F6D756",
"l c #FFDE53",
"z c #ECD160",
"x c #ECD265",
"c c #FFE160",
"v c #FFE163",
"b c #FFE268",
"n c #FFE26C",
"m c #FFE579",
"M c #FFE57C",
"N c #FFE785",
"B c #FFE788",
"V c #FFE88C",
"C c #FFE992",
"Z c None",
/* pixels */
"ZZZZZZZZZZZZZZZZ",
"ZZZZZZZZZZZZZZZZ",
";ssCssCssCssCss.",
"-ppNaiBiiViiBia.",
"=mmmummmummmMum.",
"*bxnXznnnbnjfXx.",
"%bk245vbccbdg43.",
"%ll28#lllll6#8&.",
"$hhhhhhhhhhhhhh.",
"@1tttyttttytttt.",
"+<r,,e rrrererr.",
"Oq>w w>qwqwqwqw.",
"o:0900900000009.",
".77777777777777.",
"ZZZZZZZZZZZZZZZZ",
"ZZZZZZZZZZZZZZZZ"
};
