/* XPM */
static char *kshisen[] = {
/* columns rows colors chars-per-pixel */
"16 16 138 2 ",
"   c #001100",
".  c #001300",
"X  c #001500",
"o  c #004C00",
"O  c #004E00",
"+  c #005000",
"@  c #005300",
"#  c #005500",
"$  c #005700",
"%  c #005B00",
"&  c #005D00",
"*  c #347222",
"=  c #397325",
"-  c #6F6600",
";  c #7F6F18",
":  c #C12B20",
">  c #CB2B20",
",  c #CC2920",
"<  c #C3392E",
"1  c #974D00",
"2  c #835800",
"3  c #A34F0A",
"4  c #A55109",
"5  c #A5520C",
"6  c #AB5E1A",
"7  c #A96020",
"8  c #B36B24",
"9  c #B36B30",
"0  c #C36107",
"q  c #8E2048",
"w  c #CE6141",
"e  c #D1614A",
"r  c #D56A4F",
"t  c #CE7941",
"y  c #DA7E60",
"u  c #0A8F00",
"i  c #148300",
"p  c #1E8C00",
"a  c #009100",
"s  c #009200",
"d  c #009400",
"f  c #009600",
"g  c #009700",
"h  c #0A9500",
"j  c #0A9600",
"k  c #009A00",
"l  c #009B00",
"z  c #009C00",
"x  c #0A9F00",
"c  c #0E9709",
"v  c #0C9C08",
"b  c #0E9D09",
"n  c #189D10",
"m  c #00A300",
"M  c #00A400",
"N  c #00A500",
"B  c #2BAD1C",
"V  c #30A124",
"C  c #30A824",
"Z  c #30B624",
"A  c #489330",
"S  c #6F9435",
"D  c #619740",
"F  c #78A44F",
"G  c #C39107",
"H  c #CBC51E",
"J  c #D6CA3C",
"K  c #859C57",
"L  c #B28F47",
"P  c #AF825E",
"I  c #B78957",
"U  c #BF905D",
"Y  c #90B45E",
"T  c #9FA969",
"R  c #87BB60",
"E  c #9BB066",
"W  c #9BB166",
"Q  c #99B774",
"!  c #ADB372",
"~  c #BDB97D",
"^  c #C99A5C",
"/  c #CD9C66",
"(  c #E8916E",
")  c #D2AA68",
"_  c #D6AF6C",
"`  c #CDA473",
"'  c #C7A77C",
"]  c #EFA57E",
"[  c #E0CE54",
"{  c #E1CE59",
"}  c #D7C166",
"|  c #E7D168",
" . c #F2E47D",
".. c #942286",
"X. c #9E3489",
"o. c #BF709A",
"O. c #C27395",
"+. c #CB9390",
"@. c #D6AF8F",
"#. c #D2B680",
"$. c #DDBA8B",
"%. c #DFA59E",
"&. c #DDBF91",
"*. c #E5B78B",
"=. c #D89EA0",
"-. c #D6ADA2",
";. c #C4B5A5",
":. c #E7B3A1",
">. c #EBBDA3",
",. c #DAC797",
"<. c #E4C78B",
"1. c #F4D78C",
"2. c #E2C795",
"3. c #EECF95",
"4. c #E3C79F",
"5. c #E0D093",
"6. c #E0D193",
"7. c #EAD19F",
"8. c #EDDD9C",
"9. c #F2D19F",
"0. c #F3DB9C",
"q. c #F3F39C",
"w. c #DFCBA2",
"e. c #D1D0A1",
"r. c #D4CDB0",
"t. c #DCD3BD",
"y. c #F2C5A4",
"u. c #FBD5A3",
"i. c #F7D9A2",
"p. c #F5DBA5",
"a. c #FBD9A7",
"s. c #FFDCA8",
"d. c #D6EAA1",
"f. c #F7E2B0",
"g. c #FFE7B0",
"h. c #FAF6BA",
"j. c #FFF8BC",
"k. c #FFF1E5",
/* pixels */
"X & & & & & & & & & % $ $ $ # . ",
"& N N N N h.r  .^ g.R v l f g @ ",
"& N N N x j.: y _ 6.T b k d d @ ",
"& N N N x j.( 9._ ! * c l d s @ ",
"& N N N x p.*.e ) ~ = v d d a @ ",
"& N B Z n 6 8 ; 2 9 9 d C V a O ",
"& - w.4.$.d.i.F @.X.k.5 G J W O ",
"& - -...$.j.Y 9.q ;.o.5 [ 1.W o ",
"& - =.>.$.d.5.F L Q e.5 0 H W o ",
"& - 7.+.' ,.2.&.P r.t.3 } <.K o ",
"& N p p l ` 8.#.S 8.8.i 8.8.D o ",
"& m l l j 0.{ w _ a.:.4 u., E o ",
"$ M l l h j.s.3._ s.%.4 f.> E o ",
"% z l l u q.| t _ y.O.4 ] < E o ",
"$ l l f u I / U 7 / / 1 / / A o ",
". $ $ @ @ @ + O O o o o o o o   "
};
