/* XPM */
static char *ksirtet[] = {
/* columns rows colors chars-per-pixel */
"16 16 121 2 ",
"   c black",
".  c #241608",
"X  c #1F1233",
"o  c #3E3826",
"O  c #460E0C",
"+  c #5D0B13",
"@  c #5A0C1C",
"#  c #680808",
"$  c #620D12",
"%  c #601614",
"&  c #5E2E34",
"*  c #264E0E",
"=  c #2A5214",
"-  c #3A6628",
";  c #494712",
":  c #5A4914",
">  c #564C1B",
",  c #4A422A",
"<  c #785E30",
"1  c #090D4E",
"2  c #1B1042",
"3  c #161454",
"4  c #0A1874",
"5  c #08117E",
"6  c #19286C",
"7  c #162678",
"8  c #1C3670",
"9  c #202B6A",
"0  c #9C0F0E",
"q  c #861112",
"w  c #981F22",
"e  c #962E30",
"r  c #AE2424",
"t  c #AD262C",
"y  c #B52220",
"u  c #B22226",
"i  c #BA2322",
"p  c #B0282C",
"a  c #D02020",
"s  c #EF2B2A",
"d  c #FE2420",
"f  c #EE3637",
"g  c #F43F37",
"h  c #F23A3A",
"j  c #8D401C",
"k  c #815920",
"l  c #955A34",
"z  c #CC4E50",
"x  c #E55454",
"c  c #FE5455",
"v  c #FE5F5F",
"b  c #FD6364",
"n  c #FD7170",
"m  c #5A8E36",
"M  c #5CAC2C",
"N  c #5ABA34",
"B  c #62E42C",
"V  c #76EC30",
"C  c #76EC38",
"Z  c #70BE40",
"A  c #72C242",
"S  c #8C801C",
"D  c #8B8620",
"F  c #9B9326",
"G  c #9D8D36",
"H  c #9E9136",
"J  c #A69B24",
"K  c #8FF83B",
"L  c #80BA44",
"P  c #BFB652",
"I  c #9E8F62",
"U  c #98FD43",
"Y  c #A3EF49",
"T  c #ACF74E",
"R  c #A4FD49",
"E  c #B2EE5C",
"W  c #B6F957",
"Q  c #CBCB5A",
"!  c #C4C668",
"~  c #D1FD6B",
"^  c #E8FE7C",
"/  c #F2F278",
"(  c #0D1E84",
")  c #08128E",
"_  c #0B1B94",
"`  c #121A9C",
"'  c #102180",
"]  c #13298A",
"[  c #1E2D8C",
"{  c #24228C",
"}  c #2E48B4",
"|  c #2B52CA",
" . c #2E59CA",
".. c #2F6BE4",
"X. c #457FFC",
"o. c #518CFC",
"O. c #5293FC",
"+. c #5996FA",
"@. c #5698F8",
"#. c #74C0F9",
"$. c #76C3FB",
"%. c #7DC9FC",
"&. c #FA8684",
"*. c #FE8988",
"=. c #F2FE8C",
"-. c #F8F8A2",
";. c #F9F8AC",
":. c #FDFDB6",
">. c #9AC4F8",
",. c #90DCFB",
"<. c #88EAFC",
"1. c #98EDFC",
"2. c #9FF5FC",
"3. c #B3F8FC",
"4. c #B7F9FC",
"5. c #F9F7C0",
"6. c #FCFCC4",
"7. c #FDFDD9",
"8. c #DCFEFC",
"9. c #FEFEED",
"0. c None",
/* pixels */
"0.0.0.0.0.    0.0.0.0.0.0.0.0.0.",
"0.0.0.0.  K V   0.0.0.0.0.0.0.0.",
"0.0.0.  m Y R -   0.0.y   0.0.0.",
"0.0.  ~ W = * T U   p f s   0.0.",
"0.  L A E y i Z B u 0 h r   0.0.",
"  =.^ M . n b j l c d @   0.0.0.",
"  C N ! / O z x f e a ..| 0.0.0.",
"0.  P 6.;.k # &.b q 3 @.o.} 0.0.",
"0.Q 6.o H 5.-.% t v g 6 7 O. .0.",
"; 9.9.D > 9.:.< $ *.b + 8 +.X.1 ",
"  F H 7.6., I ,.<.& w $.#.] _   ",
"0.  S 9.7.: { 8.3.X 2 1.%.5   0.",
"0.0.  J G     [ >.2.1.' (   0.0.",
"0.0.0.    0.0.  9 8.4.`   0.0.0.",
"0.0.0.0.0.0.0.0.  4 )   0.0.0.0.",
"0.0.0.0.0.0.0.0.0.    0.0.0.0.0."
};
