/* XPM */
static char *ksnake[] = {
/* columns rows colors chars-per-pixel */
"16 16 94 2 ",
"   c black",
".  c #010606",
"X  c #010A09",
"o  c #010C0B",
"O  c #021211",
"+  c #021413",
"@  c #031514",
"#  c #2C0707",
"$  c #052C2B",
"%  c #053431",
"&  c #073737",
"*  c #343434",
"=  c #4A1717",
"-  c #03524F",
";  c #0D6161",
":  c #086C67",
">  c #0D7572",
",  c #1C7574",
"<  c #4A4A4A",
"1  c #A43D3D",
"2  c #11867D",
"3  c #11887F",
"4  c #068484",
"5  c #0E8A87",
"6  c #0F8A87",
"7  c #108B88",
"8  c #178B8F",
"9  c #0A928F",
"0  c #10908C",
"q  c #12908D",
"w  c #0F9493",
"e  c #0C9E96",
"r  c #109693",
"t  c #179491",
"y  c #199696",
"u  c #139A90",
"i  c #199897",
"p  c #109E9A",
"a  c #11A29E",
"s  c #08A5A1",
"d  c #0EA9A7",
"f  c #11AEA9",
"g  c #11B0AB",
"h  c #12B3AE",
"j  c #09B2B2",
"k  c #0EBAB6",
"l  c #11B5B0",
"z  c #12BDB9",
"x  c #13BDB9",
"c  c #13BDBA",
"v  c #509392",
"b  c #62AAA9",
"n  c #72B6B6",
"m  c #70BEBE",
"M  c #06C3C4",
"N  c #0CC8C8",
"B  c #0ECCCC",
"V  c #13CAC8",
"C  c #17CDCA",
"Z  c #11CFCE",
"A  c #0FD0CF",
"S  c #11D0D0",
"D  c #17D3D0",
"F  c #16D3D1",
"G  c #14D3D2",
"H  c #17D5D4",
"J  c #17D7D6",
"K  c #19D3D2",
"L  c #1BD5D2",
"P  c #1AD7D4",
"I  c #1AD8D6",
"U  c #19D9D8",
"Y  c #1ADAD8",
"T  c #1BDBDA",
"R  c #1EDBD9",
"E  c #1DDBDA",
"W  c #1FDDDB",
"Q  c #1FDDDC",
"!  c #21DBD7",
"~  c #20DEDC",
"^  c #20DFDD",
"/  c #21DFDD",
"(  c #2BDCDA",
")  c #21E0DD",
"_  c #23E0DE",
"`  c #22E1DE",
"'  c #22E2DF",
"]  c #25E8E7",
"[  c #848484",
"{  c #BDBCBC",
"}  c #CBCBCB",
"|  c #D7D7D7",
" . c gray92",
".. c None",
/* pixels */
"........      ..................",
"......n 4 m y   ................",
"....  * } { < [ ................",
"....9  ., v | i s ..............",
"..6 Z ] H M B w J & ............",
"  d b F N j - ; S + ........@ ..",
"....=     e C U x ........O 3 ..",
"..1 # ....c T A   ........V ....",
"..    ..X I ~ f ........L $ ....",
"........l ~ G   ......> h ......",
"....... E Q p ........k P   ....",
"....  K _ Y   ........  ! r ....",
"....a ~ ( 2 X o o o o o u D   ..",
"..  g W ` ' / ) ^ W W / R z ....",
"....  : 5 7 t 0 q 8 5 5 % ......",
"................................"
};
