/* XPM */
static char *ksokoban[] = {
/* columns rows colors chars-per-pixel */
"16 16 95 2 ",
"   c black",
".  c #150302",
"X  c #331312",
"o  c #3B1612",
"O  c #58100C",
"+  c #62120C",
"@  c #681610",
"#  c #682220",
"$  c #6A2924",
"%  c #762E24",
"&  c #7E2820",
"*  c #702D28",
"=  c #722D28",
"-  c #742D28",
";  c #71302C",
":  c #7A362C",
">  c #6E3F3C",
",  c #703330",
"<  c #733330",
"1  c #703334",
"2  c #723334",
"3  c #7A3834",
"4  c #694540",
"5  c #684744",
"6  c #664B4C",
"7  c #724140",
"8  c #7A4A44",
"9  c #822A24",
"0  c #8E2E24",
"q  c #8C332C",
"w  c #88342C",
"e  c #8B342C",
"r  c #8F362C",
"t  c #883A34",
"y  c #8E3834",
"u  c #943630",
"i  c #9C3C34",
"p  c #AE372C",
"a  c #B7342C",
"s  c #BB342C",
"d  c #AE3930",
"f  c #A83C30",
"g  c #AD3E34",
"h  c #BB3C30",
"j  c #DD281C",
"k  c #C43224",
"l  c #C03328",
"z  c #C83428",
"x  c #CB3428",
"c  c #D33020",
"v  c #D23324",
"b  c #DE3324",
"n  c #C63E34",
"m  c #EF3220",
"M  c #F43324",
"N  c #FD3B28",
"B  c #8F403C",
"V  c #9F463C",
"C  c #AC4034",
"Z  c #AA4338",
"A  c #FC4A3C",
"S  c #884740",
"D  c #914B44",
"F  c #954944",
"G  c #9C4B44",
"H  c #994D48",
"J  c #9A4E48",
"K  c #965650",
"L  c #A04940",
"P  c #A24C44",
"I  c #A24D48",
"U  c #A65C54",
"Y  c #947270",
"T  c #AA6F68",
"R  c #F5867C",
"E  c #D78780",
"W  c #C99490",
"Q  c #DB9F98",
"!  c #E0A298",
"~  c #FEB5B0",
"^  c #FEB7B0",
"/  c #FEBDB8",
"(  c #FEBFB8",
")  c #FEC1BC",
"_  c #FEC3BC",
"`  c #DEC6C4",
"'  c #FEC7C0",
"]  c #F6CBC8",
"[  c #FECFC8",
"{  c #FECECC",
"}  c #F2D2D0",
"|  c #FED4D0",
" . c #FED5D0",
".. c #F0EEEC",
"X. c None",
/* pixels */
"X.X.X.X.X.X.X.X.  X.X.X.X.X.X.X.",
"X.X.X.X.X.X.X.E 8   X.X.X.X.X.X.",
"X.X.X.X.X.X.  ` U r X.X.X.X.X.X.",
"X.X.X.X.X.X.^ Y I G o X.X.X.X.X.",
"X.X.X.X.X.Q ] q P H y   X.X.X.X.",
"X.X.X.X.  ( ..d Z L K & X.X.X.X.",
"X.X.X.X.' ) T h g C D e o X.X.X.",
"X.X.X.! ( [ n x s g V J 9   X.X.",
"X.X.  ~ { } j v k a f S w 0 X.X.",
"X.X. ./ _ R M b z l p u F t X X.",
"X.X.  W | A N m c z a i B = X.X.",
"X.X.X.  O 4 6 5 > 7 3 % @ X.X.X.",
"X.X.X.X.  - - 1 < 1 * + X.X.X.X.",
"X.X.X.X.X.  ; , 2 ; # X.X.X.X.X.",
"X.X.X.X.X.X.. : 1 $ X.X.X.X.X.X.",
"X.X.X.X.X.X.X.X.  X.X.X.X.X.X.X."
};
