/* XPM */
static char *ksysv[] = {
/* columns rows colors chars-per-pixel */
"16 16 100 2 ",
"   c #000001",
".  c gray21",
"X  c #3E3E3F",
"o  c #783238",
"O  c #424243",
"+  c #454544",
"@  c #444445",
"#  c #464646",
"$  c #49494A",
"%  c #4E4E4F",
"&  c #4F5150",
"*  c #525253",
"=  c #555554",
"-  c #565656",
";  c #5A5A5B",
":  c #5D5D5F",
">  c #526050",
",  c #616160",
"<  c #606061",
"1  c #616162",
"2  c #636365",
"3  c #666666",
"4  c #636F64",
"5  c #686868",
"6  c #6A6A6B",
"7  c #6E6E6E",
"8  c #6E726B",
"9  c #6D716C",
"0  c #707070",
"q  c #727272",
"w  c #767676",
"e  c #7D7E7C",
"r  c #7F7F7E",
"t  c #901E24",
"y  c #92222C",
"u  c #942E30",
"i  c #856768",
"p  c #0CCE14",
"a  c #18CE18",
"s  c #18DE1C",
"d  c #558B58",
"f  c #7E817B",
"g  c #8F7F80",
"h  c #8B8584",
"j  c #878788",
"k  c #89898A",
"l  c #8B8B8B",
"z  c #8A8D88",
"x  c #8D8F8B",
"c  c #8D8E8C",
"v  c #8F8F8F",
"b  c #8E908C",
"n  c #909090",
"m  c #999B98",
"M  c #99999C",
"N  c gray61",
"B  c #9EA09C",
"V  c #A0A0A0",
"C  c #A2A3A4",
"Z  c #A4A4A4",
"A  c #A5A5A6",
"S  c #A9AAA8",
"D  c gray67",
"F  c #ACACAC",
"G  c #ACADAC",
"H  c #AFAFAF",
"J  c #B0B1B0",
"K  c #B4B4B4",
"L  c #B7B7B7",
"P  c #B5B5B8",
"I  c #B7B7B8",
"U  c #B8B8B8",
"Y  c #BABABA",
"T  c #BABABC",
"R  c #BCBCBC",
"E  c #BDBDBE",
"W  c #C2C2C3",
"Q  c #C3C3C3",
"!  c #C9C9CA",
"~  c #CBCBCB",
"^  c #CCCCCC",
"/  c #CDCDD0",
"(  c #CFCFD0",
")  c LightGray",
"_  c #D3D3D4",
"`  c #D7D7D8",
"'  c gray86",
"]  c #DCDCDB",
"[  c #DEDEDE",
"{  c #E0E0DF",
"}  c #E4E4E3",
"|  c #E8E8E7",
" . c #EAEAE9",
".. c #F1F1EF",
"X. c #F3F3F1",
"o. c #F5F5F3",
"O. c #F7F7F5",
"+. c #FBFBF9",
"@. c #FDFDFB",
"#. c None",
/* pixels */
"#.#.#.#.#.#.#.#.$   #.#.#.#.#.#.",
"#.#.#.#.#.#.1 - O       #.#.#.#.",
"#.#.#.#.#.  @.@.2 @ [       #.#.",
"#.#.#.  c 0   P @.r + _ O.  o.#.",
"#.  W I N R { ; @.r } L ' w / #.",
"#.o.W ] { K K ; @.+.: : - q ^ #.",
"#.}  .` 5 k R * O.@.@.@.* q ^ #.",
"#.' } ( o y i * | X.@.@.% 7 Q #.",
"#.~ ) ! u t g $ ` { ..o.$ 6 U #.",
"#.Y ! K J h Z @ ! _ ' } # 3 H #.",
"#.S L D , l F @ T W ~ ` O < A #.",
"#.B G V > s d @ T T E ! X ; M #.",
"#.z C b a p 4   T T T T . - n #.",
"#.f m v j 9 & #.#.  T T   %   #.",
"#.8 x e =   #.#.#.#.#.  #.#.#.#.",
"#.#.    #.#.#.#.#.#.#.#.#.#.#.#."
};
