/* XPM */
static char *kthememgr[] = {
/* columns rows colors chars-per-pixel */
"16 16 115 2 ",
"   c black",
".  c #100F01",
"X  c #2D2C04",
"o  c #1C4713",
"O  c #1C6603",
"+  c #256F0C",
"@  c #266214",
"#  c #2A6A1C",
"$  c #4A4703",
"%  c #565405",
"&  c #494517",
"*  c #5B5718",
"=  c #625E04",
"-  c #605C18",
";  c #6F6C04",
":  c #777604",
">  c #6C6C18",
",  c #767210",
"<  c #7F7B18",
"1  c #5F5E44",
"2  c #248304",
"3  c #248704",
"4  c #29810B",
"5  c #2B8D0B",
"6  c #299207",
"7  c #2C960C",
"8  c #349515",
"9  c #389A1C",
"0  c #32B008",
"q  c #37B50C",
"w  c #36BA0C",
"e  c #37BA0C",
"r  c #36BB0E",
"t  c #39BA0C",
"y  c #35AB11",
"u  c #3CAD16",
"i  c #36B513",
"p  c #3DB613",
"a  c #469A04",
"s  c #499E04",
"d  c #44980B",
"f  c #4C8818",
"g  c #4CA004",
"h  c #50A504",
"j  c #53A804",
"k  c #55AB09",
"l  c #41A91F",
"z  c #478C21",
"x  c #46BF20",
"c  c #39D50C",
"v  c #3BDD0A",
"b  c #3DD80C",
"n  c #3EF20C",
"m  c #15C82A",
"M  c #43CA1B",
"N  c #44D319",
"B  c #44F20C",
"V  c #50EC1B",
"C  c #4AD72C",
"Z  c #53D73A",
"A  c #4AF223",
"S  c #61E632",
"D  c #63B940",
"F  c #6FF440",
"G  c #838004",
"H  c #848304",
"J  c #858304",
"K  c #8E8B04",
"L  c #918F04",
"P  c #999704",
"I  c #8B8A18",
"U  c #A9A704",
"Y  c #ADAD09",
"T  c #A5A024",
"R  c #ABA624",
"E  c #B2AC29",
"W  c #BAB52D",
"Q  c #B4B239",
"!  c #C4C036",
"~  c #CFCD45",
"^  c #D4D054",
"/  c #D3D867",
"(  c #C0F36D",
")  c #FEF26C",
"_  c #FEF378",
"`  c #9ECE90",
"'  c #C8C794",
"]  c #FEF386",
"[  c #FEF488",
"{  c #FCF492",
"}  c #FDF496",
"|  c #FCF49B",
" . c #EEE9A1",
".. c #ECEFA1",
"X. c #FCF4A7",
"o. c #FDF6A7",
"O. c #F5F0AE",
"+. c #FCF4AC",
"@. c #FEFAAC",
"#. c #FCF7B2",
"$. c #FCF7B3",
"%. c #FBF6B5",
"&. c #FEF9BC",
"*. c #CFCFCB",
"=. c #D7F6CE",
"-. c #FAF6C5",
";. c #FEFAC0",
":. c #FCF8D1",
">. c #FDF9D1",
",. c #FDF9DB",
"<. c #FDFBF1",
"1. c #FEFBF4",
"2. c #FEFDF8",
"3. c #FDFDFB",
"4. c None",
/* pixels */
"4.4.4.4.4.4.4.4.4.4.4.4.4.4.4.4.",
"4.4.4.4.8 9 4.4.4.b u 4.4.4.4.4.",
"4.4.4.4.+ 4.l 4.x 4.# 4 4.4.4.4.",
"4.4.4.4.M   N C 1 o @ 4.4.4.4.4.",
"4.4.4.  A V Z 7 0 p X 4.4.4.4.4.",
"4.  S F =.4 5 c z / ^ Y . 4.4.4.",
"4.  ` *.w D ..n v 6 f H I 4.4.4.",
"4.  3.2.q ' O.( B k 3 L < 4.4.4.",
"4.  <.1.e &.#.Q m j 3 G , 4.4.4.",
"4.  ,.:.r $.@.~ U h 3 : > 4.4.4.",
"4.  >.-.t o.X.! P g 3 ; - 4.4.4.",
"4.  ;.%.w | } W K s 3 = *     4.",
"4.   .+.i { ] E J a 2 % &   4.4.",
"4.4.4.  y [ _ R : d O   4.4.4.4.",
"4.4.4.4.4.  ) T $   4.4.4.4.4.4.",
"4.4.4.4.4.4.4.  4.4.4.4.4.4.4.4."
};
