/* XPM */
static char *kuickshow[] = {
/* columns rows colors chars-per-pixel */
"16 15 127 2 ",
"   c #335733",
".  c #247533",
"X  c #207933",
"o  c #537433",
"O  c #38616B",
"+  c #0F8A33",
"@  c #1D8333",
"#  c #009933",
"$  c #1A9933",
"%  c #669933",
"&  c #3F3F80",
"*  c #66338F",
"=  c #5033A7",
"-  c #555D80",
";  c #664D83",
":  c #74469B",
">  c #666699",
",  c #1A33FF",
"<  c #2033FF",
"1  c #2433FC",
"2  c #2433FF",
"3  c #3133F3",
"4  c #3D33F3",
"5  c #3333FF",
"6  c #3D33FF",
"7  c #3D3AFF",
"8  c #7E1BC9",
"9  c #4633FF",
"0  c #6D33E6",
"q  c #7733E6",
"w  c #3846FF",
"e  c #3858FF",
"r  c #3F58FF",
"t  c #4241FF",
"y  c #4742FF",
"u  c #4E41FF",
"i  c #4649FF",
"p  c #504DFF",
"a  c #5F49FF",
"s  c #4D5CFF",
"d  c #664DFF",
"f  c #6B57FF",
"g  c #6663FF",
"h  c #6966FF",
"j  c #616DFF",
"k  c #6D69FF",
"l  c #7064FF",
"z  c #7466FF",
"x  c #7A6BFF",
"c  c #9900DB",
"v  c #9900DE",
"b  c #9900DF",
"n  c #990FDB",
"m  c #B11ACE",
"M  c #9933CC",
"N  c #9933FF",
"B  c #804DE6",
"V  c #995FE6",
"C  c #8B5FFF",
"Z  c #A041E6",
"A  c #9966FF",
"S  c #9969FF",
"D  c #996DFF",
"F  c #8079FF",
"G  c #9972FF",
"H  c #997CFF",
"J  c #997DFF",
"K  c #997FFF",
"L  c #9B7EFF",
"P  c #A266FF",
"I  c #A26FFF",
"U  c #B566FF",
"Y  c #A375FF",
"T  c #A277FF",
"R  c #A37AFF",
"E  c #B377FF",
"W  c #BE7EFF",
"Q  c #8686E6",
"!  c #8A80FF",
"~  c #8B8BFF",
"^  c #9980FF",
"/  c #9985FF",
"(  c #998AFF",
")  c #998DFF",
"_  c #9999FF",
"`  c #AF80FF",
"'  c #A38BFF",
"]  c #A88AFF",
"[  c #B380FF",
"{  c #B683FF",
"}  c #B38FFF",
"|  c #BE8BFF",
" . c #B98DFF",
".. c #BB91FF",
"X. c #B69CFF",
"o. c #B1A5FF",
"O. c #B8ADFF",
"+. c #B1B1FF",
"@. c #C58BE6",
"#. c #C285FF",
"$. c #C08DFF",
"%. c #C28FFF",
"&. c #C78FFF",
"*. c #CC97FF",
"=. c #CC99FF",
"-. c #CF9CFF",
";. c #C7A8FF",
":. c #C4AAFF",
">. c #C4B2FF",
",. c #CCB3FF",
"<. c #CFB6FF",
"1. c #CCBEFF",
"2. c #D5B2FF",
"3. c #DBBDFF",
"4. c #E2ADFF",
"5. c #E6B8FF",
"6. c #DBC2FF",
"7. c #E6C2FF",
"8. c #E6CCFF",
"9. c #E6D1FF",
"0. c #E0D6FF",
"q. c #E6DFFF",
"w. c #E6E6FF",
"e. c #F0E6FF",
"r. c #F7E6FF",
"t. c white",
"y. c None",
/* pixels */
"y.y.y.y.y.y.y.y.y.K 4.L y.y.y.y.",
"y.y.y.U ;.&.J y.U 9.5.O.y.y.y.y.",
"y.y.y.r.T I P / :.E A ..2.>.y.y.",
"y.y.y.w.| ^ $.) ' ) l t.*.1.G y.",
"y.y.y.%.} x , R y 2 #.! ( ] ( y.",
"y.=.$. .^ z Z W & r 5 w Q C < y.",
"8.<.` S 5 @.V = a H S 9 1 0 y.y.",
",.[ [ d , B > , , d ^ d y.y.y.y.",
"k k ~ { 7 h -.i p _ ^ g ; @ % y.",
"M +.,.e , q.^ F D =.j : o O X b ",
"y.e.] Y s 0.3.6.7.f n c   + . * ",
"y.X.o.^ 3 6 t u 4 N $ y.v 8 v y.",
"y.N q q y.y.y.y.y.y.y.- y.y.y.y.",
"y.y.y.y.y.y.y.y.y.y.y.# y.y.y.y.",
"y.y.y.y.y.y.y.y.y.y.y.y.m y.y.y."
};
