/* XPM */
static char *libreimpress_16x16[] = {
/* columns rows colors chars-per-pixel */
"13 16 43 1 ",
"  c None",
". c #833102",
"X c #A33E03",
"o c #AD5927",
"O c #D36118",
"+ c #179C02",
"@ c #BE8360",
"# c #C08969",
"$ c #C18E70",
"% c #808080",
"& c gray70",
"* c #B6B6B6",
"= c gray73",
"- c gray",
"; c #BBCDB8",
": c #EDC0A3",
"> c #F2CCB4",
", c gray76",
"< c #C6C6C6",
"1 c #CACACA",
"2 c #CDCDCD",
"3 c gray82",
"4 c #D5D5D5",
"5 c gray85",
"6 c #DDDDDD",
"7 c #F5D7C4",
"8 c #F8E0D2",
"9 c #FBE9DE",
"0 c gray88",
"q c #E1E1E1",
"w c #E3E2E1",
"e c #E3E3E3",
"r c #E4E4E4",
"t c #E6E6E6",
"y c gray91",
"u c gray92",
"i c #EEEEEE",
"p c #FDF0E9",
"a c #F1F1F1",
"s c #F3F3F3",
"d c #F6F6F6",
"f c #F8F8F8",
"g c gray98",
/* pixels */
"XXXXXXXX XXXX",
"XrrrrrrwX XXX",
"X0ggggggoX XX",
"X6fffffffXX X",
"X5ddddddddXX ",
"X4sssssssssXX",
"X3apppppppa3X",
"X2i9OOOOO9i2X",
"X1u88.$%%8u1X",
"X<y77.#s+7y<X",
"X,t>>.@;e>t,X",
"X-r:::::::r-X",
"X=eee%e%eee=X",
"X*qqqqqqqqq*X",
"X&&&&&&&&&&&X",
"XXXXXXXXXXXXX"
};
