/* XPM */
static char *libredraw_16x16[] = {
/* columns rows colors chars-per-pixel */
"16 16 90 1 ",
"  c None",
". c #62593B",
"X c #675E3D",
"o c #736841",
"O c #786C43",
"+ c #896B00",
"@ c #8A6B00",
"# c #8D6E00",
"$ c #927100",
"% c #967400",
"& c #9A7800",
"* c #9E7B00",
"= c #A07C00",
"- c #A27E00",
"; c #A47F00",
": c #857848",
"> c #897B4A",
", c #5CBD4D",
"< c #A68100",
"1 c #AA8400",
"2 c #AE8700",
"3 c #B38B00",
"4 c #B78E00",
"5 c #BB9100",
"6 c #BF9400",
"7 c #C29600",
"8 c #C39700",
"9 c #C39800",
"0 c #C79B00",
"q c #CC980C",
"w c #D38D1A",
"e c #D39D1D",
"r c #D8A11D",
"t c #D8A21D",
"y c #E0A718",
"u c #D8A623",
"i c #DCA522",
"p c #D9A925",
"a c #DBAB27",
"s c #DBAD29",
"d c #DDB12D",
"f c #DEB42E",
"g c #E0B42C",
"h c #E3BF3D",
"j c #E4C13D",
"k c #92834D",
"l c #EEBC46",
"z c #EEC14A",
"x c #EDD152",
"c c #F2CF6E",
"v c #F3D36C",
"b c #F3D277",
"n c #DBB296",
"m c #F1A286",
"M c #F2B692",
"N c #F2BA98",
"B c #F5BE9B",
"V c #F4BF9D",
"C c #F7BCAC",
"Z c #DBC780",
"A c #F7DD8A",
"S c #F7C3A1",
"D c #F8C5A7",
"F c #F5C3A8",
"G c #F8C5A9",
"H c #F8C6AA",
"J c #C9C9C9",
"K c #D8D8D8",
"L c gray86",
"P c #E2E2E2",
"I c #E4E4E4",
"U c gray90",
"Y c #E7E7E7",
"T c gray91",
"R c #E9E9E9",
"E c #EAEAEA",
"W c gray92",
"Q c #EFEFEF",
"! c gray94",
"~ c #F1F1F1",
"^ c gray95",
"/ c #F3F3F3",
"( c #F4F4F4",
") c gray96",
"_ c #F6F6F6",
"` c #F8F8F8",
"' c #F9F9F9",
"] c gray98",
"[ c #FBFBFB",
"{ c gray99",
/* pixels */
" 0ZZZZZZ0 0000  ",
" 8{{{{{{{7 999  ",
" 6[[[[[[[[= 66  ",
" 5]]]]]]]]]@ 5  ",
" 4'''''''''';   ",
" 3``````````'3  ",
" 2``nSDG``````  ",
" 1__MBHFdhxj__  ",
" <))mMNVpsfg))  ",
" -((CmAAtuai((  ",
" *///qvvyerw//  ",
" &^^^zbcl^^^^^  ",
" %W~,~~~~,~~~Y  ",
" $UE!!!!!!!!RL  ",
" #KIRQQQQQQTPJ  ",
" +kkk:o.XO>kkk  "
};
