/* XPM */
static char *lisp[] = {
/* columns rows colors chars-per-pixel */
"16 16 9 1 ",
"  c black",
". c #3EFC3EFC3EFC",
"X c #5F7E5F7E5F7E",
"o c #7DF77DF77DF7",
"O c #800080008000",
"+ c #BEFBBEFBBEFB",
"@ c #DF7DDF7DDF7D",
"# c white",
"$ c None",
/* pixels */
"$$o+++++++o$$$$$",
"$$+O#O #O#+o$$$$",
"$$+O#O##O ++o$$$",
"$$+ #O# O#+OX $$",
"$$+########+++$$",
"$$+OO########@$$",
"$$+OOO#######@$$",
"$$+#O#O######@$$",
"$$+###O######@$$",
"$$+#O#O#O####@$$",
"$$+##O#O#####@$$",
"$$+##O#O#####@$$",
"$$+#OO#O#####@$$",
"$$+#O########@$$",
"$$+OO#O######@$$",
"$$.XXXXXXXXXXX$$"
};
