/* XPM */
static char *lyx_16x16[] = {
/* columns rows colors chars-per-pixel */
"16 16 13 1 ",
"  c None",
". c #C74B23",
"X c #CD4D24",
"o c #EC5828",
"O c #FF6C31",
"+ c #FF7636",
"@ c #FF7835",
"# c #E0B435",
"$ c #FFDE41",
"% c #FFFF4F",
"& c #438CD9",
"* c #4DA0F8",
"= c #7CFFFF",
/* pixels */
"                ",
"                ",
"                ",
"                ",
"                ",
"  &       .. .. ",
" &&   %   X.+.o ",
"  &&  ##  ##..  ",
"  &&   #$##..O  ",
"  &&=&&###....  ",
"   &&&*##.. ..  ",
"   &   ##     @ ",
"       ##       ",
"                ",
"                ",
"                "
};
