/* XPM */
static char *magic[] = {
/* columns rows colors chars-per-pixel */
"16 16 21 1 ",
"  c black",
". c green",
"X c #6186E1856186",
"o c #800080000000",
"O c yellow",
"+ c #000000008207",
"@ c blue",
"# c #800000008000",
"$ c #000080008000",
"% c #0000FFFF8000",
"& c #00008000FFFF",
"* c cyan",
"= c #6186E185E185",
"- c #800080008000",
"; c #8000FFFF8000",
": c #FFFFFFFF8000",
"> c #80008000FFFF",
", c #FFFF8000FFFF",
"< c #8000FFFFFFFF",
"1 c white",
"2 c None",
/* pixels */
"2222222222222222",
"22$2o2*222222222",
"22 #; 2,22222222",
"2-o1O;o222222222",
"22 *1#22222<2222",
"22O o:$2222%2222",
"2222-2@@22222222",
"222222+@@2222222",
"%222222+1@2*>222",
"2*222222+1@X2222",
".%2<.*222+1@2222",
">22X=%22%<+1@222",
"222>%1%<222+1@22",
"222222222222+1@2",
"2222222222222+&2",
"2222222222222222"
};
