/* XPM */
static char *make[] = {
/* columns rows colors chars-per-pixel */
"16 16 29 1 ",
"  c #2C2C2C",
". c #3E3E3E",
"X c #444444",
"o c gray29",
"O c #565656",
"+ c gray36",
"@ c #626262",
"# c #686868",
"$ c gray43",
"% c gray48",
"& c #808080",
"* c #868686",
"= c #878789",
"- c gray55",
"; c #8D8D8F",
": c #929292",
"> c #939395",
", c #99999B",
"< c gray64",
"1 c #A0A0A4",
"2 c #ABABAD",
"3 c #B0B0B2",
"4 c gray71",
"5 c #B6B6B6",
"6 c #BDBDBF",
"7 c #C8C8C8",
"8 c #CDCDCD",
"9 c #D1D1E7",
"0 c None",
/* pixels */
"0000000000000000",
"0000000000000000",
"0000000000000000",
"0000>00000000000",
"0*#>2O@@00000000",
"0,95211O00040000",
"0151+11O*8311670",
"%-,00O1*%2511100",
"0@&o0%,$2,,0X1,=",
"0O#$%--&,*O00,-,",
"0oXO@o. O$$X--00",
"0000+000<;@@#*:0",
"00000000000=0000",
"0000000000000000",
"0000000000000000",
"0000000000000000"
};
