/* XPM */
static char *mc_16x16[] = {
/* columns rows colors chars-per-pixel */
"16 16 136 2 ",
"   c None",
".  c #000001",
"X  c #000002",
"o  c #020304",
"O  c #010106",
"+  c #010107",
"@  c #050506",
"#  c #01010A",
"$  c #010A0D",
"%  c #010C0F",
"&  c #080808",
"*  c #010110",
"=  c #010112",
"-  c #000113",
";  c #000114",
":  c #010E11",
">  c #010018",
",  c #010118",
"<  c #01001B",
"1  c #01011B",
"2  c #01031A",
"3  c #01001D",
"4  c #06051C",
"5  c #010021",
"6  c #010122",
"7  c #010026",
"8  c #010227",
"9  c #01012B",
"0  c #010136",
"q  c #010137",
"w  c #020635",
"e  c #010139",
"r  c #0B2025",
"t  c #062F3F",
"y  c #22262B",
"u  c #000049",
"i  c #00004A",
"p  c #010B48",
"a  c #010B4B",
"s  c #16164D",
"d  c #000056",
"f  c #020557",
"g  c #00005C",
"h  c #013344",
"j  c #013345",
"k  c #013547",
"l  c #163641",
"z  c #000169",
"x  c #00006B",
"c  c #16166B",
"v  c #000175",
"b  c #01444A",
"n  c #01444B",
"m  c #01464C",
"M  c #01565F",
"N  c #01717A",
"B  c #535253",
"V  c #010082",
"C  c #010184",
"Z  c #010085",
"A  c #010087",
"S  c #010088",
"D  c #01008A",
"F  c #01008B",
"G  c #01008C",
"H  c #00009B",
"J  c #00009F",
"K  c #00019F",
"L  c #0000A0",
"P  c #0100A3",
"I  c #0106D3",
"U  c #0201DC",
"Y  c #1D1CD9",
"T  c #0101EF",
"R  c #1312E0",
"E  c #0100F1",
"W  c #0000F3",
"Q  c #0000F6",
"!  c #0100FB",
"~  c #024EE2",
"^  c #00818B",
"/  c #018A95",
"(  c #018996",
")  c #018E99",
"_  c #018D9A",
"`  c #01949C",
"'  c #00A6AF",
"]  c #0089C3",
"[  c #018CC4",
"{  c #01BAC6",
"}  c #02A2EE",
"|  c #01CCD3",
" . c #0CC6DD",
".. c #01CEDF",
"X. c #19C9DA",
"o. c #01CEE2",
"O. c #02CDE5",
"+. c #828083",
"@. c #8B8B8A",
"#. c #9899A8",
"$. c #BEBDBC",
"%. c #BCBCBF",
"&. c #C6C6BC",
"*. c #CFCEBB",
"=. c #CFCEBD",
"-. c #B3B4D2",
";. c #CCCDCC",
":. c #CDCECE",
">. c #CFCFCE",
",. c #D4D4C9",
"<. c #D5D5D5",
"1. c #E0DFE1",
"2. c #E3E2E0",
"3. c #E4E4E5",
"4. c #E8E7E7",
"5. c #E9E9E8",
"6. c #E8E8E9",
"7. c #EBEBEC",
"8. c #EEEEEE",
"9. c #EFEFEE",
"0. c #F2F1EF",
"q. c #EFF1F2",
"w. c #F0F1F0",
"e. c #F2F2F2",
"r. c #F2F2F3",
"t. c #F2F3F3",
"y. c #F6F6F5",
"u. c #F5F5F6",
"i. c #F7F7F7",
"p. c #F7F8F8",
"a. c #F9F9F8",
"s. c #F9F9F9",
"d. c #FBFBFB",
"f. c #FCFCFC",
"g. c #FEFEFE",
"h. c white",
/* pixels */
"            h.a.s.h.            ",
"        7.X % . O : $ e.        ",
"      @ O # O O O O + + &       ",
"    o * * * * = # * * - ; r     ",
"  6.b b , 2 n > < n n n 3 m 9.  ",
"  h k l 6 8 k 9 5 j t t 4 M 7   ",
"8.0 q i.1 q e g.B p.@.@.@.N e 5.",
"<.p p u.y.i w g.B f.a p i ^ i :.",
">./ ( r.#.y t.s B d.) _ f ` g ;.",
"3.x x 0.z q.+.c B w.-.-.-.' v 4.",
"  A Z i C V F D d G i u u { S   ",
"  ,.J J K L J P H [ ] ] J | =.  ",
"     .........o.o.....O...X.    ",
"      R ~ I } U U } } } Y       ",
"        *.Q W E E T ! &.        ",
"            1.%.$.2.            "
};
