/* XPM */
static char *memory[] = {
/* columns rows colors chars-per-pixel */
"16 16 35 1 ",
"  c black",
". c #060606",
"X c #0B0B0B",
"o c gray6",
"O c #131313",
"+ c #171717",
"@ c #181818",
"# c #1B1B1B",
"$ c #232323",
"% c #2C2C2C",
"& c #2D2D2D",
"* c #2F2F2F",
"= c #434343",
"- c #444444",
"; c #575757",
": c #585858",
"> c #676768",
", c #68686A",
"< c #6C6C6C",
"1 c gray55",
"2 c #909090",
"3 c gray61",
"4 c #9E9EA0",
"5 c gray67",
"6 c #ACACAC",
"7 c #B1B1B1",
"8 c #BCBCBC",
"9 c #C0C0C1",
"0 c #C6C6C6",
"q c #D2D2D2",
"w c #D8D8D8",
"e c #E1E1E1",
"r c #E9E9E9",
"t c white",
"y c None",
/* pixels */
"yyyyyyyyyyyyyyyy",
"yyyyyyyy,yyyyyyy",
"yyyyyyy:t9* yyyy",
"yyyyyy,=8&@&&yyy",
"yyyyy:t7$&&>&&yy",
"yyyy,-5#$$$&& yy",
"yyy:t4+###$$  6y",
"yy>=3XOOO##  rey",
"y;t2XXXoOO  6y<y",
"y&+  . XX  rqyyy",
"yy        6y<yyy",
"yyy      01yyyyy",
"yyyy +% 6y<yyyyy",
"yyyyy %w1yyyyyyy",
"yyyyyyyy<yyyyyyy",
"yyyyyyyyyyyyyyyy"
};
