/* XPM */
static char *midi[] = {
/* columns rows colors chars-per-pixel */
"16 16 73 1 ",
"  c black",
". c #050505",
"X c #191919",
"o c #232323",
"O c #242424",
"+ c #252525",
"@ c #2A2A2A",
"# c #2D2D2D",
"$ c #323232",
"% c #363636",
"& c #393939",
"* c #3E3E3E",
"= c #4E4E4E",
"- c #515151",
"; c #545555",
": c #565656",
"> c #575757",
", c #5A5A5A",
"< c #636363",
"1 c #646464",
"2 c #666666",
"3 c #676767",
"4 c gray42",
"5 c #6D6D6D",
"6 c #727272",
"7 c #787878",
"8 c #7B7B7B",
"9 c gray50",
"0 c #838383",
"q c #8B8B8B",
"w c gray55",
"e c #8F8F8F",
"r c #919191",
"t c #929291",
"y c gray59",
"u c #979797",
"i c gray61",
"p c #9E9E9E",
"a c #A09FA0",
"s c #A0A0A0",
"d c gray64",
"f c #A4A4A4",
"g c #A5A6A6",
"h c #A8A8A8",
"j c #B4B4B4",
"k c #B7B7B7",
"l c gray73",
"z c #C3C3C3",
"x c #C6C6C6",
"c c #C6C6C7",
"v c gray79",
"b c #CBCBCB",
"n c #CFCFCF",
"m c #D2D2D2",
"M c LightGray",
"N c #D5D5D5",
"B c #D6D6D6",
"V c #D7D7D7",
"C c #DADAD9",
"Z c #D9D9DA",
"A c #DAD9DA",
"S c #DADADA",
"D c #DBDBDB",
"F c #DEDEDF",
"G c #DFDFDF",
"H c #E2E1E2",
"J c #E2E2E3",
"K c #E5E5E5",
"L c #ECECEC",
"P c #EFEFEF",
"I c #F2F1F2",
"U c #FEFEFE",
"Y c None",
/* pixels */
"Y == YYYYYYYYYYY",
" >,<3tq YYYYYYYY",
"=,<468wrYYYYYYYY",
"=<468wikfYYYYYYY",
"-468wikmSJ YYYYY",
"-68wikmSmlsdueq+",
":8wpknSmlaw864<O",
"%udjzbxjgyq0876o",
"  1 < =< = 5 <  ",
"=@Z.B.zN.c.G.Z=@",
"=#FXDXcFXvXJXD=#",
"-$F;F;bJ;b;J;F-$",
":&LhLdMLdMdLhL:&",
",*PnICnPAnPVmP,*",
",*UHUKHUKHUKHU,*",
"  929229229229  "
};
