/* XPM */
static char *NewsAgent[] = {
/* columns rows colors chars-per-pixel */
"16 16 16 1 ",
"  c black",
". c #301010",
"X c #502010",
"o c #704010",
"O c #505050",
"+ c #705050",
"@ c #A06020",
"# c #B07020",
"$ c #A08070",
"% c #D08040",
"& c #F09040",
"* c #708080",
"= c #A0A0A0",
"- c #F0C0A0",
"; c gray94",
": c None",
/* pixels */
":::::::..:::::::",
"::::::@X@.::::::",
":::X@@&&@@.@.:::",
"::O&@ &&@&@&#o::",
"::X&@       &#::",
"::o&&@&oo@#&&o::",
":::o&&&&&&OO OO=",
"::@+ .XXX ;;; O;",
":@@+    = ;;  = ",
"O&@.+  $-; ;; ;O",
"@.o&$- $O  *   ;",
"&oX@o --   =;;;;",
"@o%&$---+  *;;; ",
"&X&&+$- -$     :",
":@@%.+OO   :;;;:",
":@@@@O=:   ;;;::"
};
