/* XPM */
static char *calc2[] = {
/* columns rows colors chars-per-pixel */
"16 16 10 1 ",
"  c black",
". c gray25",
"X c #606060",
"o c #800000",
"O c red",
"+ c #808080",
"@ c #A0A0A0",
"# c #C0C0C0",
"$ c #E0E0E0",
"% c None",
/* pixels */
"%%%@########+%%%",
"%%%$XXXXXXX##%%%",
"%%%$ O  oOoX#%%%",
"%%%$X++++++##%%%",
"%%%$@#@#@#@##%%%",
"%%%$@#@#@#@##%%%",
"%%%$+@+@+@+@#%%%",
"%%%$@#@#@#@##%%%",
"%%%$@#@#@#@##%%%",
"%%%$+@.$X.$X#%%%",
"%%%$@#$##$###%%%",
"%%%$@#@##@###%%%",
"%%%$+@.$X.$X#%%%",
"%%%$@#$##$###%%%",
"%%%##$#$$#$$#%%%",
"%%%..........%%%"
};
