/* XPM */
static char *xfi[] = {
/* columns rows colors chars-per-pixel */
"16 16 79 1 ",
"  c #000200",
". c #020501",
"X c #0E1409",
"o c #110F13",
"O c #232709",
"+ c #363917",
"@ c #0A172F",
"# c #333532",
"$ c #393A38",
"% c #3B3D3B",
"& c #3D3B3E",
"* c #3E403D",
"= c #51561F",
"- c #40423F",
"; c #383F46",
": c #3D3D46",
"> c #3F3F48",
", c #1C3F6E",
"< c #37414D",
"1 c #3A4550",
"2 c #3E4854",
"3 c #35486E",
"4 c #324D72",
"5 c #395379",
"6 c #424441",
"7 c #434542",
"8 c #444643",
"9 c #4A484B",
"0 c #4D4E4C",
"q c #4F504E",
"w c #434B52",
"e c #464D54",
"r c #4C535A",
"t c #54585B",
"y c #5A6571",
"u c #686A67",
"i c #6E706D",
"p c #70726F",
"a c #737572",
"s c #7D7B7F",
"d c #235E9E",
"f c #2F5D99",
"g c #2761A1",
"h c #4E6A8B",
"j c #576683",
"k c #4C689B",
"l c #64778E",
"z c #737A8E",
"x c #5478AB",
"c c #7D89A2",
"v c #7E91B5",
"b c #7D95BF",
"n c #7794C3",
"m c #928F94",
"M c #9C9E9B",
"N c #A0A29F",
"B c #8194B8",
"V c #A2A4A1",
"C c #9DACCC",
"Z c #A0AFCF",
"A c #CACFD1",
"S c #D1D3D0",
"D c #D3D5D2",
"F c #D5D7D4",
"G c #D8DAD6",
"H c #DDDFDC",
"J c #E0E2DF",
"K c #FEFCDF",
"L c #E3E5E1",
"P c #E8EAE7",
"I c #E9EBE8",
"U c #EBEDEA",
"Y c #EDEFEB",
"T c #EFF1EE",
"R c #F1F3F0",
"E c #F3F5F2",
"W c #F7FAF6",
"Q c #FDFFFC",
"! c None",
/* pixels */
"!!!!!!!!!!!!!!!!",
"!!!!!!!!!!!!!!!!",
"!! 6-667778$#.!!",
"!!QSSSDDFGGGGM!!",
"!!Q,g@dfffff<N!!",
"!!Q5=QOxxxxx1N!!",
"!!Qj+KXvvB0v2N!!",
"!!WzCcCCCq0ZeN!!",
"!!WhnnbblytbrN!!",
"!!W3kkkkkk43wV!!",
"!!E:::::;>>>sV!!",
"!!RHLm 9UYTPIV!!",
"!!EJJ&PoUAPPIM!!",
"!! *%quaiippa!!!",
"!!!!!!!!!!!!!!!!",
"!!!!!!!!!!!!!!!!"
};
