/* XPM */
static char *mini_openoffice[] = {
/* columns rows colors chars-per-pixel */
"14 14 100 2 ",
"   c #1C62AC",
".  c #1C63AD",
"X  c #1D6EBB",
"o  c #1C6FBC",
"O  c #1C70BD",
"+  c #1D70BD",
"@  c #1E70BC",
"#  c #1E71BC",
"$  c #2B67AB",
"%  c #2C67AB",
"&  c #216AB2",
"*  c #236CB3",
"=  c #256FB7",
"-  c #216EB9",
";  c #216FBA",
":  c #2471B9",
">  c #2771B8",
",  c #2572B9",
"<  c #2174BF",
"1  c #2B75BC",
"2  c #3D79B2",
"3  c #347CBC",
"4  c #387FBE",
"5  c #2979C0",
"6  c #2A7AC1",
"7  c #287BC2",
"8  c #297DC3",
"9  c #2C7EC4",
"0  c #2D7FC4",
"q  c #3781C1",
"w  c #3683C3",
"e  c #3382C4",
"r  c #3084C7",
"t  c #3184C7",
"y  c #3883C1",
"u  c #3488C9",
"i  c #3889C9",
"p  c #3A8AC9",
"a  c #388ACA",
"s  c #398BCB",
"d  c #3E8FCB",
"f  c #4286C6",
"g  c #458FC8",
"h  c #4491CA",
"j  c #4290CC",
"k  c #4093CF",
"l  c #4495CF",
"z  c #4890C9",
"x  c #4F97CD",
"c  c #4B98CF",
"v  c #4F98CD",
"b  c #5D93C6",
"n  c #5E94C7",
"m  c #5495C9",
"M  c #5595CA",
"N  c #5199CE",
"B  c #519ACE",
"V  c #5B9CCD",
"C  c #5C9CCD",
"Z  c #5D9ECF",
"A  c #5E9FCF",
"S  c #4295D0",
"D  c #4395D0",
"F  c #4A99D1",
"G  c #499AD2",
"H  c #4E9BD0",
"J  c #4B9CD3",
"K  c #4D9CD2",
"L  c #659AC6",
"P  c #689ECC",
"I  c #699FCD",
"U  c #779FCB",
"Y  c #79A2CC",
"T  c #7FA7CC",
"R  c #70A5D1",
"E  c #74A8D2",
"W  c #75AAD3",
"Q  c #80A7CC",
"!  c #83AAD1",
"~  c #82AED2",
"^  c #85ACD3",
"/  c #87AED2",
"(  c #8AB1D5",
")  c #8DB4D7",
"_  c #9AB7D7",
"`  c #9AB7D8",
"'  c #A1BBD9",
"]  c #A2BBD9",
"[  c #A0BCDA",
"{  c #A0BDDA",
"}  c #A5BDDA",
"|  c #A5BEDA",
" . c #A6BFDC",
".. c #A3C0DD",
"X. c #A0C3DF",
"o. c #A4C0DD",
"O. c #A4C1DD",
"+. c #F3F9FC",
"@. c #F8FBFD",
"#. c None",
/* pixels */
"#.#.#.#.#.#.#.#.#.#.#.#.#.#.",
"#.#.#.#.' }  . .| ] #.#.#.#.",
"#.#.% _ [ ..O.O.o.{ ` $ #.#.",
"#.#.Y ! ( ) T / ) ^ Q U #.#.",
"#.  b P R E W L +.~ I n . #.",
"#.& 3 m C Z A A Z V M 4 * #.",
"#.= q g x N B B B v z y > #.",
"#.: w h c H H +.+.+.+.X., #.",
"#.+.+.+.+.+.+.@.K F j e ; #.",
"#.1 5 i +.+.J J G l p 6 - #.",
"#.#.X 9 a d S D k s 0 @ #.#.",
"#.#.#.o 7 r u u t 8 # #.#.#.",
"#.#.#.#.2 O < < + f #.#.#.#.",
"#.#.#.#.#.#.#.#.#.#.#.#.#.#."
};
