/* XPM */
static char *mini_term3[] = {
/* columns rows colors chars-per-pixel */
"22 17 14 1 ",
"  c black",
". c #404040",
"X c #6D6D6D",
"o c gray50",
"O c #000080",
"+ c blue",
"@ c #6D6DEC",
"# c #ACACAC",
"$ c gray75",
"% c #8080FF",
"& c gray85",
"* c #ECECEC",
"= c white",
"- c None",
/* pixels */
"---o############o-----",
"---&&XXXXXXXXXX&#.----",
"---&O%+++%%++++@#o----",
"---&O%%++%+++++@#o.---",
"---&O%%%%%+%%++@#oo---",
"---&O%+%%+++%++@#oo---",
"---&O++++++++++@#oo---",
"---&O%%++%+++++@#oo---",
"---&O+%%+++++++@#o ---",
"---&&@@@@@@@@@@&# ----",
"---.XXXXXXXXXXXXX#o---",
"----o############oo---",
"---#&&&&&&&&&XXX&oo$$o",
"--o############.#o --o",
"-o&#*o#*o#*o#&&.--oo#.",
"o&#=o$=o$=o$&&o--&&#& ",
"#XXXXXXXXXXXX.---XX. -"
};
