/* XPM */
static char *mini_gv[] = {
/* columns rows colors chars-per-pixel */
"16 14 10 1 ",
"  c black",
". c #242424",
"X c #404040",
"o c #6D6D6D",
"O c #929292",
"+ c #ADADAD",
"@ c #BFBFBF",
"# c #E4E4E4",
"$ c white",
"% c None",
/* pixels */
"%%%%%%%%%%%%%%%%",
"%%%%%% $$#%%%%%%",
"%%%%%%$$$$$%%%%%",
"%%%%%X$X$ $ %%%%",
"%%% $+$+$o$ o%%%",
"%%%X$$$$$$$$$ %%",
"%%%% $$$$$$$ %%%",
"%%%%%$$$$$$@%%%%",
"%%%%%$$$$$$$%%%%",
"%%%%%$$$$$$$$ %%",
"%%%%@$$X$$X$$@%%",
"%%%%$$$ OO OO%%%",
"%%%% .%%%%%%%%%%",
"%%%%%%%%%%%%%%%%"
};
