/* XPM */
static char *xchat_16x16[] = {
/* columns rows colors chars-per-pixel */
"16 16 79 1 ",
"  c None",
". c #060606",
"X c #070707",
"o c #111313",
"O c #161616",
"+ c gray9",
"@ c #151819",
"# c #141B1C",
"$ c gray10",
"% c #1D1D1D",
"& c #1E1E1E",
"* c #192426",
"= c #1F292B",
"- c #232323",
"; c #272727",
": c #2B2B2B",
"> c #2D2D2D",
", c #26383B",
"< c #313131",
"1 c #343434",
"2 c #353535",
"3 c #373737",
"4 c #393939",
"5 c #3A3A3A",
"6 c gray23",
"7 c #3C3C3C",
"8 c #3E3E3E",
"9 c #7C5A24",
"0 c #2B4548",
"q c #404040",
"w c #414141",
"e c gray39",
"r c #DC1900",
"t c #E51B00",
"y c #E51D00",
"u c #DE2300",
"i c #E72600",
"p c #E72900",
"a c #E72B00",
"s c #E02E00",
"d c #E93500",
"f c #E93700",
"g c #E93900",
"h c #EB4900",
"j c #ED5500",
"k c #ED5A00",
"l c #EC7600",
"z c #F27E00",
"x c #B0873C",
"c c #B08B3D",
"v c #EE8300",
"b c #F58F00",
"n c #F09200",
"m c #F59000",
"M c #F79900",
"N c #F79E00",
"B c #F7A000",
"V c #F7A100",
"C c #F9A700",
"Z c #F9AF00",
"A c #F9B100",
"S c #F9B200",
"D c #FBB500",
"F c #FBBC00",
"G c #FBBE00",
"H c #FBC000",
"J c #FDC100",
"K c #FDCA00",
"L c #FDCC00",
"P c #FDCE00",
"I c #939393",
"U c #9C9C9C",
"Y c #ACACAC",
"T c gray89",
"R c #E6E6E6",
"E c #EBEBEB",
"W c #ECECEC",
"Q c #F9F9F9",
"! c white",
/* pixels */
"                ",
"   c7      w5   ",
"  xPJ6    8KL3  ",
" 9HHHD6  4FHHGq ",
"  nSSSC51ZSSA;  ",
"   vVVVMNVVB-   ",
"    lmmmmmb&    ",
"    Y!zzzz$ e ! ",
">QQ:QQQQ:QQQQwQ ",
"<W +UEkEOEkjE E ",
"XTTRIThT.TThT1T ",
" @fgggo  sgggd2 ",
" =paa#    uaai% ",
"  ,y*      rt%  ",
"   0        %   ",
"                "
};
