/* XPM */
static char *scalc_16x16[] = {
/* columns rows colors chars-per-pixel */
"16 16 104 2 ",
"   c #262C00",
".  c #2B3300",
"X  c #323A00",
"o  c #041727",
"O  c #03192E",
"+  c #374000",
"@  c #374635",
"#  c #405A06",
"$  c #555F07",
"%  c #425B12",
"&  c #41501F",
"*  c #5C7D00",
"=  c #536C23",
"-  c #4A6230",
";  c #5A713E",
":  c #647C3A",
">  c #162B40",
",  c #142F4A",
"<  c #1F3443",
"1  c #14304C",
"2  c #18334E",
"3  c #173450",
"4  c #2C3947",
"5  c #203F5C",
"6  c #284967",
"7  c #2B4C6A",
"8  c #335675",
"9  c #395D77",
"0  c #365A7A",
"q  c #667B44",
"w  c #638400",
"e  c #6E8104",
"r  c #798D0E",
"t  c #729300",
"y  c #749400",
"u  c #76980C",
"i  c #86A600",
"p  c #87A600",
"a  c #89A800",
"s  c #89A90C",
"d  c #90AA05",
"f  c #9AB801",
"g  c #9CBA00",
"h  c #9DBB01",
"j  c #9EBC00",
"k  c #9EBC01",
"l  c #9EBC03",
"z  c #96AD14",
"x  c #A2BF0C",
"c  c #819A30",
"v  c #91A02F",
"b  c #A3BC21",
"n  c #A8BF3A",
"m  c #A1C00D",
"M  c #A3C00C",
"N  c #AAC80E",
"B  c #B7D61C",
"V  c #ACC523",
"C  c #BBD821",
"Z  c #AFC63C",
"A  c #B3C93C",
"S  c #B5CC3D",
"D  c #CCEB31",
"F  c #CDEB31",
"G  c #D0EE32",
"H  c #99B147",
"J  c #9BB347",
"K  c #94A958",
"L  c #A0B747",
"P  c #A3B95E",
"I  c #AABD74",
"U  c #B1C64B",
"Y  c #B5CB4C",
"T  c #BACF4E",
"R  c #BCD04E",
"E  c #BCD14E",
"W  c #B5C959",
"Q  c #BFD35C",
"!  c #ADC163",
"~  c #ADC072",
"^  c #C0D35D",
"/  c #C2D55D",
"(  c #E2FF44",
")  c #C8D96E",
"_  c #406687",
"`  c #436A85",
"'  c #456D87",
"]  c #D3E18C",
"[  c #D5E28D",
"{  c #DAE893",
"}  c #E0EE99",
"|  c #B8C4CF",
" . c #CDDCDC",
".. c #DBE6E9",
"X. c #CDE4F7",
"o. c #D3E7F8",
"O. c #DFEEFA",
"+. c #F0F7FC",
"@. c #F1F8F9",
"#. c #F3F8FD",
"$. c #F4F9FD",
"%. c #FDFFFF",
"&. c white",
"*. c None",
/* pixels */
"*.*.8 8 & E R Y U T E E E E v *.",
"*.*.` 9 I ! #...; K ) ) ) ) *.*.",
"*.< | > - X.: Q W P ~ ^ / / *.*.",
"*.O 6 6 S Z n %.+.= c A S S *.*.",
"*.*.2 &.$.&.o.% b V V V V V *.*.",
"*.&.O.4 # q  .x M M M M M M *.*.",
"@.o , 1 h k f k k k k k k k $ *.",
"*.*.1 1 @ j a i i i i i i p z *.",
"*.*.1 1 1 j ] y y w * y y ] g *.",
"*.*.1 1 1 j ] y y w * y y ] g *.",
"*.*.3 3 3 d ] p p t w p p ] g + ",
"*.*.5 5 5 e [ L L J H L L [ l X ",
"*.*.7 7 7 r { m m s u m m { N . ",
"*.*.0 0 0 C } } } } } } } } B   ",
"*.*._ _ _ G F D D D D D D D G *.",
"*.*.' ' ' ( ( ( ( ( ( ( ( ( ( *."
};
