/* XPM */
static char *mini_news[] = {
/* columns rows colors chars-per-pixel */
"14 14 10 1 ",
"  c black",
". c #A46421",
"X c #C37422",
"o c #D8832B",
"O c #C98137",
"+ c #FF982D",
"@ c #FFB364",
"# c #FFB466",
"$ c gray98",
"% c None",
/* pixels */
"%%%%%%%%%%%%%%",
"%@++++++++++#%",
"%++++++++++++%",
"%++$$$+++++++%",
"%++$$$$$+++++%",
"%+++XXO$$++++ ",
"%++$$XXX$$+++ ",
"%++$$$$XX$X++ ",
"%+++XX$XX$$X+ ",
"%+++$X$$X$$XX ",
"%+++$XX$XX$XX ",
"%++++XXXXXXXX%",
"%o++++XXXXXX.%",
"%%%        %%%"
};
