/* XPM */
static char *mini_x11_2[] = {
/* columns rows colors chars-per-pixel */
"16 16 52 1 ",
"  c black",
". c #020202",
"X c #040404",
"o c #0C0D0D",
"O c #0D0D0D",
"+ c #0D0E0E",
"@ c #0E0E0E",
"# c #111111",
"$ c #141414",
"% c #1C1C1C",
"& c #202020",
"* c #222222",
"= c #232323",
"- c #252525",
"; c #272727",
": c #2F2F2F",
"> c #303030",
", c #323232",
"< c #333333",
"1 c #343434",
"2 c #353535",
"3 c #373737",
"4 c #3A3A3A",
"5 c gray26",
"6 c #434343",
"7 c #464646",
"8 c #505050",
"9 c #E6521A",
"0 c #E6531B",
"q c #E6541C",
"w c #E6541D",
"e c #E65727",
"r c #E95F20",
"t c #E75929",
"y c #E96128",
"u c #EB6C29",
"i c #ED722A",
"p c #EB763E",
"a c #EA6E41",
"s c #EC7A4E",
"d c #F39954",
"f c #F2965A",
"g c #F6A140",
"h c #F8AA44",
"j c #FDC65C",
"k c #FEC85D",
"l c #FBC56F",
"z c #FCCA73",
"x c #FAD2BD",
"c c #F9D2BE",
"v c white",
"b c None",
/* pixels */
"bbbbbbbbbbbbbbbb",
"bbbbbbbbbbbbbbbb",
"bbb:6vbbbbbb4bbb",
"bbb>,5bbbbbvbbbb",
"bbbb;26cxvb<bbbb",
"bbbvp-:7bb;bvbbb",
"bbayb3%&d-bbblbb",
"bb9bbb+o8bbbbbbb",
"bewbbbv, Obbbbjb",
"bt0bbb#b  vbbbkb",
"bbqvb.bb1  bbvbb",
"bbsr@bbbbX .vzbb",
"bbbvuifvbvgh=bbb",
"bbb*bbbbbbb$$bbb",
"bbbbbbbbbbbbbbbb",
"bbbbbbbbbbbbbbbb"
};
