/* XPM */
static char *mini_XEphem[] = {
/* columns rows colors chars-per-pixel */
"16 16 179 2 ",
"   c #000000",
".  c #000100",
"X  c #010100",
"o  c #000001",
"O  c #010101",
"+  c #010203",
"@  c #020202",
"#  c #020303",
"$  c #030303",
"%  c #040302",
"&  c #050302",
"*  c #050403",
"=  c #040404",
"-  c #040505",
";  c #050505",
":  c #060606",
">  c #04060A",
",  c #070A0C",
"<  c #0A0A0A",
"1  c #0D0A08",
"2  c #0C0B08",
"3  c #0F0D0A",
"4  c #0C0C0C",
"5  c #0C0D0C",
"6  c #110D09",
"7  c #150F0B",
"8  c #11110D",
"9  c #0A0E12",
"0  c #111111",
"q  c #111212",
"w  c #111312",
"e  c gray7",
"r  c #131313",
"t  c #141515",
"y  c #151515",
"u  c #161616",
"i  c #171717",
"p  c #1D1813",
"a  c #171819",
"s  c #181818",
"d  c #191919",
"f  c #1A1B1A",
"g  c #1B1B1B",
"h  c #1E1E1E",
"j  c #21201F",
"k  c #27231F",
"l  c #161C21",
"z  c #152534",
"x  c #162435",
"c  c #202020",
"v  c #222222",
"b  c #272727",
"n  c #282828",
"m  c gray16",
"M  c #2B2B2B",
"N  c #2C2C2C",
"B  c #2E2E2E",
"V  c #2E2E2F",
"C  c #3B2C21",
"Z  c #3C2F23",
"A  c #352D28",
"S  c #35302C",
"D  c #202E39",
"F  c #303030",
"G  c #323232",
"H  c #333333",
"J  c #343331",
"K  c #343434",
"L  c #30373A",
"P  c #373738",
"I  c #3A3A3A",
"U  c #3D3F3E",
"Y  c #3F3F3F",
"T  c #513927",
"R  c #5B3F2C",
"E  c #4F3F31",
"W  c #4B4031",
"Q  c #554431",
"!  c #53473B",
"~  c #694A35",
"^  c #654F38",
"/  c #1A3047",
"(  c #2F3F4A",
")  c #243E51",
"_  c #334247",
"`  c #26425E",
"'  c #2B465A",
"]  c #374E5F",
"[  c #3B4E5E",
"{  c #2A4766",
"}  c #414141",
"|  c #424242",
" . c #434343",
".. c #444444",
"X. c #474747",
"o. c #494949",
"O. c #4C4C4C",
"+. c #4E4E4E",
"@. c #4F4F4F",
"#. c #595048",
"$. c #535353",
"%. c #515452",
"&. c #545454",
"*. c #555555",
"=. c #565656",
"-. c #595959",
";. c #5A5A5A",
":. c #675746",
">. c #605D45",
",. c #6C5C4E",
"<. c #705740",
"1. c #765F46",
"2. c #765D48",
"3. c #717153",
"4. c #606060",
"5. c #616161",
"6. c #616362",
"7. c #626262",
"8. c #656565",
"9. c #666666",
"0. c #696969",
"q. c #6F6F6F",
"w. c #766A60",
"e. c #6F706F",
"r. c #707070",
"t. c #737373",
"y. c #757574",
"u. c #707C7B",
"i. c #876645",
"p. c #8B6243",
"a. c #8E6040",
"s. c #826648",
"d. c #84684B",
"f. c #926341",
"g. c #816C52",
"h. c #937050",
"j. c #AD7545",
"k. c #AC7349",
"l. c #A67F58",
"z. c #7D8273",
"x. c #7E8471",
"c. c #BC8454",
"v. c #AF926E",
"b. c #BD9F77",
"n. c #CC8E57",
"m. c #C38C59",
"M. c #D79A5B",
"N. c #C79261",
"B. c #C19C73",
"V. c #C9A173",
"C. c #D3A778",
"Z. c #547998",
"A. c #658DAB",
"S. c #818180",
"D. c #838383",
"F. c #858585",
"G. c #888786",
"H. c #8D8B89",
"J. c #939B86",
"K. c #999999",
"L. c #9C9C9B",
"P. c #98A69F",
"I. c #B8B285",
"U. c #B3BC95",
"Y. c #C2B78A",
"T. c #D5B385",
"R. c #C1BB95",
"E. c #DFBE93",
"W. c #E5BE8D",
"Q. c #B0C2BE",
"!. c #EAC190",
"~. c #E6C89B",
"^. c #EACB9E",
"/. c #D8D9B6",
"(. c #EED1A5",
"). c #EFD4A5",
"_. c #F2D7AA",
"`. c #CBCBCB",
"'. c #E4E9C8",
/* pixels */
"    O 9 w =                     ",
"  # [ P.J.3.8     % & X         ",
"  D Q.'./.I.>.2 W g.s.Q 6       ",
"+ ` A.U.Y.z._ 1.T.!.W.C.i.7     ",
"o / Z.R.x.' ( :.b.)._.~.V.^ %   ",
"  > { u.] ) L ! v.^.(.E.B.<.3   ",
"$ $ , x z l A R j.M.n.c.f.T 1   ",
"e 0 r a t q C p.N.m.k.a.~ Z *   ",
"y g N G ..m k d.l.h.2.w.#.p .   ",
"i K I O.7.=. .S E ,.H.L.y.B O   ",
"v ..+.q.D.-.*.I j J G.S.6.U -   ",
"N o.&.K.`.t.*.Y n d 8.e.%.V =   ",
"F ;.@.9.F.r.| K m : f P M 5 .   ",
"b 9.4.5.0.X.F F g $   ; $       ",
"b K ;.$.} H m h 0 $             ",
"s h v c s u 0 4 < @             "
};
