/* XPM */
static char *Draw[] = {
/* columns rows colors chars-per-pixel */
"16 16 53 1 ",
"  c black",
". c #000010400000",
"X c #000010400820",
"o c #186118610820",
"O c #082000001040",
"+ c #28A220811040",
"@ c #208118612081",
"# c #1040208130C2",
"$ c #30C230C228A2",
"% c #38E330C238E3",
"& c #410349241861",
"* c #6185492430C2",
"= c #69A661852081",
"- c #79E771C628A2",
"; c #0000000079E7",
": c #186138E371C6",
"> c #596530C26185",
", c #38E349244103",
"< c #514451445144",
"1 c #596559655144",
"2 c #618551445965",
"3 c #410341036185",
"4 c #618569A671C6",
"5 c #69A669A671C6",
"6 c #861761855965",
"7 c #DF7DDB6C38E3",
"8 c #9E798A284103",
"9 c #9E79BAEA5965",
"0 c #BEFBAAAA4103",
"q c #FFFFE38D5965",
"w c #CF3CC30B69A6",
"e c #EFBEC30B79E7",
"r c #00004103B6DA",
"t c #59654103B6DA",
"y c #208171C6DF7D",
"u c #861769A68E38",
"i c #8E386185BEFB",
"p c #A69979E7E79D",
"a c #38E3AAAAEFBE",
"s c #8E3892489E79",
"d c #96589A69BEFB",
"f c #BEFBB2CAAEBA",
"g c #C71B9A698E38",
"h c #BEFBCB2BBEFB",
"j c #BEFBBAEAC71B",
"k c #B6DAA289E79D",
"l c #B6DAA289EFBE",
"z c #CF3CA289E79D",
"x c #DF7DBAEAEFBE",
"c c #D75CDB6CD75C",
"v c #E79DE38DE79D",
"b c #F7DEF3CEF7DE",
"n c None",
/* pixels */
"nnnnnnnnnnnvfnb@",
"nnnnnnnnnn1nno5n",
"nnnnnnnnnn5,3j4n",
"nnnnnnnnn<5nhOnn",
"nn   nn4@vnnfn n",
"n;;;;f+nnnhc@#nn",
" rrh:r nnnn,n4<1",
"ryryryrns5jo <<n",
"yaa..&&+++5+$,nn",
" aa> *=*=g=$2nnn",
"nXu4t --1,-#nnnn",
"n%didi 888*6nnnn",
"nkllpzl $-89nnnn",
"%xxxzxxxO000nnnn",
"nnnn 7www7wwnnnn",
"nnnn eqeqqqennnn"
};
