/* XPM */
static char *vi_16x16[] = {
/* columns rows colors chars-per-pixel */
"16 16 47 1 ",
"  c None",
". c #000000",
"X c #010101",
"o c #020202",
"O c #030303",
"+ c #010404",
"@ c #090909",
"# c #0D0D0D",
"$ c #1D1D1D",
"% c #383838",
"& c #4A4A4A",
"* c #848484",
"= c #A9A9A9",
"- c #AEAEAE",
"; c #BFBDB0",
": c #C2BFB2",
"> c #C3C1B3",
", c #C4C2B4",
"< c #C5C3B6",
"1 c #C6C4B5",
"2 c #C7C4B6",
"3 c #C7C5B7",
"4 c #C8C6B8",
"5 c #C9C7BA",
"6 c #CAC7BB",
"7 c #D0CEC1",
"8 c #D1CFC2",
"9 c #D2D0C3",
"0 c #D5D2C5",
"q c #D6D4C6",
"w c #D8D6C8",
"e c #DAD8C9",
"r c #DCD9CA",
"t c #DDDACB",
"y c #DEDCCD",
"u c #E0DDCD",
"i c #E1DECF",
"p c #E2DFCF",
"a c #E3E0D0",
"s c #E4E1D1",
"d c #E5E2D2",
"f c #E6E3D4",
"g c #E7E4D5",
"h c #E8E5D6",
"j c #FDFDFD",
"k c #FEFEFE",
"l c #FFFFFF",
/* pixels */
" hhgfdssapiuyre ",
"hg6543321<,>:;wq",
"gX............X0",
"fX.........&..X0",
"dX........Ol..X9",
"sX............X8",
"aX.l%..@$..l..X7",
"aX..l..l...l..X7",
"pX..lo.=...l..X7",
"iX..#k*....l..X7",
"uX...lk....l..+7",
"yX...-X...jkjOX7",
"tX............X7",
"eX............X7",
"7777777777777777",
" 77777777777777l"
};
