/* XPM */
static char *Paint[] = {
/* columns rows colors chars-per-pixel */
"16 16 37 1 ",
"  c black",
". c #300000",
"X c #303000",
"o c #613000",
"O c #303061",
"+ c #610061",
"@ c #613061",
"# c #616561",
"$ c #9E3000",
"% c #CF3000",
"& c #FF3000",
"* c #CF0061",
"= c #FF0061",
"- c #CF3061",
"; c #9E6561",
": c #CF6561",
"> c yellow",
", c #9E9A61",
"< c #CF9A61",
"1 c #CFCF61",
"2 c #FFCF61",
"3 c #00309E",
"4 c #30309E",
"5 c #61309E",
"6 c #0030FF",
"7 c #3030FF",
"8 c #9E009E",
"9 c #9E309E",
"0 c #9E659E",
"q c #9E00FF",
"w c #CF30FF",
"e c #9E9A9E",
"r c #CF9A9E",
"t c #CFCF9E",
"y c #FFCF9E",
"u c #CFCFFF",
"i c None",
/* pixels */
"iiiiiiiiit<iiiii",
"iiiiittty<yeiiii",
"iiyy:%:y-=*<<iii",
"iyy2&%%2*==<1@ii",
"i1y2%%&2:*=r<< i",
"t>>22t<1t-@O85 i",
"2>>>1<<<X*+ww8@O",
"t2>2111  .o8q9, ",
"t2211<<  .<<<<< ",
"iy<1<XuOX:<366< ",
"ii<<@uOX<<<666< ",
"ii<oy.O<<<<437; ",
"iioyo<<;<<  $;;O",
"iXyoOii<<,##0,Oi",
"o2oOiiii<<;#;; i",
"yo#iiiiii,;;; ii"
};
