/* XPM */
static char *xpaint[] = {
/* columns rows colors chars-per-pixel */
"16 16 33 1 ",
"  c black",
". c #2C2C2C",
"X c #602C00",
"o c #505050",
"O c #626262",
"+ c #686868",
"@ c #C00000",
"# c #80542C",
"$ c #E06C00",
"% c #806E54",
"& c #E06E54",
"* c #00A000",
"= c #E0802C",
"- c #FF942C",
"; c #C0C000",
": c #80AE54",
"> c #FFAE54",
", c #FFA858",
"< c #E0CE54",
"1 c navy",
"2 c #800080",
"3 c #E060E0",
"4 c #A0A0A0",
"5 c #D0BEA4",
"6 c #FFC280",
"7 c #FFFF80",
"8 c #FFDCA8",
"9 c #E080E0",
"0 c #D0D0D0",
"q c #FFCED4",
"w c #FFEED4",
"e c white",
"r c None",
/* pixels */
"rrrrrrrrrrrrrrrr",
"rrrrrr%wwwww rrr",
"rrrr 8e@e11ewrrr",
"r r 87w&eeeee%rr",
"rr >e;;wwwe*e%rr",
"rr  w<wwwwe:e%rr",
"rr-8 wwwwwqweXrr",
"r 8ww www32ww.rr",
"r#8www 0ww9w=rrr",
"r>8w8ww eww, rrr",
"r>8 488w e, rrrr",
"r-858886= Orrrrr",
"r $===$X 4r+ rrr",
"rrooooorrrr  rrr",
"rrrrrrrrrrrrr rr",
"rrrrrrrrrrrrrrrr"
};
