/* XPM */
static char *xmms[] = {
/* columns rows colors chars-per-pixel */
"16 16 199 2 ",
"   c #040305",
".  c #070709",
"X  c #060A0B",
"o  c #080B0C",
"O  c #0A0B0C",
"+  c #0B0B0D",
"@  c #0C0F10",
"#  c #0F1011",
"$  c #0C1012",
"%  c #0D1214",
"&  c #0D1418",
"*  c #101215",
"=  c #121315",
"-  c #121415",
";  c #101417",
":  c #121417",
">  c #131517",
",  c #101519",
"<  c #141619",
"1  c #171819",
"2  c #14191C",
"3  c #16191C",
"4  c #17191C",
"5  c #171B1D",
"6  c #161A1E",
"7  c #1A1C1D",
"8  c #1B1C1F",
"9  c #171B20",
"0  c #151C22",
"q  c #181D20",
"w  c #181F23",
"e  c #1A1E22",
"r  c #1B2124",
"t  c #1B2327",
"y  c #1C2024",
"u  c #1F2124",
"i  c #1F2224",
"p  c #1E2226",
"a  c #1B242A",
"s  c #1F272A",
"d  c #1D272E",
"f  c #1E282E",
"g  c #1E2931",
"h  c #202326",
"j  c #202428",
"k  c #202528",
"l  c #26282B",
"z  c #26292B",
"x  c #21282C",
"c  c #22292E",
"v  c #242A2E",
"b  c #282C2F",
"n  c #232C32",
"m  c #272D31",
"M  c #222E36",
"N  c #243037",
"B  c #2A3034",
"V  c #2B3134",
"C  c #25333B",
"Z  c #27333B",
"A  c #27353E",
"S  c #2F3538",
"D  c #2C353A",
"F  c #2E353A",
"G  c #29363F",
"H  c #2B363F",
"J  c #2C373C",
"K  c #2C383F",
"L  c #313433",
"P  c #30373C",
"I  c #33383B",
"U  c #34383B",
"Y  c #2C3943",
"T  c #2D3C47",
"R  c #2F3D48",
"E  c #2E3E4A",
"W  c #2F3F4B",
"Q  c #303A40",
"!  c #363C40",
"~  c #373E43",
"^  c #303C44",
"/  c #373F44",
"(  c #3D3F41",
")  c #2F404C",
"_  c #3A4043",
"`  c #3D4143",
"'  c #3E4345",
"]  c #31414C",
"[  c #32414C",
"{  c #35444F",
"}  c #38444B",
"|  c #3F494D",
" . c #324550",
".. c #354753",
"X. c #364652",
"o. c #354953",
"O. c #374853",
"+. c #3A4953",
"@. c #3B4A53",
"#. c #3F4B53",
"$. c #384B57",
"%. c #3F4C55",
"&. c #3E4D56",
"*. c #3A4D5A",
"=. c #3C505E",
"-. c #3D5362",
";. c #3F5463",
":. c #404344",
">. c #43484B",
",. c #44494B",
"<. c #41494D",
"1. c #434B51",
"2. c #414A52",
"3. c #494D50",
"4. c #4B4F53",
"5. c #4E5050",
"6. c #4C5053",
"7. c #4D5153",
"8. c #4A5155",
"9. c #495257",
"0. c #415159",
"q. c #445159",
"w. c #44525B",
"e. c #46525A",
"r. c #40525C",
"t. c #42525C",
"y. c #4E5458",
"u. c #4E555A",
"i. c #49565D",
"p. c #4B575F",
"a. c #505152",
"s. c #585B5E",
"d. c #5D5D5E",
"f. c #465762",
"g. c #465763",
"h. c #4B5760",
"j. c #425865",
"k. c #4B5963",
"l. c #4E5B63",
"z. c #465B68",
"x. c #445B6B",
"c. c #4A5E6B",
"v. c #4F5E68",
"b. c #4E5E69",
"n. c #4B5F6C",
"m. c #485F6F",
"M. c #555D63",
"N. c #5F5F61",
"B. c #725D6D",
"V. c #4E606C",
"C. c #52606A",
"Z. c #52636E",
"A. c #4B6373",
"S. c #4F6673",
"D. c #4C6576",
"F. c #4C6678",
"G. c #4D687B",
"H. c #556671",
"J. c #576670",
"K. c #566873",
"L. c #576A77",
"P. c #5A6871",
"I. c #536A78",
"U. c #526B7B",
"Y. c #576F7F",
"T. c #5C707D",
"R. c #606264",
"E. c #636465",
"W. c #676668",
"Q. c #666768",
"!. c #686A6B",
"~. c #696A6C",
"^. c #6B6B78",
"/. c #6F7173",
"(. c #61717D",
"). c #7A757F",
"_. c #7D757C",
"`. c #777878",
"'. c #7B7C7C",
"]. c #8F2C34",
"[. c #942F37",
"{. c #923139",
"}. c #546E81",
"|. c #547083",
" X c #547284",
".X c #567486",
"XX c #5B7281",
"oX c #587182",
"OX c #5E7787",
"+X c #587588",
"@X c #59778A",
"#X c #617480",
"$X c #637784",
"%X c #7C7780",
"&X c #807B87",
"*X c #7A8794",
"=X c #7B8992",
"-X c #818182",
";X c #969696",
/* pixels */
"B.{.[.].^.$XG.A.m.x.j.-.*.o...] ",
"*X&X%X).=XoXD.m.x.j.-.*.+.X.] E ",
"@X.X XU.G.F.A.x.j.;.*.$.O.[ W Y ",
"+X|.}.G.D.A.x.j.;.=.$.X.{ E T H ",
"#XS.XXH.I.b.K.z.v.f.w.0.w.{ &./ ",
"i.  J.Z.K.: 6 P.> h k.7 . u.9 * ",
"OX< # T.c.e.  p.> l r.<.  ' y < ",
"Y.(.  2.V.C.. U 4 j %.1.: p u = ",
"t.L.F + h.q.| l.e 8 #.~ ! ` 1 # ",
"8.g.n.M.9.@.,.D Q } J _ m x V B ",
">.C ^ 3.c k _.6.;Xb z `.W./.I i ",
"v :.'.N.s.5 E.~.R.( S a.L -XQ.d.",
"4.s w !.7.d K 0 5.q t w 3 $ @ - ",
" .) P a G Y C n f a r 0 2 ; % O ",
"O.R y.Z A C M g a t 0 2 , % O X ",
"[ ] G C C N g a r w 2 & % O o   "
};
