/* XPM */
static char *winprops[] = {
/* columns rows colors chars-per-pixel */
"16 16 68 1 ",
"  c black",
". c #060606",
"X c gray5",
"o c #1D1D1D",
"O c #272726",
"+ c #30302F",
"@ c #323231",
"# c #393939",
"$ c #004343",
"% c #004546",
"& c #004B4C",
"* c #004F50",
"= c #005052",
"- c #005658",
"; c #005758",
": c #005C5E",
"> c #005D5E",
", c #006264",
"< c #006A6C",
"1 c #007073",
"2 c #59595A",
"3 c #5E5E5E",
"4 c #636243",
"5 c #606060",
"6 c #606061",
"7 c #646464",
"8 c #6E6E6F",
"9 c gray50",
"0 c #008283",
"q c #008D8F",
"w c #00999B",
"e c #00A3A7",
"r c #00AFB3",
"t c #00B7BC",
"y c #818182",
"u c #919193",
"i c #9C9C9C",
"p c #A0A0A2",
"a c #A6A6A5",
"s c #ADADAC",
"d c #B4B4B4",
"f c #B4B4B6",
"g c #B5B5B8",
"h c #B7B7B8",
"j c #B8B8BA",
"k c #C5C385",
"l c #FEF89F",
"z c #FEF9A3",
"x c #FEFAA7",
"c c #FEFAAA",
"v c #FEFCB4",
"b c #FEFDB7",
"n c #FEFDBA",
"m c #C0C0C0",
"M c #C1C1C2",
"N c #C3C3C2",
"B c #C5C4C3",
"V c #C4C4C4",
"C c #C4C4C6",
"Z c #C6C6C6",
"A c #C6C6C7",
"S c gray78",
"D c #CACACA",
"F c #DADAD9",
"G c #DCDBDA",
"H c #E3E3E4",
"J c #E9E9E9",
"K c #EBEBEB",
/* pixels */
"#iii 1<,>;*Xiii@",
"isasOtrewq09sas+",
".OOO :-=&%$ OOO.",
"5mmmmmmmmmmmmmm3",
"5nnnnnvvvvvcccs9",
"6nnnnvv  p 7kcG9",
"6nnnbvvoFCAykcG9",
"6nnnvvvJV Nd xG9",
"3n  p 7 ZHg8kxB9",
"5boFSZy3ujuy4zs9",
"5bKV NM k k4kzB9",
"5v DHf8kczzzzzG9",
"5v2uhuy4xxzzllG9",
"5vkk k4kxzzzllG9",
"3vvccccxzzzllls9",
" 99999999999999 "
};
