/* XPM */
static char *manual[] = {
/* columns rows colors chars-per-pixel */
"16 16 15 1 ",
"  c black",
". c #400040",
"X c gray25",
"o c #804040",
"O c #808000",
"+ c #C0C000",
"@ c yellow",
"# c #C08040",
"$ c #800080",
"% c #808080",
"& c #A0A0A0",
"* c #C0C0C0",
"= c #E0E0E0",
"- c white",
"; c None",
/* pixels */
";;;;;;;$$;;;;;;;",
";;;;;;$$$$.;;;;;",
";;;;;$$$$$$$.;;;",
";;;;$$$$@@+$$$.;",
";;;$$$$@oo@#$$$ ",
";;$$$$$$o+@$$$ ;",
";$$$$$$@@+$$$ *;",
"$.$$$$oO$$$$ **;",
".&X.$$@o$$$.*** ",
".=-&X.$$$$ ***$;",
"$&---&X.$ ***$;;",
"; $%---&X***$;;;",
";;; $%---**$;;;;",
";;;;; $%-*$;;;;;",
";;;;;;; $$;;;;;;",
";;;;;;;;;;;;;;;;"
};
