/* XPM */
static char *lnxzip[] = {
/* columns rows colors chars-per-pixel */
"16 16 141 2 ",
"   c #072E2E",
".  c #0B2B2B",
"X  c #1B2A2A",
"o  c #003030",
"O  c #003035",
"+  c #123232",
"@  c gray19",
"#  c #313636",
"$  c gray21",
"%  c gray22",
"&  c #042E41",
"*  c #1D2B47",
"=  c #003040",
"-  c #053C41",
";  c #003058",
":  c #05315D",
">  c #0F3659",
",  c #232743",
"<  c #2B3640",
"1  c #233843",
"2  c #2B3A45",
"3  c #2D3C5D",
"4  c #003060",
"5  c #15316F",
"6  c #462A46",
"7  c #552075",
"8  c #6D287D",
"9  c #79257A",
"0  c #15415D",
"q  c #37405C",
"w  c #3E6C4E",
"e  c #005363",
"r  c #105363",
"t  c #38456D",
"y  c #205060",
"u  c #385B63",
"i  c #206262",
"p  c #306060",
"a  c #3C6267",
"s  c #306073",
"d  c #356373",
"f  c #306078",
"g  c #237575",
"h  c #675151",
"j  c #406363",
"k  c #4F6F6F",
"l  c #516861",
"z  c #487C7D",
"x  c #567572",
"c  c #69796D",
"v  c #717564",
"b  c #923D78",
"n  c #6E8379",
"m  c #73817A",
"M  c #7B8B7E",
"N  c #7A1588",
"B  c #553098",
"V  c #7C25A3",
"C  c #703BAE",
"Z  c #3D5D94",
"A  c #016295",
"S  c #017595",
"D  c #047494",
"F  c #107595",
"G  c #306098",
"H  c #207595",
"J  c #257B9B",
"K  c #407B95",
"L  c #7540BA",
"P  c #842F84",
"I  c #893988",
"U  c #9517A5",
"Y  c #AA10BA",
"T  c #B814B8",
"R  c #2995B5",
"E  c #3195B5",
"W  c #458BB3",
"Q  c #4B8BB9",
"!  c #4195B5",
"~  c #4695B5",
"^  c #5395B5",
"/  c #5597BF",
"(  c #6098A8",
")  c #7893AC",
"_  c #6595B5",
"`  c #0085C8",
"'  c #0092C3",
"]  c #0098C8",
"[  c #2098C8",
"{  c #10A8D8",
"}  c #6098C8",
"|  c #40A8C8",
" . c #77A6C1",
".. c #35C8D8",
"X. c #69C8DC",
"o. c #75C8D8",
"O. c #60C8E8",
"+. c #74C8F7",
"@. c #919286",
"#. c #9F9F8C",
"$. c #829291",
"%. c #94A084",
"&. c #84A09B",
"*. c #84A59D",
"=. c #95A69C",
"-. c #9DBD95",
";. c #A3A38E",
":. c #A3A394",
">. c #A8A890",
",. c #A8A894",
"<. c #B0B09E",
"1. c #849AAB",
"2. c #8EAEB3",
"3. c #89B5B5",
"4. c #A6A6A1",
"5. c #AFAFA5",
"6. c #B1B1A1",
"7. c #B4B4A6",
"8. c #B8B8AC",
"9. c #A5B5B5",
"0. c #BABAB2",
"q. c #BDBDB8",
"w. c #BBC5CA",
"e. c #95C9E2",
"r. c #ABD3E5",
"t. c #A0C8F0",
"y. c #A8D4F8",
"u. c #B3D8F3",
"i. c #C2C7C2",
"p. c #CDCDC7",
"a. c #CFD3CF",
"s. c #C2D7D7",
"d. c #D3D3D0",
"f. c #D9D9D8",
"g. c #DFDFDF",
"h. c #D6DFE7",
"j. c #D8F3F8",
"k. c #E2E2E2",
"l. c #EEEEEE",
"z. c #F1F1F1",
"x. c None",
/* pixels */
"x.x.Y A F E ! _ ~ K x.x.x.x.x.x.",
"x.x.V Z x c l w U e.s.3.R S x.x.",
"x.x./ f.p.=.:.,.#.I h.j.X.] x.x.",
"x.Q z.z.z.l.d.a.5.@.T + X 8 x.x.",
"x. .w.g.l.l.k.4.i.v h # @ x.x.x.",
"L } } *.-.<.6.7.m 2 b $ @ x.x.x.",
"L W ( &.8.>.;.n y % P # @ x.x.x.",
"C G G 1.q.>.M p 1 % 9 # @ x.x.x.",
"x.G G ) 0.%.j u % % 6 # @ x.x.x.",
"x.t s f $.a 0 > < $ x.# @ x.x.x.",
"x.x.& 5 : 4 4 4 ; N 9.2.J D x.x.",
"x.x.,   = = = O . +.y.r.| ` x.x.",
"x.x.B ' [ ..O.t.o.H x.i - x.x.x.",
"x.x.x.x.x.x.x.* x.x.Y z g x.x.x.",
"x.x.x.x.x.x.x.^ * 7 9.u.{ e o k ",
"x.x.x.x.x.x.x.3 x.x.q d r 7 x.7 "
};
