/* XPM */
static char *kmidi[] = {
/* columns rows colors chars-per-pixel */
"16 16 9 1 ",
"  c black",
". c #6A4502",
"X c #6F4F04",
"o c #D99406",
"O c #DD9E07",
"+ c #E9BC09",
"@ c #808080",
"# c white",
"$ c None",
/* pixels */
"$$$$$$$$$$$$$$$$",
"$$$$$$$$$$$  $$$",
"$$$$$$$$   @ $$$",
"$$$$$   @#@ $$$$",
"$  @@ @@ @@@ @$$",
"$  @@@  @@@@ @$$",
"$ @###@#####@#$$",
"$  @@@ @@@ X @$$",
"$  @@@ @@@X+X@$$",
"$ @##+O@## . #$$",
"$  @ Oo @@@@@@$$",
"$  @@  @@@@@@@$$",
"$$$$$$$$$$$$$$$$",
"$$$$$$$ $$$$$$$$",
"$$$$$$$$$$$$$$$$",
"$$$$$$$$$$$$$$$$"
};
