/* XPM */
static char *reddit_16x16[] = {
/* columns rows colors chars-per-pixel */
"16 16 76 1 ",
"  c #000000",
". c #010000",
"X c #000101",
"o c #010101",
"O c #010105",
"+ c #282828",
"@ c #1E394D",
"# c #FC0000",
"$ c #FF0100",
"% c #FF0101",
"& c #FD0003",
"* c #386181",
"= c #5598C7",
"- c #579FCE",
"; c #65B3EC",
": c #68B9F7",
"> c #6DC1F5",
", c #6BC1FE",
"< c #6BC0FF",
"1 c #6AC1FF",
"2 c #6BC1FF",
"3 c #69C2FF",
"4 c #6BC2FF",
"5 c #6CC1FD",
"6 c #6CC2FD",
"7 c #6CC0FF",
"8 c #6DC0FF",
"9 c #6CC1FF",
"0 c #6CC2FE",
"q c #6CC2FF",
"w c #6DC3FF",
"e c #6FC3FE",
"r c #6EC2FF",
"t c #6FC2FF",
"y c #6FC6FF",
"u c #6EC9FE",
"i c #6FCAFE",
"p c #6ECBFF",
"a c #76C5FE",
"s c #76C6FE",
"d c #77C6FF",
"f c #7FC9FF",
"g c #7FCAFE",
"h c #7ECAFF",
"j c #BABABA",
"k c #86CCFF",
"l c #87CCFF",
"z c #88CDFF",
"x c #8ECFFF",
"c c #8FD0FF",
"v c #90D0FE",
"b c #96D3FF",
"n c #97D3FF",
"m c #97D4FF",
"M c #9FD6FD",
"N c #9ED7FE",
"B c #9FD7FE",
"V c #A7DAFF",
"C c #A8DBFF",
"Z c #AFDDFF",
"A c #B0DDFF",
"S c #B4E1FF",
"D c #B7E0FF",
"F c #D4D4D4",
"G c #E0E0E0",
"H c #EDEDED",
"J c gray96",
"K c #F6F6F6",
"L c #FAFAFA",
"P c #FCFCFC",
"I c #FFFFFD",
"U c #FEFEFE",
"Y c #FEFFFE",
"T c #FFFFFE",
"R c #FEFFFF",
"E c #FFFFFF",
/* pixels */
"EEEEEEEEEEEEEEEE",
"E3<SDZCMbckh,<8E",
"E<AVBmxkfst<<<<I",
"ENnvlgaruo=o 7<T",
"Ezgdt<<4p,>EEw<R",
"Ee,<<<<i6<9 .1<R",
"E<.OyoKEEj ,X*<Y",
"E@E EEEEEEEUFU2R",
"E:UEE#EEE&EELH7I",
"E<oEE%UEE$IEE;<T",
"E<.EEEEEEEEEEq<T",
"E<qPEJ G oEU <<I",
"E<<7+EEEEEE 0<<Y",
"E<<<q-o  o4<<<<E",
"E5<<<<<<<<<<<<6E",
"EETEEUEEUEUEEEEE"
};
