/* XPM */
static char *news[] = {
/* columns rows colors chars-per-pixel */
"16 16 10 1 ",
"  c black",
". c #410441044104",
"X c #618661866186",
"o c #800080008000",
"O c #820782078207",
"+ c #A289A289A289",
"@ c #C103C103C103",
"# c #C30BC30BC30B",
"$ c #E185E185E185",
"% c white",
/* pixels */
"#$$$$$$$$$$$$$$$",
"$%%%%o%%%%oo%$$o",
"$%  oo%  o o% #o",
"$%o oo% %oo %# o",
"$@@@@@@@@@@@@@@.",
"$o%%o%%@@@@@@@@o",
"$    o@  %##  .o",
"$o%%%o@  X#X  .o",
"$o%ooo@ .#+#. .o",
"$%oo%o@  OXO  .o",
"$oo%%o@.+OOO+.Oo",
"$ooooo%%oo%o%oo ",
"$ooo%o%oo%oo%o% ",
"$o%ooo%@@%%%%%%o",
"$o%%oo%%@%@%%@@o",
"Xoooo ooooooooo "
};
