/* XPM */
static char *youtube_16x16[] = {
/* columns rows colors chars-per-pixel */
"16 16 7 1 ",
"  c None",
". c #AE2A1F",
"X c #B02A20",
"o c #BA2E23",
"O c #C63225",
"+ c #CF3427",
"@ c white",
/* pixels */
"                ",
"                ",
"      ++++      ",
"    ++++++++    ",
"   ++++++++++   ",
"   ++@@@@@@++   ",
"  ++@@@@@@@@++  ",
"  ++@@@.@@@@.+  ",
"  ++@@@.@@@@Xo  ",
"  ++@@@@@@@@oO  ",
"   ++@@@@@@oO   ",
"   +++...XoO+   ",
"    +++.XoO+    ",
"      ++oO      ",
"                ",
"                "
};
