/* XPM */
static char *sounds2[] = {
/* columns rows colors chars-per-pixel */
"16 16 29 1 ",
"  c black",
". c #070707",
"X c gray10",
"o c #252525",
"O c gray17",
"+ c gray22",
"@ c #3E3E3E",
"# c gray29",
"$ c #505050",
"% c #565656",
"& c #626262",
"* c #686868",
"= c gray43",
"- c gray48",
"; c #474780",
": c #6A6A80",
"> c #808080",
", c #868686",
"< c #929292",
"1 c #8F8FA5",
"2 c #A5A5A5",
"3 c #B1B1FF",
"4 c gray83",
"5 c #D4D4FF",
"6 c #E7E7E7",
"7 c #EAEAFF",
"8 c gray95",
"9 c white",
"0 c None",
/* pixels */
"0000000000000000",
"0000000000000000",
"0000000000000000",
"0000000000000000",
"005555 000000000",
"0555555 00000000",
":777777777=67750",
":99999999#@99930",
":9999999#9+&9930",
":999999$:95*#930",
":999999 999 4530",
":9 Oo52:999:<130",
"::$>8#.:959 -130",
":5 %,*X:95   930",
":95 Oo.999999930",
" :::::::::::::;0"
};
