/* XPM */
static char *mini_xcdroast[] = {
/* columns rows colors chars-per-pixel */
"16 16 44 1 ",
"  c black",
". c #040000",
"X c #000406",
"o c #522D12",
"O c #4E3549",
"+ c #553A4F",
"@ c #6A4B63",
"# c #785871",
"$ c #FF2100",
"% c #FF2C00",
"& c #FF3000",
"* c #875021",
"= c #FF5103",
"- c #FF5707",
"; c #FF5A0A",
": c #E55F13",
"> c #FF7C1C",
", c #B3823A",
"< c #FF8F25",
"1 c #FF9D32",
"2 c #FFB139",
"3 c #FFB83D",
"4 c #B49046",
"5 c #FFD952",
"6 c #FFF867",
"7 c #FFFF6D",
"8 c #FFFF7C",
"9 c #6770A0",
"0 c #007BFF",
"q c #8E6E87",
"w c #91718A",
"e c #977790",
"r c #9A7B93",
"t c #9E7F97",
"y c #77FDFF",
"u c #AC8EA5",
"i c #BBA2B6",
"p c #BDA4B8",
"a c #D2BECD",
"s c #ECE4EB",
"d c #F0E9EF",
"f c #F5EFF4",
"g c #FEFFFE",
"h c None",
/* pixels */
"hhhhhhhhhhhhhhhh",
"hhh4hh7hhhhhhhhh",
"hhh 6h ,hhhhhhhh",
"hhh* 5o 1hhhhhhh",
"hhh: 32 >qhhhhhh",
"hhh  < ;=quhhhhh",
"hhh  -X &qsshhhh",
"hhh 9.%$ qssshhh",
"hhh qq f gssshhh",
"hhh s rp O  sdhh",
"hhh iss  a    hh",
"hhhh+ss      qhh",
"hhhh es     00hh",
"hhhhh #qws8 yhhh",
"hhhhhh @ts88 hhh",
"hhhhhhhh   hhhhh"
};
