/* XPM */
static char *mathematica[] = {
/* columns rows colors chars-per-pixel */
"16 16 25 1 ",
"  c black",
". c #200000",
"X c #002000",
"o c #2C2C2C",
"O c #400000",
"+ c #004000",
"@ c #000040",
"# c gray25",
"$ c #6C6C6C",
"% c #804000",
"& c #80542C",
"* c #C05800",
"= c #FF942C",
"- c #FFA858",
"; c #000080",
": c #0000C0",
"> c blue",
", c #800080",
"< c #A00080",
"1 c #AC2CAC",
"2 c #C00080",
"3 c #C000C0",
"4 c magenta",
"5 c #808080",
"6 c None",
/* pixels */
"666666 666666666",
"66 6663266 @6666",
"66o5$ 44O>> 6666",
"666 53444@:-6666",
"666; 4444<&-6666",
"666  @@ && .,O66",
"6O4 5@;&--  444 ",
" 4155$;&-*>>.4 6",
"6 o555.&=>>:  5 ",
"6+##$5$ >: X 5o6",
"66++ @; o#$5# 66",
"666@>>>= 555 666",
"666 >>--@ 55O666",
"6666>-%6 @ #4666",
"6666o6666 6 6666",
"6666666666666666"
};
