/* XPM */
static char *sdraw_16x16[] = {
/* columns rows colors chars-per-pixel */
"16 16 113 2 ",
"   c #041727",
".  c #03192E",
"X  c #292A2F",
"o  c #5D2400",
"O  c #652900",
"+  c #6C2D00",
"@  c #713000",
"#  c #613B13",
"$  c #645F19",
"%  c #636023",
"&  c #62663D",
"*  c #746F33",
"=  c #162B40",
"-  c #142F4A",
";  c #1F3443",
":  c #14304C",
">  c #18334E",
",  c #173450",
"<  c #2C3947",
"1  c #203F5C",
"2  c #284967",
"3  c #2B4C6A",
"4  c #335675",
"5  c #395D77",
"6  c #365A7A",
"7  c #72754B",
"8  c #7E7E51",
"9  c #8E4400",
"0  c #BB8118",
"q  c #D99C1B",
"w  c #D99D1E",
"e  c #C08F25",
"r  c #CE8A2A",
"t  c #D09525",
"y  c #D4AB31",
"u  c #E6AA20",
"i  c #E0A827",
"p  c #EAB122",
"a  c #EEB421",
"s  c #E9B126",
"d  c #F4BB24",
"f  c #E9B437",
"g  c #FBC225",
"h  c #F9C326",
"j  c #FDC526",
"k  c #FEC626",
"l  c #FFC726",
"z  c #FFC727",
"x  c #FCC728",
"c  c #FDC828",
"v  c #FEC929",
"b  c #FFCA29",
"n  c #FDC931",
"m  c #FFCA31",
"M  c #FCCF31",
"N  c #FFD433",
"B  c #FBDC3E",
"V  c #FEDF3F",
"C  c #848049",
"Z  c #B5A046",
"A  c #BDAD6A",
"S  c #D8A647",
"D  c #D3AC40",
"F  c #D8AD4B",
"G  c #D9A94E",
"H  c #DAB04F",
"J  c #D1BE71",
"K  c #F1C541",
"L  c #FFCF43",
"P  c #EDC755",
"I  c #F6CE58",
"U  c #FBD259",
"Y  c #FFD45A",
"T  c #FFE140",
"R  c #FEE145",
"E  c #FFF554",
"W  c #DDC777",
"Q  c #EFCE63",
"!  c #F6D265",
"~  c #FCD767",
"^  c #FFD868",
"/  c #FFD968",
"(  c #EECF70",
")  c #EDC97A",
"_  c #FCDA74",
"`  c #FDDA75",
"'  c #FFDC76",
"]  c #FFFF65",
"[  c #406687",
"{  c #436A85",
"}  c #456D87",
"|  c #CFC183",
" . c #D4C482",
".. c #FFDF84",
"X. c #FFE69D",
"o. c #FFE79E",
"O. c #F9E89D",
"+. c #FDE9A0",
"@. c #FFECA3",
"#. c #FFF1A8",
"$. c #B8C4CF",
"%. c #D0DCDE",
"&. c #DDE6EA",
"*. c #CDE4F7",
"=. c #D3E7F8",
"-. c #DFEEFA",
";. c #F0F7FC",
":. c #F1F8F9",
">. c #F3F8FD",
",. c #F4F9FD",
"<. c #FDFFFF",
"1. c white",
"2. c None",
/* pixels */
"2.2.4 4 # / ^ ! Q ~ / / / / r 2.",
"2.2.{ 5 | W >.&.7 A ........2.2.",
"2.; $.= & *.C _ ( J  .` ' ' 2.2.",
"2.. 2 2 Y I P <.;.* Z U Y Y 2.2.",
"2.2.> 1.,.1.=.% K L L L L L 2.2.",
"2.1.-.< $ 8 %.n m m m m m m 2.2.",
":.  - : k z h g u d z z z z 9 2.",
"2.2.: : X l w X.X.X.G l l l f 2.",
"2.2.: : : l S t j q X.j l l l 2.",
"2.2.: : : l l l a X.X.l l l l 2.",
"2.2., , , s l l X.) k l l l l @ ",
"2.2.1 1 1 0 b x o.p b b c i v + ",
"2.2.3 3 3 e N N +.@.F H @.@.M O ",
"2.2.6 6 6 R T T V y O.#.D B T o ",
"2.2.[ [ [ E E E E E E E E E E 2.",
"2.2.} } } ] ] ] ] ] ] ] ] ] ] 2."
};
