/* XPM */
static char *mini_run1[] = {
/* columns rows colors chars-per-pixel */
"18 18 50 1 ",
"  c black",
". c #150000",
"X c #353535",
"o c #35353C",
"O c #393939",
"+ c #470000",
"@ c #474747",
"# c #555555",
"$ c #5C5C5C",
"% c #6B6B6B",
"& c #757575",
"* c #797979",
"= c #7C7C7C",
"- c #800000",
"; c #EA0000",
": c #D54040",
"> c #C76B6B",
", c #00AA00",
"< c #63B163",
"1 c #71B871",
"2 c #353592",
"3 c #6060A0",
"4 c blue",
"5 c #808080",
"6 c #8E8787",
"7 c #8A8A8A",
"8 c #929292",
"9 c #959595",
"0 c #9C9C9C",
"q c #80B19C",
"w c #A4A4A4",
"e c #AAAAAA",
"r c #ABABAB",
"t c #A0A0D9",
"y c #8E8EFF",
"u c #C78EC7",
"i c #C0C0C0",
"p c #C3C3C3",
"a c #CECECE",
"s c #D4D4D4",
"d c #D5D5D5",
"f c #D9D9D9",
"g c #DCDCDC",
"h c #E3C6E3",
"j c #E0E0E0",
"k c #EEEEEE",
"l c #E3F1E3",
"z c #F8F1F1",
"x c white",
"c c None",
/* pixels */
"cccccccccccccccccc",
"cccccccccccccccccc",
"cccccccccccccccccc",
"ccccc5555555555 cc",
"ccccc833333jjj9 cc",
"ccccc822222oXX% cc",
"ccccc6zzxxxxxxk cc",
"cc->:;;.xyxx1xk cc",
"ccc*=&@sx4tx,qk cc",
"cccpjr*shfux<lk cc",
"ccc57wOxx9ex9dk cc",
"cccci$xxxxxxxxk cc",
"ccc0ai#XXXXXXXX cc",
"cccg 9*ccccccccccc",
"ccc++++ccccccccccc",
"cc      cccccccccc",
"cccccccccccccccccc",
"cccccccccccccccccc"
};
