/* XPM */
static char *xplate[] = {
/* columns rows colors chars-per-pixel */
"16 16 25 1 ",
"  c #111111",
". c #1A1A1A",
"X c gray20",
"o c #3C3C3C",
"O c #663300",
"+ c #7F3300",
"@ c #000077",
"# c #4D4D4D",
"$ c gray40",
"% c #983200",
"& c #FE0000",
"* c #994C1A",
"= c #CD6600",
"- c #FF4D33",
"; c #B27F4D",
": c #E6994D",
"> c #808080",
", c gray60",
"< c #B3B3B3",
"1 c #FFB299",
"2 c #E6CC9A",
"3 c #FFCC9A",
"4 c gray80",
"5 c #FFCBCB",
"6 c None",
/* pixels */
"6666666666666666",
"666&&&&66665&566",
"6666&&&1665&5666",
"66666&&&55&56666",
"666665&&5&&66666",
"666665&5&&&-6666",
"66665&566&&&5666",
"6665&56665&&&566",
"6666666666666666",
"66$<4<,>$#oX.. 6",
"6666;2;66666*+66",
"66666633:66=3666",
"6666666333:3O666",
"6666666%33336666",
"66666666%33O6666",
"666666666@@@@666"
};
