/* XPM */
static char *audacity[] = {
/* columns rows colors chars-per-pixel */
"16 16 62 1 ",
"  c #00006C",
". c #000071",
"X c #000073",
"o c #FF0101",
"O c #FF0701",
"+ c #FF0801",
"@ c #FE0A01",
"# c #FF0A01",
"$ c #FE1402",
"% c #FF1402",
"& c #FF1802",
"* c #FE1A02",
"= c #FF1A02",
"- c #FF1D01",
"; c #FF2A02",
": c #FF5A01",
"> c #FB6C08",
", c #FF7901",
"< c #FF8002",
"1 c #FE8703",
"2 c #FB8907",
"3 c #F99E0A",
"4 c #FAA90A",
"5 c #F9B00B",
"6 c #F8B20C",
"7 c #F7BA0E",
"8 c #F7C00F",
"9 c #F6C012",
"0 c #F3CE13",
"q c #F3D313",
"w c #F4D914",
"e c #F3DC14",
"r c #F3DF15",
"t c #F3E016",
"y c #F3E316",
"u c #F4E016",
"i c #F2E416",
"p c #F3E416",
"a c #F2E516",
"s c #F3E516",
"d c #F2E417",
"f c #F3E417",
"g c #F2E517",
"h c #00009F",
"j c #0000A1",
"k c #0000CB",
"l c #0000CC",
"z c #0000CE",
"x c #0000CF",
"c c #0000D0",
"v c #0000D5",
"b c #0000DD",
"n c #0000DE",
"m c #0000DF",
"M c #0000E0",
"N c #0000E1",
"B c #0000E7",
"V c #0000EB",
"C c #0000EC",
"Z c #0000F9",
"A c blue",
"S c None",
/* pixels */
"SSSSSSSSSSSSSSSS",
"SSSSXzAAAAz.SSSS",
"SSSlASSSSSSAlSSS",
"SSjVSSSSSSSSVhSS",
"SSnSSSSSSSSSSNSS",
"SSmSSSSSSSSSSmSS",
"SkclSS1fsaSSlckS",
" zvlS7,wuddSlvx ",
"lBvli6:530pelvBl",
"bVvl<;-&o%=#lvVN",
"ACvlo$>+O*;@lvCA",
"AZvl24g9qpdtlvZA",
"SAMlS8srfdySlMAS",
"SSAlSSSSSSSSlASS",
"SSSSSSSSSSSSSSSS",
"SSSSSSSSSSSSSSSS"
};
