/* XPM */
static char *kwin[] = {
/* columns rows colors chars-per-pixel */
"16 16 42 1 ",
"  c black",
". c #050505",
"X c #090909",
"o c gray4",
"O c #272727",
"+ c #2C2C2C",
"@ c #313131",
"# c #004646",
"$ c #00494A",
"% c #004D4E",
"& c #004F51",
"* c #005355",
"= c #00575A",
"- c #27696A",
"; c #424242",
": c #626262",
"> c #696969",
", c #7A7979",
"< c #7D7D7C",
"1 c gray50",
"2 c #008B8C",
"3 c #009396",
"4 c #00999C",
"5 c #00A0A3",
"6 c #00A6AA",
"7 c #7FD6D9",
"8 c #909090",
"9 c #939392",
"0 c #989897",
"q c #A6A6A6",
"w c #ABAAAA",
"e c #B8B8B7",
"r c gray74",
"t c #C1C1C1",
"y c #C4C3C3",
"u c #C8C7C7",
"i c #D2D2D2",
"p c #DCDADA",
"a c #E1E1E1",
"s c #F8F8F8",
"d c #FEFEFE",
"f c None",
/* pixels */
"ffffffffffffffff",
" 1O#$%&*=1O1 fff",
"1r-234567rqrOfff",
"O<qqqqqqqqqqOfff",
";ydddddddddd:f f",
";pddddddsddd:f f",
";pddddds8w,,+off",
";pddddddti0,+ ff",
";pddddddddd,+X f",
";yddddddddu,@f f",
";eaaaaaaa9>>+ ff",
"fffffffff fff ff",
"fffffffffffff ff",
"ffffffff.fff fff",
"fffffffffffff ff",
"ffffffffffffffff"
};
