/* XPM */
static char *ksysguard[] = {
/* columns rows colors chars-per-pixel */
"16 16 153 2 ",
"   c #000001",
".  c #050507",
"X  c #2E3234",
"o  c #4D4B4C",
"O  c #4E4C4C",
"+  c #5B5A5A",
"@  c #5D5B5E",
"#  c #5F5E5E",
"$  c #535D63",
"%  c #636262",
"&  c #636567",
"*  c #676667",
"=  c #687074",
"-  c #6A7274",
";  c #767C78",
":  c #7A7B7C",
">  c #CF6068",
",  c #D4666C",
"<  c #D66E70",
"1  c #CE7277",
"2  c #CE747B",
"3  c #7A8CB4",
"4  c #7E84BC",
"5  c #898A88",
"6  c #8C8888",
"7  c #8D8F8B",
"8  c #8E888C",
"9  c #908F8C",
"0  c #808E90",
"q  c #829294",
"w  c #8A929C",
"e  c #979797",
"r  c #9F9F9C",
"t  c #9E9D9F",
"y  c #AC829C",
"u  c #A09F9F",
"i  c #8C94B4",
"p  c #8EA0A4",
"a  c #9CA2A0",
"s  c #A2A1A0",
"d  c #A4A4A3",
"f  c #A8A5A3",
"g  c #AFADAD",
"h  c #AEAFAC",
"j  c #AEACAF",
"k  c #A3B7BA",
"l  c #B2B0B1",
"z  c #B6B1B4",
"x  c #B5B3B4",
"c  c #B7B4B4",
"v  c #B7B5B4",
"b  c #B4B7B6",
"n  c #B8B8B6",
"m  c #BAB6BB",
"M  c #B6BBBC",
"N  c #BBB9B8",
"B  c #BEBCBB",
"V  c #D5878C",
"C  c #D88488",
"Z  c #D6898F",
"A  c #DF9CA0",
"S  c #DF9EA4",
"D  c #C0BDBF",
"F  c #C3BEBE",
"G  c #E2A7A8",
"H  c #E8B3B4",
"J  c #E8BBBC",
"K  c #EDBABC",
"L  c #989EC0",
"P  c #9EB2C4",
"I  c #AEBDC4",
"U  c #ACBAD4",
"Y  c #CDBDCB",
"T  c #A8C0CC",
"R  c #B2C0C4",
"E  c #BCC2C2",
"W  c #B9C5CC",
"Q  c #A1C0D0",
"!  c #ACC4D4",
"~  c #B4C6DC",
"^  c #BDD9DF",
"/  c #B3D5E0",
"(  c #B7D6E4",
")  c #B9D8E4",
"_  c #C4C1C1",
"`  c #C4C7C7",
"'  c #C8C5C5",
"]  c #CEC7C7",
"[  c #C9CDC8",
"{  c #CDCCCA",
"}  c #CCCFCF",
"|  c #CFD3D2",
" . c #C9D0D7",
".. c #C5D3DC",
"X. c #CAD6D8",
"o. c #CCD7DC",
"O. c #CFD9DC",
"+. c #D0D0D0",
"@. c #D2D3D0",
"#. c #D3D4D4",
"$. c #D8D2D4",
"%. c #DDDFDB",
"&. c #DEDBDC",
"*. c #E9CBCB",
"=. c #E1DFDC",
"-. c #E9D8D8",
";. c #EEDCDF",
":. c #F0D0D4",
">. c #F6DADC",
",. c #F5DCE0",
"<. c #CFE5EB",
"1. c #D2E0E4",
"2. c #D2E5EB",
"3. c #D1EBED",
"4. c #DCE8EA",
"5. c #D5EFF3",
"6. c #D9E9F0",
"7. c #DDECF4",
"8. c #DBF0F1",
"9. c #D8F0F4",
"0. c #D9F3F5",
"q. c #DCF4F5",
"w. c #D7F2F8",
"e. c #DAF3F9",
"r. c #DEF6FC",
"t. c #E4E4E4",
"y. c #EBE7E7",
"u. c #EAE2E8",
"i. c #EBEBEC",
"p. c #EBECEC",
"a. c #EAEDEE",
"s. c #F8EAEA",
"d. c #F8EDEC",
"f. c #E0F5F5",
"g. c #E2F4F4",
"h. c #E3F4F5",
"j. c #E3F5F5",
"k. c #E6F4F5",
"l. c #E8F3F4",
"z. c #E9F3F5",
"x. c #EAF7F6",
"c. c #EEF5F7",
"v. c #E4F8F8",
"b. c #E4FAFA",
"n. c #EBFBFA",
"m. c #EFFBF9",
"M. c #F7F5F6",
"N. c #FBF4F3",
"B. c #FDF7F4",
"V. c #F3F9FA",
"C. c #F4FBFB",
"Z. c #F7FBFC",
"A. c None",
/* pixels */
"A.A.A.A.A.A.  # &   A.A.A.A.A.A.",
"A.A.A.A.+ d s 5 t 7 N % A.A.A.A.",
"A.A.i.d w L Z.Y $.k.i s %.@.A.A.",
"A.A.r D C.N.d.J Z 1 y z.f v A.A.",
"A.+ h &.B.B.,.G V 2 >   P M % A.",
"A.j V.M.B.>.H A C ,   k 3...#.A.",
"  ` c.B.s.:.K S <   j.j.b.U +.  ",
"* ] 4 p.u.;.-.*.p f.f.f.r.3 =.& ",
"* { v.y.a.l.m.R - k.q.0.q.( t.* ",
". [  .7.x.8 4.| n.a 8.q.~ o.}   ",
"A.j O.h.q.: E = ; q : e.5.W _ A.",
"A.$ l g.<.0 2.X X.X f.! Q +.@ A.",
"A.A.g ' ^ 9.w.h.q.5.w.1.' b A.A.",
"A.A.B u m I / ) ) 6.T c e n A.A.",
"A.A.A.A.o z t F x 9 6 O A.A.A.A.",
"A.A.A.A.A.A.  o o   A.A.A.A.A.A."
};
