/* XPM */
static char *fileman[] = {
/* columns rows colors chars-per-pixel */
"16 16 13 1 ",
"  c black",
". c #404000",
"X c #606060",
"o c #808000",
"O c #C0C000",
"+ c yellow",
"@ c #A0A060",
"# c #C0C080",
"$ c #FFFF80",
"% c #C0C0C0",
"& c #E0E0E0",
"* c white",
"= c None",
/* pixels */
"================",
"==== XXXXXXXo===",
"=== ++++++++o===",
"===$$$$$$$$@o===",
"===@######X@o===",
"===@$+XX%+X@o===",
"===@$XooX+X@o===",
"===@$%$$++X@o===",
"===OoXXXXXX@o===",
"===+@@@@@@%@o===",
"===@*$$$$$X@o===",
"===@$X..X+X@o===",
"===@$&##$+X@o===",
"===@$+++++X@o===",
"===%XXXXXX+@====",
"================"
};
