/* XPM */
static char *hwinfo[] = {
/* columns rows colors chars-per-pixel */
"16 16 107 2 ",
"   c black",
".  c #131313",
"X  c #112D04",
"o  c #031629",
"O  c #041C33",
"+  c #051F34",
"@  c #162535",
"#  c #2C2C2C",
"$  c gray19",
"%  c #004000",
"&  c #1A4D0D",
"*  c #1E5316",
"=  c #23511B",
"-  c #225D1A",
";  c #2B7911",
":  c #2D7F15",
">  c #2D6A23",
",  c #2E6B24",
"<  c #545C37",
"1  c #545E3C",
"2  c #547E39",
"3  c #062646",
"4  c #1D3448",
"5  c #0A385F",
"6  c #153752",
"7  c #0A3B64",
"8  c #0D3F67",
"9  c #093E68",
"0  c #1F4256",
"q  c #0C436D",
"w  c #12476F",
"e  c #0F4D7A",
"r  c #114871",
"t  c #505052",
"y  c #51555B",
"u  c #6C6C6C",
"i  c #727860",
"p  c #2B870B",
"a  c #2C8515",
"s  c #2D8D10",
"d  c #30851A",
"f  c #308E18",
"g  c #339618",
"h  c #33971A",
"j  c #34991A",
"k  c #318A20",
"l  c #339024",
"z  c #558B34",
"x  c #59843D",
"c  c #44BA34",
"v  c #47C038",
"b  c #4DC23D",
"n  c #318957",
"m  c #759A4C",
"M  c #6A995B",
"N  c #6D9E5F",
"B  c #6DA542",
"V  c #6EA844",
"C  c #6EA34B",
"Z  c #71AF49",
"A  c #73B24C",
"S  c #7AB24F",
"D  c #7DB752",
"F  c #76B951",
"G  c #7FBA55",
"H  c #6D9B63",
"J  c #72AD6C",
"K  c #A5B476",
"L  c #82C35C",
"P  c #84C65E",
"I  c #89CE65",
"U  c #8ED469",
"Y  c #92D86C",
"T  c #92D96C",
"R  c #B9C97F",
"E  c #0D5B8E",
"W  c #0D5C8F",
"Q  c #135885",
"!  c #135E8D",
"~  c #1C5E88",
"^  c #0D5D90",
"/  c #1B608E",
"(  c #106092",
")  c #1A6291",
"_  c #23719F",
"`  c #2A769F",
"'  c #515A82",
"]  c #537995",
"[  c #617E93",
"{  c #4A8FB2",
"}  c #5493B4",
"|  c #7AA0B3",
" . c #808080",
".. c #9CA384",
"X. c #A5AE88",
"o. c #A9B08C",
"O. c #B8C884",
"+. c #C9DB90",
"@. c #F1F1A8",
"#. c #86AEC8",
"$. c #ABBCC5",
"%. c #A9C5D4",
"&. c #B2CCD9",
"*. c #C2D4DE",
"=. c #D0D0D1",
"-. c white",
";. c None",
/* pixels */
";.;.;.;.;.+ +   ;.;.;.;.;.;.;.;.",
";.;.;.  [ *.%.~ 9   ;.;.;.;.;.;.",
"$ t ;.] &.{ -.( ! +   ;.;.;.;.;.",
";.t + $.} _ #.E W q = > , , ,   ",
";.t n | ` W -.^ W 7 z j g +.+.X ",
";.t I 0 / ) -.Q e 6 ' j N o.K X ",
";.t U 5 8 r r w 3 2 O.V i . 1 X ",
";.t Y J 4 @ O o x C h f H M X.X ",
";.t T b - * l k ..j G B i . < X ",
";.y T v c P L Z u & D s a p S X ",
";.t T R F d A : V ; m m m m m X ",
";.t ;.@.@.@.@.@.@.% ;.;.;.;.;.;.",
";.t ;.;.;.;.;.;.;.;.;.;.;.;.;.;.",
";.;.;.;.;.;.;.;.;.;.;.;.;.;.;.;.",
";.;.=.-.-.-.-.-.-.-.;.;.;.;.;.;.",
";.;.#  . . . . . . .;.;.;.;.;.;."
};
