/* XPM */
static char *nvidia_16x16[] = {
/* columns rows colors chars-per-pixel */
"16 16 14 1 ",
"  c #151515",
". c #151615",
"X c #1B1B1B",
"o c gray12",
"O c #222222",
"+ c #232323",
"@ c #3F5B13",
"# c #405B13",
"$ c #528104",
"% c #5C9203",
"& c #63A001",
"* c #64A201",
"= c #67A600",
"- c None",
/* pixels */
"-----++++++-----",
"---++++++++++---",
"--++++++++====--",
"-++++++#=======-",
"-+++++=======++-",
"O++++=====*+++++",
"+++++====++++@==",
"+++++====Xo+====",
"      ===   === ",
"  %=  $===  ==  ",
"====&  ===  ==  ",
"-====   ===  = -",
"-=====   ===   -",
"--=====.  === --",
"---======  ==---",
"-----===== -----"
};
