/* XPM */
static char *mouse[] = {
/* columns rows colors chars-per-pixel */
"16 16 71 1 ",
"  c black",
". c #1C1C1C",
"X c #2D2D2D",
"o c #2E2E2E",
"O c #2F2F2F",
"+ c #494242",
"@ c #515151",
"# c #656565",
"$ c #6D6D6D",
"% c #707070",
"& c #737373",
"* c #817D7D",
"= c #60BB60",
"- c #7A78E5",
"; c #808080",
": c #818181",
"> c #838383",
", c #848484",
"< c #868686",
"1 c #898989",
"2 c #909090",
"3 c #A2A2A2",
"4 c #AAAAAA",
"5 c #AEAEAE",
"6 c #AFAFAF",
"7 c #B1B1B1",
"8 c #B3B3B3",
"9 c #B9B9B9",
"0 c #BEBEBE",
"q c #C3C3C3",
"w c #C6C6C6",
"e c #C8C8C8",
"r c #CCCCCC",
"t c #CDCDCD",
"y c #D1C8C8",
"u c #D3D3D3",
"i c #D7D7D7",
"p c #D8D8D8",
"a c #DDDDDD",
"s c #DFDFDF",
"d c #F1CBCB",
"f c #F1D2D2",
"g c #D4EFD4",
"h c #E1E1E1",
"j c gray90",
"k c #E7E7E7",
"l c #E7E7EB",
"z c #E5E5EF",
"x c #E6EFEE",
"c c #E9E9E9",
"v c #EAEAEA",
"b c #EBEBEB",
"n c #ECECEC",
"m c #EDEDEF",
"M c #EEEEEE",
"N c #EFEFEF",
"B c #F6EBEB",
"V c #ECEEF1",
"C c #F0F0F0",
"Z c #F1F1F1",
"A c #F2F2F2",
"S c #F3F6F3",
"D c #F6F8F5",
"F c #F6FBF6",
"G c #F8F8F8",
"H c #F8F9FB",
"J c #FBFBFB",
"K c #F9FCF9",
"L c #FBFCFB",
"P c #FCFCFC",
"I c None",
/* pixels */
"IIIIIIIIIIIIIIII",
"II  IIIIIIIIIIII",
"IIIIIIIIIIIIIIII",
"I IIII  IIIIIIII",
"II IIq$cP+IIIIII",
"IIII;PKP*kwXIIII",
"III4SP#rdBmaOIII",
"III%sMwg=f-VaOII",
"III.29nLx-PPle I",
"IIII@,tzHPPPGi:I",
"IIIII&3uvDPPJj0 ",
"IIIIII>6yhZFPN5 ",
"IIIIIII 8pCAb<oI",
"IIIIIIIII w71 II",
"IIIIIIIIIIIIIIII",
"IIIIIIIIIIIIIIII"
};
