/* XPM */
static char *movies[] = {
/* columns rows colors chars-per-pixel */
"16 16 16 1 ",
"  c black",
". c #2B2B2B",
"X c #555555",
"o c #808066",
"O c #4D4D80",
"+ c #666680",
"@ c #808080",
"# c gray60",
"$ c #9191AA",
"% c #AAAAAA",
"& c #DDDDDD",
"* c #FFFFCC",
"= c #CCCCFF",
"- c #E6E6FF",
"; c white",
": c None",
/* pixels */
"::::::::::::::::",
"::::::::::::::::",
"::::::::::::::::",
"::::::::::::::::",
":: ====:::::::::",
": ======::::::::",
":--------------+",
":$;X&&&& &&&X;$O",
":$XXXXXXXXXXXX$O",
":$$X&&&  &&&X$$O",
":$%#&&****&&#%$O",
":$XX#o** *o#XX$O",
":$;X#o*oo*o#X;$O",
":$X#&&****&&#X$O",
":$$X&&&  &&&X$$O",
":.@..........@. "
};
