/* XPM */
static char *mozilla[] = {
/* columns rows colors chars-per-pixel */
"16 16 103 2 ",
"   c black",
".  c #050101",
"X  c #060505",
"o  c #0D0302",
"O  c #0F0302",
"+  c #0E0503",
"@  c #0B0606",
"#  c #0F0706",
"$  c #0B0A0A",
"%  c #0F0B0B",
"&  c gray5",
"*  c #0F0F0F",
"=  c #160503",
"-  c #1B0907",
";  c #170E0D",
":  c #1F0B09",
">  c #131212",
",  c #171717",
"<  c gray12",
"1  c #230804",
"2  c #230805",
"3  c #2B0A05",
"4  c #290B07",
"5  c #380D07",
"6  c #3B0E08",
"7  c #3B0E09",
"8  c #201413",
"9  c #271714",
"0  c #231C1B",
"q  c #271E1D",
"w  c #232323",
"e  c #242121",
"r  c #272727",
"t  c #372321",
"y  c #312D2D",
"u  c gray20",
"i  c gray22",
"p  c #3A3A3A",
"a  c #3C3C3C",
"s  c #3F3F3F",
"d  c #400F09",
"f  c #4B120B",
"g  c #4C120A",
"h  c #53140B",
"j  c #53130C",
"k  c #55140C",
"l  c #58150C",
"z  c #59150D",
"x  c #5B170F",
"c  c #60160D",
"v  c #60170E",
"b  c #62170E",
"n  c #63170E",
"m  c #601910",
"M  c #701B10",
"N  c #721B10",
"B  c #791C11",
"V  c #7B1D12",
"C  c #7C1D11",
"Z  c #57241F",
"A  c #642B24",
"S  c #505050",
"D  c gray33",
"F  c gray36",
"G  c gray42",
"H  c #6E6E6E",
"J  c #757575",
"K  c #831F12",
"L  c #852216",
"P  c #8F2215",
"I  c #932315",
"U  c #982416",
"Y  c #9B2416",
"T  c #9F2617",
"R  c #A42717",
"E  c #A92818",
"W  c #AD2919",
"Q  c #B42B1A",
"!  c #B52B1A",
"~  c #B82B1A",
"^  c #B82C1B",
"/  c #BB2C1B",
"(  c #BC2C1A",
")  c #BF2D1C",
"_  c #C02D1B",
"`  c #C12E1C",
"'  c #C22E1C",
"]  c #C82F1D",
"[  c #CA301D",
"{  c #CC301D",
"}  c #D0311E",
"|  c #D2321E",
" . c #D3321E",
".. c #D4321F",
"X. c #D7331F",
"o. c #D8331F",
"O. c #D9331F",
"+. c #DD3420",
"@. c #DF3520",
"#. c #E13520",
"$. c #848484",
"%. c #8F8F8F",
"&. c None",
/* pixels */
"&.&.&.&.&.&.&.&.&.&.&.&.&.&.&.&.",
"&.&.&.&.u # 7 ; , # 0 &.&.&.&.&.",
"&.&.&.r 3 O.P  .c m - &.&.&.&.&.",
"&.&.< . [ j N Y d Z o * &.&.&.&.",
"&.X   . o.@.] = R B x v q i &.&.",
"  w X 2 #.{ R L ( E | #.| l r &.",
"&.$   I #.K #.#.~ 6 U #.#.@.@ &.",
"&.$   ^ #.k @.#.C     z #.#.g &.",
"&.D X h #.n _ +.@.V f % e A : &.",
"&.i ,   X.+.} I ` T b / M > r &.",
"&.a y + O.#.#.) . > F s t G %.&.",
"&.&.r O ! #.+.W 8 %.&.&.H &.&.&.",
"&.&.&.1 ..#.X.5 S &.&.&.&.&.&.&.",
"&.&.&.J 4 ' Q 1 p &.&.&.&.&.&.&.",
"&.&.&.&.$.s 9 & &.&.&.&.&.&.&.&.",
"&.&.&.&.&.&.&.&.&.&.&.&.&.&.&.&."
};
