/* XPM */
static char *mpv_16x16[] = {
/* columns rows colors chars-per-pixel */
"16 16 146 2 ",
"   c None",
".  c #2F0E35",
"X  c #310F37",
"o  c #321038",
"O  c #34113A",
"+  c #35133B",
"@  c #36123D",
"#  c #37123E",
"$  c #38133F",
"%  c #381340",
"&  c #391340",
"*  c #3A1441",
"=  c #3A1541",
"-  c #3B1442",
";  c #3D1544",
":  c #3E1545",
">  c #3F1646",
",  c #3F1746",
"<  c #3B1843",
"1  c #401647",
"2  c #43184A",
"3  c #46194D",
"4  c #451B4C",
"5  c #47194E",
"6  c #471B4E",
"7  c #461C4D",
"8  c #461E4D",
"9  c #471D4E",
"0  c #481A4F",
"q  c #481E4F",
"w  c #491A50",
"e  c #491B51",
"r  c #4A1B51",
"t  c #491C51",
"y  c #481F50",
"u  c #491F50",
"i  c #4A1E51",
"p  c #4A1F51",
"a  c #4A1F52",
"s  c #4B1F52",
"d  c #4B1E53",
"f  c #4B1F53",
"g  c #4C1F53",
"h  c #4C1C54",
"j  c #4C1F54",
"k  c #4C1E55",
"l  c #4E1D56",
"z  c #501D58",
"x  c #521F5A",
"c  c #4C2053",
"v  c #4C2154",
"b  c #4D2055",
"n  c #4F2157",
"m  c #4E2256",
"M  c #4E2356",
"N  c #4F2357",
"B  c #512059",
"V  c #512459",
"C  c #52265A",
"Z  c #53275B",
"A  c #53255C",
"S  c #55255D",
"D  c #55245E",
"F  c #55295D",
"G  c #552A5D",
"H  c #57285F",
"J  c #582860",
"K  c #592A61",
"L  c #592E60",
"P  c #5A2C62",
"I  c #5B2D63",
"U  c #5B2C64",
"Y  c #5C2F65",
"T  c #5D2E66",
"R  c #5E2F68",
"E  c #5A3761",
"W  c #5D3065",
"Q  c #603369",
"!  c #613369",
"~  c #62326B",
"^  c #62336B",
"/  c #62356A",
"(  c #63336C",
")  c #66366F",
"_  c #66386F",
"`  c #673570",
"'  c #673770",
"]  c #693772",
"[  c #673870",
"{  c #673A71",
"}  c #683872",
"|  c #693872",
" . c #683972",
".. c #6A3A74",
"X. c #6B3B74",
"o. c #6C3B76",
"O. c #6D3B76",
"+. c #6B3C74",
"@. c #6D3E77",
"#. c #6E3C78",
"$. c #6E3D78",
"%. c #703E7A",
"&. c #836E88",
"*. c #AAA4AC",
"=. c #B2ADB4",
"-. c #BFBAC1",
";. c #C2BDC4",
":. c #C2BEC4",
">. c #C1C1C2",
",. c #C4C4C4",
"<. c #C6C1C8",
"1. c #C7C2C9",
"2. c #C7C3C9",
"3. c #CCC7CE",
"4. c #C8C9C9",
"5. c gray79",
"6. c #CDCDCD",
"7. c #CEC9D0",
"8. c #D1CDD4",
"9. c #D3CFD5",
"0. c #D2D2D2",
"q. c #D4D0D6",
"w. c #D6D2D8",
"e. c #D7D3DA",
"r. c #D9D4DB",
"t. c #DCD8DE",
"y. c #DEDADF",
"u. c #DCDCDC",
"i. c #DFDFDF",
"p. c #E0DCE1",
"a. c #E2DEE3",
"s. c #E4E0E5",
"d. c #E5E1E6",
"f. c #E5E1E7",
"g. c #E5E5E5",
"h. c #E6E6E6",
"j. c #E7E3E9",
"k. c #E8E4E9",
"l. c #E8E8E8",
"z. c #E8E8E9",
"x. c #EEEEEE",
"c. c gray95",
"v. c #F5F5F5",
"b. c #F7F7F7",
"n. c #F8F8F8",
"m. c #F9F9F9",
/* pixels */
"                                ",
"          n.E O.[ | z.          ",
"        @.X.$.o.+ L W ~         ",
"      { +. .X O & ; $ < P       ",
"    m.%.#.O % # @ : > 1 c H     ",
"  b._ / . o k.f.a.r.2 5 e C 0.  ",
"  b...} & j.s.y.t.q.1.w r N v   ",
"  v.' Q * d.p.) G 9.2.0 3 ! y   ",
"  c.] ` - t.e.F 8 7.:.h x q s   ",
"  x.^ Y = w.w.8.3.1.=.z D b &.  ",
"  h.( I T , ;.<.-.*.l B 9 d z.  ",
"    l.R U Z i t l k S g j 4     ",
"      g.K J V m u c a j 6       ",
"        u.M A p n f 7 ,.        ",
"          4.6.6.5.>.i.          ",
"                                "
};
