/* XPM */
static char *paint[] = {
/* columns rows colors chars-per-pixel */
"16 16 34 1 ",
"  c black",
". c #2AAB2AAB2AAB",
"X c #3AEB3AEB3AEB",
"o c #4B2C000030C3",
"O c #430C430C430C",
"+ c #6DB66DB66DB6",
"@ c #75D675D675D6",
"# c #79E779E779E7",
"$ c #7FFF7FFF7FFF",
"% c #BAEB000030C3",
"& c #DF7D00000000",
"* c #965800006185",
"= c #8000679E4D35",
"- c #80008000679E",
"; c #A08155558618",
": c #800080008000",
"> c #861786178617",
", c #924992499249",
"< c #AAAAAAAAAAAA",
"1 c #B0C2B0C2B0C2",
"2 c #B6DBB6DBB6DB",
"3 c #BCF3BCF3BCF3",
"4 c #EFBE80008000",
"5 c #CB2C8000B0C2",
"6 c #D555D555BCF3",
"7 c #C30BC30BC30B",
"8 c #CF3CCF3CCF3C",
"9 c #D554D554D554",
"0 c #DB6CDB6CDB6C",
"q c #FFFFFFFFCF3C",
"w c #E79EE79EE79E",
"e c #FFFFFFFFE79E",
"r c white",
"t c None",
/* pixels */
"ttttttt tttttttt",
"tttttt  @ttttttt",
"ttttt  @qqtttttt",
"tttt  @qqqqttttt",
"ttt  @qqqq-0+ttt",
"tt  @qqqqq-#07 t",
"t  @qqqqqq638#0+",
"  @qqqqqq 4r93$t",
"tXqqqqqro&&&r<O ",
"ttrqqqe5&&&&%< t",
"tttrqqO1wr&**ttt",
"ttttr-18>2%*rttt",
"ttttt:0#2$;ttttt",
"t&4&&&o,#.tttttt",
"t%%%%*t = tttttt",
"tttttttt ttttttt"
};
