/* XPM */
static char *paintings[] = {
/* columns rows colors chars-per-pixel */
"16 16 34 1 ",
"  c black",
". c gray17",
"X c #4B0031",
"o c #434343",
"O c #6D6D6D",
"+ c gray48",
"@ c #B90031",
"# c #DC0000",
"$ c #960062",
"% c #474780",
"& c #6A6A80",
"* c #A05586",
"= c #B56AB1",
"- c #D86A80",
"; c #808080",
": c #868686",
"> c #929292",
", c #AAAAAA",
"< c gray69",
"1 c gray71",
"2 c #BCBCBC",
"3 c #EE8080",
"4 c #CB80B1",
"5 c #BFBFD5",
"6 c #B1B1FF",
"7 c gray76",
"8 c #CECECE",
"9 c gray83",
"0 c #DADADA",
"q c #D4D4FF",
"w c #E7E7E7",
"e c #EAEAFF",
"r c white",
"t c None",
/* pixels */
"tttttttttttttttt",
"tttttttttttttttt",
"tttttttttttttttt",
"tttttttttttttttt",
"ttqqqq tttt0Ottt",
"tqqqqqq tt +07 t",
"&eeeeeeeee528+0O",
"&rrrrrrrr 3r92;t",
"&rrrrrrrX###r,ot",
"&rrrrrr4####@, t",
"&rrrrro<wr#$$r6t",
"&rrrr&<8:1@$rr6t",
"&r--q&0+1;*rrr6t",
"&#3###X>+.rrrr6t",
"&@@@@$=&&rrrrr6t",
" &&&&&&&&&&&&&%t"
};
