/* XPM */
static char *pci[] = {
/* columns rows colors chars-per-pixel */
"16 16 70 1 ",
"  c black",
". c #141414",
"X c #112D04",
"o c #2C2C2C",
"O c gray19",
"+ c #004000",
"@ c #1A4C0C",
"# c #205917",
"$ c #215B18",
"% c #225E1A",
"& c #2A7810",
"* c #2D7F15",
"= c #2E6B24",
"- c #545C37",
"; c #505052",
": c gray33",
"> c #585858",
", c gray39",
"< c #6C6C6C",
"1 c #727272",
"2 c #9D5513",
"3 c #2B870B",
"4 c #2B880C",
"5 c #2E8F12",
"6 c #31861A",
"7 c #319315",
"8 c #339718",
"9 c #34991A",
"0 c #349A1B",
"q c #3AA724",
"w c #3BA926",
"e c #40B12C",
"r c #41B42F",
"t c #43B932",
"y c #46BE36",
"u c #47C038",
"i c #5A8D4E",
"p c #759A4C",
"a c #6B9A5C",
"s c #6D9D5F",
"d c #6DA542",
"f c #6EA945",
"g c #70AC47",
"h c #71AE48",
"j c #72B04A",
"k c #73B24C",
"l c #7AB24F",
"z c #7DB753",
"x c #76B951",
"c c #7EB954",
"v c #6E9F60",
"b c #79B571",
"n c #81C059",
"m c #82C25B",
"M c #84C65E",
"N c #85C75F",
"B c #86C960",
"V c #87CB62",
"C c #88CE64",
"Z c #92D96C",
"A c #B9C97F",
"S c #1A5A8D",
"D c #808080",
"F c #A5AE88",
"G c #A9B18C",
"H c #C9DB90",
"J c #F1F1A8",
"K c #D0D0D2",
"L c white",
"P c None",
/* pixels */
"PPPPPPPPPPPPPPPP",
"PPPPPPPPPPPPPPPP",
"O;PPPPPPPPPPPPPP",
"P;============= ",
"P;ZCCCVBAmh08HHX",
"P;Zubbtr2qS0vGFX",
"P;Zb,>$NHnHf1.-X",
"P;ZG:O$Mmn97saFX",
"P;Zu%#ewGicd1.-X",
"P;ZytNMj<@z543lX",
"P;ZAx6k*g&pppppX",
"P;PJJJJJJ+PPPPPP",
"P;PPPPPPPPPPPPPP",
"PPPPPPPPPPPPPPPP",
"PPKLLLLLLLPPPPPP",
"PPoDDDDDDDPPPPPP"
};
