/* XPM */
static char *pharmacy[] = {
/* columns rows colors chars-per-pixel */
"16 16 82 1 ",
"  c black",
". c #020509",
"X c #050B0D",
"o c #030A11",
"O c #0B1B24",
"+ c #08182B",
"@ c #0C1E29",
"# c #0E2028",
"$ c #0F232A",
"% c #0E2230",
"& c #0C223F",
"* c #0C233F",
"= c #19353D",
"- c #1D3F46",
"; c #17384E",
": c #102E54",
"> c #163651",
", c #143456",
"< c #13365F",
"1 c #193D59",
"2 c #133765",
"3 c #163C69",
"4 c #163E6F",
"5 c #1C4259",
"6 c #21454E",
"7 c #25505F",
"8 c #1D4562",
"9 c #174073",
"0 c #204B69",
"q c #2B5D6D",
"w c #2A5E77",
"e c #25587B",
"r c #2A5E7D",
"t c #1F5187",
"y c #225A98",
"u c #215A9A",
"i c #255E98",
"p c #296189",
"a c #2C668E",
"s c #2E698E",
"d c #2B6695",
"f c #327092",
"g c #327094",
"h c #347394",
"j c #327298",
"k c #32749F",
"l c #34779C",
"z c #397C9A",
"x c #3A7E9B",
"c c #2C6CA4",
"v c #2F70A0",
"b c #2E71AD",
"n c #3579A1",
"m c #3175A9",
"M c #3378AA",
"N c #377FAE",
"B c #347CB9",
"V c #2F78C3",
"C c #3F8592",
"Z c #3F859A",
"A c #3E859E",
"S c #3A81A2",
"D c #3983B0",
"F c #3D8AB4",
"G c #408692",
"H c #428994",
"J c #438C99",
"K c #47959E",
"L c #428EA8",
"P c #408CAC",
"I c #4897AB",
"U c #4898AF",
"Y c #4291B2",
"T c #4A9CB4",
"R c #4395BB",
"E c #4CA0B6",
"W c #54B1C8",
"Q c #51AED3",
"! c #59BDD8",
"~ c #5BC2E2",
"^ c #62CFEB",
"/ c None",
/* pixels */
"////////////////",
"//HJKGGC////////",
"///WE6=!I///////",
"///TU#/^ZX//////",
"///AL#-~7 //////",
"///xYPQq  //////",
"///hSwRz.///////",
"///flOgFr///////",
"///sj@/Dn5//////",
"//vp0e/1MN;ak$//",
"///    /8mdB% //",
"/////////bc> ///",
"/////////Vito///",
"////////u,<y3///",
"///////*9&:42+//",
"////////  /   //"
};
