/* XPM */
static char *pictures[] = {
/* columns rows colors chars-per-pixel */
"16 16 75 1 ",
"  c black",
". c #1A0909",
"X c #09091A",
"o c #111111",
"O c #1A1A1A",
"+ c #220000",
"@ c #221111",
"# c #2B1111",
"$ c #331A1A",
"% c #2B2B11",
"& c #000022",
"* c #1A1A33",
"= c #222222",
"- c #2B2B2B",
"; c #4D331A",
": c #442B2B",
"> c #4D3333",
", c #553C3C",
"< c #663333",
"1 c #5E442B",
"2 c #2B2B44",
"3 c #3C3C55",
"4 c #000077",
"5 c #333366",
"6 c #444444",
"7 c #4D4D4D",
"8 c #5E4444",
"9 c #5E5E44",
"0 c #555555",
"q c #5E5E5E",
"w c #664D4D",
"e c #6F5555",
"r c #775E5E",
"t c #606060",
"y c gray40",
"u c #6F6F6F",
"i c #80664D",
"p c #806666",
"a c #886F6F",
"s c #996666",
"d c #998066",
"f c #B38066",
"g c #666680",
"h c #0000CC",
"j c #806680",
"k c #888888",
"l c #8C8C8E",
"z c #9D8385",
"x c #999980",
"c c gray60",
"v c #A28888",
"b c #B38080",
"n c #B39980",
"m c #B39999",
"M c #A0A0A4",
"N c #CC9999",
"B c #E69999",
"V c #CCB399",
"C c #E6B399",
"Z c #C6ADAD",
"A c #E6CC99",
"S c #FFCC99",
"D c #C6C6AD",
"F c #E0C6AD",
"G c #FFCCB3",
"H c #C0C0C0",
"J c #E6CAC5",
"K c #E6CCCC",
"L c #FFCCCC",
"P c #FFE6CC",
"I c #CCCCFF",
"U c #E6E6FF",
"Y c #FFFDF8",
"T c white",
"R c None",
/* pixels */
"RRRRRRRRRRRRRRRR",
"RRRRRRRRRRRRRRRR",
"RRRRRRRRRRRRRRRR",
"RRRRRRRRRRRRRRRR",
"RR IIIIRRRRRRRRR",
"R IIIIIIRRRRRRRR",
"RUUUUUUUUUUUUUUg",
"RNNSFBnfsq7<<005",
"RMZNbx1p:%=;<<75",
"RCm9ed@.==%=>,,5",
"RAv6+k30&2#%><75",
"RLxpKY4* hy0-995",
"RLPGNT6hhoM0Xcn5",
"RLLKVNJljzawrNN5",
"RPLGVdyii8>:dDH5",
"Rppui7>--Oo$wti "
};
