/* XPM */
static char *plan[] = {
/* columns rows colors chars-per-pixel */
"16 17 96 2 ",
"   c black",
".  c #040404",
"X  c #060606",
"o  c #0C0C0C",
"O  c #160F08",
"+  c #111111",
"@  c #161616",
"#  c #1E1E1E",
"$  c #1F1F1F",
"%  c #24180C",
"&  c #143614",
"*  c #2F2F25",
"=  c #282828",
"-  c #2F2F2F",
";  c #363636",
":  c #3C3C3C",
">  c #411E00",
",  c #404040",
"<  c #434343",
"1  c #444444",
"2  c #4A4A4A",
"3  c #4B4B4B",
"4  c #4C4C4C",
"5  c #4F4F4F",
"6  c #525252",
"7  c #535353",
"8  c #545454",
"9  c #575757",
"0  c #5A5A5A",
"q  c #78785A",
"w  c #686868",
"e  c #6A6A6A",
"r  c #6C6C6C",
"t  c #6F6F6F",
"y  c #717171",
"u  c #727272",
"i  c #767676",
"p  c #AE5000",
"a  c #B95500",
"s  c #C05800",
"d  c #008000",
"f  c #078407",
"g  c #48A448",
"h  c #4FA74F",
"j  c #B2B200",
"k  c #C1C103",
"l  c #C2C207",
"z  c #EE9240",
"x  c #E2954E",
"c  c #F19745",
"v  c #F09E53",
"b  c #FFA858",
"n  c #E6E673",
"m  c #808080",
"M  c #858585",
"N  c #8E8E8E",
"B  c #929292",
"V  c #939393",
"C  c #9D9D9D",
"Z  c #9E9E9E",
"A  c #B0B084",
"S  c #A1A1A1",
"D  c #A5A5A5",
"F  c #A9A9A9",
"G  c #AAAAAA",
"H  c #AFAFAF",
"J  c #B1B1B1",
"K  c #BEBEBE",
"L  c #EDED89",
"P  c #F1F196",
"I  c #E7E7AE",
"U  c #F5F5A1",
"Y  c #F5F5B9",
"T  c #C7C7C7",
"R  c #C8C8C8",
"E  c #CCCCCC",
"W  c #D7D7D7",
"Q  c #DFDFDF",
"!  c #FFFFC0",
"~  c #FFFFC6",
"^  c #FFFFC9",
"/  c #E0E0E0",
"(  c #E4E4E4",
")  c #E5E5E5",
"_  c #E7E7E7",
"`  c #E9E9E9",
"'  c #ECECEC",
"]  c #FFFFE7",
"[  c #F0F0F0",
"{  c #FFFFF4",
"}  c #FFFFF8",
"|  c #FFFFF9",
" . c #FFFFFB",
".. c #FFFFFC",
"X. c white",
"o. c None",
/* pixels */
"o.  y y y y y y y y y y y y o.o.",
"o.8 ' ` ' M e ' ' ' ' ' ' ' 4 o.",
"o.w u Q V ..} : X.X.X.X.X.X.4 o.",
"o.w K S |  .{ X.#   @ @ @ @ @ o.",
"o.w H A ! * ~ X.X.$ X.X.h f X.1 ",
"o.  ^ ! j Z ~ } X.^ r X.g d X.1 ",
"o.! ! k ! ! ! ! ! 6 N X.X.& % 1 ",
"q ! l ! U ] L ! 3 D J X.F z s O ",
"o.I ! P ! ! ! 1 X.X.m m c s p 1 ",
"o.  Y ! n !   C C 2 X._ > a ; 1 ",
"o.w i ! ! ; B B . X.X.o ( 8 4 m ",
"o.w X.t - E E E X X.= X.X.8 4 o.",
"o.w X.X.X.X.X.[ b / X.X., W 4 o.",
"o.5 R R R R T v s b + + G R 4 o.",
"o.w X.X.X.X.x s s 0 ) ) X.X.4 o.",
"o.o.9 9 9 < s s 7 9 9 9 9 9 m o.",
"o.o.o.o.o.o.  o.o.o.o.o.o.o.o.o."
};
