/* XPM */
static char *plaster[] = {
/* columns rows colors chars-per-pixel */
"16 16 109 2 ",
"   c black",
".  c #620900",
"X  c #55453C",
"o  c #57463D",
"O  c #625147",
"+  c #6E5D52",
"@  c #6E5E55",
"#  c #7A6B61",
"$  c #7C6C61",
"%  c #7E6E65",
"&  c #9A481C",
"*  c #AA775D",
"=  c #AE7C62",
"-  c #B18066",
";  c #B4836A",
":  c #AC8B78",
">  c #AD8C79",
",  c #AF8E7A",
"<  c #BB8D74",
"1  c #BD8F76",
"2  c #B18F7B",
"3  c #B08F7C",
"4  c #C48661",
"5  c #B49380",
"6  c #B69582",
"7  c #B69683",
"8  c #B89783",
"9  c #B89784",
"0  c #B79885",
"q  c #B99885",
"w  c #B99985",
"e  c #BA9985",
"r  c #BC9B87",
"t  c #BD9C89",
"y  c #CB9C82",
"u  c #C99D86",
"i  c #C19E8B",
"p  c #C69F8A",
"a  c #C09F8C",
"s  c #C3A28E",
"d  c #CDA48E",
"f  c #D0A68F",
"g  c #D9AA8C",
"h  c #C4A390",
"j  c #C4A491",
"k  c #C9A691",
"l  c #CCA994",
"z  c #CFAA94",
"x  c #D2AA95",
"c  c #D0AC97",
"v  c #D3AC97",
"b  c #D4B09B",
"n  c #D7B39D",
"m  c #D9B49D",
"M  c #D8B49F",
"N  c #DAB59F",
"B  c #D5B5A4",
"V  c #DBB7A1",
"C  c #D9B7A4",
"Z  c #DCB8A3",
"A  c #DFBAA5",
"S  c #DEBBA5",
"D  c #DCBBA7",
"F  c #DCBBA9",
"G  c #DBBCAA",
"H  c #E1BBA5",
"J  c #E6BCA4",
"K  c #E1BEA9",
"L  c #E2C0AB",
"P  c #E3C1AC",
"I  c #E3C1AD",
"U  c #E1C3B0",
"Y  c #E2C4B3",
"T  c #E5C4B1",
"R  c #E6C4B0",
"E  c #E7C5B1",
"W  c #E4C8B7",
"Q  c #E9C8B4",
"!  c #EAC9B5",
"~  c #E8CBB9",
"^  c #E9CDBB",
"/  c #EDCCB8",
"(  c #ECCDB9",
")  c #EECEBA",
"_  c #EFD0BB",
"`  c #F0D1BD",
"'  c #F1D2BD",
"]  c #F2D2BD",
"[  c #F0D4C2",
"{  c #F5D5C0",
"}  c #F5D7C4",
"|  c #F8D7C2",
" . c #F7D9C6",
".. c #F9D8C4",
"X. c #F9D9C5",
"o. c #FADBC7",
"O. c #F0D7C8",
"+. c #F6DCCC",
"@. c #FBDCC9",
"#. c #F6DFD0",
"$. c #FDE2CD",
"%. c #F7E4D7",
"&. c #F8E2D5",
"*. c #F9E4D6",
"=. c #FDF1E3",
"-. c #FFF7E3",
";. c #FFFFF9",
":. c #FFFFFE",
">. c None",
/* pixels */
">.>.>.>.#   >.>.>.>.  + >.>.>.>.",
">.>.>.o.} '   >.>.  K H V >.>.>.",
">.>.@. ...] (     P P A m n >.>.",
">.@.@.X.] ] /   J P K A m b z >.",
"% @.@...{ ]   %.` g H Z n c l O ",
"  @.o.| ]   #.:.O.S 4 M b l k   ",
">.  X.|   *.+._ R N u & v l   >.",
">.>.    =.:.} ^ H F :.- .   >.>.",
">.>.  ;.*.&.' P n y p *     >.>.",
">.  | | -.[ Q W d 1 =   i 8   >.",
"  | { ] ( $.I :.x ;   s e 9 2   ",
"$ ] ] ) ! E K f <   h r q 3 , X ",
">.' ) ~ E Y D C   j a e 6 > : >.",
">.>.( ! U L B     j t 0 5 > >.>.",
">.>.>.T L G   >.>.  w 7 > >.>.>.",
">.>.>.>.@   >.>.>.>.  o >.>.>.>."
};
