/* XPM */
static char *printer2[] = {
/* columns rows colors chars-per-pixel */
"16 16 12 1 ",
"  c black",
". c #410441044104",
"X c #618661866186",
"o c #E18561866186",
"O c #800080008000",
"+ c #820782078207",
"@ c #A289A289A289",
"# c #C103C103C103",
"$ c #C30BC30BC30B",
"% c #E185E185E185",
"& c white",
"* c None",
/* pixels */
"****************",
"****************",
"****************",
"****************",
"***** &&&&&& ***",
"*****#&..&&#****",
"** . &&. && XX.*",
"* $  O .  X  $+*",
" %%%%%%%%%%%%++*",
"O$$$$$$$$$$o$++*",
"O$$$$$$$$$$O$++*",
"O$XXXXXXXX$%$+ *",
". $+@$+$&..XX  +",
"*#######++$$$ +*",
"*XXXXXX. ....+**",
"****************"
};
