/* XPM */
static char *printer3[] = {
/* columns rows colors chars-per-pixel */
"16 16 12 1 ",
"  c black",
". c #410441044104",
"X c #618661866186",
"o c #00008000C103",
"O c #6186E185E185",
"+ c #800080008000",
"@ c #820782078207",
"# c #A289A289A289",
"$ c #C30BC30BC30B",
"% c #E185E185E185",
"& c white",
"* c None",
/* pixels */
"*XXXXXXXX ******",
"*&%&%&&%&&******",
"* &&%%&&%& *****",
"**&%&%&%&&&*****",
"** &&%&%&%& ****",
"*+.&%&&%&%&+ ***",
"*$@X$$#$$##& ***",
"* #X$#$##$#$X **",
"*             **",
"* $%%%%%%%%%%%%+",
"*.#$$$$OO$$$$o$+",
"*.#$$$$$$$$$$$$+",
". .XXXXXXXXXXXX ",
"@..@##########.*",
"*@ X++++++++++ *",
"**@@@@@@@@@@@.**"
};
