/* XPM */
static char *pybliographic[] = {
/* columns rows colors chars-per-pixel */
"16 16 74 1 ",
"  c black",
". c #2E2607",
"X c #3A2E09",
"o c #3D3A2A",
"O c #483A0B",
"+ c #4B3C0B",
"@ c #4F4314",
"# c #68540F",
"$ c #6F5911",
"% c #6B5918",
"& c #785F13",
"* c #7E651A",
"= c #7A641D",
"- c #736B31",
"; c #726739",
": c #555447",
"> c #535261",
", c #6E6E7D",
"< c #767679",
"1 c #816514",
"2 c #836715",
"3 c #896D17",
"4 c #8B721D",
"5 c #8B721F",
"6 c #91751C",
"7 c #947C25",
"8 c #997E21",
"9 c #9C8123",
"0 c #9F8526",
"q c #9E8A36",
"w c #A08526",
"e c #A18726",
"r c #A38A28",
"t c #AD932F",
"y c #B29A34",
"u c #A19165",
"i c #C7B146",
"p c #C9BC57",
"a c #D2BE50",
"s c #D9C656",
"d c #DECB5A",
"f c #E0CE5C",
"g c #E6D762",
"h c #89898E",
"j c #B1A584",
"k c #BBB19A",
"l c #AAAAB4",
"z c #C3BBAC",
"x c #A9A7C2",
"c c #BFBFCD",
"v c #D7D5DE",
"b c #DEDCE1",
"n c #D7D6EE",
"m c #DCDBEE",
"M c #DFDFF3",
"N c #DAD9F6",
"B c #D7D6FA",
"V c #DAD9FA",
"C c #DCDBFA",
"Z c #DEDDFB",
"A c #E0DFF1",
"S c #E0DFFB",
"D c #E3E0E8",
"F c #E6E5F4",
"G c #E8E7F5",
"H c #E2E1FB",
"J c #E3E3FB",
"K c #E6E5FC",
"L c #E8E7FC",
"P c #E9E9FC",
"I c #EAEAFC",
"U c #EDEDFD",
"Y c #F0EFFA",
"T c None",
/* pixels */
"TTTTTTTTTTTTTTTT",
"TTTTTTTTTTTTTTTT",
"TT> TTTTTTTTTTTT",
"TTBVxTTTTTTTTTTT",
"TT,NCZ TTTTTTTTT",
"TTTCnZH  O+ TTTT",
"TTT SmJKv#18 TTT",
"TTTT JMcLA&6y TT",
"TTTTToLFlIb5tsTT",
"TTTTT.;PGhYjtfTT",
"TTTTTX$%DU<z0gTT",
"TTTTT 32*uk:4-TT",
"TTTTTT=rew97q TT",
"TTTTTTT@iadpTTTT",
"TTTTTTTTTTTTTTTT",
"TTTTTTTTTTTTTTTT"
};
