/* XPM */
static char *pysol[] = {
/* columns rows colors chars-per-pixel */
"16 16 10 1 ",
"  c black",
". c #181818",
"X c #202000",
"o c #2C2C2C",
"O c #444444",
"+ c #505050",
"@ c #686868",
"# c gray43",
"$ c #7A7A7A",
"% c None",
/* pixels */
"%%%%%%%%%%%%%%%%",
"%%%%%%X  o%%%%%%",
"%%%%%      %%%%%",
"%%%%%      %%%%%",
"%%%%%      %%%%%",
"%%%%%      %%%%%",
"%%%##@    @##%%%",
"%%    $  +    %%",
"%.     ++     .%",
"%              %",
"%              %",
"%X     %%     O%",
"%%o  o%%%%o  o%%",
"%%%%%%%  %%%%%%%",
"%%%%%%   %%%%%%%",
"%%%%%%%%%%%%%%%%"
};
