/* XPM */
static char *python_16x16[] = {
/* columns rows colors chars-per-pixel */
"16 16 34 1 ",
"  c None",
". c #FFC938",
"X c #FFCB3A",
"o c #FFCC3C",
"O c #FFCD3C",
"+ c #FFCE3E",
"@ c #FFCF3E",
"# c #FFD040",
"$ c #FFD140",
"% c #FFD242",
"& c #FFD344",
"* c #FFD444",
"= c #FFD546",
"- c #FFD646",
"; c #FFD748",
": c #FFD94A",
"> c #FFDB4C",
", c #FFDC4E",
"< c #FFDD4E",
"1 c #FFDE50",
"2 c #366A96",
"3 c #366B98",
"4 c #366D9A",
"5 c #366E9D",
"6 c #376F9F",
"7 c #3771A1",
"8 c #3772A3",
"9 c #3772A4",
"0 c #3773A6",
"q c #3775A8",
"w c #3776AA",
"e c #3777AD",
"r c #3779AF",
"t c #387AB1",
/* pixels */
"     trewq0     ",
"    t ewq097    ",
"    r wq0976    ",
"    ewq09765    ",
" trewq097654:;= ",
"trewq0976543;=&%",
"rewq08765432=&%#",
"ewq08765432 &%#+",
"wq08 1,>:;=*%#+o",
"q0871,>:;=*%#+OX",
"0876<>:;=*%#+OX.",
" 765>:;-*%#+OX. ",
"    :;-*%#@O    ",
"    ;-*%#@ X    ",
"    -*%#@O .    ",
"     %$@OX.     "
};
