/* XPM */
static char *realplayer[] = {
/* columns rows colors chars-per-pixel */
"16 16 127 2 ",
"   c black",
".  c #010106",
"X  c #020406",
"o  c #050404",
"O  c #060504",
"+  c #090705",
"@  c #090907",
"#  c #010209",
"$  c #01050A",
"%  c #01030E",
"&  c #02020E",
"*  c #05050D",
"=  c #0B0C0B",
"-  c #0D0D0B",
";  c #0A0B0F",
":  c #010512",
">  c #020714",
",  c #020615",
"<  c #000913",
"1  c #070D16",
"2  c #000B1B",
"3  c #05091E",
"4  c #171513",
"5  c #101214",
"6  c #161916",
"7  c #23231D",
"8  c #060E24",
"9  c #040D28",
"0  c #05092C",
"q  c #071627",
"w  c #070232",
"e  c #0B0633",
"r  c #050A32",
"t  c #040E31",
"y  c #070F30",
"u  c #040F37",
"i  c #08033C",
"p  c #0D1133",
"a  c #0A153C",
"s  c #252A25",
"d  c #2A2F2A",
"f  c #2F2E2D",
"g  c #313834",
"h  c #403D39",
"j  c #0A0647",
"k  c #0A0A41",
"l  c #0B0A47",
"z  c #081143",
"x  c #09124C",
"c  c #090C52",
"v  c #120A5F",
"b  c #061E50",
"n  c #09115B",
"m  c #0C155F",
"M  c #151552",
"N  c #100D65",
"B  c #130C68",
"V  c #0F1961",
"C  c #101567",
"Z  c #13027C",
"A  c #111271",
"S  c #11256D",
"D  c #434743",
"F  c #565656",
"G  c #595857",
"H  c #5D5C5A",
"J  c #606561",
"K  c #626560",
"L  c #666764",
"P  c #6C6D69",
"I  c #717370",
"U  c #727471",
"Y  c #747571",
"T  c #140181",
"R  c #170B90",
"E  c #1F179D",
"W  c #1903A0",
"Q  c #1906A5",
"!  c #1511A1",
"~  c #1A16A8",
"^  c #1F06B2",
"/  c #1D00B6",
"(  c #1B05B4",
")  c #1C04B6",
"_  c #1908B2",
"`  c #1A1BB8",
"'  c #2010BB",
"]  c #1C20BD",
"[  c #1E02C5",
"{  c #1F07D1",
"}  c #1F09D7",
"|  c #1F11D0",
" . c #2102CC",
".. c #2210CF",
"X. c #2005DC",
"o. c #2105DE",
"O. c #1E2FD4",
"+. c #250EE3",
"@. c #230BE6",
"#. c #2407EC",
"$. c #230DE9",
"%. c #260DEA",
"&. c #281DE1",
"*. c #2602F4",
"=. c #2706F5",
"-. c #2802F9",
";. c #2806F8",
":. c #2800FE",
">. c #878583",
",. c #878987",
"<. c #8F8C8A",
"1. c #959692",
"2. c #929797",
"3. c #999C98",
"4. c #999C99",
"5. c #9B9D99",
"6. c #A2A1A0",
"7. c #A1A6A2",
"8. c #A9ABA9",
"9. c #B0B1AE",
"0. c #B3B6B3",
"q. c #B8B8B7",
"w. c #BABDBF",
"e. c #BDBDBE",
"r. c #D2D3D2",
"t. c #DBDCDB",
"y. c #F2F3F3",
/* pixels */
"g 0 u u t u u r t u t u u u p G ",
"V :.:.:.:.:.;.@.o.X.o.%.:.:.:.M ",
"C :.:.:...A k 2 * & < q v ~ -.l ",
"c :.| N                     y % ",
"j #.z                   + U -   ",
"i _   6 2.I J 5.h 7 4.7.D r.4   ",
"w W   ,.w.K t.6.q.Y 1.y.P 9.o   ",
"9 O.1 >.f 5 0.3.H 8.<.e.L F     ",
"8 &.E ;     @     = O o o       ",
"3 +.:.$.B $                 x . ",
", } :.:.:.=.] ! T e     > Q  .& ",
": { :.:.:.:.:.:.*.m X S :.:.[ . ",
"&  .:.:.:.:.:.:.) a ' :.:.:.` # ",
"  n ( / / / / / Z R / / / ^ b   ",
"                                ",
"s                             d "
};
