/* XPM */
static char *recycle[] = {
/* columns rows colors chars-per-pixel */
"16 16 69 1 ",
"  c #000600",
". c #002000",
"X c #042F04",
"o c #082800",
"O c #0C2210",
"+ c #142410",
"@ c #0C3610",
"# c #103D18",
"$ c #044904",
"% c #085D08",
"& c #104B14",
"* c #145F18",
"= c #14591C",
"- c #146514",
"; c #146714",
": c #14651C",
"> c #187114",
", c #206514",
"< c #244520",
"1 c #186D20",
"2 c #247C28",
"3 c #206D30",
"4 c #247534",
"5 c #287D38",
"6 c #4F7857",
"7 c #108818",
"8 c #109818",
"9 c #1C9C24",
"0 c #1C902C",
"q c #288828",
"w c #289628",
"e c #3D8E3D",
"r c #209830",
"t c #10A220",
"y c #14AA24",
"u c #18B228",
"i c #20A428",
"p c #28AD2C",
"a c #30AE28",
"s c #24B028",
"d c #20BB2C",
"f c #2CB92C",
"g c #20B531",
"h c #30BB35",
"j c #28C330",
"k c #2CC539",
"l c #3D8245",
"z c #39B245",
"x c #41BB49",
"c c #53A05B",
"v c #45BD51",
"b c #5BB25B",
"n c #59B261",
"m c #3DC949",
"M c #39EF49",
"N c #41CB49",
"B c #49D55D",
"V c #59C361",
"C c #5DDB6D",
"Z c #70C578",
"A c #67D578",
"S c #61E379",
"D c #74CD84",
"F c #6DE590",
"G c #80E394",
"H c #8CE5AA",
"J c #9EE3AE",
"K c #90F3A6",
"L c None",
/* pixels */
"LLLLLLLLL@$&LLLL",
"LLLLJKCvO%*3<LLL",
"LLLLDNzu=%35w;$L",
"LLLbje9XL:5wa-LL",
"LLLL,itLL4ufkLLL",
"LLLLLLLLLLLLL1$L",
"LAGSBLLLLLL:ttyL",
"LCMNdlLL4LL9rup,",
"LbjwuLLLLLLLzxm>",
"L7su#LLLLLLL7gtL",
"LLs2LLLLLK6Lq5$L",
"LLL.%30-LJFni:LL",
"LLL+*4i>cHVs3&LL",
"LLLo1th8LZs5:LLL",
"LLLLLLLLLL LLLLL",
"LLLLLLLLLLLLLLLL"
};
