/* XPM */
static char *scsi[] = {
/* columns rows colors chars-per-pixel */
"16 16 85 1 ",
"  c #263942",
". c #2F434C",
"X c #334751",
"o c #3A4E59",
"O c #3A4F59",
"+ c #3C525C",
"@ c #3E545E",
"# c #3F545F",
"$ c #4A4D4F",
"% c #415560",
"& c #405661",
"* c #425862",
"= c #465B66",
"- c #4C5E66",
"; c #475D68",
": c #4E5F68",
"> c #5F6C73",
", c #596B76",
"< c #5C6D78",
"1 c #5D6E78",
"2 c #5F7079",
"3 c #66747F",
"4 c #65767F",
"5 c #69747A",
"6 c #6D787E",
"7 c #6A7982",
"8 c #6B7A83",
"9 c #6E7C85",
"0 c #717B81",
"q c #717D85",
"w c #757E84",
"e c #767E85",
"r c #717F88",
"t c #778086",
"y c #738189",
"u c #76828B",
"i c #7A858D",
"p c #7C878F",
"a c #7E878F",
"s c #7F888F",
"d c #818991",
"f c #828B91",
"g c #858E95",
"h c #878F96",
"j c #899096",
"k c #8B9298",
"l c #91979C",
"z c #94999E",
"x c #969A9F",
"c c #999CA1",
"v c #9EA0A4",
"b c #A2A3A6",
"n c #A4A5A8",
"m c #A7A8AA",
"M c #ABACB0",
"N c #B1AFB2",
"B c #B3B1B3",
"V c #B1B2B6",
"C c #B2B3B7",
"Z c #B6B3B5",
"A c #B6B5B7",
"S c #B7B5B7",
"D c #BAB6B7",
"F c #BBB7B8",
"G c #B6B8BB",
"H c #BDB8B9",
"J c #BFB9BB",
"K c #C2BCBD",
"L c #CAC5C5",
"P c #CDC7C5",
"I c #CFC7C6",
"U c #CFC8C8",
"Y c #D0C9C8",
"T c #D5CCCB",
"R c #D8CECE",
"E c #DAD1D0",
"W c #DED5D4",
"Q c #E1D8D6",
"! c #E3DAD8",
"~ c #E7DDDC",
"^ c #EEE6E5",
"/ c #F1EBE9",
"( c #F9F5F4",
") c #FBF9F8",
"_ c None",
/* pixels */
"_______as_______",
"______v)^c______",
"_____b/NS~c_____",
"____b/p%1kQx____",
"___n/p@__ujEl___",
"__n/i*____u:>o__",
"_m/p;________$q_",
"f(A;____7GGCCVM-",
"4~L4____&tew065 ",
"_9!Hy_________O_",
"__8WDy____rzd=__",
"___3RZu__uIK%___",
"____2TBhgYH%____",
"_____<PUEF#_____",
"______,JB+______",
"_______X._______"
};
