/* XPM */
static char *sounds[] = {
/* columns rows colors chars-per-pixel */
"16 16 17 1 ",
"  c black",
". c #222222",
"X c #444444",
"o c #4D4D80",
"O c #4D4D99",
"+ c #666680",
"@ c #6666B3",
"# c #6666CC",
"$ c #8888A2",
"% c #8080B3",
"& c #8080E6",
"* c #9999E6",
"= c #9999FF",
"- c #CCCCFF",
"; c #E6E6FF",
": c white",
"> c None",
/* pixels */
">>>>>>>>>>>>>>>>",
">>>>>>>>>>>>>>>>",
">>>>>>>>>>>>>>>>",
">>>>>>>>>>>>>>>>",
">> ---->>>>>>>>>",
"> ------>>>>>>>>",
">;;;;;;;;;;;;;;+",
">-----O--------o",
">----#&----$---o",
">--+#-*-$$-----o",
">---:-&-$-$$---o",
">-%&&=@-$-$$---o",
">-:+#=@-$$-X---o",
">---:#O--X-$---o",
">----: -:-X----o",
">+++++ ++.+++++ "
};
