/* XPM */
static char *stuff[] = {
/* columns rows colors chars-per-pixel */
"16 16 23 1 ",
"  c black",
". c #3AEB3AEB3AEB",
"X c #32CB0000679E",
"o c #4D354D354D35",
"O c #51455145534D",
"+ c #4D354D35679E",
"@ c #6FBF6FBF6FBF",
"# c #75D675D675D6",
"$ c #679E679E8000",
"% c #7FFF4D35B4D3",
"& c #65950000CF3C",
"* c #A2896FBFD75D",
"= c #9A699A699A69",
"- c #AAAAAAAAAAAA",
"; c #9A699A69CF3C",
": c #CD34CB2CC71C",
"> c #D75DD75DD75D",
", c #DF7DDF7DDF7D",
"< c #CD34CD34E79E",
"1 c #CF3CCF3CFFFF",
"2 c #FFFFFBEEF3CE",
"3 c white",
"4 c None",
/* pixels */
"4444444444444444",
"4444444=44444444",
"444444,,=4444444",
"44444,*&,===4444",
"4444,@X&&=23:=44",
"4444o,@ @%222344",
"444  ,,,@ 222=44",
"4  ;,#-,,@O22344",
"43  -;>#,O  3;44",
"4 13 ;,-@ 3;  44",
"4$1113  3; ;;+44",
"4 11111< ;;;; 44",
"444$111<;;; #444",
"44##.$1<; ##4444",
"4444##. ##444444",
"444444##44444444"
};
