/* XPM */
static char *stylesheet[] = {
/* columns rows colors chars-per-pixel */
"16 16 89 1 ",
"  c #0B0904",
". c #0E0B05",
"X c #110D07",
"o c #141108",
"O c #171209",
"+ c #1F180C",
"@ c #292110",
"# c #2C2311",
"$ c #322814",
"% c #352A15",
"& c #382D16",
"* c #3E3119",
"= c #3E3218",
"- c #42351B",
"; c #43361A",
": c #44361B",
"> c #44371B",
", c #47381C",
"< c #483A1D",
"1 c #554422",
"2 c #5B4924",
"3 c #5C4A24",
"4 c #614D26",
"5 c #644F27",
"6 c #675229",
"7 c #685229",
"8 c #70592C",
"9 c #715B2D",
"0 c #735B2D",
"q c #745D2E",
"w c #765D2F",
"e c #940000",
"r c #980000",
"t c #9D0F08",
"y c #9E1008",
"u c #A72714",
"i c #A82915",
"p c #886C36",
"a c #8B6F38",
"s c #907439",
"d c #927539",
"f c #95773A",
"g c #C46733",
"h c #C0773B",
"j c #A88642",
"k c #AB8844",
"l c #B38F47",
"z c #B89349",
"x c #D48E47",
"c c #DA964A",
"v c #CBA351",
"b c #D1A753",
"n c #D4A955",
"m c #D6AC55",
"M c #DCAF58",
"N c #DBB058",
"B c #DCB058",
"V c #DEB259",
"C c #E8A352",
"Z c #E3A954",
"A c #E2B55A",
"S c #E5B75B",
"D c #EBBC5E",
"F c #EDC261",
"G c #F1C160",
"H c #F2C261",
"J c #F5C362",
"K c #F3C462",
"L c #F6C563",
"P c #F7C563",
"I c #F9C763",
"U c #F4CB65",
"Y c #F7CC66",
"T c #FACA64",
"R c #FBC966",
"E c #FECB65",
"W c #FCCB66",
"Q c #FACE67",
"! c #FCCD67",
"~ c #FECC67",
"^ c #FFCE66",
"/ c #FDCC68",
"( c #FECF68",
") c #FFD067",
"_ c #FED069",
"` c #FFD269",
"' c #FED36A",
"] c #FFD66B",
"[ c #FED36C",
/* pixels */
"'_______/[_//_//",
"_E~/EE~E//EE/E//",
"(EEEEEEEEEEEEEEE",
"(EEEEEEEEEEEEEEE",
"(EEEEEEEEEEEEEEE",
"(^HBL^^SV~^RVDEE",
")b=<oAl.#9~:$>ME",
"]17YkNa 0sJO44nE",
"'5-B3zjdqXm8f+6(",
"(P*%2Wv@,pIw;&mE",
"(E!HEEETGEE`FQEK",
"(EEEEEEEEE(gu`Uy",
"^EEEEEEEEEZeritr",
"^EEEEEEEEEEcerrr",
"^EEEEEEEEEEEceeC",
"^EEEEEEEEEEEEhxE"
};
