/* XPM */
static char *sylpheed_16x16[] = {
/* columns rows colors chars-per-pixel */
"16 16 104 2 ",
"   c #393939",
".  c #3E3E3E",
"X  c #1F1F5F",
"o  c #04047A",
"O  c #32326E",
"+  c #3A3A6D",
"@  c #3C3C78",
"#  c #434343",
"$  c #464646",
"%  c #464747",
"&  c #474747",
"*  c #6C6C6C",
"=  c gray45",
"-  c #757575",
";  c #767576",
":  c #767676",
">  c #777878",
",  c #7B7B7B",
"<  c #7E7E7E",
"1  c #807F7F",
"2  c #040484",
"3  c #030391",
"4  c #343485",
"5  c #0404A8",
"6  c #0404AD",
"7  c #0404B3",
"8  c #403F81",
"9  c #444480",
"0  c #4B4B8D",
"q  c #505089",
"w  c #6D6D9A",
"e  c #4141A0",
"r  c #6E6EA5",
"t  c #6666BA",
"y  c #7272C1",
"u  c #808080",
"i  c #818181",
"p  c gray54",
"a  c #929392",
"s  c #99989B",
"d  c #9999A0",
"f  c #9796B4",
"g  c #A0A1A1",
"h  c #A1A2A1",
"j  c #ABAAAA",
"k  c #B1B1B1",
"l  c #B4B4B4",
"z  c #B4B5B5",
"x  c #B6B6B6",
"c  c #B7B7B7",
"v  c #B9B9B9",
"b  c gray73",
"n  c #BBBBBB",
"m  c #BCBCBC",
"M  c #BCBDBD",
"N  c #BEC0BE",
"B  c #9090C1",
"V  c #9E9ECB",
"C  c #ABAAC3",
"Z  c #C1C1C0",
"A  c #C3C3C3",
"S  c #C6C6C6",
"D  c #C2C1C8",
"F  c #CACAC9",
"G  c #CDCECD",
"H  c #C8C8D5",
"J  c #D0D0D0",
"K  c #D1D2D2",
"L  c #D2D2D2",
"P  c #D3D4D3",
"I  c #D3D4D4",
"U  c #D3D5D5",
"Y  c #D4D5D5",
"T  c #D5D7D5",
"R  c #D7D6D5",
"E  c #D6D5D6",
"W  c #D6D7D7",
"Q  c #D8D7D8",
"!  c #DDDEDE",
"~  c #DEDFDE",
"^  c #DEDEDF",
"/  c #DEDFDF",
"(  c #E0E1E1",
")  c #E1E1E1",
"_  c #E5E5E4",
"`  c #E5E5E5",
"'  c #E6E6E6",
"]  c #E7E7E6",
"[  c #EAE9E9",
"{  c #EAEBEB",
"}  c #EEEEED",
"|  c #EFF0EF",
" . c #EBEBF0",
".. c #F2F2F2",
"X. c #F5F5F5",
"o. c #F6F6F6",
"O. c #F7F7F6",
"+. c #F8F7F7",
"@. c #F8F8F8",
"#. c #FAFAF9",
"$. c #FBFBFB",
"%. c #FBFCFC",
"&. c #FEFEFE",
"*. c None",
/* pixels */
"*.*.*.*.*.*.*.*.*.*.*.*.*.*.*.*.",
"*.*.*.*.*.*.*.*.*.*.*.*.*.*.*.*.",
"*.*.*.*.*.*.*.*.*.*.*.*.*.*.*.*.",
"*.*.*.*.*.*.6 5 *.3 2 o *.*.*.*.",
"*.*.*.*.*.7 *.*.*.*.*.*.*.*.*.*.",
"*.*.# $ $ . $ $ $ & % & &   *.*.",
"*.*.&.X...y { t F b 4 / _ h *.*.",
"*.*.O.o.} ] B ^ H ! D 9 n v *.*.",
"*.*.%.| ..` ( P E Q U X J l *.*.",
"*.*.$. .e V Q W I L q + K z *.*.",
"*.*.#.d A Z s f G k O a T x *.*.",
"*.*.+.S X.[ ' ~ 8 @ p N P c *.*.",
"*.*.@.) C r 0 w g j R Y M m *.*.",
"*.*.1 = ; - : > , , < u i * *.*.",
"*.*.*.*.*.*.*.*.*.*.*.*.*.*.*.*.",
"*.*.*.*.*.*.*.*.*.*.*.*.*.*.*.*."
};
