/* XPM */
static char *TapeIcon1[] = {
/* columns rows colors chars-per-pixel */
"16 16 24 1 ",
"  c #001000",
". c #101000",
"X c #000010",
"o c #101010",
"O c #201010",
"+ c #301010",
"@ c #202020",
"# c #202030",
"$ c #304030",
"% c gray25",
"& c #405040",
"* c #505040",
"= c #505050",
"- c #506050",
"; c #505060",
": c #606060",
"> c #706070",
", c #808070",
"< c #909090",
"1 c #A08090",
"2 c #A09090",
"3 c #A0A0A0",
"4 c #B0B0C0",
"5 c None",
/* pixels */
"5555555555555555",
"5555555555555555",
"5555555555555555",
"5555555555555555",
"5#;;@@@4@@@@@@.2",
"5ooooooooooooo$<",
"5o@@@@@@@@@@@@@1",
"5o@@@@@@@@@@@@@<",
"5oooX:oo;; O;@@2",
"5ooo Ooo;;X>;@@<",
"5o@@@@@@@@@@@@@2",
"5o@@@@@@@@@++@@<",
"5-*%%&&%&&&**=,3",
"5555555555555555",
"5555555555555555",
"5555555555555555"
};
