/* XPM */
static char *teddy[] = {
/* columns rows colors chars-per-pixel */
"16 16 14 1 ",
"  c black",
". c #3EFC3EFC3EFC",
"X c #5F7E5F7E5F7E",
"o c #7BEF6FBF5965",
"O c #7DF77DF77DF7",
"+ c #80006BAE0000",
"@ c #FFFFD75C0000",
"# c #FBEFDB6D5965",
"$ c #800080008000",
"% c #BEFBBEFBBEFB",
"& c #F7DEDF7DB2CA",
"* c #DF7DDF7DDF7D",
"= c white",
"- c None",
/* pixels */
"--O%%%%%%%O-----",
"--%=======%O----",
"--%=======%%O---",
"--%=======%$X --",
"--%==  + o=%%%--",
"--%== @@@#===*--",
"--%== @+@  ==*--",
"--%= @@+ @@$=*--",
"--%=+@@#@ @$=*--",
"--%==+#&o@ ==*--",
"--%== @&#+ ==*--",
"--%=+@@+ @===*--",
"--%= & &@ ===*--",
"--%==$=  ====*--",
"--%==========*--",
"--.XXXXXXXXXXX--"
};
