/* XPM */
static char *telnet_16x16[] = {
/* columns rows colors chars-per-pixel */
"16 16 19 1 ",
"  c black",
". c #030303",
"X c #030303",
"o c #040404",
"O c #060606",
"+ c #060606",
"@ c #070707",
"# c #101010",
"$ c #141414",
"% c #252525",
"& c gray77",
"* c #D0D0D0",
"= c #DADADA",
"- c #EEEEEE",
"; c #FCFCFC",
": c #FDFDFD",
"> c #FEFEFE",
", c #FEFEFE",
"< c white",
/* pixels */
"-,,,,,,,,,,,,,,;",
"&              >",
"&              >",
"&              >",
"&              >",
"& :<@          >",
"&  O<<X        >",
"&    +<<       >",
"&    <<#       >",
"&  <<$         >",
"& :%           >",
"&       <<<<<< >",
"&       ooooo. >",
"&              >",
"&              >",
"*==============:"
};
