/* XPM */
static char *text[] = {
/* columns rows colors chars-per-pixel */
"16 16 7 1 ",
"  c black",
". c gray25",
"X c #606060",
"o c #808080",
"O c #C0C0C0",
"+ c white",
"@ c None",
/* pixels */
"@@.O.+O.+O.+O.@@",
"@@o+oo+oo+oo+.X@",
"@@+++++++++++XX@",
"@@+ooo+++++o+XX@",
"@@+ooo+++++++XX@",
"@@+++++++++++XX@",
"@@+ooo+++++++XX@",
"@@+++++++++++XX@",
"@@+ooooooooo+XX@",
"@@+ooooooooo+XX@",
"@@+ooooooooo+XX@",
"@@+ooooooooo+XX@",
"@@+ooo+++++++XX@",
"@@+ooo+++++++XX@",
"@@+++++++++++XX@",
"@@.XXXXXXXXXX @@"
};
