/* XPM */
static char *tmpfile[] = {
/* columns rows colors chars-per-pixel */
"16 16 16 1 ",
"  c black",
". c #3EFC3EFC3EFC",
"X c #5F7E5F7E5F7E",
"o c #618661866186",
"O c #7DF77DF77DF7",
"+ c yellow",
"@ c #C103C1034104",
"# c #800080008000",
"$ c #BEFBBEFBBEFB",
"% c #FFFFFFFF8000",
"& c #80008000FFFF",
"* c #C30BC30BC30B",
"= c #DF7DDF7DDF7D",
"- c #E185E185E185",
"; c white",
": c None",
/* pixels */
"::O$$$$$$$O:::::",
"::$;;;;;;;$O::::",
"::$;;;;&;;$$O:::",
"::$;;;;;;;$#X ::",
"::$;&&&&&&;$$$::",
"::$;&#####%%;=::",
"::$%#@@@@@@@;=::",
"::$%@@@@@@@@;=::",
"::$+@@@@@@@@+=::",
"::$;&&&&&&&&;=::",
"::$;&&&&&&&&;=::",
"::$;&&&;;;;;;=::",
"::$;;;;;;;;;;=::",
"::.--*ooo-;;;=::",
"::::::::::*--X::",
"::::::::::::::::"
};
