/* XPM */
static char *tools[] = {
/* columns rows colors chars-per-pixel */
"16 16 21 1 ",
"  c black",
". c #131313",
"X c gray24",
"o c #4B3100",
"O c #5D3D00",
"+ c #6E4900",
"@ c gray48",
"# c #CB8600",
"$ c #DC9200",
"% c #EE9E00",
"& c #EE9E13",
"* c #FFAA00",
"= c #FFAA13",
"- c #474780",
"; c #6A6A80",
": c #A7A7BD",
"> c #B1B1FF",
", c #D4D4FF",
"< c #EAEAFF",
"1 c white",
"2 c None",
/* pixels */
"2222222222222222",
"2222222222222222",
"2222222222222222",
"2222222222222222",
"22,,,, 222222222",
"2,,,,,, 22222222",
";<<<<<<<<<<<<<<2",
";111@@X:111111>2",
";11@@  ,111111>2",
";1@@$+;1111111>2",
";@@ O%&+;11111>2",
";   1;O*#O;111>2",
"; .1111;+=#o;1>2",
";11111111;o%= >2",
";1111111111;  >2",
" ;;;;;;;;;;;;;-2"
};
