/* XPM */
static char *Wrench_12bit[] = {
/* columns rows colors chars-per-pixel */
"16 16 11 1 ",
"  c black",
". c #203020",
"X c #302030",
"o c #A0A0A0",
"O c #90C0B0",
"+ c #90B0C0",
"@ c #C0B0C0",
"# c #80C0C0",
"$ c #B0C0C0",
"% c #C0C0C0",
"& c None",
/* pixels */
"&&.X&&&&&&&&&&&&",
"&XXO%&&&&&&&&&&&",
"&&&X# &&&&&&&&&&",
"&&&. +&&&&&&&&&&",
"&%&+ #&&&&&&&&&&",
"& %. +.&&&&&&&&&",
"&&&& $%.&&&&&&&&",
"&&&&&X%@.&&&&&&&",
"&&&&&&X#+.&&&&&&",
"&&&&&&&X#+.&&&&&",
"&&&&&&&&Xo%.&&&&",
"&&&&&&&&&X%@.&&&",
"&&&&&&&&&&Xo%.&&",
"&&&&&&&&&&&XoX.&",
"&&&&&&&&&&&&X&.&",
"&&&&&&&&&&&&&&&&"
};
