/* XPM */
static char *write[] = {
/* columns rows colors chars-per-pixel */
"16 16 30 1 ",
"  c black",
". c #2B2B2B",
"X c #3C3C3C",
"o c #4D1A00",
"O c #77442B",
"+ c #777777",
"@ c #993300",
"# c #80331A",
"$ c #801A33",
"% c #88553C",
"& c #CC4D1A",
"* c #CC6633",
"= c #FF6633",
"- c #FF3366",
"; c #9D6A52",
": c #FF9966",
"> c #FF6699",
", c #FFB380",
"< c #FFB3B3",
"1 c #FFCC99",
"2 c #EED5BB",
"3 c #FFE6B3",
"4 c #C0C0C0",
"5 c #E0E0C6",
"6 c #FFE6CC",
"7 c #FFFFCC",
"8 c #CCCCFF",
"9 c #FFCCE6",
"0 c white",
"q c None",
/* pixels */
"qqqqqqq qqqqqqqq",
"qqqqqq  +qqqqqqq",
"qqqqq  +77qqqqqq",
"qqqq  +7787qqqqq",
"qqq  +778777qqqq",
"qq  +778<9777qqq",
"q  +778>777777qq",
"  +778777:::777q",
"qX3387-7:o=1177 ",
"qq0737$3oo #112q",
"qqq0377@=*,,,,6X",
"qqqq0775@@&&&&;.",
"qqqqq07744%oqqO ",
"qqqqqq0774 qqqqq",
"qqqqqqq03 qqqqqq",
"qqqqqqqq qqqqqqq"
};
