/* XPM */
static char *writings[] = {
/* columns rows colors chars-per-pixel */
"16 16 19 1 ",
"  c black",
". c gray17",
"X c #6E4900",
"o c #434343",
"O c #555555",
"+ c #606060",
"@ c #676767",
"# c #686868",
"$ c #474780",
"% c #6A6A80",
"& c #B1B1FF",
"* c #C0C0C0",
"= c #C3C3C3",
"- c #D4D4FF",
"; c #EAEAFF",
": c gray95",
"> c #F9F9F9",
", c white",
"< c None",
/* pixels */
"<<<<<<<<<<<<<<<<",
"<<<<<<<<<<<<<<<<",
"<<<<<<<<<<<<<< <",
"<<<<<<<<<<<< <<<",
"<<---- <<<<  <<<",
"<------ <<  <<<<",
"%;;;;;;;; > ;;;<",
"%,,,,,,, : ,,,&<",
"%,,,,,, o ,,, &<",
"%,,,,,X   , ,,&<",
"%,,,,o@  ,, %,&<",
"%,,,.=:o,,,,%%&<",
"%,,* :# ,,,% ,&<",
"%,+ :O%,%%%,,,&<",
"%, :O %,,,,,,,&<",
"    %%%%%%%%%%$<"
};
