/* XPM */
static char *xpn_16x16[] = {
/* columns rows colors chars-per-pixel */
"16 16 74 1 ",
"  c #000001",
". c #000018",
"X c #000024",
"o c #000028",
"O c #000029",
"+ c #0F062B",
"@ c #1C0C2C",
"# c #1D1433",
"$ c #441C31",
"% c #4B1F33",
"& c #4C2033",
"* c #4C2034",
"= c #502233",
"- c #572433",
"; c #532234",
": c #542234",
"> c #592533",
", c #5D2733",
"< c #5E2733",
"1 c #5F2733",
"2 c #602733",
"3 c #602833",
"4 c #612833",
"5 c #652933",
"6 c #652A32",
"7 c #662A32",
"8 c #672B32",
"9 c #662A33",
"0 c #672B33",
"q c #622834",
"w c #692B32",
"e c #6A2C32",
"r c #6D2D33",
"t c #6D2D34",
"y c #6F2D35",
"u c #6F2E35",
"i c #712E36",
"p c #722F36",
"a c #7C3239",
"s c #88373D",
"d c #973E41",
"f c #983E41",
"g c #9A3F42",
"h c #9F4244",
"j c #97444D",
"k c #9D454B",
"l c #A04242",
"z c #A0454A",
"x c #A64A4E",
"c c #A45153",
"v c #B15255",
"b c #B5565A",
"n c #B45A5D",
"m c #B8595C",
"M c #A75F67",
"N c #BB6061",
"B c #BD6766",
"V c #BE6864",
"C c #BB6568",
"Z c #BE6B6A",
"A c #BD6C6E",
"S c #BA726B",
"D c #C06960",
"F c #C16D66",
"G c #C26E69",
"H c #C16F6C",
"J c #C37470",
"K c #C27471",
"L c #C47872",
"P c #C98378",
"I c #CB8678",
"U c #CF8D78",
"Y c #D4AE8B",
"T c None",
/* pixels */
"TTTTTTTTTTTTTTTT",
"TTTTTTTTTTTTTTTT",
"TTTTTTTTTOCAMOTT",
"TTOO@OTTfdKLU+TT",
"OnBZHJSOdgl*:TTT",
"To#PIYk1ph4;OTTT",
"TTTOuai946-&TTTT",
"TTTTO5yt01<1OTTT",
"TTTTzxswe2>q3%OT",
"TTTjvbV67XO$&.TT",
"TTONmFr,OTTTTTTT",
"TTDGL8=OTTTTTTTT",
"TT OcOTTTTTTTTTT",
"TTTTTTTTTTTTTTTT",
"TTTTTTTTTTTTTTTT",
"TTTTTTTTTTTTTTTT"
};
