/* XPM */
static char *xapp[] = {
/* columns rows colors chars-per-pixel */
"16 16 17 1 ",
"  c black",
". c #3AEB3AEB3AEB",
"X c #32CB4D354D35",
"o c #75D675D675D6",
"O c #800000000000",
"+ c red",
"@ c #B2CA4D354D35",
"# c #FFFF8000679E",
"$ c #65959A699A69",
"% c #FFFF80008000",
"& c #B2CACD34B4D3",
"* c #FFFFE79EB4D3",
"= c #B2CACD34CD34",
"- c #FFFFCD34CF3C",
"; c #FFFFFFFFCF3C",
": c white",
"> c None",
/* pixels */
">>>>>>> >>>>>>>>",
">>>>>>  o>>>>>>>",
">>>>>  o;;>>>>>>",
">>>>  o;;;;>>>>>",
">>>OOO;;;;;#>>>>",
">> +++@;;;;+@>>>",
">  o+++-;;+;$&>>",
"  o;;+++&+;$;;;>",
">.;;;#+$+++;;;; ",
">>:;;+@$+++$;; >",
">>>%+;$;;+++* >>",
">>>>@$;;;;@@@>>>",
">>>>>=;;;;*X>>>>",
">>>>>>:;;; >>>>>",
">>>>>>>:; >>>>>>",
">>>>>>>> >>>>>>>"
};
