/* XPM */
static char *xclipboard[] = {
/* columns rows colors chars-per-pixel */
"16 16 16 1 ",
"  c black",
". c #2C2C2C",
"X c #602C00",
"o c gray25",
"O c #626262",
"+ c #E09A54",
"@ c #808080",
"# c #C08080",
"$ c #FFDCA8",
"% c #FFEEB4",
"& c #C0C0C0",
"* c #FFFFC0",
"= c #E1E1E1",
"- c #FFFFE0",
"; c white",
": c None",
/* pixels */
"::::::::::::::::",
":: ooo ;; oooo::",
"::o @ ==O= @@o::",
":: @;@.... ;;o::",
":X% ;;;;;;;;;o::",
"::+*&;=====;;o::",
"::X$ ;====;;;o::",
":: +*&;====;;o::",
"::oX$ ;===;;;o::",
"::o +*&====;;o::",
"::ooX$ ;==;;;o::",
"::o@o+*=;;;;;o::",
"::o@&X-#;;;;;o::",
"::o@;@ #;;;;;o::",
"::o @@oo@@@@@o::",
":: ooooooooooo::"
};
