/* XPM */
static char *xfig[] = {
/* columns rows colors chars-per-pixel */
"16 16 16 1 ",
"  c black",
". c #502917",
"X c #196719",
"o c #17462C",
"O c #674320",
"+ c sienna",
"@ c #B76C36",
"# c #008000",
"$ c #50A917",
"% c green",
"& c #17C52C",
"* c LimeGreen",
"= c SeaGreen",
"- c #30AC45",
"; c peru",
": c None",
/* pixels */
"::::::::::::::::",
"::::::::::::::::",
":: ::::: :::::#%",
":::::::::::::#%%",
":::::::::::: %%%",
"::@;O::::::O$%#%",
"::::.+.O@. %% %%",
":::::: ::=%#%%%%",
"::::: *:o%#%#%#%",
":::::*X:=&: #%%%",
"::::=*X::: %#%%%",
":::o=** ::%%%#%%",
":: =***X:#%%#:#%",
"::= ****:#%% :%%",
":o=-X***::::::%%",
":==-*****:::::%%"
};
