/* XPM */
static char *xfig2[] = {
/* columns rows colors chars-per-pixel */
"16 16 18 1 ",
"  c black",
". c #002000",
"X c #202000",
"o c #602C00",
"O c #004000",
"+ c #006000",
"@ c #404000",
"# c #80542C",
"$ c #008000",
"% c #00A000",
"& c #00C000",
"* c #808000",
"= c #A0A000",
"- c #C0C000",
"; c #E0E000",
": c yellow",
"> c #B0B050",
", c None",
/* pixels */
",,,,,,,,,,,X,,,,",
",,,,,,,,,,:-@,,,",
",,,,,,,,,*-- ,,,",
",#,,,,,,,----:; ",
",,##oooo -=----@",
",,,, , =-----*-@",
",,, O,=----=--= ",
",,,& ,@ >----* ,",
",,+$O,, ----=-@,",
", $$$ ,=-* ---=,",
",&$$$O,=- @-=-=,",
"+$%$$+ @ ,@-=-=,",
"+$$$$+,,,,@---@,",
"+$$$$+,,,,,*-*,,",
",OOO+,,,,,,,@,,,",
",, .,,,,,,,,,,,,"
};
