/* XPM */
static char *xrolodex[] = {
/* columns rows colors chars-per-pixel */
"16 16 25 1 ",
"  c #222222",
". c gray20",
"X c #444444",
"o c #4D4D4D",
"O c #555555",
"+ c #5E5E5E",
"@ c gray40",
"# c #777777",
"$ c #901111",
"% c #A12222",
"& c #AA2B2B",
"* c #BB3C3C",
"= c #FE0000",
"- c #D45555",
"; c #808080",
": c #888888",
"> c #919191",
", c gray60",
"< c #AAAAAA",
"1 c #B3B3B3",
"2 c #BBBBBB",
"3 c gray80",
"4 c #DDDDDD",
"5 c #EEEEEE",
"6 c None",
/* pixels */
"6666666666666666",
"666#<<<<<<<;6666",
"6O:::::::24<5:66",
"66222222222<5;66",
"66&--###<2:<:446",
"6<<===<<<<;==4@6",
"66<-===<<X==4<2O",
"66>o*==$>==4@O,X",
"66+.+=====%.OO66",
"66333==3===:::O6",
"6555==553===::@ ",
"66<==<<<<====::6",
"6633333333:#>o66",
"6:1111111:1@;O66",
"666#,,,,,,,66666",
"6666666666666666"
};
