/* XPM */
static char * icon_hb_xpm[] = {
"16 16 144 2",
"  	c None",
". 	c #000000",
"+ 	c #030303",
"@ 	c #EFEEE8",
"# 	c #D9CD9E",
"$ 	c #BFA543",
"% 	c #BA9F36",
"& 	c #BA9E36",
"* 	c #BA9F37",
"= 	c #BBA037",
"- 	c #BBA238",
"; 	c #BBA43A",
"> 	c #BBA93E",
", 	c #B68725",
"' 	c #D9CC9B",
") 	c #C9AF61",
"! 	c #BA9631",
"~ 	c #B8912A",
"{ 	c #B9922A",
"] 	c #BA922A",
"^ 	c #B9932B",
"/ 	c #B9952C",
"( 	c #B9962D",
"_ 	c #BA982D",
": 	c #BB9A2F",
"< 	c #BB9E33",
"[ 	c #B67F1C",
"} 	c #BDA03F",
"| 	c #BA932F",
"1 	c #B88E27",
"2 	c #B98E26",
"3 	c #B88F27",
"4 	c #B99229",
"5 	c #BA962D",
"6 	c #BB9D30",
"7 	c #B78420",
"8 	c #B99931",
"9 	c #B78B24",
"0 	c #B98C26",
"a 	c #B89028",
"b 	c #B9942B",
"c 	c #BA992F",
"d 	c #BB9D31",
"e 	c #BCA134",
"f 	c #B78623",
"g 	c #B99830",
"h 	c #B78D25",
"i 	c #B78C25",
"j 	c #B99028",
"k 	c #BA9129",
"l 	c #BA952D",
"m 	c #BA992E",
"n 	c #BA9C31",
"o 	c #BB9F33",
"p 	c #BCA236",
"q 	c #B68823",
"r 	c #BA9B32",
"s 	c #B89129",
"t 	c #B99027",
"u 	c #B99029",
"v 	c #BA952B",
"w 	c #BA972D",
"x 	c #BB9A30",
"y 	c #BB9D32",
"z 	c #BBA135",
"A 	c #BBA336",
"B 	c #BCA438",
"C 	c #BCA538",
"D 	c #B78D28",
"E 	c #BB9E35",
"F 	c #BA952A",
"G 	c #B99329",
"H 	c #BA932A",
"I 	c #BA952C",
"J 	c #BA992D",
"K 	c #BB9C30",
"L 	c #BBA034",
"M 	c #BCA337",
"N 	c #BCA639",
"O 	c #BCA73A",
"P 	c #B7912A",
"Q 	c #BCA136",
"R 	c #BB972D",
"S 	c #BB972C",
"T 	c #BC9D32",
"U 	c #BCA135",
"V 	c #BCA93D",
"W 	c #BCAA3D",
"X 	c #B7942B",
"Y 	c #BCA237",
"Z 	c #BB9A2E",
"` 	c #BB992E",
" .	c #BB9B30",
"..	c #BCA539",
"+.	c #BCAA3E",
"@.	c #BCAB3F",
"#.	c #BCAC41",
"$.	c #BDAE47",
"%.	c #BCAA3F",
"&.	c #B89933",
"*.	c #BC9C31",
"=.	c #BCA93C",
"-.	c #BCAC40",
";.	c #BDAF4B",
">.	c #C2B86F",
",.	c #C0B45F",
"'.	c #BCAD45",
").	c #B89B35",
"!.	c #BC9E32",
"~.	c #BCA63A",
"{.	c #BCAA3C",
"].	c #BCAD41",
"^.	c #C0B35D",
"/.	c #C9C29B",
"(.	c #BFB050",
"_.	c #B79C34",
":.	c #BCA032",
"<.	c #BCAC3F",
"[.	c #BEAF4A",
"}.	c #C1B563",
"|.	c #B89C35",
"1.	c #BCA83B",
"2.	c #BCA133",
"3.	c #BCA235",
"4.	c #BCA336",
"5.	c #BCA537",
"6.	c #BCAB40",
"7.	c #BCAC42",
"8.	c #BDAE45",
"9.	c #BCAC44",
"0.	c #BCA73D",
"a.	c #B79530",
"b.	c #B78F29",
"c.	c #B78622",
"d.	c #B78522",
"e.	c #B78823",
"f.	c #B79029",
"g.	c #B7952E",
"h.	c #B79731",
"i.	c #B89F36",
"j.	c #B89D35",
"k.	c #B79A33",
"l.	c #B7902C",
"m.	c #B48523",
". . . + . . . . . . . . . . . . ",
". @ # $ % & & * % % = - ; > , . ",
". ' ) ! ~ { ] ^ / / ( _ : < [ . ",
"+ } | 1 . 2 . 3 . 4 . 5 . 6 7 . ",
". 8 3 . 9 0 2 a a b _ c d e f . ",
". g 3 h i 2 j k l m n o . p q . ",
". r s . t u v w x y z A B C D . ",
". E F G H I J K L M N O . O P . ",
". Q R . S : T U N O V W W V X . ",
". Y Z `  .T p ..+.@.#.$.. %.&.. ",
". N *.. . . C =.@.-.;.>.,.'.).. ",
". ..!.. . . ~.{.@.].^./.. (._.. ",
". ~.:.. . . O . <.. [.. }.$.|.. ",
". 1.2.3.4.5.O W %.6.7.8.9.0.a.. ",
". b.c.d.e.e.f.g.h.|.i.j.k.l.m.. ",
". . . . . . . . . . . . . . . . "};
