/* XPM */
static char * maxi_xpm[] = {
"16 16 132 2",
"  	c None",
". 	c #000000",
"+ 	c #FBF6E0",
"@ 	c #ECD474",
"# 	c #E6C442",
"$ 	c #E5C443",
"% 	c #E5C342",
"& 	c #E5C444",
"* 	c #E5C442",
"= 	c #E6C544",
"- 	c #E6C745",
"; 	c #E6CA48",
"> 	c #E6D04C",
", 	c #E0A62D",
"' 	c #ECD16F",
") 	c #E5BC41",
"! 	c #E3B534",
"~ 	c #E3B334",
"{ 	c #E4B434",
"] 	c #E5B434",
"^ 	c #E4B535",
"/ 	c #E4B736",
"( 	c #E4B937",
"_ 	c #E5BB38",
": 	c #E6BE3A",
"< 	c #E6C33F",
"[ 	c #E09D23",
"} 	c #E4BE3E",
"| 	c #E3B131",
"1 	c #E6C13B",
"2 	c #E1A228",
"3 	c #E4BC3C",
"4 	c #E3B030",
"5 	c #E2AB2C",
"6 	c #E4AD2F",
"7 	c #E4AF2F",
"8 	c #E3B231",
"9 	c #E4B635",
"0 	c #E5BD3A",
"a 	c #E7C640",
"b 	c #E1A52B",
"c 	c #E4BB3B",
"d 	c #E2AD2E",
"e 	c #E5B332",
"f 	c #E5BD39",
"g 	c #E6C43F",
"h 	c #E7C742",
"i 	c #E0A72B",
"j 	c #E5BF3E",
"k 	c #E3B332",
"l 	c #E4B130",
"m 	c #E5B735",
"n 	c #E5BA38",
"o 	c #E6BE3B",
"p 	c #E6C23D",
"q 	c #E6C641",
"r 	c #E6C943",
"s 	c #E8CB45",
"t 	c #E1AE31",
"u 	c #E6C341",
"v 	c #E5B734",
"w 	c #E5B534",
"x 	c #E5B836",
"y 	c #E5BC38",
"z 	c #E6C03B",
"A 	c #E6C540",
"B 	c #E7C944",
"C 	c #E8CE47",
"D 	c #E8CE48",
"E 	c #E2B334",
"F 	c #E7C643",
"G 	c #E6BA38",
"H 	c #E6BA36",
"I 	c #E7C23D",
"J 	c #E7C641",
"K 	c #E7CC46",
"L 	c #E8D04B",
"M 	c #E8D14B",
"N 	c #E2B635",
"O 	c #E7C844",
"P 	c #E6BE39",
"Q 	c #E6BF3B",
"R 	c #E8CB46",
"S 	c #E8D14C",
"T 	c #E8D34E",
"U 	c #E9D657",
"V 	c #E8D24D",
"W 	c #E3BD3F",
"X 	c #E7C03C",
"Y 	c #E7C43F",
"Z 	c #E7CB45",
"` 	c #E8D34D",
" .	c #E9D85D",
"..	c #EFE389",
"+.	c #E8D555",
"@.	c #E3BF41",
"#.	c #E7CB46",
"$.	c #E7C33D",
"%.	c #E7C943",
"&.	c #E8CD47",
"*.	c #E8D14A",
"=.	c #E8D550",
"-.	c #EDDD72",
";.	c #F7EFBF",
">.	c #EBD963",
",.	c #E2C040",
"'.	c #E7C53E",
").	c #E3C041",
"!.	c #E8CF49",
"~.	c #E8C63F",
"{.	c #E8C841",
"].	c #E8C942",
"^.	c #E8CB44",
"/.	c #E8D24E",
"(.	c #E8D34F",
"_.	c #E8D451",
":.	c #E9D655",
"<.	c #E8D454",
"[.	c #E7CE4B",
"}.	c #E2B83B",
"|.	c #E2B033",
"1.	c #E1A52A",
"2.	c #E1A42A",
"3.	c #E1A72B",
"4.	c #E2B133",
"5.	c #E2B839",
"6.	c #E2BA3C",
"7.	c #E3C442",
"8.	c #E3C141",
"9.	c #E2BE3F",
"0.	c #E1B236",
"a.	c #DEA42B",
". . . . . . . . . . . . . . . . ",
". + @ # $ % % & * $ = - ; > , . ",
". ' ) ! ~ { ] ^ / / ( _ : < [ . ",
". } | . . . . . . . . . . 1 2 . ",
". 3 4 . 5 6 7 | 8 9 _ 0 . a b . ",
". c 4 . d 7 . e . f . g . h i . ",
". j k . l . m n o p q r . s t . ",
". u v . w x y z A B . C . D E . ",
". F G . H . I J K D L M . L N . ",
". O P . Q I h R S T . U . V W . ",
". K X . Y . Z . ` .  .... +.@.. ",
". #.$.. a %.&.*.T =.-.;.. >.,.. ",
". &.'.. . . . . . . . . . U ).. ",
". !.~.{.].^.D M /.(._.:.<.[.}.. ",
". |.1.2.3.3.4.5.6.).7.8.9.0.a.. ",
". . . . . . . . . . . . . . . . "};
