/* XPM */
static char * maxi_hb_xpm[] = {
"16 16 125 2",
"  	c None",
". 	c #000000",
"+ 	c #101010",
"@ 	c #FFFFFF",
"# 	c #D4C691",
"$ 	c #BB9F36",
"% 	c #BA9F36",
"& 	c #BA9E36",
"* 	c #BA9F37",
"= 	c #BBA037",
"- 	c #BBA238",
"; 	c #BBA43A",
"> 	c #BBA93E",
", 	c #B68725",
"' 	c #D4C58E",
") 	c #BE9F42",
"! 	c #B8932A",
"~ 	c #B8912A",
"{ 	c #B9922A",
"] 	c #BA922A",
"^ 	c #B9932B",
"/ 	c #B9952C",
"( 	c #B9962D",
"_ 	c #BA982D",
": 	c #BB9A2F",
"< 	c #BB9E33",
"[ 	c #B67F1C",
"} 	c #B99A32",
"| 	c #B89028",
"1 	c #BB9D30",
"2 	c #B78420",
"3 	c #B99931",
"4 	c #B88F27",
"5 	c #B78B24",
"6 	c #B98C26",
"7 	c #B98E26",
"8 	c #B9942B",
"9 	c #BA992F",
"0 	c #BCA134",
"a 	c #B78623",
"b 	c #B99830",
"c 	c #B78C25",
"d 	c #BA9129",
"e 	c #BA992E",
"f 	c #BB9F33",
"g 	c #BCA236",
"h 	c #B68823",
"i 	c #BA9B32",
"j 	c #B89129",
"k 	c #B99027",
"l 	c #BA952B",
"m 	c #BA972D",
"n 	c #BB9A30",
"o 	c #BB9D32",
"p 	c #BBA135",
"q 	c #BBA336",
"r 	c #BCA538",
"s 	c #B78D28",
"t 	c #BB9E35",
"u 	c #BA952A",
"v 	c #BA932A",
"w 	c #BA952C",
"x 	c #BA992D",
"y 	c #BB9C30",
"z 	c #BBA034",
"A 	c #BCA337",
"B 	c #BCA73A",
"C 	c #B7912A",
"D 	c #BCA136",
"E 	c #BB972D",
"F 	c #BB972C",
"G 	c #BC9D32",
"H 	c #BCA135",
"I 	c #BCA639",
"J 	c #BCA93D",
"K 	c #BCAA3D",
"L 	c #B7942B",
"M 	c #BCA237",
"N 	c #BB9A2E",
"O 	c #BB9B30",
"P 	c #BCA539",
"Q 	c #BCAA3E",
"R 	c #BCAB3F",
"S 	c #BDAE47",
"T 	c #BCAA3F",
"U 	c #B89933",
"V 	c #BC9C31",
"W 	c #BC9F33",
"X 	c #BDAF4B",
"Y 	c #C2B86F",
"Z 	c #BCAD45",
"` 	c #B89B35",
" .	c #BC9E32",
"..	c #BCA336",
"+.	c #BCA63A",
"@.	c #BCAA3C",
"#.	c #BCAD41",
"$.	c #C0B35D",
"%.	c #C9C29B",
"&.	c #BFB050",
"*.	c #B79C34",
"=.	c #BCA032",
"-.	c #B89C35",
";.	c #BCA83B",
">.	c #BCA133",
",.	c #BCA235",
"'.	c #BCA537",
").	c #BCAB40",
"!.	c #BCAC42",
"~.	c #BDAE45",
"{.	c #BCAC44",
"].	c #BCA73D",
"^.	c #B79530",
"/.	c #B78F29",
"(.	c #B78622",
"_.	c #B78522",
":.	c #B78823",
"<.	c #B79029",
"[.	c #B7952E",
"}.	c #B79731",
"|.	c #B89F36",
"1.	c #B89D35",
"2.	c #B79A33",
"3.	c #B7902C",
"4.	c #B48523",
". . + . . . . . . . . . . . . . ",
". @ # $ % & & * % % = - ; > , . ",
"+ ' ) ! ~ { ] ^ / / ( _ : < [ . ",
". } | . . . . . . . . . . 1 2 . ",
". 3 4 . 5 6 7 | | 8 _ 9 . 0 a . ",
". b 4 . c 7 . d . e . f . g h . ",
". i j . k . l m n o p q . r s . ",
". t u . v w x y z A . B . B C . ",
". D E . F . G H I B J K . J L . ",
". M N . O G g P Q R . S . T U . ",
". I V . W . r . R . X Y . Z ` . ",
". P  .. 0 ..+.@.R #.$.%.. &.*.. ",
". +.=.. . . . . . . . . . S -.. ",
". ;.>.,...'.B K T ).!.~.{.].^.. ",
". /.(._.:.:.<.[.}.-.|.1.2.3.4.. ",
". . . . . . . . . . . . . . . . "};
