/* XPM */
static char * menu_xpm[] = {
"16 16 147 2",
"  	c None",
". 	c #000000",
"+ 	c #FBF6E0",
"@ 	c #ECD474",
"# 	c #E6C442",
"$ 	c #E5C443",
"% 	c #E5C342",
"& 	c #E5C444",
"* 	c #E5C442",
"= 	c #E6C544",
"- 	c #E6C745",
"; 	c #E6CA48",
"> 	c #E6D04C",
", 	c #E0A62D",
"' 	c #ECD16F",
") 	c #E5BC41",
"! 	c #E3B534",
"~ 	c #E3B334",
"{ 	c #E4B434",
"] 	c #E5B434",
"^ 	c #E4B535",
"/ 	c #E4B736",
"( 	c #E4B937",
"_ 	c #E5BB38",
": 	c #E6BE3A",
"< 	c #E6C33F",
"[ 	c #E09D23",
"} 	c #E4BE3E",
"| 	c #E3B131",
"1 	c #E3AF2F",
"2 	c #E3AE2E",
"3 	c #E4AF2F",
"4 	c #E3B030",
"5 	c #E3B231",
"6 	c #E4B433",
"7 	c #E4B635",
"8 	c #E5B937",
"9 	c #E5BD3A",
"0 	c #E6C13B",
"a 	c #E1A228",
"b 	c #E4BC3C",
"c 	c #E2AC2E",
"d 	c #E2AB2C",
"e 	c #E4AD2F",
"f 	c #E6C13C",
"g 	c #E7C640",
"h 	c #E1A52B",
"i 	c #E4BB3B",
"j 	c #E2AE2E",
"k 	c #E2AD2E",
"l 	c #E4B231",
"m 	c #E5BD39",
"n 	c #E5C03C",
"o 	c #E6C43F",
"p 	c #E6C641",
"q 	c #E7C742",
"r 	c #E0A72B",
"s 	c #E5BF3E",
"t 	c #E3B332",
"u 	c #E3B130",
"v 	c #E4B130",
"w 	c #E4B232",
"x 	c #E5B735",
"y 	c #E6C23D",
"z 	c #E6C943",
"A 	c #E7CA45",
"B 	c #E8CB45",
"C 	c #E1AE31",
"D 	c #E6C341",
"E 	c #E5B734",
"F 	c #E4B533",
"G 	c #E5B534",
"H 	c #E5B836",
"I 	c #E5BC38",
"J 	c #E7C944",
"K 	c #E7CC46",
"L 	c #E8CE47",
"M 	c #E8CE49",
"N 	c #E8CE48",
"O 	c #E2B334",
"P 	c #E7C643",
"Q 	c #E6BA38",
"R 	c #E6B936",
"S 	c #E6BA36",
"T 	c #E7C23D",
"U 	c #E8D04B",
"V 	c #E8D14B",
"W 	c #E2B635",
"X 	c #E7C844",
"Y 	c #E6BE39",
"Z 	c #E6BD39",
"` 	c #E6BF3B",
" .	c #E9D657",
"..	c #E8D552",
"+.	c #E8D24D",
"@.	c #E3BD3F",
"#.	c #E7C03C",
"$.	c #E7C43F",
"%.	c #E9D85D",
"&.	c #EFE389",
"*.	c #EDDE75",
"=.	c #E8D555",
"-.	c #E3BF41",
";.	c #E7CB46",
">.	c #E7C33D",
",.	c #E7C63F",
"'.	c #E7C943",
").	c #E8CD47",
"!.	c #E8D550",
"~.	c #EDDD72",
"{.	c #F7EFBF",
"].	c #F4EAA9",
"^.	c #EBD963",
"/.	c #E2C040",
"(.	c #E7C53E",
"_.	c #E7C740",
":.	c #E7C841",
"<.	c #E8D44E",
"[.	c #E8D551",
"}.	c #EAD85B",
"|.	c #EFE184",
"1.	c #EEDF7A",
"2.	c #E3C041",
"3.	c #E8CF49",
"4.	c #E8C63F",
"5.	c #E8C841",
"6.	c #E8C942",
"7.	c #E8CB44",
"8.	c #E8D24E",
"9.	c #E8D34F",
"0.	c #E8D451",
"a.	c #E9D655",
"b.	c #E8D454",
"c.	c #E7CE4B",
"d.	c #E2B83B",
"e.	c #E2B033",
"f.	c #E1A52A",
"g.	c #E1A42A",
"h.	c #E1A72B",
"i.	c #E2B133",
"j.	c #E2B839",
"k.	c #E2BA3C",
"l.	c #E3C442",
"m.	c #E3C141",
"n.	c #E2BE3F",
"o.	c #E1B236",
"p.	c #DEA42B",
". . . . . . . . . . . . . . . . ",
". + @ # $ % % & * $ = - ; > , . ",
". ' ) ! ~ { ] ^ / / ( _ : < [ . ",
". } | 1 2 3 4 4 5 6 7 8 9 0 a . ",
". b 4 c d e 3 . . 7 _ 9 f g h . ",
". i 4 j k 3 l . . m n o p q r . ",
". s t u v w x . . y p z A B C . ",
". D E F G H I . . J K L M N O . ",
". P Q R S : T . . N U V V U W . ",
". X Y Z ` . . . . . .  ...+.@.. ",
". K #.T $.q . . . . %.&.*.=.-.. ",
". ;.>.,.g '.).. . !.~.{.].^./.. ",
". ).(._.:.B N V <.[.}.|.1. .2.. ",
". 3.4.5.6.7.N V 8.9.0.a.b.c.d.. ",
". e.f.g.h.h.i.j.k.2.l.m.n.o.p.. ",
". . . . . . . . . . . . . . . . "};
