/* XPM */
static char * mini_thunar_xpm[] = {
"14 13 127 2",
"  	c None",
". 	c #9A9A9A",
"+ 	c #969696",
"@ 	c #959595",
"# 	c #939393",
"$ 	c #929292",
"% 	c #8C8C8C",
"& 	c #ADADAD",
"* 	c #919191",
"= 	c #888888",
"- 	c #6F6F6F",
"; 	c #A3A3A3",
"> 	c #878787",
", 	c #828282",
"' 	c #7F7F7F",
") 	c #7C7C7C",
"! 	c #7A7A7A",
"~ 	c #8B8B8B",
"{ 	c #8E8E8E",
"] 	c #949494",
"^ 	c #9B9B9B",
"/ 	c #838485",
"( 	c #7F8183",
"_ 	c #797B7D",
": 	c #757779",
"< 	c #737577",
"[ 	c #727476",
"} 	c #727375",
"| 	c #747577",
"1 	c #78797B",
"2 	c #7C7E80",
"3 	c #818385",
"4 	c #949393",
"5 	c #6A7F98",
"6 	c #79A0CD",
"7 	c #79A1CF",
"8 	c #779FCE",
"9 	c #78A0CE",
"0 	c #779FCD",
"a 	c #789DCA",
"b 	c #789DC8",
"c 	c #8C8B8B",
"d 	c #73879E",
"e 	c #83AAD4",
"f 	c #7FA8D3",
"g 	c #80A9D3",
"h 	c #7BA6D2",
"i 	c #95B7DB",
"j 	c #7AA5D1",
"k 	c #81AAD4",
"l 	c #848484",
"m 	c #758AA4",
"n 	c #80A8D2",
"o 	c #7EA7D3",
"p 	c #86ADD5",
"q 	c #D9E4F2",
"r 	c #FCFDFD",
"s 	c #B3CAE4",
"t 	c #7AA4D1",
"u 	c #80A8D3",
"v 	c #7B7C7D",
"w 	c #758CA8",
"x 	c #7EA7D2",
"y 	c #9EBDDD",
"z 	c #E2EAF5",
"A 	c #F1F5FA",
"B 	c #EEF3F8",
"C 	c #F1F6FA",
"D 	c #BCD1E7",
"E 	c #87ADD5",
"F 	c #709ECE",
"G 	c #85ACD5",
"H 	c #738DAC",
"I 	c #98B9DB",
"J 	c #DBE7F2",
"K 	c #DCE7F3",
"L 	c #DEE8F3",
"M 	c #E1EBF5",
"N 	c #9CBCDD",
"O 	c #719ECE",
"P 	c #87ADD6",
"Q 	c #6D6F72",
"R 	c #6F8EB0",
"S 	c #7FA8D2",
"T 	c #78A3D0",
"U 	c #82A9D4",
"V 	c #C5D8EB",
"W 	c #C7D9EB",
"X 	c #B0C9E3",
"Y 	c #78A3D1",
"Z 	c #A8C4E1",
"` 	c #CEDDED",
" .	c #76A1D0",
"..	c #80A7D2",
"+.	c #66696D",
"@.	c #688BB4",
"#.	c #709DCF",
"$.	c #6E9CCE",
"%.	c #B2CBE4",
"&.	c #B4CCE5",
"*.	c #9ABADC",
"=.	c #6E9DCD",
"-.	c #9EBDDE",
";.	c #B5CCE5",
">.	c #6D9BCD",
",.	c #6E9CCD",
"'.	c #729CCB",
").	c #61656A",
"!.	c #5E87B6",
"~.	c #6798CC",
"{.	c #6697CC",
"].	c #80A8D4",
"^.	c #81A9D5",
"/.	c #74A1D0",
"(.	c #6697CB",
"_.	c #79A4D2",
":.	c #7FA8D4",
"<.	c #6495CB",
"[.	c #6597CC",
"}.	c #5F8FC4",
"|.	c #5D636A",
"1.	c #5787BE",
"2.	c #6194CB",
"3.	c #6093CA",
"4.	c #6194CA",
"5.	c #6295CC",
"6.	c #4D7EB8",
". + @ # $ %                 ",
"& @ * % = % -               ",
"; % > , ' ) ! > ~ { $ ]     ",
"^ / ( _ : < [ } | 1 2 3     ",
"4 5 6 7 7 7 7 7 8 9 9 0 a b ",
"c d e f g g f h i j g g g k ",
"l m n o f f p q r s o f t u ",
"v w f x e y z A B C D E F G ",
"| H f f I J K K L K M N O P ",
"Q R S T U V W X Y Z `  .F ..",
"+.@.#.$.u %.&.*.=.-.;.>.,.'.",
").!.~.{.$.].^./.(._.:.<.[.}.",
"|.1.2.2.2.3.3.4.4.3.3.4.5.6."};
