/* XPM */
static char *mini_geeqie[] = {
/* columns rows colors chars-per-pixel */
"14 14 68 1 ",
"  c #273C5E",
". c #334C70",
"X c #364F74",
"o c #395379",
"O c #3D587F",
"+ c #484848",
"@ c #415574",
"# c #475A7E",
"$ c #5B6876",
"% c #495C80",
"& c #4E658B",
"* c #66779D",
"= c #7988A9",
"- c #7E8FAB",
"; c #7D92AF",
": c #808080",
"> c #979797",
", c #929AA5",
"< c #99A3AD",
"1 c gray64",
"2 c #A9A9A9",
"3 c #AAAAAA",
"4 c #B1B1B1",
"5 c #B4B4B4",
"6 c #B7B7B7",
"7 c #B9B9B9",
"8 c #BCBCBC",
"9 c #BEBEBE",
"0 c #BFBFBF",
"q c #C6C7BC",
"w c #EEF2AD",
"e c #F6F9BE",
"r c #9EB0CA",
"t c #A3B2CA",
"y c #B7C6D6",
"u c #BAC9DA",
"i c #C1C1C1",
"p c #C3C3C3",
"a c #C4C4C4",
"s c #C5C5C4",
"d c #C5C5C5",
"f c #C6C6C6",
"g c #C7C7C7",
"h c #CDCDC6",
"j c #C9C9C9",
"k c #CCCCCC",
"l c #CECECE",
"z c #D2D2D2",
"x c #D3D3D3",
"c c gray83",
"v c #D5D5D5",
"b c #D6D6D6",
"n c #D7D7D7",
"m c #D8D8D8",
"M c gray85",
"N c #DADADA",
"B c gray86",
"V c #DCDCDC",
"C c #DDDDDD",
"Z c #DEDEDE",
"A c #F7FAC8",
"S c #DBE3EB",
"D c #E0E0E0",
"F c #E7E7E7",
"G c #F4F4F4",
"H c #F9F9F9",
"J c white",
"K c None",
/* pixels */
"KKKKKKKKKKKKKK",
"KKKKKKKKKKKKKK",
"KVVCVBNMmbvcnK",
"KCasqi987654nK",
"KClAJhjgdpi0nK",
"KBnweb+VVDkkmK",
"KMDDD+uS<yHNNK",
"Kn===Vrt,$V*VK",
"Kx%##V;-&@V#ZK",
"Kz   1OX.oGf>K",
"KcvbnmVVVF2+KK",
"KKKKKKKKKK+3:K",
"KKKKKKKKKKK+V+",
"KKKKKKKKKKKKKK"
};
