/* XPM */
static char *mini_sylpheed[] = {
/* columns rows colors chars-per-pixel */
"16 16 95 2 ",
"   c black",
".  c #27276C",
"X  c #39397A",
"o  c #383881",
"O  c #0404A2",
"+  c #0505B6",
"@  c #0505B8",
"#  c #454586",
"$  c #4949AD",
"%  c #5C5CA9",
"&  c #6E6EA4",
"*  c #6968AE",
"=  c #7C7BAF",
"-  c #6666B7",
";  c #848584",
":  c #898A89",
">  c #8B8C91",
",  c #919393",
"<  c #949595",
"1  c #9B9B9B",
"2  c #9B9C9C",
"3  c #9D9D9D",
"4  c #9D9E9F",
"5  c #8181B7",
"6  c #A0A2A2",
"7  c #A3A2A3",
"8  c #A3A3A4",
"9  c gray65",
"0  c gray67",
"q  c #ACACAC",
"w  c #ADAEAE",
"e  c #B3B2B3",
"r  c #B4B5B5",
"t  c #B5B6B5",
"y  c #B9B9B9",
"u  c #B9BABA",
"i  c gray73",
"p  c gray74",
"a  c #BDBEBD",
"s  c #9999CB",
"d  c #9C9DCA",
"f  c #A9A7CA",
"g  c #B2B2C7",
"h  c #A0A0D6",
"j  c #B6B6D6",
"k  c #BFBFD4",
"l  c gray76",
"z  c #C7C7C5",
"x  c #C9C8C9",
"c  c gray79",
"v  c #C8CBC8",
"b  c #C9CBCB",
"n  c #CBCBCD",
"m  c #D0CFD0",
"M  c #CFD0D0",
"N  c #D0D0D0",
"B  c gray82",
"V  c #D1D2D2",
"C  c #D2D2D2",
"Z  c LightGray",
"A  c #D5D7D3",
"S  c #D5D5D5",
"D  c #D7D8D9",
"F  c #D8D8D8",
"G  c #DBD9D9",
"H  c #DADADA",
"J  c #DBDADA",
"K  c #DDDDDD",
"L  c #DEDDDD",
"P  c #DFDDDD",
"I  c #DEDEDC",
"U  c #DDDEDE",
"Y  c #DEDFDF",
"T  c #DFDFDF",
"R  c #CECEE6",
"E  c #DEDEF0",
"W  c #E5E3E3",
"Q  c #E5E5E4",
"!  c gray92",
"~  c #ECECEC",
"^  c #EEECEC",
"/  c #EFEFEF",
"(  c #F3F4F3",
")  c #F3F5F5",
"_  c #F4F4F4",
"`  c gray96",
"'  c #F6F6F4",
"]  c #F6F6F6",
"[  c gray97",
"{  c #F8F8F8",
"}  c gray99",
"|  c #FCFCFD",
" . c #FDFDFD",
".. c white",
"X. c None",
/* pixels */
"X.X.X.X.X.X.X.X.X.X.X.X.X.X.X.X.",
"X.X.X.X.X.X.X.X.X.X.X.X.X.X.X.X.",
"X.X.X.X.X.X.X.X.X.O X.X.X.X.X.X.",
"X.X.X.X.X.X.+ X.X.X.X.X.X.X.X.X.",
"X.X.X.X.X.@ X.X.X.X.X.X.X.X.X.X.",
"X.X.} |  .E ! / ` ` ( _ ] l X.X.",
"X.X..._ / h U j I S * g A : X.X.",
"X.X.{ ..~ Q k d f N x o ; 3 X.X.",
"X.X.[ )  .Y D Z M m V . 7 < X.X.",
"X.X.' $ s - % v n B > X 2 , X.X.",
"X.X.R J y z q 8 4 a # w 6 1 X.X.",
"X.X.^ 5 C G H Z = & i 0 t 9 X.X.",
"X.X.K W P T L F b u r p c e X.X.",
"X.X.                        X.X.",
"X.X.X.X.X.X.X.X.X.X.X.X.X.X.X.X.",
"X.X.X.X.X.X.X.X.X.X.X.X.X.X.X.X."
};
