/* XPM */
static char * mini_libre_sbase_xpm[] = {
"11 14 123 2",
"  	c None",
". 	c #6A027A",
"+ 	c #920DA7",
"@ 	c #900DA4",
"# 	c #8E0CA1",
"$ 	c #480453",
"% 	c #230028",
"& 	c #86039A",
"* 	c #8B03A0",
"= 	c #800294",
"- 	c #8F11A2",
"; 	c #F9FFF6",
"> 	c #F8FFF7",
", 	c #F8FFF6",
"' 	c #F5FDF4",
") 	c #AF63BB",
"! 	c #4A0155",
"~ 	c #4B0056",
"{ 	c #850399",
"] 	c #88039D",
"^ 	c #88109B",
"/ 	c #F7FFF6",
"( 	c #FBFBFB",
"_ 	c #FAFAFA",
": 	c #F0EEF0",
"< 	c #A65FB1",
"[ 	c #40024A",
"} 	c #4F005B",
"| 	c #800392",
"1 	c #851096",
"2 	c #F4FCF2",
"3 	c #F8F8F8",
"4 	c #F7F7F7",
"5 	c #F8F9F8",
"6 	c #E9E1EA",
"7 	c #9E58A9",
"8 	c #3E0147",
"9 	c #310038",
"0 	c #800F91",
"a 	c #F0F9EF",
"b 	c #F7FAF7",
"c 	c #F8FEF7",
"d 	c #F9FFF8",
"e 	c #E6E1E7",
"f 	c #974EA2",
"g 	c #2E0334",
"h 	c #7B0F8D",
"i 	c #ECF5EB",
"j 	c #DDBFE1",
"k 	c #C581D0",
"l 	c #C477D0",
"m 	c #C26DCE",
"n 	c #C271CE",
"o 	c #C47CCF",
"p 	c #DEC1E2",
"q 	c #E1DEE1",
"r 	c #720D83",
"s 	c #770F87",
"t 	c #DFD9E0",
"u 	c #BA64C7",
"v 	c #C971D7",
"w 	c #D98BE4",
"x 	c #DE90EA",
"y 	c #D37AE1",
"z 	c #C159D2",
"A 	c #B75BC5",
"B 	c #740E83",
"C 	c #DAD2DB",
"D 	c #CE8BD8",
"E 	c #DC98E5",
"F 	c #C76ED5",
"G 	c #BC57CB",
"H 	c #C361D2",
"I 	c #D175DE",
"J 	c #C776D3",
"K 	c #DBD3DC",
"L 	c #730E83",
"M 	c #6F0E7E",
"N 	c #D7CFD8",
"O 	c #C273CE",
"P 	c #DA8EE6",
"Q 	c #DD90E8",
"R 	c #DA86E6",
"S 	c #D780E5",
"T 	c #D273E0",
"U 	c #BE66CB",
"V 	c #D7D0D8",
"W 	c #6A0E79",
"X 	c #D3CAD5",
"Y 	c #C579D0",
"Z 	c #CF7FDC",
"` 	c #C66CD5",
" .	c #C463D3",
"..	c #C460D2",
"+.	c #C662D6",
"@.	c #BF68CC",
"#.	c #D4CBD5",
"$.	c #660D74",
"%.	c #D6D4D6",
"&.	c #CB91D3",
"*.	c #CF7FDA",
"=.	c #CD73DA",
"-.	c #CA68DA",
";.	c #CA67D8",
">.	c #C86BD6",
",.	c #C888D1",
"'.	c #D7D5D7",
").	c #620D70",
"!.	c #DBE2DA",
"~.	c #DED2DF",
"{.	c #D3B6D8",
"].	c #D3B1D9",
"^.	c #D3ADD9",
"/.	c #DBE1DA",
"(.	c #5F0D6C",
"_.	c #D3DFD1",
":.	c #D7DDD6",
"<.	c #D6DDD5",
"[.	c #D6DED5",
"}.	c #3C0246",
"|.	c #5A0A67",
"1.	c #590A65",
"2.	c #3D0247",
". + @ @ @ # $ % & * = ",
"- ; > , > ' ) ! ~ { ] ",
"^ / ( _ _ _ : < [ } | ",
"1 2 3 4 4 4 5 6 7 8 9 ",
"0 a b c > > > d e f g ",
"h i j k l m n o p q r ",
"s t u v w x y z A t s ",
"B C D E F G H I J K L ",
"M N O P Q R S T U V M ",
"W X Y Z `  ...+.@.#.W ",
"$.%.&.*.=.-.;.>.,.'.$.",
").!.~.{.].^.].{.~./.).",
"(._.:.<.<.[.<.<.:._.(.",
"}.|.1.1.1.1.1.1.1.|.2."};
