/* XPM */
static char *mini_xfterm[] = {
/* columns rows colors chars-per-pixel */
"14 14 132 2 ",
"   c #060606",
".  c #0E0E0E",
"X  c #191919",
"o  c #28151A",
"O  c #2C181D",
"+  c #2D181E",
"@  c #301B21",
"#  c #301923",
"$  c #311924",
"%  c #331B25",
"&  c #351E26",
"*  c #351D29",
"=  c #361E2B",
"-  c #381C2B",
";  c gray13",
":  c #2F2F2F",
">  c #3A212A",
",  c #3A202F",
"<  c #3D232D",
"1  c #3C2230",
"2  c #3D2332",
"3  c #3F2034",
"4  c #343434",
"5  c #432534",
"6  c #442537",
"7  c #432833",
"8  c #462935",
"9  c #472639",
"0  c #46293A",
"q  c #482B38",
"w  c #4C2D3C",
"e  c #4D2E3C",
"r  c #52313F",
"t  c #4B2841",
"y  c #4E2A40",
"u  c #4F2D44",
"i  c #512B44",
"p  c #522948",
"a  c #542949",
"s  c #54294A",
"d  c #562E4A",
"f  c #542C4C",
"g  c #582F4C",
"h  c #503043",
"j  c #55314A",
"k  c #59324B",
"l  c #58354A",
"z  c #5C324F",
"x  c #5C3849",
"c  c #5B2E50",
"v  c #5D2F53",
"b  c #5D2E54",
"n  c #633259",
"m  c #63315A",
"M  c #65335B",
"N  c #66335D",
"B  c #66345D",
"V  c #643D58",
"C  c #69395B",
"Z  c #6D3764",
"A  c #6E3D61",
"S  c #763E6D",
"D  c #793F6F",
"F  c #484848",
"G  c #774A67",
"H  c #75476A",
"J  c #78446B",
"K  c #7D4E6F",
"L  c #794371",
"P  c #7A4A70",
"I  c #7A4B70",
"U  c #7E4E70",
"Y  c gray38",
"T  c #6E6065",
"R  c #7B7B7B",
"E  c #824A76",
"W  c #834579",
"Q  c #834F7A",
"!  c #87487C",
"~  c #87517D",
"^  c #8A567F",
"/  c #817379",
"(  c #8C4F81",
")  c #8A4D84",
"_  c #8D4C85",
"`  c #954F8C",
"'  c #8D5484",
"]  c #945A89",
"[  c #99588F",
"{  c #9F5F93",
"}  c #A15E98",
"|  c #A05A9C",
" . c #A05B9C",
".. c #A7629D",
"X. c #A1659E",
"o. c #A85DA2",
"O. c #A762A5",
"+. c #B063AB",
"@. c #B468B1",
"#. c #BB6FBA",
"$. c #93868C",
"%. c #939393",
"&. c #A5989F",
"*. c #A7A7A7",
"=. c #B8ACB3",
"-. c #B8B8B8",
";. c #C8BDC4",
":. c #CACACA",
">. c #CBCBCB",
",. c gray80",
"<. c #D7CDD3",
"1. c #DEC6DD",
"2. c #D0D0D0",
"3. c #D2D2D2",
"4. c LightGray",
"5. c #D5D5D5",
"6. c #D6D6D6",
"7. c #D8D8D8",
"8. c gainsboro",
"9. c #DFDFDF",
"0. c #E2DADF",
"q. c #E1E1E1",
"w. c #E4E4E4",
"e. c #E7E7E7",
"r. c #ECECEC",
"t. c #F0F0F0",
"y. c #F6F6F6",
"u. c #FAFAFA",
"i. c #FDFDFD",
"p. c #FEFEFE",
"a. c #FFFFFF",
"s. c None",
/* pixels */
"s.s.s.s.s.s.s.s.s.s.s.s.s.s.",
"s.i.p.a.a.a.i.u.y.r.e.w.q.9.",
"t.:.-.*.%.R Y F : X   . ; 4 ",
"0.U ] { ..} [ ( A z 6 # o o ",
"<.Q a.#.@.+.o.` ! S M p $ o ",
";.H X.1.^ K G x r 8 > + o o ",
"=.V P I ~ ' E J C k 5 % o o ",
"&.j L )  .O.| _ W D Z c - o ",
"$.1 0 h l w e q 7 < & O o o ",
"/ * = 2 u y d g i 9 @ o o o ",
"T , t f s v n N B m b a 3 o ",
"8.3.4.6.3.3.2.,.>.>.>.>.>.>.",
"s.7.7.5.6.5.4.3.3.3.3.3.3.3.",
"s.s.s.s.s.s.s.s.s.s.s.s.s.s."
};
