/* XPM */
static char *Galaxy_OOo3_draw_app_256_png[] = {
/* columns rows colors chars-per-pixel */
"14 14 63 1 ",
"  c #0B1D2F",
". c #7B7021",
"X c #1D2F44",
"o c #132F48",
"O c #14304C",
"+ c #14314C",
"@ c #183652",
"# c #21415E",
"$ c #244461",
"% c #2E506E",
"& c #315473",
"* c #325574",
"= c #345878",
"- c #5A6141",
"; c #7F7B41",
": c #435A6F",
"> c #AC5802",
", c #A77621",
"< c #B3982A",
"1 c #C48B22",
"2 c #DBA424",
"3 c #DFAA3B",
"4 c #E1B62D",
"5 c #EFBE2F",
"6 c #F5BC23",
"7 c #EABD33",
"8 c #F8C024",
"9 c #FEC626",
"0 c #FFC726",
"q c #F6C329",
"w c #FFC728",
"e c #FFCE2D",
"r c #FFCB36",
"t c #FEDA39",
"y c #FFDB3A",
"u c #EFC64B",
"i c #FFD14F",
"p c #FFEE4D",
"a c #DDC161",
"s c #F0CD66",
"d c #F6D268",
"f c #FED86B",
"g c #FFD96B",
"h c #FFD96C",
"j c #FFFF63",
"k c #3D6283",
"l c #436A86",
"z c #456C87",
"x c #FEDE83",
"c c #FFDF83",
"v c #F8DB90",
"b c #FDE69C",
"n c #FFE69D",
"m c #FFE9A0",
"M c #FFEFA6",
"N c #CFE5F7",
"B c #D2E7F8",
"V c #F9F7EF",
"C c #E6F2FB",
"Z c #EDFDFF",
"A c #F4F9FD",
"S c #FBFDFE",
"D c None",
/* pixels */
"D==ogfadgggggD",
"DlSCZ-xccccc>D",
"D%*hsgSA;hhhDD",
"D#:AVBuiiiiiDD",
"DN <.7rrrrrrDD",
"D++wwwwwwwww3D",
"DOOX000000000D",
"DOOO0nnn00000D",
"DOOO000v60090D",
"D@@@008n000n01",
"D$$$eebqeem2e5",
"D&&&yytMMM4yy,",
"DkkkpppppppppD",
"DzzzjjjjjjjjjD"
};
