/* XPM */
static char *mini_nvidia[] = {
/* columns rows colors chars-per-pixel */
"14 14 10 1 ",
"  c #151515",
". c #2A3A0F",
"X c #232323",
"o c #242523",
"O c #3B590B",
"+ c #466C08",
"@ c #4B710E",
"# c #67A500",
"$ c #67A600",
"% c None",
/* pixels */
"%%%%%XXXX%%%%%",
"%%%XXXXXXXX%%%",
"%%XXXXXX$$$$%%",
"%XXXXX$$$$$$@%",
"%XXX$$$$$$XXX%",
"XXXX$$$$XXXX$$",
"XXXXX$$$XXo$$$",
"     $$$  $$$ ",
" $$+  $$$ .$  ",
"$$$$  O$$  $ %",
"%$$$$  $$$   %",
"%%$$$$  $$$ %%",
"%%%$$$$  $$%%%",
"%%%%#$$$$%%%%%"
};
