/* XPM */
static char *mini_du[] = {
/* columns rows colors chars-per-pixel */
"13 13 88 1 ",
"  c #74561E",
". c #B41E00",
"X c #CE0A00",
"o c #D00A00",
"O c #D21000",
"+ c #D51000",
"@ c #D21600",
"# c #DB1800",
"$ c #D81E00",
"% c #E01F00",
"& c #CD2900",
"* c #D92B00",
"= c #D33400",
"- c #DC3100",
"; c #D63900",
": c #D63C00",
"> c #E62700",
", c #EC2F00",
"< c #F23600",
"1 c #F73D00",
"2 c #FB4300",
"3 c #FF4800",
"4 c #FF4D4A",
"5 c #FF4F4B",
"6 c #FF4F4C",
"7 c #AF8523",
"8 c #FF8300",
"9 c #FF8A00",
"0 c #FF9300",
"q c #FF9D00",
"w c #FFA800",
"e c #FFB300",
"r c #FFBF00",
"t c #FFC900",
"y c #FFD400",
"u c #FFDD00",
"i c #FFE400",
"p c #ECBD4D",
"a c #FFCA63",
"s c #FFCF68",
"d c #FFD56F",
"f c #FFDA75",
"g c #FFDF7A",
"h c #022BA6",
"j c #032EAE",
"k c #0631A1",
"l c #0B44BD",
"z c #4C66AA",
"x c #0335C5",
"c c #073DC9",
"v c #0337D1",
"b c #3567C4",
"n c #105BFF",
"m c #0E60E0",
"M c #0F64E1",
"N c #1063E2",
"B c #1668E5",
"V c #1F78FF",
"C c #2085EB",
"Z c #2280ED",
"A c #238BED",
"S c #258AED",
"D c #2584FF",
"F c #3597F5",
"G c #359CF2",
"H c #379DF4",
"J c #389EF5",
"K c #3AA2F2",
"L c #438BEB",
"P c #45A8F9",
"I c #46A8FA",
"U c #6EA4FF",
"Y c #72AAFF",
"T c #75B1FF",
"R c #7EC0FF",
"E c #8A90A1",
"W c #8D94A6",
"Q c #8F95A8",
"! c #A2A9B8",
"~ c #FFE885",
"^ c #FFEB89",
"/ c #A9B1C1",
"( c #83C8F3",
") c #C5CCD8",
"_ c #DEE4ED",
"` c #EFF4F9",
"' c #F7FCFF",
"] c None",
/* pixels */
"]]]]]](''']]]",
"]]^iDD`IPK`]]",
"]~uuV_FJHGLR]",
"]yyyy)ZSACBb]",
"gttttn/NMm!lT",
"frrrrrzWQEkcY",
"deeeee3xjhpvU",
"swwwww3:;= &]",
"aqqqqq21-*.7]",
"]00000<,>$@4]",
"]]9999>%#OX]]",
"]]]888#+o5]]]",
"]]]]]]66]]]]]"
};
