/* XPM */
static char *mini_irc[] = {
/* columns rows colors chars-per-pixel */
"14 14 2 1 ",
"  c black",
". c None",
/* pixels */
"..............",
"...... .......",
"...... .......",
"...... .......",
"..... . ......",
".....    .....",
"....     . ...",
"....     . ...",
"..     ..  ...",
"...  ...   ...",
"... .....  ...",
".... .... ....",
"..... .. .....",
".............."
};
