/* XPM */
static char *mini_testdisk[] = {
/* columns rows colors chars-per-pixel */
"14 5 5 1 ",
"  c #4769A9",
". c #5479BB",
"X c #A7A6A6",
"o c white",
"O c None",
/* pixels */
"OOOOOO..OOOOOO",
"OOOOO.XX.OOOOO",
"OOOOO.oo OOOOO",
"OOOOO.XX OOOOO",
"OOOOOO. OOOOOO"
};
