/* XPM */
static char * mini_kmail_xpm[] = {
"14 14 149 2",
"  	c None",
". 	c #928D8E",
"+ 	c #78797C",
"@ 	c #949597",
"# 	c #A9A5A6",
"$ 	c #8F929A",
"% 	c #967F7F",
"& 	c #B2B4B5",
"* 	c #A7A5A7",
"= 	c #A7989D",
"- 	c #BD8585",
"; 	c #C1B0B0",
"> 	c #A3BBD1",
", 	c #C5D7E6",
"' 	c #CEAAA8",
") 	c #D5B9B7",
"! 	c #E7E4E4",
"~ 	c #B7CDE6",
"{ 	c #C1BDBD",
"] 	c #D8C8D1",
"^ 	c #E2DCE1",
"/ 	c #C4C7CB",
"( 	c #AEAFB0",
"_ 	c #C2C1C4",
": 	c #EFF1F6",
"< 	c #F9FBFC",
"[ 	c #FCFCFD",
"} 	c #FDFDFE",
"| 	c #FFFFFD",
"1 	c #CBDBF0",
"2 	c #9CC0EC",
"3 	c #E2EDF7",
"4 	c #D98A87",
"5 	c #C0D2E7",
"6 	c #F1F3F7",
"7 	c #EEF0F2",
"8 	c #C1C2C3",
"9 	c #ADADAE",
"0 	c #C9C9CB",
"a 	c #FAFAFC",
"b 	c #FCFAFB",
"c 	c #F7F4F6",
"d 	c #FFF7F7",
"e 	c #98B7E7",
"f 	c #73A8EB",
"g 	c #CADAED",
"h 	c #E4E6E9",
"i 	c #F3F5F6",
"j 	c #FBFBFC",
"k 	c #F1F1F2",
"l 	c #B8B9BA",
"m 	c #B6B5B7",
"n 	c #DEDEE0",
"o 	c #F7F3F6",
"p 	c #F2EBF1",
"q 	c #F8F2F4",
"r 	c #A8C0E7",
"s 	c #A2C2EB",
"t 	c #DBE4EE",
"u 	c #86A1BF",
"v 	c #E9ABA8",
"w 	c #FDFFFF",
"x 	c #FBFBFB",
"y 	c #E6E6E7",
"z 	c #B1B1B2",
"A 	c #C5C2C4",
"B 	c #EBECEE",
"C 	c #EEF1F4",
"D 	c #E8E9F0",
"E 	c #E2E4EB",
"F 	c #DFE3EA",
"G 	c #E5E9F0",
"H 	c #BCC0C6",
"I 	c #D7D6D6",
"J 	c #F8F8F8",
"K 	c #F6F6F7",
"L 	c #F2F3F4",
"M 	c #D4D6D8",
"N 	c #B4B3B4",
"O 	c #CDCBCD",
"P 	c #E1E5EB",
"Q 	c #E4E9F0",
"R 	c #E8ECF1",
"S 	c #EBEFF3",
"T 	c #F0F4F8",
"U 	c #D4CBCC",
"V 	c #A4B1C0",
"W 	c #F7F7F9",
"X 	c #E6E9ED",
"Y 	c #DEE1E6",
"Z 	c #D8DBE0",
"` 	c #C0C4C8",
" .	c #B5B2B4",
"..	c #CCCBCE",
"+.	c #E5E8EB",
"@.	c #F0F2F5",
"#.	c #F7F8FA",
"$.	c #FBFEFF",
"%.	c #EEB8B6",
"&.	c #B4C3D5",
"*.	c #E8ECF0",
"=.	c #E3E7ED",
"-.	c #E0E4EA",
";.	c #E4E7EB",
">.	c #DFE1E4",
",.	c #C0C2C3",
"'.	c #B5B3B5",
").	c #DCDADC",
"!.	c #F8F9FA",
"~.	c #FEFEFE",
"{.	c #FFFFFF",
"].	c #FCFCFC",
"^.	c #D7D8DE",
"/.	c #E4E8EF",
"(.	c #E2E6EB",
"_.	c #DFE2E5",
":.	c #E1E2E4",
"<.	c #EAEBED",
"[.	c #F9FAFC",
"}.	c #EBEBEC",
"|.	c #B9BABC",
"1.	c #B3B0B1",
"2.	c #EDECED",
"3.	c #BCD2EA",
"4.	c #CE7E7D",
"5.	c #F1F6FA",
"6.	c #F3F5F7",
"7.	c #F2F2F4",
"8.	c #ECECEE",
"9.	c #E2E4E7",
"0.	c #E3E6E9",
"a.	c #F6F1F0",
"b.	c #DECDCC",
"c.	c #908888",
"d.	c #AEACAF",
"e.	c #F7FAFA",
"f.	c #FAD7D5",
"g.	c #F4D8D7",
"h.	c #919193",
"i.	c #9CBCDE",
"j.	c #E3DCDB",
"k.	c #C69998",
"l.	c #BD9693",
"m.	c #B0C3D3",
"n.	c #9A807D",
"o.	c #5B5655",
"p.	c #9F9E9F",
"q.	c #7D7C7D",
"r.	c #7E7B7C",
"  . +                       ",
"  @ # $                     ",
"  % & * = - ; > , ' ) ! ~ { ",
"] ^ / ( _ : < [ } | 1 2 3 4 ",
"5 6 7 8 9 0 a b c d e f g h ",
"i j } k l m n o p q r s t u ",
"v w x x y z A B C D E F G H ",
"I x J K L M N O P Q R S T U ",
"V W C X Y Z `  ...+.@.#.$.%.",
"&.*.=.F -.;.>.,.'.).!.~.{.].",
"^./.(._.:.<.[.}.|.1.2.{.{.3.",
"4.5.6.7.8.9.0.a.b.c.d.e.f.g.",
"h.i.j.k.l.m.  n.  o.p.q.    ",
"                      r.    "};
