/* XPM */
static char * mini_thunderbird_xpm[] = {
"14 14 136 2",
"  	c None",
". 	c #457EB4",
"+ 	c #3E72A3",
"@ 	c #5187AE",
"# 	c #266094",
"$ 	c #093360",
"% 	c #2D5992",
"& 	c #88C7DE",
"* 	c #6EADCC",
"= 	c #367CAF",
"- 	c #2877B3",
"; 	c #408AC0",
"> 	c #2778BA",
", 	c #185187",
"' 	c #235696",
") 	c #80B4D0",
"! 	c #588AB8",
"~ 	c #4692BD",
"{ 	c #21669E",
"] 	c #58A2D1",
"^ 	c #4899CF",
"/ 	c #3587C3",
"( 	c #3180BF",
"_ 	c #2F74AE",
": 	c #386991",
"< 	c #14214B",
"[ 	c #6392BD",
"} 	c #5E7782",
"| 	c #0C5AA0",
"1 	c #013D8B",
"2 	c #042672",
"3 	c #205696",
"4 	c #3080BE",
"5 	c #3787C3",
"6 	c #347EBE",
"7 	c #2162A4",
"8 	c #25619A",
"9 	c #473E37",
"0 	c #3F7DAB",
"a 	c #226493",
"b 	c #454146",
"c 	c #727073",
"d 	c #575767",
"e 	c #1F1C3E",
"f 	c #438AC2",
"g 	c #3E87C0",
"h 	c #1E66AD",
"i 	c #3686C8",
"j 	c #3E6785",
"k 	c #253D69",
"l 	c #B1AFAD",
"m 	c #5D5C5D",
"n 	c #959491",
"o 	c #F9F9F4",
"p 	c #FEFEF9",
"q 	c #FEFDF6",
"r 	c #E2E0D8",
"s 	c #426E9E",
"t 	c #1557A0",
"u 	c #2974B8",
"v 	c #3E8AC6",
"w 	c #1A4780",
"x 	c #23548E",
"y 	c #395A89",
"z 	c #FCFAF1",
"A 	c #AFABA4",
"B 	c #EBE8E0",
"C 	c #FAF7F0",
"D 	c #FFFFFB",
"E 	c #F7F5F3",
"F 	c #C1BCB6",
"G 	c #345D91",
"H 	c #2A65A5",
"I 	c #3982BA",
"J 	c #2669AB",
"K 	c #154F96",
"L 	c #163B6D",
"M 	c #7D7369",
"N 	c #DFDAD0",
"O 	c #FCFAF3",
"P 	c #C6C0B9",
"Q 	c #E6E3DE",
"R 	c #CECBC5",
"S 	c #C6C1B7",
"T 	c #FAF6ED",
"U 	c #36659E",
"V 	c #2E5690",
"W 	c #205CA0",
"X 	c #397DB3",
"Y 	c #1B5397",
"Z 	c #726D6F",
"` 	c #E6DFD5",
" .	c #F0EBE2",
"..	c #F7F3EB",
"+.	c #FAF7EF",
"@.	c #F7F3EA",
"#.	c #ECE5DB",
"$.	c #EDE5DB",
"%.	c #9D9795",
"&.	c #183A7D",
"*.	c #3770AA",
"=.	c #1B4691",
"-.	c #10356F",
";.	c #181F5D",
">.	c #5B5464",
",.	c #C6BEB5",
"'.	c #E5E0D4",
").	c #DDD6CB",
"!.	c #E3DCD1",
"~.	c #E8DFD3",
"{.	c #D3C6B8",
"].	c #B8B0AC",
"^.	c #05084C",
"/.	c #1F5099",
"(.	c #133C8B",
"_.	c #07063E",
":.	c #00001B",
"<.	c #231F2D",
"[.	c #696560",
"}.	c #A69D96",
"|.	c #D2C7B9",
"1.	c #CABCAA",
"2.	c #4F567D",
"3.	c #0E0947",
"4.	c #152364",
"5.	c #10265F",
"6.	c #050321",
"7.	c #292323",
"8.	c #777377",
"9.	c #212B66",
"0.	c #141956",
"a.	c #030634",
"b.	c #0D1730",
"c.	c #26427B",
"d.	c #193271",
"e.	c #0F1E4A",
"        . + @ # $           ",
"      % & * = - ; > ,       ",
"    ' ) ! ~ { ] ^ / ( _     ",
"  : < [ } | 1 2 3 4 5 6 7   ",
"  8 9 0 a b c d e f g h i   ",
"j k l m n o p q r s t u v w ",
"x y z A B C D E F G H I J K ",
"L M N O P Q R S T U V W X Y ",
"  Z `  ...+.@.#.$.%.&.*.=.-.",
"  ;.>.,.'.).!.~.{.].^./.(.  ",
"    _.:.<.[.}.|.1.2.3.4.5.  ",
"      6.      7.8.9.0.a.    ",
"              b.c.d.e.      ",
"                            "};
