/* XPM */
static char *mini_vnc[] = {
/* columns rows colors chars-per-pixel */
"14 14 38 1 ",
"  c #000000",
". c #040404",
"X c #080401",
"o c #0B0602",
"O c #110803",
"+ c #1A0D05",
"@ c #1D0E05",
"# c #1E0F05",
"$ c #2C1607",
"% c #2F1708",
"& c #301808",
"* c #331908",
"= c #292929",
"- c #283221",
"; c #303030",
": c #552A0E",
"> c #763A13",
", c #4E3F35",
"< c #504035",
"1 c #435235",
"2 c #A6531B",
"3 c #A8541C",
"4 c #D76B24",
"5 c #DC6E24",
"6 c #FF7F2A",
"7 c #56CC65",
"8 c #59CE67",
"9 c #FF9149",
"0 c #FF934C",
"q c #FFAC74",
"w c #A3968E",
"e c #BFED99",
"r c #FFC49D",
"t c #C1C1C1",
"y c #F4F4F4",
"u c #FEFEFE",
"i c white",
"p c None",
/* pixels */
"pppppppppppppp",
"pp ,wq0666% pp",
"p y666O66666 p",
"p<6666X: ti=*p",
"pr66iiiiii;iip",
"pq6iui-e  ii6p",
"p0$   78 ii66p",
"p66 i.1 ii964p",
"p666+ iiii662p",
"p66666666666 p",
"p*6 6666666 #p",
"p 665  3   o p",
"pp &66642>@ pp",
"pppppppppppppp"
};
