/* XPM */
static char *OpenOffice_Calc_icon_png[] = {
/* columns rows colors chars-per-pixel */
"14 14 62 1 ",
"  c #657B34",
". c #162D4D",
"X c #173354",
"o c #1F3453",
"O c #204162",
"+ c #374B67",
"@ c #2A5070",
"# c #345370",
"$ c #335C7B",
"% c #43556E",
"& c #717171",
"* c #85A101",
"= c #88A10D",
"- c #91AE03",
"; c #A3BF11",
": c #99AF31",
"> c #A5C211",
", c #B7D61F",
"< c #A8C321",
"1 c #C0DC37",
"2 c #C8E62C",
"3 c #D5F337",
"4 c #9DB144",
"5 c #87986A",
"6 c #8B8E7A",
"7 c #B2C941",
"8 c #B3C941",
"9 c #B0C84D",
"0 c #B4C563",
"q c #B4C663",
"w c #B3C464",
"e c #3A6685",
"r c #406783",
"t c #536F86",
"y c #5E7991",
"u c #788FA3",
"i c #7A8FA3",
"p c #7F93A6",
"a c #98A8B2",
"s c #A3A4A5",
"d c #AAAAAA",
"f c #CBD894",
"g c #D2DF93",
"h c #D2E188",
"j c #D3E093",
"k c #DAEBA1",
"l c #DBEBA4",
"z c #D6E1B7",
"x c #E2F0BB",
"c c #E2F0BC",
"v c #C1C4C7",
"b c #D5D9CA",
"n c #EAF5D9",
"m c #EAF5DB",
"M c #C9E0F2",
"N c #D8E7F5",
"B c #F3F9F0",
"V c #F3FAF0",
"C c #F2F6FB",
"Z c #FDFEFD",
"A c #FDFEFE",
"S c None",
/* pixels */
"SSSSSSSAAdSSSS",
"SStCsvC788888S",
"SSuuuahhhhhhh5",
"SSiiipN6gjjjjf",
"SSMMMM0qqqqqqw",
"S&+++%:::::::4",
"SSooo =======S",
"SS...*ZZZZZZ*S",
"SSXXX---B--V-S",
"SSOO#>;;m;;n<S",
"SS@@y,zzczzx9S",
"SS$$r2bblbbk1S",
"SSeee33333333S",
"SSSSSSSSSSSSSS"
};
