/* XPM */
static char *mini_config1[] = {
/* columns rows colors chars-per-pixel */
"14 14 121 2 ",
"   c #010101",
".  c #0C0F14",
"X  c #0F1216",
"o  c #0E1218",
"O  c #1A1A1C",
"+  c #2E2E2D",
"@  c #343F54",
"#  c #3C4147",
"$  c #344055",
"%  c #354257",
"&  c #364359",
"*  c #38465C",
"=  c #3B4960",
"-  c #3B4961",
";  c #3D4B64",
":  c #3F4E68",
">  c #46494D",
",  c #465156",
"<  c #4A5760",
"1  c #42526D",
"2  c #43546F",
"3  c #515A60",
"4  c #495A75",
"5  c #4B617F",
"6  c #546970",
"7  c #54637A",
"8  c #636363",
"9  c #666A6F",
"0  c #576680",
"q  c #616E83",
"w  c #727F83",
"e  c #7B7E82",
"r  c #6A7D94",
"t  c #727F94",
"y  c #7D8691",
"u  c #6A83A1",
"i  c #6A8BAD",
"p  c #738BA6",
"a  c #778EA7",
"s  c #708AA8",
"d  c #6C8EB1",
"f  c #708BB9",
"g  c #7193B5",
"h  c #7394B4",
"j  c #7299BE",
"k  c #739BC1",
"l  c #8E9095",
"z  c #8B969C",
"x  c #8A999C",
"c  c #939FAF",
"v  c #9EA0A4",
"b  c #9DA8AA",
"n  c #9CA8AB",
"m  c #A4AEB1",
"M  c #A5AFB1",
"N  c #A6AFB2",
"B  c #ABB5B7",
"V  c #ACB5B8",
"C  c #ACB6B8",
"Z  c #B3B3B3",
"A  c #B1BBBE",
"S  c #B2BCBF",
"D  c #B8BABD",
"F  c #80A1D5",
"G  c #A6B7C9",
"H  c #BBBEC5",
"J  c #BCBFC7",
"K  c #94BEFB",
"L  c #BBC0C8",
"P  c #BDC2CA",
"I  c #B8C6CC",
"U  c #BDC9CE",
"Y  c #BFC9CF",
"T  c #BFCACF",
"R  c #BFC9D0",
"E  c #BFCFD5",
"W  c #98C4FF",
"Q  c #BFEBF1",
"!  c #C4C7CF",
"~  c #C1CBCE",
"^  c #C1CDD3",
"/  c #C7D0D3",
"(  c #C2D0D6",
")  c #C2D2D7",
"_  c #C3D3D8",
"`  c #C3D3D9",
"'  c #C4D3D9",
"]  c #C4D6DB",
"[  c #CBD6DC",
"{  c #CCD6DD",
"}  c #CCD7DD",
"|  c #C5D9DF",
" . c #C7DCE1",
".. c #C6DDE2",
"X. c #C8DCE1",
"o. c #C8DEE3",
"O. c #C8DFE4",
"+. c #D8DCE2",
"@. c #C3E1E7",
"#. c #CCE5EA",
"$. c #D2E5E9",
"%. c #D9E4EB",
"&. c #DEE7EB",
"*. c #DBEAEE",
"=. c #CBE6FF",
"-. c #DDF1F1",
";. c #DDF4FB",
":. c #E1E4E6",
">. c #E5E7E8",
",. c #E8E9E9",
"<. c #EAEBEC",
"1. c #EBEBEC",
"2. c #ECEEEF",
"3. c #EDEEF0",
"4. c #EEEFF1",
"5. c #E5F1F0",
"6. c #E4F0F2",
"7. c #EBF2F3",
"8. c #EFF2F4",
"9. c #F9FAFA",
"0. c None",
/* pixels */
"0.0...| I l D ,.0.0.0.0.0.0.",
"0.0.@.#.&.:.>.<.1.2.H L 9 0.",
"0.0.' 1 4 y + 8 Z 9.4.Q J 0.",
"0.0.( 7 0 c a G j k d 3.P 0.",
"0.0.) q =.;.-.5.h g i 8.^ 0.",
"0.0.E %.< t +.r p s u 7.] 0.",
"0.{ { } z { [ F K W 5 6.o.0.",
"0.0.T U U U 6 f 1 2 2 *.O.0.",
"A w A X $ A A o ; : : $.O.0.",
"0.0.m b M N m 3 * = - X. .0.",
"0.C n B V x # @ % & & _ ` 0.",
"0.0.e ~ / v S . $ $ $ Y R 0.",
"0.0.0.0., > O   ! J J J J 0.",
"0.0.0.0.0.0.0.0.0.0.0.0.0.0."
};
