/* XPM */
static char * mini_libre_simpress_xpm[] = {
"11 14 114 2",
"  	c None",
". 	c #7B2E02",
"+ 	c #A7460D",
"@ 	c #A4440D",
"# 	c #A2430C",
"$ 	c #532104",
"% 	c #280F00",
"& 	c #9A3B03",
"* 	c #A03D03",
"= 	c #943802",
"- 	c #A24711",
"; 	c #F6FFFF",
"> 	c #F7FEFF",
", 	c #F6FDFF",
"' 	c #F7FDFF",
") 	c #F4F9FD",
"! 	c #BB8363",
"~ 	c #552001",
"{ 	c #562000",
"] 	c #993A03",
"^ 	c #9D3C03",
"/ 	c #9B4310",
"( 	c #F6FCFF",
"_ 	c #FBFBFB",
": 	c #FAFAFA",
"< 	c #F0EFEE",
"[ 	c #B17D5F",
"} 	c #4A1C02",
"| 	c #5B2100",
"1 	c #933703",
"2 	c #964210",
"3 	c #F2F9FC",
"4 	c #F8F8F8",
"5 	c #F7F7F7",
"6 	c #F8F9F9",
"7 	c #EAE5E1",
"8 	c #A97658",
"9 	c #471A01",
"0 	c #391500",
"a 	c #923F0F",
"b 	c #EFF5F9",
"c 	c #F7FAFC",
"d 	c #F7FBFD",
"e 	c #F8FEFF",
"f 	c #E7E4E2",
"g 	c #A36D4E",
"h 	c #351503",
"i 	c #8D3E0F",
"j 	c #E8EBEC",
"k 	c #DBB9A4",
"l 	c #D3A285",
"m 	c #D4A58A",
"n 	c #DBBAA7",
"o 	c #DED8D5",
"p 	c #84390E",
"q 	c #883C0F",
"r 	c #DED8D4",
"s 	c #DEBAA5",
"t 	c #EFBFA1",
"u 	c #E6A57C",
"v 	c #E6A67D",
"w 	c #843A0E",
"x 	c #DBD4D1",
"y 	c #DDB6A0",
"z 	c #EEBA99",
"A 	c #E49F74",
"B 	c #E19C71",
"C 	c #E19B70",
"D 	c #EBB797",
"E 	c #7F380E",
"F 	c #D7D1CD",
"G 	c #DBB29A",
"H 	c #EAA67A",
"I 	c #C68E6D",
"J 	c #85380B",
"K 	c #843608",
"L 	c #AD714D",
"M 	c #E0B69E",
"N 	c #7A360E",
"O 	c #D4CDC9",
"P 	c #D8AB8F",
"Q 	c #F0BC9A",
"R 	c #DDAE91",
"S 	c #BE8766",
"T 	c #BD8665",
"U 	c #D2A385",
"V 	c #DBAD90",
"W 	c #D5CECA",
"X 	c #7B360E",
"Y 	c #76340E",
"Z 	c #D5D1CF",
"` 	c #D19E80",
" .	c #D89164",
"..	c #CF8B62",
"+.	c #BF774B",
"@.	c #BE764B",
"#.	c #C9845A",
"$.	c #D29F81",
"%.	c #D5D2D0",
"&.	c #71320D",
"*.	c #D9DCDE",
"=.	c #DECEC5",
"-.	c #D9C1B2",
";.	c #DBC2B3",
">.	c #DCC4B5",
",.	c #DDCEC5",
"'.	c #70320D",
").	c #6E310D",
"!.	c #D1DADF",
"~.	c #D6DBDD",
"{.	c #D5DADD",
"].	c #481B02",
"^.	c #692C0A",
"/.	c #672C0A",
". + @ @ @ # $ % & * = ",
"- ; > , ' ) ! ~ { ] ^ ",
"/ ( _ : : : < [ } | 1 ",
"2 3 4 5 5 5 6 7 8 9 0 ",
"a b c d d d d e f g h ",
"i j k l m m m l n o p ",
"q r s t u v u t s o q ",
"w x y z A B C D y x w ",
"E F G H I J K L M F E ",
"N O P Q R S T U V W X ",
"Y Z `  ...+.@.#.$.%.Y ",
"&.*.=.-.;.>.>.;.,.*.'.",
").!.~.{.{.{.{.{.~.!.).",
"].^./././././././.^.]."};
