/* XPM */
static char * mini_libre_scalc_xpm[] = {
"11 14 122 2",
"  	c None",
". 	c #137B02",
"+ 	c #22A70D",
"@ 	c #21A40D",
"# 	c #21A20C",
"$ 	c #0E5304",
"% 	c #052800",
"& 	c #179A03",
"* 	c #18A003",
"= 	c #169402",
"- 	c #24A311",
"; 	c #FFF6FF",
"> 	c #FFF7FF",
", 	c #FCF4FD",
"' 	c #6EBB63",
") 	c #0C5601",
"! 	c #0B5700",
"~ 	c #169903",
"{ 	c #179D03",
"] 	c #229C10",
"^ 	c #FFF5FF",
"/ 	c #FBFBFB",
"( 	c #FAFAFA",
"_ 	c #EEF0EE",
": 	c #6AB25F",
"< 	c #0B4B02",
"[ 	c #0C5C00",
"} 	c #169403",
"| 	c #219810",
"1 	c #FBF2FC",
"2 	c #F8F8F8",
"3 	c #F7F7F7",
"4 	c #F9F8F9",
"5 	c #E2EAE1",
"6 	c #63AA58",
"7 	c #0A4801",
"8 	c #083900",
"9 	c #21940F",
"0 	c #F9EFFA",
"a 	c #FFFAFF",
"b 	c #FFF8FF",
"c 	c #FFF9FF",
"d 	c #E7EAE7",
"e 	c #5AA54F",
"f 	c #093603",
"g 	c #218F10",
"h 	c #E0E2DF",
"i 	c #7FC274",
"j 	c #6EC261",
"k 	c #55AF48",
"l 	c #6EC161",
"m 	c #6FC261",
"n 	c #80C276",
"o 	c #CAD8C8",
"p 	c #1D860E",
"q 	c #1F8B0F",
"r 	c #D8DCD8",
"s 	c #64B458",
"t 	c #4EB33F",
"u 	c #339D22",
"v 	c #4EB23F",
"w 	c #1F870E",
"x 	c #D2D7D1",
"y 	c #9ACF93",
"z 	c #D5FAD0",
"A 	c #76BE6B",
"B 	c #CCF2C6",
"C 	c #7BC070",
"D 	c #D8FAD4",
"E 	c #9DCF96",
"F 	c #D2D7D2",
"G 	c #1F860E",
"H 	c #1E830E",
"I 	c #D0D4D0",
"J 	c #6EB163",
"K 	c #6AB65E",
"L 	c #3F9D31",
"M 	c #71966B",
"N 	c #D0C7CE",
"O 	c #C4B8B5",
"P 	c #B9B1B2",
"Q 	c #DDD4DE",
"R 	c #1D7E0E",
"S 	c #CBD0CB",
"T 	c #7DB974",
"U 	c #96D28D",
"V 	c #54A847",
"W 	c #88A783",
"X 	c #E3EDF5",
"Y 	c #DBB198",
"Z 	c #C8AA97",
"` 	c #D8D2DC",
" .	c #1D7A0E",
"..	c #CFD0CE",
"+.	c #95C18E",
"@.	c #A7D3A0",
"#.	c #76B46C",
"$.	c #8EA58A",
"%.	c #86AFC8",
"&.	c #8E867F",
"*.	c #BBA395",
"=.	c #D6D0D9",
"-.	c #1D7A0D",
";.	c #1C760D",
">.	c #DDD8DE",
",.	c #CBD7CA",
"'.	c #BDCEBB",
").	c #C2D2BF",
"!.	c #C1C9BF",
"~.	c #C2CBD0",
"{.	c #C7C3C0",
"].	c #D4D0CD",
"^.	c #DCD6DE",
"/.	c #1B730D",
"(.	c #DDD0DF",
"_.	c #DCD6DD",
":.	c #DCD5DD",
"<.	c #DCD5DC",
"[.	c #DBD6DD",
"}.	c #0C4D02",
"|.	c #186F0A",
"1.	c #176D0A",
". + @ @ @ # $ % & * = ",
"- ; > ; > , ' ) ! ~ { ",
"] ^ / ( ( ( _ : < [ } ",
"| 1 2 3 3 3 4 5 6 7 8 ",
"9 0 a b a c a c d e f ",
"g h i j k l k m n o p ",
"q r s t u v u t s r q ",
"w x y z A B C D E F G ",
"H I J K L M N O P Q H ",
"R S T U V W X Y Z ` R ",
" ...+.@.#.$.%.&.*.=.-.",
";.>.,.'.).!.~.{.].^.;.",
"/.(._.:.:.:.<.[._.(./.",
"}.|.1.1.1.1.1.1.1.|.}."};
