/* XPM */
static char * mini_seamonkey_xpm[] = {
"14 13 146 2",
"  	c None",
". 	c #1A1A71",
"+ 	c #21217B",
"@ 	c #29298F",
"# 	c #272790",
"$ 	c #1E1E81",
"% 	c #0E0E6D",
"& 	c #2B2B8F",
"* 	c #3D3DA5",
"= 	c #3838A2",
"- 	c #3434A1",
"; 	c #30309E",
"> 	c #3F3EA5",
", 	c #A5AAD9",
"' 	c #979BD7",
") 	c #00005A",
"! 	c #2F2F96",
"~ 	c #3636A1",
"{ 	c #32329F",
"] 	c #2F2F9E",
"^ 	c #2B2B9C",
"/ 	c #4341A6",
"( 	c #B5DAFE",
"_ 	c #BCDDFF",
": 	c #B6DCFF",
"< 	c #161592",
"[ 	c #01013A",
"} 	c #191981",
"| 	c #31319F",
"1 	c #2D2D9D",
"2 	c #2A2A9C",
"3 	c #252599",
"4 	c #1D1D96",
"5 	c #7E8ACE",
"6 	c #B2D7FF",
"7 	c #88C1FB",
"8 	c #B1D5FB",
"9 	c #4C4AA9",
"0 	c #0A0A8D",
"a 	c #2C2C9E",
"b 	c #26269A",
"c 	c #222298",
"d 	c #1E1E97",
"e 	c #1C1C96",
"f 	c #0C0B8D",
"g 	c #B1D0F7",
"h 	c #88C4FF",
"i 	c #6DB4FA",
"j 	c #ACD2F8",
"k 	c #B2BFE7",
"l 	c #07078C",
"m 	c #030360",
"n 	c #4242B1",
"o 	c #5252BC",
"p 	c #4B4BB4",
"q 	c #3C3CA9",
"r 	c #23239C",
"s 	c #4F4BAA",
"t 	c #8ECCFF",
"u 	c #62B0FF",
"v 	c #77B8FB",
"w 	c #B0D4F9",
"x 	c #BBCCEE",
"y 	c #2626A1",
"z 	c #2F2F7D",
"A 	c #8889FE",
"B 	c #8A8BFE",
"C 	c #9495FE",
"D 	c #9798FE",
"E 	c #9596FE",
"F 	c #B5CDFD",
"G 	c #63B0FF",
"H 	c #64B0FE",
"I 	c #79B9F9",
"J 	c #BBDBF9",
"K 	c #C8D5FE",
"L 	c #7E7EFE",
"M 	c #4B4BA9",
"N 	c #1D1DE9",
"O 	c #1919E8",
"P 	c #0C0DE5",
"Q 	c #0F0FE6",
"R 	c #6260EF",
"S 	c #81C2FF",
"T 	c #72B8FE",
"U 	c #69B1F9",
"V 	c #98C8F9",
"W 	c #C8E8FC",
"X 	c #5451EC",
"Y 	c #2727E9",
"Z 	c #2121BB",
"` 	c #0606E9",
" .	c #0202E3",
"..	c #0000E3",
"+.	c #1413E5",
"@.	c #98CAFD",
"#.	c #6CB5FD",
"$.	c #7AB9F9",
"%.	c #9DCAF8",
"&.	c #CAE7FB",
"*.	c #838AF3",
"=.	c #2222E6",
"-.	c #2D2DE9",
";.	c #151584",
">.	c #0000A3",
",.	c #0101E5",
"'.	c #1B18E5",
").	c #A2CAFC",
"!.	c #7EBEFB",
"~.	c #B6D9F8",
"{.	c #C3DDF9",
"].	c #B2C4F8",
"^.	c #6564EE",
"/.	c #2424E7",
"(.	c #3131E9",
"_.	c #3333E0",
":.	c #1C1CD1",
"<.	c #9FCCFD",
"[.	c #C0D4FC",
"}.	c #9A99F4",
"|.	c #5655ED",
"1.	c #1D1CE6",
"2.	c #2828E7",
"3.	c #3030E9",
"4.	c #3636E9",
"5.	c #3939E6",
"6.	c #050540",
"7.	c #B9C1C8",
"8.	c #A0D3FF",
"9.	c #6D6FD3",
"0.	c #2221EA",
"a.	c #2323E7",
"b.	c #2929E7",
"c.	c #2F2FE8",
"d.	c #3535E8",
"e.	c #3B3BEA",
"f.	c #3737DF",
"g.	c #060648",
"h.	c #BFC4C9",
"i.	c #99B0C7",
"j.	c #0E0E7E",
"k.	c #171799",
"l.	c #2222BE",
"m.	c #2626C0",
"n.	c #2424AD",
"o.	c #1B1B87",
"        . + @ # $ %         ",
"      & * = - ; > , ' )     ",
"    ! ~ { ] ^ / ( _ : < [   ",
"  } | 1 2 3 4 5 6 7 8 9 0   ",
"  a b c d e f g h i j k l m ",
"  n o p q r s t u v w x y ^ ",
"z A B C D E F G H I J K L M ",
"  N O P Q R S T U V W X Y Z ",
"  `  ...+.@.#.$.%.&.*.=.-.;.",
"  >.,.'.).!.~.{.].^./.(._.  ",
"    :.<.[.}.|.1.2.3.4.5.6.  ",
"  7.8.9.0.a.b.c.d.e.f.g.    ",
"h.i.    j.k.l.m.n.o.        "};
