/* XPM */
static char * mini_evolution_xpm[] = {
"14 10 110 2",
"  	c None",
". 	c #929390",
"+ 	c #D0D1CE",
"@ 	c #CBCCC9",
"# 	c #CACBC9",
"$ 	c #CACAC8",
"% 	c #C9CAC7",
"& 	c #C8C9C7",
"* 	c #C8C9C6",
"= 	c #C7C8C5",
"- 	c #C6C8C4",
"; 	c #C5C7C4",
"> 	c #C6C7C3",
", 	c #C0C1BE",
"' 	c #CCCDCB",
") 	c #FFFFFF",
"! 	c #FEFEFE",
"~ 	c #FCFCFB",
"{ 	c #FAFBF9",
"] 	c #F8F8F7",
"^ 	c #F5F6F4",
"/ 	c #F3F4F2",
"( 	c #F1F2EF",
"_ 	c #EEF0EC",
": 	c #ECEEEA",
"< 	c #EAECE7",
"[ 	c #E6E9E4",
"} 	c #ECEEEB",
"| 	c #C6C7C5",
"1 	c #F7F8F7",
"2 	c #FAFBFA",
"3 	c #FAFAF9",
"4 	c #F0F1EF",
"5 	c #EEF0ED",
"6 	c #ECEDEA",
"7 	c #EAECE8",
"8 	c #E8E9E6",
"9 	c #DEE0DC",
"0 	c #E7E9E5",
"a 	c #C7C8C6",
"b 	c #F9FAF9",
"c 	c #EBEBEB",
"d 	c #F6F7F6",
"e 	c #F4F5F3",
"f 	c #F2F3F1",
"g 	c #F0F1EE",
"h 	c #EEEFEC",
"i 	c #EBEDEA",
"j 	c #E9EBE8",
"k 	c #E2E4E0",
"l 	c #D8DAD6",
"m 	c #E9EBE6",
"n 	c #FBFCFB",
"o 	c #EEEEED",
"p 	c #E1E1E1",
"q 	c #EFF0EE",
"r 	c #E0E2DF",
"s 	c #D2D5D0",
"t 	c #E0E3DD",
"u 	c #E8EAE5",
"v 	c #C6C7C4",
"w 	c #F7F8F6",
"x 	c #DFE0DD",
"y 	c #D2D3D1",
"z 	c #F9F9F8",
"A 	c #D8D9D6",
"B 	c #C4C6C2",
"C 	c #E4E6E1",
"D 	c #DEE1DB",
"E 	c #C5C6C3",
"F 	c #EBEDEB",
"G 	c #E3E4E2",
"H 	c #D3D4D1",
"I 	c #BFC1BD",
"J 	c #BBBDB9",
"K 	c #DDE0DB",
"L 	c #D4D6D1",
"M 	c #DDE0DA",
"N 	c #C4C6C3",
"O 	c #EFF0EC",
"P 	c #E5E6E4",
"Q 	c #EDEEEB",
"R 	c #EDF0EB",
"S 	c #EDEFEB",
"T 	c #EBEDE9",
"U 	c #E8EBE6",
"V 	c #E1E4DE",
"W 	c #E0E2DD",
"X 	c #D7DAD4",
"Y 	c #E5E7E3",
"Z 	c #C4C5C1",
"` 	c #E6E8E4",
" .	c #E7E9E6",
"..	c #E8EAE6",
"+.	c #E5E7E4",
"@.	c #E5E7E2",
"#.	c #E3E5E1",
"$.	c #E1E4DF",
"%.	c #E0E2DC",
"&.	c #DBDFD8",
"*.	c #E2E4DF",
"=.	c #878885",
"-.	c #B8B9B5",
";.	c #B7B9B5",
">.	c #B7B9B4",
",.	c #B6B9B3",
"'.	c #B6B8B3",
").	c #B6B7B3",
"!.	c #B5B7B3",
"~.	c #B1B3AF",
". + @ @ # $ % & * = - ; > , ",
"' ) ! ~ { ] ^ / ( _ : < [ } ",
"| 1 2 3 1 ^ / 4 5 6 7 8 9 0 ",
"a b c ] d e f g h i j k l m ",
"= n o p e e ( q } _ r s t u ",
"v w w x y o z 1 f A B C D 0 ",
"E e F G 5 H I J B K 0 L M [ ",
"N O P q Q R S T U C V W X Y ",
"Z `  ...0 +.@.#.$.%.M &.X *.",
"=.J -.-.;.;.;.;.>.,.'.).!.~."};
