/* XPM */
static char *mini_theme[] = {
/* columns rows colors chars-per-pixel */
"14 14 104 2 ",
"   c black",
".  c #010101",
"X  c #020202",
"o  c #0A0B0A",
"O  c #110D0C",
"+  c #101111",
"@  c #141313",
"#  c #161514",
"$  c #171616",
"%  c #181716",
"&  c #181717",
"*  c #171817",
"=  c #191817",
"-  c #1B1A18",
";  c #1C1C1B",
":  c #211917",
">  c #251D1C",
",  c #2F1C18",
"<  c #15222F",
"1  c #142433",
"2  c #222120",
"3  c #413D38",
"4  c #59423A",
"5  c #66453C",
"6  c #172A43",
"7  c #162B46",
"8  c #173654",
"9  c #193A59",
"0  c #253144",
"q  c #2D3746",
"w  c #133967",
"e  c #33415F",
"r  c #174272",
"t  c #1B497A",
"y  c #1B4A7D",
"u  c #32496C",
"i  c #404046",
"p  c #58485C",
"a  c #7F5149",
"s  c #6F4A54",
"d  c #704A52",
"f  c #7D5560",
"g  c #6E6860",
"h  c #7C726A",
"j  c #7D7773",
"k  c #C97D3F",
"l  c #DD7B3C",
"z  c #814A41",
"x  c #844A41",
"c  c #894F41",
"v  c #8B4B47",
"b  c #80494A",
"n  c #964C45",
"m  c #9C4C42",
"M  c #835248",
"N  c #9B5941",
"B  c #8C5255",
"V  c #A35042",
"C  c #A65142",
"Z  c #A75142",
"A  c #AD5242",
"S  c #AA5A40",
"D  c #A5524A",
"F  c #AD5A4D",
"G  c #B15742",
"H  c #B35742",
"J  c #B55743",
"K  c #B55942",
"L  c #B85942",
"P  c #B35849",
"I  c #B55A49",
"U  c #BE6042",
"Y  c #BD6342",
"T  c #A47041",
"R  c #A2744C",
"E  c #827971",
"W  c #817973",
"Q  c #817B79",
"!  c #827C7A",
"~  c #827D7B",
"^  c #C58B38",
"/  c #8D837B",
"(  c #8B847C",
")  c #D3A049",
"_  c #1D538D",
"`  c #29558E",
"'  c #455A88",
"]  c #435D8E",
"[  c #8E8681",
"{  c #8E8785",
"}  c #8F8883",
"|  c #928981",
" . c #948B83",
".. c #948B84",
"X. c #968E87",
"o. c #978F8B",
"O. c #9C948B",
"+. c #9D958E",
"@. c #A69A92",
"#. c #A49B94",
"$. c #A59D95",
"%. c #B2A296",
"&. c #C5BBB2",
"*. c None",
/* pixels */
"*.*.*.*.*.*.*.*.*.*.*.*.*.*.",
"+ @ % $ % $ # & & = - *.*.*.",
"{ .. .| / [ O.@.#.+.} o *.*.",
"X.q p Y U I D s i 6 < *.*.*.",
"3 e d Y L K P v 8 7 1 *.*.*.",
"* w u K K A Z b r 9 0 *.. *.",
"*.r f x J H C B ` t ( O R *.",
"*.y _ ] n V m F ' : T ^ *.*.",
"*.~ ! ! Q j W ; h o.%.) *.*.",
"*.*.*.*.$.&., M a E g > *.*.",
"*.*.*.*.*.5 N G S z 2 *.*.*.",
"*.*.*.*.*.. c k l X *.*.*.*.",
"*.*.*.*.*.*.  4   *.*.*.*.*.",
"*.*.*.*.*.*.*.*.*.*.*.*.*.*."
};
