/* XPM */
static char *mini_cups[] = {
/* columns rows colors chars-per-pixel */
"14 14 101 2 ",
"   c #000000",
".  c #0D0D0D",
"X  c #0E0E0E",
"o  c #0F0F0F",
"O  c gray7",
"+  c #131313",
"@  c #191919",
"#  c #1A1A1A",
"$  c #1D1D1D",
"%  c #1E1E1E",
"&  c #272727",
"*  c #262929",
"=  c #282828",
"-  c #2C2C2C",
";  c #2D2D2E",
":  c #313131",
">  c #363636",
",  c #373737",
"<  c #3A3A3A",
"1  c #3B3B3B",
"2  c #3C3C3C",
"3  c #092E69",
"4  c #0D3E79",
"5  c #404040",
"6  c #454545",
"7  c #4E4E4E",
"8  c #505050",
"9  c #525252",
"0  c #455367",
"q  c #5C6262",
"w  c #636363",
"e  c #646464",
"r  c #6F6F70",
"t  c #1D7DBD",
"y  c #2674A9",
"u  c #2B68B9",
"i  c #147DC6",
"p  c #2C77CB",
"a  c #5374C9",
"s  c #0095DC",
"d  c #3D9AD5",
"f  c #3FA6DA",
"g  c #36A4FA",
"h  c #3AA6FC",
"j  c #6B8ED5",
"k  c #75B4D4",
"l  c #5AB3EF",
"z  c #888888",
"x  c #898989",
"c  c #969696",
"v  c #979797",
"b  c #989E9E",
"n  c #A7A7A7",
"m  c #A4ABAB",
"M  c #ACB1B1",
"N  c #B1B1B1",
"B  c #B7B7B7",
"V  c #B2B8B8",
"C  c #B6BBBB",
"Z  c #BABABA",
"A  c #BBBBBB",
"S  c #BFC4C4",
"D  c #97D6F6",
"F  c #B5E2F8",
"G  c #C2C8C8",
"H  c #CACACA",
"J  c #C9CFCF",
"K  c #CBD1D1",
"L  c #CED3D3",
"P  c #D5D5D5",
"I  c #D6D6D6",
"U  c #D7D7D7",
"Y  c #D4DADA",
"T  c #D7DCDC",
"R  c #D8DEDE",
"E  c #DADFDF",
"W  c #DCDCDC",
"Q  c #DAE0E0",
"!  c #DCE1E1",
"~  c #DDE2E2",
"^  c #DDE3E3",
"/  c #DFE4E4",
"(  c #E3E3E3",
")  c #E1E7E7",
"_  c #E4E9E9",
"`  c #E5EBEB",
"'  c #E6ECEC",
"]  c #EAEAEA",
"[  c #E8EDED",
"{  c #E9EFEF",
"}  c #ECF1F1",
"|  c #EEF4F4",
" . c #F1F1F1",
".. c #F7F7F7",
"X. c #F3F9F9",
"o. c #F6FCFC",
"O. c #F7FDFD",
"+. c #F8F8F8",
"@. c #FAFFFF",
"#. c #FBFFFF",
"$. c None",
/* pixels */
"$.$.$.$.$.$.$.$.$.$.$.$.$.$.",
"$.$.$.$.$.$.$.$.C G L T E $.",
"$.$.$.$.$.$.$.$.[ } } } } $.",
"$.$.$.$.$.$.$.$./ ) _ ' l $.",
"$.$.$.$.s s r R Q ! ~ / d $.",
"$.$.F .. .( P b m V S J H $.",
"$.a z I U Z v c +.] W k s 0 ",
"$.p X   $ 1 w n N x D U + 2 ",
"$.o , : & @ .   $ < j O - 9 ",
"$.g t ~ M q * > = # u % 6 e ",
"$.$.o.@.@.#.#.; 7 8 i - 5 $.",
"$.K ` { | X.O.6 h y f 3 $.$.",
"$.$.Y R ^ ) B A   4 $.$.$.$.",
"$.$.$.$.$.$.$.$.$.$.$.$.$.$."
};
