/* XPM */
static char * mini_att_xpm[] = {
"14 14 152 2",
"  	c None",
". 	c #C4BF1F",
"+ 	c #A29D17",
"@ 	c #E7E216",
"# 	c #E8DC17",
"$ 	c #A29818",
"% 	c #988F1B",
"& 	c #ECE717",
"* 	c #FAF925",
"= 	c #E0E018",
"- 	c #ECEC1F",
"; 	c #E0DF1C",
"> 	c #FCFC25",
", 	c #E7DB1E",
"' 	c #B4A612",
") 	c #DFDB19",
"! 	c #F7F827",
"~ 	c #E5E31A",
"{ 	c #FFFF27",
"] 	c #F0EF24",
"^ 	c #E7E71A",
"/ 	c #F2F220",
"( 	c #DEDA19",
"_ 	c #D5CA1D",
": 	c #998E15",
"< 	c #3B391E",
"[ 	c #F0EC1A",
"} 	c #F8F825",
"| 	c #C8C30C",
"1 	c #FCFC28",
"2 	c #FEFE25",
"3 	c #CFCF13",
"4 	c #FFFF28",
"5 	c #FFFF24",
"6 	c #DFDD1B",
"7 	c #EFE022",
"8 	c #B9B01D",
"9 	c #786E16",
"0 	c #BCB519",
"a 	c #FFFF22",
"b 	c #DEDB1D",
"c 	c #ECEB20",
"d 	c #E9E920",
"e 	c #DADB19",
"f 	c #F6F624",
"g 	c #FFFF26",
"h 	c #D8D519",
"i 	c #EFE122",
"j 	c #B6AC19",
"k 	c #938B20",
"l 	c #393617",
"m 	c #B2AA1D",
"n 	c #D9D518",
"o 	c #FFFF25",
"p 	c #BEBC1C",
"q 	c #FFFF23",
"r 	c #E6E61C",
"s 	c #E0E01B",
"t 	c #CBC614",
"u 	c #E4D721",
"v 	c #B2A81C",
"w 	c #98901E",
"x 	c #32301D",
"y 	c #E1D611",
"z 	c #C1C116",
"A 	c #F6F627",
"B 	c #C5C40D",
"C 	c #FAF928",
"D 	c #D2C913",
"E 	c #D8CB1F",
"F 	c #A59D1C",
"G 	c #898217",
"H 	c #312A0D",
"I 	c #E0CF13",
"J 	c #D3CF13",
"K 	c #DEDF1F",
"L 	c #F3F322",
"M 	c #C3C31B",
"N 	c #FFFF1E",
"O 	c #BDB81F",
"P 	c #EADE18",
"Q 	c #CABF20",
"R 	c #958E1E",
"S 	c #7D7617",
"T 	c #1F1B0D",
"U 	c #A79D20",
"V 	c #CEC815",
"W 	c #FAFA22",
"X 	c #D6D612",
"Y 	c #D4D51C",
"Z 	c #EFEC21",
"` 	c #FFFE25",
" .	c #9B9311",
"..	c #E1D522",
"+.	c #B4AA1F",
"@.	c #7F7719",
"#.	c #6B661A",
"$.	c #1B1E1D",
"%.	c #9E9417",
"&.	c #C9BE16",
"*.	c #FDF023",
"=.	c #FFFB22",
"-.	c #D8D317",
";.	c #FFF925",
">.	c #ECE31E",
",.	c #D0C51C",
"'.	c #BFB40B",
").	c #B8AF1F",
"!.	c #9E961C",
"~.	c #757013",
"{.	c #4D4A1C",
"].	c #161710",
"^.	c #A49A0B",
"/.	c #DACF22",
"(.	c #F6ED23",
"_.	c #CEC41A",
":.	c #EBDC21",
"<.	c #E0D421",
"[.	c #C7BB1D",
"}.	c #CEC31C",
"|.	c #A39A1F",
"1.	c #857E1E",
"2.	c #5C5617",
"3.	c #161315",
"4.	c #625B1E",
"5.	c #A89D18",
"6.	c #C8BE21",
"7.	c #B7AE16",
"8.	c #C6BB1E",
"9.	c #C8BD22",
"0.	c #9B931A",
"a.	c #9E961F",
"b.	c #867F1E",
"c.	c #5B581D",
"d.	c #2A2912",
"e.	c #13161C",
"f.	c #5A551D",
"g.	c #8F8519",
"h.	c #9A921A",
"i.	c #A39B1D",
"j.	c #98911B",
"k.	c #837C0D",
"l.	c #746E1B",
"m.	c #524E1C",
"n.	c #363108",
"o.	c #13141E",
"p.	c #484314",
"q.	c #4C491D",
"r.	c #524908",
"s.	c #3C360F",
"t.	c #2A2A1B",
"u.	c #1F1E12",
"        . + @ # $ %         ",
"      & * = - ; > , '       ",
"    ) ! ~ { ] ^ / ( _ : <   ",
"  [ } | 1 2 3 4 5 6 7 8 9   ",
"0 a b { c d e f g h i j k l ",
"m 4 n 5 o p q r s t u v w x ",
"y z 5 5 A B o q C D E F G H ",
"I J K L M N q q O P Q R S T ",
"U V 5 W X Y Z `  ...+.@.#.$.",
"%.&.*.=.-.;.>.,.'.).!.~.{.].",
"  ^./.(._.:.<.[.}.|.1.2.3.  ",
"  4.5.6.7.8.9.0.a.b.c.d.e.  ",
"    f.g.h.i.j.k.l.m.n.o.    ",
"        p.q.r.s.t.u.        "};
