/* XPM */
static char * mini_libre_main_xpm[] = {
"12 14 65 1",
" 	c None",
".	c #959595",
"+	c #ADADAD",
"@	c #ABABAB",
"#	c #ACACAC",
"$	c #9E9E9E",
"%	c #BEBEBE",
"&	c #C9C9C9",
"*	c #878787",
"=	c #7B7B7B",
"-	c #999999",
";	c #FFFFFF",
">	c #BDBDBD",
",	c #B9B9B9",
"'	c #B0B0B0",
")	c #7C7C7C",
"!	c #707070",
"~	c #919191",
"{	c #FAFAFA",
"]	c #B2B2B2",
"^	c #B1B1B1",
"/	c #777777",
"(	c #8B8B8B",
"_	c #F8F8F8",
":	c #C6C6C6",
"<	c #9F9F9F",
"[	c #B3B3B3",
"}	c #848484",
"|	c #F6F6F6",
"1	c #FCFCFC",
"2	c #D1D1D1",
"3	c #909090",
"4	c #7E7E7E",
"5	c #FDFDFD",
"6	c #F4F4F4",
"7	c #C4C4C4",
"8	c #F2F2F2",
"9	c #F3F3F3",
"0	c #CFCFCF",
"a	c #F9F9F9",
"b	c #EFEFEF",
"c	c #F1F1F1",
"d	c #CBCBCB",
"e	c #696969",
"f	c #EEEEEE",
"g	c #F0F0F0",
"h	c #C7C7C7",
"i	c #636363",
"j	c #F7F7F7",
"k	c #ECECEC",
"l	c #5C5C5C",
"m	c #F5F5F5",
"n	c #EAEAEA",
"o	c #C0C0C0",
"p	c #555555",
"q	c #E7E7E7",
"r	c #E8E8E8",
"s	c #E9E9E9",
"t	c #505050",
"u	c #FEFEFE",
"v	c #383838",
"w	c #595959",
"x	c #565656",
"y	c #575757",
"z	c #444444",
".+@@@#$%&*==",
"-;;;;;;>,')!",
"~;{{{{{;%]^/",
"(;______;:<[",
"};|||||||123",
"4566666666_7",
"/58999999960",
"!abbbbbbbbcd",
"eaffffffffgh",
"ijkkkkkkkkf7",
"lmnnnnnnnnko",
"p9qrrrrrrsn>",
"tu8888888867",
"vwxxxxxxxxyz"};
