/* XPM */
static char * mini_libre_smath_xpm[] = {
"11 14 110 2",
"  	c None",
". 	c #4C4C4C",
"+ 	c #6C6C6C",
"@ 	c #6A6A6A",
"# 	c #696969",
"$ 	c #686868",
"% 	c #343434",
"& 	c #181818",
"* 	c #606060",
"= 	c #636363",
"- 	c #5B5B5B",
"; 	c #FFFFFF",
"> 	c #FBFBFB",
", 	c #FAFAFA",
"' 	c #F8F8F8",
") 	c #989898",
"! 	c #353535",
"~ 	c #5E5E5E",
"{ 	c #616161",
"] 	c #646464",
"^ 	c #EFEFEF",
"/ 	c #919191",
"( 	c #2D2D2D",
"_ 	c #373737",
": 	c #5A5A5A",
"< 	c #F6F6F6",
"[ 	c #F7F7F7",
"} 	c #E6E6E6",
"| 	c #888888",
"1 	c #2B2B2B",
"2 	c #222222",
"3 	c #5D5D5D",
"4 	c #F3F3F4",
"5 	c #F5F8FA",
"6 	c #F4F7F9",
"7 	c #F6F9FB",
"8 	c #E1E5E7",
"9 	c #808181",
"0 	c #202020",
"a 	c #59595A",
"b 	c #EFE7E3",
"c 	c #F4CEB8",
"d 	c #F5D0BB",
"e 	c #F8D3BF",
"f 	c #FCD7C2",
"g 	c #FBD6C1",
"h 	c #F8D2BC",
"i 	c #DFD7D3",
"j 	c #525252",
"k 	c #555555",
"l 	c #ECE1DB",
"m 	c #F5DBCC",
"n 	c #C9C8C7",
"o 	c #8E8C8B",
"p 	c #9E9C9B",
"q 	c #9D9D9D",
"r 	c #D0B5A6",
"s 	c #EEE4DE",
"t 	c #515252",
"u 	c #E9DED8",
"v 	c #F2D8C9",
"w 	c #999999",
"x 	c #FCFCFC",
"y 	c #F8FAFB",
"z 	c #F4DBCC",
"A 	c #4E4E4E",
"B 	c #E8DDD7",
"C 	c #BCA294",
"D 	c #AFB1B2",
"E 	c #909090",
"F 	c #9C9C9C",
"G 	c #A9A9A9",
"H 	c #9E9FA0",
"I 	c #EDD4C5",
"J 	c #E5DBD5",
"K 	c #4A4A4A",
"L 	c #E2D8D1",
"M 	c #F6DDCE",
"N 	c #989B9D",
"O 	c #959797",
"P 	c #D2D3D4",
"Q 	c #6A6C6D",
"R 	c #B5B8BA",
"S 	c #F2D9CB",
"T 	c #E2D8D2",
"U 	c #4A4A4B",
"V 	c #464646",
"W 	c #E0D5CF",
"X 	c #F5CFBA",
"Y 	c #C8B2A6",
"Z 	c #D6BFB2",
"` 	c #B9A294",
" .	c #DEC7BA",
"..	c #C2AC9F",
"+.	c #EBC6B0",
"@.	c #E1D6D0",
"#.	c #434343",
"$.	c #DDDAD9",
"%.	c #E8D9D1",
"&.	c #ECDDD5",
"*.	c #EBDCD4",
"=.	c #ECDDD4",
"-.	c #EBDCD3",
";.	c #E9DAD1",
">.	c #404040",
",.	c #D7D8D8",
"'.	c #D8D9D9",
").	c #252525",
"!.	c #3B3B3B",
"~.	c #3A3A3A",
". + @ # @ $ % & * = - ",
"@ ; > , > ' ) % ! ~ { ",
"] , > , , , ^ / ( _ : ",
"* < ' [ [ [ ' } | 1 2 ",
"3 4 5 6 6 6 6 7 8 9 0 ",
"a b c d e f g f h i j ",
"k l m ; n o p q r s k ",
"t u v ; w ^ x y z u t ",
"A B C D E F G H I J A ",
"K L M N O P Q R S T U ",
"V W X Y Z `  ...+.@.V ",
"#.$.%.&.*.=.-.=.;.$.#.",
">.,.'.,.,.,.,.,.'.,.>.",
").!.~.~.~.~.~.~.~.!.)."};
