/* XPM */
static char *mini_tag[] = {
/* columns rows colors chars-per-pixel */
"14 14 54 1 ",
"  c #46583D",
". c #46593F",
"X c #5C9841",
"o c #629C49",
"O c #63AF41",
"+ c #67A54C",
"@ c #6AB24A",
"# c #6AB549",
"$ c #6DB54E",
"% c #6AB848",
"& c #6DBC4A",
"* c #71BE4E",
"= c #6FB252",
"- c #78BB5B",
"; c #7BBD5E",
": c #6DC047",
"> c #6EC048",
", c #6EC149",
"< c #6EC04A",
"1 c #6FC14A",
"2 c #70C14C",
"3 c #70C24C",
"4 c #72C14F",
"5 c #72C24F",
"6 c #74C151",
"7 c #74C251",
"8 c #74C351",
"9 c #75C253",
"0 c #76C354",
"q c #76C454",
"w c #78C456",
"e c #78C556",
"r c #7AC557",
"t c #7AC659",
"y c #7CC75B",
"u c #7CC75C",
"i c #7DC75C",
"p c #7EC75E",
"a c #80C860",
"s c #82C963",
"d c #87CB6A",
"f c #88CC6A",
"g c #9FCD8A",
"h c #BAD6AE",
"j c #E7FFD8",
"k c #E7E7E7",
"l c #ECECEC",
"z c #EBF5E6",
"x c #EEFFE3",
"c c #F4FFEE",
"v c #F8FBF7",
"b c #FBFFF9",
"n c white",
"m c None",
/* pixels */
"mmmmds; sfmmmm",
"mmaaaa-.aaaamm",
"mfpppnklnpppfm",
"myyynn=+nnyyym",
"mtttnnnnnntttm",
"meewnnnvnnweem",
"mqq0nX$9hn0qqm",
"m887b*z@gb688m",
"m554c#4coc455m",
"m332xx&%xx233m",
"mi1<jjjjjj<1um",
"mm,:OOOOOO:,mm",
"mmmmmr>>rmmmmm",
"mmmmmmmmmmmmmm"
};
