/* XPM */
static char *OpenOffice_Impress_icon_png[] = {
/* columns rows colors chars-per-pixel */
"14 14 61 1 ",
"  c #162D4D",
". c #173354",
"X c #1F3453",
"o c #204162",
"O c #374B67",
"+ c #2A5070",
"@ c #345370",
"# c #335C7B",
"$ c #43556E",
"% c #717171",
"& c #A86334",
"* c #F36906",
"= c #EE710A",
"- c #F5740A",
"; c #F36D12",
": c #F8881A",
"> c #F38E2A",
", c #F89A2A",
"< c #FA9C2B",
"1 c #F58236",
"2 c #E99E35",
"3 c #95887D",
"4 c #B18C71",
"5 c #ED8A49",
"6 c #DEA056",
"7 c #EEA743",
"8 c #FEB946",
"9 c #CB9764",
"0 c #F7A269",
"q c #F4A26A",
"w c #F1AE71",
"e c #F2AE71",
"r c #3A6685",
"t c #406783",
"y c #536F86",
"u c #5E7991",
"i c #788FA3",
"p c #7A8FA3",
"a c #7F93A6",
"s c #A4988E",
"d c #A4998E",
"f c #A49A8E",
"g c #9CA7B1",
"h c #A3A4A5",
"j c #AAAAAA",
"k c #EFBF9D",
"l c #F8C196",
"z c #F9C49D",
"x c #FAC59D",
"c c #F9C69E",
"v c #F9CAA1",
"b c #F8D5B6",
"n c #C1C4C7",
"m c #F8E7D9",
"M c #C9E0F2",
"N c #D8E7F5",
"B c #F9F6F3",
"V c #F2F6FB",
"C c #FDFEFE",
"Z c #FFFEFE",
"A c None",
/* pixels */
"AAAAAAACCjAAAA",
"AAyVhnVweeeeeA",
"AAiiigvvvvvvv4",
"AApppaN3zxxxxk",
"AAMMMM0000000q",
"A%OOO$11111115",
"AAXXX&;;;;;;;A",
"AA   *ZZZZZ**A",
"AA...s=----B-A",
"AAoo@d:999:m>A",
"AA++uf<bbb,b6A",
"AA##t2lllllc7A",
"AArrr88888888A",
"AAAAAAAAAAAAAA"
};
