/* XPM */
static char *mini_mutt[] = {
/* columns rows colors chars-per-pixel */
"14 14 55 1 ",
"  c black",
". c #050505",
"X c #060606",
"o c #090909",
"O c #0B0B0B",
"+ c #0E0E0E",
"@ c #1B1B1B",
"# c #242424",
"$ c #282828",
"% c #2E2E2E",
"& c gray20",
"* c #450045",
"= c #424242",
"- c #515151",
"; c gray35",
": c #676767",
"> c #7A7A7A",
", c #7C7C7C",
"< c #AF0000",
"1 c #CD0000",
"2 c #EA0000",
"3 c #F826F8",
"4 c #FF5CFF",
"5 c #929292",
"6 c #939393",
"7 c #979797",
"8 c #989898",
"9 c #999999",
"0 c #9C9C9C",
"q c #A0A0A0",
"w c #A1A1A1",
"e c #A2A2A2",
"r c #A3A3A3",
"t c #A5A5A5",
"y c #A6A6A6",
"u c #A7A7A7",
"i c #A8A8A8",
"p c #A9A9A9",
"a c #AAAAAA",
"s c #ABABAB",
"d c #ADADAD",
"f c #AEAEAE",
"g c #AFAFAF",
"h c #B4B4B4",
"j c #B5B5B5",
"k c #B6B6B6",
"l c #B7B7B7",
"z c #B8B8B8",
"x c #BABABA",
"c c #FFBDFF",
"v c #C0C0C0",
"b c #C1C1C1",
"n c #C3C3C3",
"m c #C8C8C8",
"M c None",
/* pixels */
"MMMMMMMMMM MMM",
"MMMMMMMM+8MMMM",
"MMMMMMMMa= 7MM",
"MM$MMMM jb:MMM",
"M #MMMMwlm-MMM",
"M 9MMMo0gzfc4M",
"MMq M 26eiw3*M",
"MMthnmx1675;MM",
"M yhvbju<>&MMM",
"M rgkjdq MMMMM",
"MMwespe  MMMMM",
"M.e  Mq    MMM",
"Meeee%qqq  MMM",
"MX,,  @+O  MMM"
};
