/* XPM */
static char *mini_xchat[] = {
/* columns rows colors chars-per-pixel */
"14 14 65 1 ",
"  c #020202",
". c gray3",
"X c #131313",
"o c #121516",
"O c #1C1716",
"+ c #1E1E1E",
"@ c #211A19",
"# c #191F21",
"$ c #162021",
"% c #232323",
"& c #262626",
"* c #272727",
"= c #282828",
"- c #2E2E2E",
"; c #203032",
": c #263B3E",
"> c #353535",
", c #3B3B3B",
"< c #7C3209",
"1 c #283E41",
"2 c #414141",
"3 c #464646",
"4 c #4A4A4A",
"5 c #646464",
"6 c #6D6D6D",
"7 c #7F7F7F",
"8 c #E41E00",
"9 c #C83900",
"0 c #E62300",
"q c #E62800",
"w c #E83100",
"e c #E83200",
"r c #884815",
"t c #EA4200",
"y c #EA4300",
"u c #ED5000",
"i c #ED5600",
"p c #F27E00",
"a c #F27F00",
"s c #F59100",
"d c #F59300",
"f c #F89A00",
"g c #F99611",
"h c #F8A400",
"j c #F8A600",
"k c #FAAB00",
"l c #FAB600",
"z c #FAB900",
"x c #FCBA00",
"c c #FEBD00",
"v c #FCBF00",
"b c #FBA411",
"n c #FCB111",
"m c #FEB911",
"M c #FCC700",
"N c #FCCA00",
"B c #808080",
"V c #B0B0B0",
"C c #BDBDBD",
"Z c #D1D1D1",
"A c #E8E8E8",
"S c #EEEEEE",
"D c #F7F7F7",
"F c white",
"G c None",
/* pixels */
"GGGGGGGGGGGGGG",
"GG3mGGGGGGc4GG",
"G2MNnGGGGxNv4G",
"G=zzzbGGkzzl,G",
"GG%jjjgfjjh>GG",
"GGG+ddddds-GGG",
"GGGGFaaap&5GFG",
"CSZBDZDrDZAGD*",
"VXGuAiA<Ai7GAG",
"G66y6t6.569  G",
"Gqeew#GGoeeeOG",
"GG80;GGGG$0@GG",
"GGG1GGGGGG:GGG",
"GGGGGGGGGGGGGG"
};
