/* XPM */
static char *mini_torrent[] = {
/* columns rows colors chars-per-pixel */
"14 14 85 1 ",
"  c black",
". c #262525",
"X c #2C2C2C",
"o c #510000",
"O c #750000",
"+ c #414040",
"@ c gray26",
"# c #464747",
"$ c gray29",
"% c #4E4E4D",
"& c #4F4E4E",
"* c #525252",
"= c #545454",
"- c #565656",
"; c #595757",
": c #5A595A",
"> c #5D5E5D",
", c #5E5E5D",
"< c #606060",
"1 c #636463",
"2 c #656565",
"3 c #686868",
"4 c #6A6A6A",
"5 c gray42",
"6 c #6D6D6D",
"7 c #6F6E6F",
"8 c #717271",
"9 c #767676",
"0 c #797979",
"q c #7B7A7A",
"w c #7C7C7C",
"e c #7F7F7F",
"r c #8B0000",
"t c #8E0000",
"y c #8F0000",
"u c #930000",
"i c #A50000",
"p c #AC0000",
"a c #B60000",
"s c #BB0000",
"d c #BC0000",
"f c #BD0000",
"g c #C50000",
"h c #808080",
"j c #818181",
"k c #858484",
"l c #848485",
"z c #858685",
"x c #8F8F8F",
"c c #909090",
"v c #979797",
"b c #9E9E9E",
"n c #A4A4A4",
"m c #A7A7A7",
"M c #AFAFAF",
"N c #AFB0B0",
"B c #B0B0B0",
"V c #B1B1B1",
"C c #B2B2B2",
"Z c #B6B6B6",
"A c #C2C1C1",
"S c #C2C0C2",
"D c #C2C2C2",
"F c #C2C3C2",
"G c #C4C4C5",
"H c #C5C4C5",
"J c #C5C5C5",
"K c #C7C7C7",
"L c #C8C8C8",
"P c #C9C8C9",
"I c gray79",
"U c #CCCCCC",
"Y c #CFD0CF",
"T c #D3D2D2",
"R c #D5D5D5",
"E c #D8D8D8",
"W c #DBDCDC",
"Q c #DFE0DF",
"! c #E7E7E7",
"~ c #ECECEC",
"^ c #EFEFEF",
"/ c #F0F1F0",
"( c #FAFAFA",
") c white",
"_ c None",
/* pixels */
"______tgs_____",
"____oVRpd_____",
"__iuf(mr______",
"_MayOv<04%____",
"____*$@RU,____",
"__5wXCebIN>___",
"__l/) BnHDc=__",
"__4vQ~h2FGK-__",
"___8KJDx+ERb:_",
"___1SAL&.)^z<_",
"____6JY!)Wjq__",
"____7PT#cZ____",
"____;39j______",
"_____k________"
};
