/* XPM */
static char * pin_xpm[] = {
"14 13 4 1",
" 	c None",
".	c #B8B8B8",
"+	c #F8F8F8",
"@	c #606460",
"        +++   ",
"     +++...+@ ",
"   ++.+.....@ ",
"  +..+.......@",
"  +..+.......@",
" +...+.......@",
" +...++.....@ ",
" +....@@...@@ ",
" ++...@@@@@@@ ",
"  +.....@@@@  ",
"  +@@....@@@  ",
" +@@@@@@@@@   ",
" @@  @@@@     "};
